M48
; DRILL file {KiCad (5.1.5)-3} date 06/18/20 20:32:14
; FORMAT={-:-/ absolute / metric / decimal}
; #@! TF.CreationDate,2020-06-18T20:32:14+02:00
; #@! TF.GenerationSoftware,Kicad,Pcbnew,(5.1.5)-3
; #@! TF.FileFunction,Plated,1,2,PTH
FMAT,2
METRIC
T1C0.300
T2C0.600
T3C0.700
T4C0.750
T5C0.760
T6C0.800
T7C0.900
T8C1.016
T9C1.200
T10C1.400
T11C1.700
T12C1.900
%
G90
G05
T1
X110.807Y-74.041
X117.792Y-88.392
X121.666Y-70.739
X128.714Y-104.331
X103.19Y-101.63
X115.84Y-102.1
T2
X62.357Y-114.3
X63.857Y-114.3
X62.444Y-99.885
X63.944Y-99.885
T3
X70.485Y-88.133
X74.295Y-81.534
X84.01Y-81.09
X90.61Y-84.899
X59.372Y-109.982
X66.992Y-109.982
X117.792Y-119.697
X125.412Y-119.697
X85.407Y-78.613
X92.007Y-82.423
X104.267Y-69.537
X108.077Y-76.136
X131.306Y-80.483
X135.116Y-87.083
X70.866Y-94.298
X70.866Y-101.918
X73.279Y-114.232
X77.089Y-107.632
X73.215Y-94.297
X73.215Y-101.917
X123.767Y-100.012
X130.366Y-96.203
X128.842Y-81.92
X132.652Y-88.519
X134.556Y-121.158
X142.177Y-121.158
X125.095Y-105.986
X128.905Y-112.585
X81.026Y-80.132
X84.836Y-73.533
T4
X87.45Y-71.834
X89.182Y-70.834
X90.914Y-69.834
X92.646Y-68.834
T5
X77.447Y-137.486
X79.647Y-138.756
X81.846Y-140.026
T6
X61.849Y-81.852
X64.349Y-77.521
X123.38Y-69.486
X123.38Y-74.486
X68.263Y-85.471
X70.763Y-81.141
X68.644Y-122.301
X73.644Y-122.301
X134.492Y-102.68
X134.492Y-105.22
X134.492Y-107.76
X134.492Y-110.3
X134.492Y-112.84
X134.492Y-115.38
X134.492Y-117.92
X142.112Y-102.68
X142.112Y-105.22
X142.112Y-107.76
X142.112Y-110.3
X142.112Y-112.84
X142.112Y-115.38
X142.112Y-117.92
X113.093Y-72.581
X118.093Y-72.581
X65.151Y-83.757
X67.651Y-79.426
X134.43Y-90.995
X134.43Y-93.535
X134.43Y-96.075
X134.43Y-98.615
X142.05Y-90.995
X142.05Y-93.535
X142.05Y-96.075
X142.05Y-98.615
X59.499Y-103.822
X59.499Y-106.362
X67.12Y-103.822
X67.12Y-106.362
X59.436Y-88.456
X59.436Y-90.995
X59.436Y-93.535
X59.436Y-96.075
X67.056Y-88.456
X67.056Y-90.995
X67.056Y-93.535
X67.056Y-96.075
T7
X77.029Y-102.831
X77.47Y-100.33
X112.36Y-123.2
X114.747Y-122.331
X74.656Y-61.039
X76.306Y-63.897
X76.821Y-59.789
X78.471Y-62.647
X78.986Y-58.539
X80.636Y-61.397
X112.326Y-79.702
X114.3Y-81.3
T8
X99.06Y-137.16
X99.06Y-139.7
X101.6Y-137.16
X101.6Y-139.7
X104.14Y-137.16
X104.14Y-139.7
T9
X75.482Y-93.825
X79.812Y-96.325
X81.732Y-82.999
X86.062Y-85.499
X95.35Y-123.23
X95.35Y-128.23
X107.85Y-123.23
X107.85Y-128.23
X117.138Y-85.499
X121.468Y-82.999
X123.388Y-96.325
X127.718Y-93.825
T10
X90.043Y-121.793
X90.043Y-142.113
T11
X114.11Y-59.618
T12
X97.85Y-56.682
X97.85Y-61.682
X105.35Y-56.682
X105.35Y-61.682
T6
G00X84.585Y-58.325
M15
G01X84.585Y-56.825
M16
G05
G00X84.985Y-65.475
M15
G01X84.985Y-64.275
M16
G05
G00X88.385Y-65.475
M15
G01X88.385Y-64.275
M16
G05
G00X93.585Y-65.475
M15
G01X93.585Y-64.275
M16
G05
G00X94.485Y-58.325
M15
G01X94.485Y-56.825
M16
G05
G00X109.11Y-64.018
M15
G01X109.11Y-65.218
M16
G05
G00X119.11Y-64.018
M15
G01X119.11Y-65.218
M16
G05
T0
M30
