G04 #@! TF.GenerationSoftware,KiCad,Pcbnew,(5.1.5)-3*
G04 #@! TF.CreationDate,2020-06-18T20:32:11+02:00*
G04 #@! TF.ProjectId,psithemius,70736974-6865-46d6-9975-732e6b696361,12*
G04 #@! TF.SameCoordinates,Original*
G04 #@! TF.FileFunction,Legend,Top*
G04 #@! TF.FilePolarity,Positive*
%FSLAX46Y46*%
G04 Gerber Fmt 4.6, Leading zero omitted, Abs format (unit mm)*
G04 Created by KiCad (PCBNEW (5.1.5)-3) date 2020-06-18 20:32:11*
%MOMM*%
%LPD*%
G04 APERTURE LIST*
%ADD10C,0.100000*%
%ADD11C,0.150000*%
%ADD12C,0.300000*%
%ADD13C,0.400000*%
%ADD14C,0.200000*%
%ADD15C,0.127000*%
%ADD16C,0.120000*%
%ADD17C,0.254000*%
%ADD18C,0.015000*%
G04 APERTURE END LIST*
D10*
D11*
X177002200Y-166007200D02*
X177002200Y-198007200D01*
X285002200Y-198007200D01*
X285002200Y-166007200D01*
X177002200Y-166007200D01*
D10*
D11*
X10000000Y-10000000D02*
X10000000Y-200007200D01*
X287002200Y-200007200D01*
X287002200Y-10000000D01*
X10000000Y-10000000D01*
D10*
D11*
X12000000Y-12000000D02*
X12000000Y-198007200D01*
X285002200Y-198007200D01*
X285002200Y-12000000D01*
X12000000Y-12000000D01*
D10*
D11*
X60000000Y-12000000D02*
X60000000Y-10000000D01*
D10*
D11*
X110000000Y-12000000D02*
X110000000Y-10000000D01*
D10*
D11*
X160000000Y-12000000D02*
X160000000Y-10000000D01*
D10*
D11*
X210000000Y-12000000D02*
X210000000Y-10000000D01*
D10*
D11*
X260000000Y-12000000D02*
X260000000Y-10000000D01*
D10*
D11*
X36065476Y-11588095D02*
X35322619Y-11588095D01*
X35694047Y-11588095D02*
X35694047Y-10288095D01*
X35570238Y-10473809D01*
X35446428Y-10597619D01*
X35322619Y-10659523D01*
D10*
D11*
X85322619Y-10411904D02*
X85384523Y-10350000D01*
X85508333Y-10288095D01*
X85817857Y-10288095D01*
X85941666Y-10350000D01*
X86003571Y-10411904D01*
X86065476Y-10535714D01*
X86065476Y-10659523D01*
X86003571Y-10845238D01*
X85260714Y-11588095D01*
X86065476Y-11588095D01*
D10*
D11*
X135260714Y-10288095D02*
X136065476Y-10288095D01*
X135632142Y-10783333D01*
X135817857Y-10783333D01*
X135941666Y-10845238D01*
X136003571Y-10907142D01*
X136065476Y-11030952D01*
X136065476Y-11340476D01*
X136003571Y-11464285D01*
X135941666Y-11526190D01*
X135817857Y-11588095D01*
X135446428Y-11588095D01*
X135322619Y-11526190D01*
X135260714Y-11464285D01*
D10*
D11*
X185941666Y-10721428D02*
X185941666Y-11588095D01*
X185632142Y-10226190D02*
X185322619Y-11154761D01*
X186127380Y-11154761D01*
D10*
D11*
X236003571Y-10288095D02*
X235384523Y-10288095D01*
X235322619Y-10907142D01*
X235384523Y-10845238D01*
X235508333Y-10783333D01*
X235817857Y-10783333D01*
X235941666Y-10845238D01*
X236003571Y-10907142D01*
X236065476Y-11030952D01*
X236065476Y-11340476D01*
X236003571Y-11464285D01*
X235941666Y-11526190D01*
X235817857Y-11588095D01*
X235508333Y-11588095D01*
X235384523Y-11526190D01*
X235322619Y-11464285D01*
D10*
D11*
X285941666Y-10288095D02*
X285694047Y-10288095D01*
X285570238Y-10350000D01*
X285508333Y-10411904D01*
X285384523Y-10597619D01*
X285322619Y-10845238D01*
X285322619Y-11340476D01*
X285384523Y-11464285D01*
X285446428Y-11526190D01*
X285570238Y-11588095D01*
X285817857Y-11588095D01*
X285941666Y-11526190D01*
X286003571Y-11464285D01*
X286065476Y-11340476D01*
X286065476Y-11030952D01*
X286003571Y-10907142D01*
X285941666Y-10845238D01*
X285817857Y-10783333D01*
X285570238Y-10783333D01*
X285446428Y-10845238D01*
X285384523Y-10907142D01*
X285322619Y-11030952D01*
D10*
D11*
X60000000Y-198007200D02*
X60000000Y-200007200D01*
D10*
D11*
X110000000Y-198007200D02*
X110000000Y-200007200D01*
D10*
D11*
X160000000Y-198007200D02*
X160000000Y-200007200D01*
D10*
D11*
X210000000Y-198007200D02*
X210000000Y-200007200D01*
D10*
D11*
X260000000Y-198007200D02*
X260000000Y-200007200D01*
D10*
D11*
X36065476Y-199595295D02*
X35322619Y-199595295D01*
X35694047Y-199595295D02*
X35694047Y-198295295D01*
X35570238Y-198481009D01*
X35446428Y-198604819D01*
X35322619Y-198666723D01*
D10*
D11*
X85322619Y-198419104D02*
X85384523Y-198357200D01*
X85508333Y-198295295D01*
X85817857Y-198295295D01*
X85941666Y-198357200D01*
X86003571Y-198419104D01*
X86065476Y-198542914D01*
X86065476Y-198666723D01*
X86003571Y-198852438D01*
X85260714Y-199595295D01*
X86065476Y-199595295D01*
D10*
D11*
X135260714Y-198295295D02*
X136065476Y-198295295D01*
X135632142Y-198790533D01*
X135817857Y-198790533D01*
X135941666Y-198852438D01*
X136003571Y-198914342D01*
X136065476Y-199038152D01*
X136065476Y-199347676D01*
X136003571Y-199471485D01*
X135941666Y-199533390D01*
X135817857Y-199595295D01*
X135446428Y-199595295D01*
X135322619Y-199533390D01*
X135260714Y-199471485D01*
D10*
D11*
X185941666Y-198728628D02*
X185941666Y-199595295D01*
X185632142Y-198233390D02*
X185322619Y-199161961D01*
X186127380Y-199161961D01*
D10*
D11*
X236003571Y-198295295D02*
X235384523Y-198295295D01*
X235322619Y-198914342D01*
X235384523Y-198852438D01*
X235508333Y-198790533D01*
X235817857Y-198790533D01*
X235941666Y-198852438D01*
X236003571Y-198914342D01*
X236065476Y-199038152D01*
X236065476Y-199347676D01*
X236003571Y-199471485D01*
X235941666Y-199533390D01*
X235817857Y-199595295D01*
X235508333Y-199595295D01*
X235384523Y-199533390D01*
X235322619Y-199471485D01*
D10*
D11*
X285941666Y-198295295D02*
X285694047Y-198295295D01*
X285570238Y-198357200D01*
X285508333Y-198419104D01*
X285384523Y-198604819D01*
X285322619Y-198852438D01*
X285322619Y-199347676D01*
X285384523Y-199471485D01*
X285446428Y-199533390D01*
X285570238Y-199595295D01*
X285817857Y-199595295D01*
X285941666Y-199533390D01*
X286003571Y-199471485D01*
X286065476Y-199347676D01*
X286065476Y-199038152D01*
X286003571Y-198914342D01*
X285941666Y-198852438D01*
X285817857Y-198790533D01*
X285570238Y-198790533D01*
X285446428Y-198852438D01*
X285384523Y-198914342D01*
X285322619Y-199038152D01*
D10*
D11*
X10000000Y-60000000D02*
X12000000Y-60000000D01*
D10*
D11*
X10000000Y-110000000D02*
X12000000Y-110000000D01*
D10*
D11*
X10000000Y-160000000D02*
X12000000Y-160000000D01*
D10*
D11*
X10690476Y-35216666D02*
X11309523Y-35216666D01*
X10566666Y-35588095D02*
X11000000Y-34288095D01*
X11433333Y-35588095D01*
D10*
D11*
X11092857Y-84907142D02*
X11278571Y-84969047D01*
X11340476Y-85030952D01*
X11402380Y-85154761D01*
X11402380Y-85340476D01*
X11340476Y-85464285D01*
X11278571Y-85526190D01*
X11154761Y-85588095D01*
X10659523Y-85588095D01*
X10659523Y-84288095D01*
X11092857Y-84288095D01*
X11216666Y-84350000D01*
X11278571Y-84411904D01*
X11340476Y-84535714D01*
X11340476Y-84659523D01*
X11278571Y-84783333D01*
X11216666Y-84845238D01*
X11092857Y-84907142D01*
X10659523Y-84907142D01*
D10*
D11*
X11402380Y-135464285D02*
X11340476Y-135526190D01*
X11154761Y-135588095D01*
X11030952Y-135588095D01*
X10845238Y-135526190D01*
X10721428Y-135402380D01*
X10659523Y-135278571D01*
X10597619Y-135030952D01*
X10597619Y-134845238D01*
X10659523Y-134597619D01*
X10721428Y-134473809D01*
X10845238Y-134350000D01*
X11030952Y-134288095D01*
X11154761Y-134288095D01*
X11340476Y-134350000D01*
X11402380Y-134411904D01*
D10*
D11*
X10659523Y-185588095D02*
X10659523Y-184288095D01*
X10969047Y-184288095D01*
X11154761Y-184350000D01*
X11278571Y-184473809D01*
X11340476Y-184597619D01*
X11402380Y-184845238D01*
X11402380Y-185030952D01*
X11340476Y-185278571D01*
X11278571Y-185402380D01*
X11154761Y-185526190D01*
X10969047Y-185588095D01*
X10659523Y-185588095D01*
D10*
D11*
X287002200Y-60000000D02*
X285002200Y-60000000D01*
D10*
D11*
X287002200Y-110000000D02*
X285002200Y-110000000D01*
D10*
D11*
X287002200Y-160000000D02*
X285002200Y-160000000D01*
D10*
D11*
X285692676Y-35216666D02*
X286311723Y-35216666D01*
X285568866Y-35588095D02*
X286002200Y-34288095D01*
X286435533Y-35588095D01*
D10*
D11*
X286095057Y-84907142D02*
X286280771Y-84969047D01*
X286342676Y-85030952D01*
X286404580Y-85154761D01*
X286404580Y-85340476D01*
X286342676Y-85464285D01*
X286280771Y-85526190D01*
X286156961Y-85588095D01*
X285661723Y-85588095D01*
X285661723Y-84288095D01*
X286095057Y-84288095D01*
X286218866Y-84350000D01*
X286280771Y-84411904D01*
X286342676Y-84535714D01*
X286342676Y-84659523D01*
X286280771Y-84783333D01*
X286218866Y-84845238D01*
X286095057Y-84907142D01*
X285661723Y-84907142D01*
D10*
D11*
X286404580Y-135464285D02*
X286342676Y-135526190D01*
X286156961Y-135588095D01*
X286033152Y-135588095D01*
X285847438Y-135526190D01*
X285723628Y-135402380D01*
X285661723Y-135278571D01*
X285599819Y-135030952D01*
X285599819Y-134845238D01*
X285661723Y-134597619D01*
X285723628Y-134473809D01*
X285847438Y-134350000D01*
X286033152Y-134288095D01*
X286156961Y-134288095D01*
X286342676Y-134350000D01*
X286404580Y-134411904D01*
D10*
D11*
X285661723Y-185588095D02*
X285661723Y-184288095D01*
X285971247Y-184288095D01*
X286156961Y-184350000D01*
X286280771Y-184473809D01*
X286342676Y-184597619D01*
X286404580Y-184845238D01*
X286404580Y-185030952D01*
X286342676Y-185278571D01*
X286280771Y-185402380D01*
X286156961Y-185526190D01*
X285971247Y-185588095D01*
X285661723Y-185588095D01*
D10*
D11*
X200434342Y-193785771D02*
X200434342Y-192285771D01*
X200791485Y-192285771D01*
X201005771Y-192357200D01*
X201148628Y-192500057D01*
X201220057Y-192642914D01*
X201291485Y-192928628D01*
X201291485Y-193142914D01*
X201220057Y-193428628D01*
X201148628Y-193571485D01*
X201005771Y-193714342D01*
X200791485Y-193785771D01*
X200434342Y-193785771D01*
X202577200Y-193785771D02*
X202577200Y-193000057D01*
X202505771Y-192857200D01*
X202362914Y-192785771D01*
X202077200Y-192785771D01*
X201934342Y-192857200D01*
X202577200Y-193714342D02*
X202434342Y-193785771D01*
X202077200Y-193785771D01*
X201934342Y-193714342D01*
X201862914Y-193571485D01*
X201862914Y-193428628D01*
X201934342Y-193285771D01*
X202077200Y-193214342D01*
X202434342Y-193214342D01*
X202577200Y-193142914D01*
X203077200Y-192785771D02*
X203648628Y-192785771D01*
X203291485Y-192285771D02*
X203291485Y-193571485D01*
X203362914Y-193714342D01*
X203505771Y-193785771D01*
X203648628Y-193785771D01*
X204720057Y-193714342D02*
X204577200Y-193785771D01*
X204291485Y-193785771D01*
X204148628Y-193714342D01*
X204077200Y-193571485D01*
X204077200Y-193000057D01*
X204148628Y-192857200D01*
X204291485Y-192785771D01*
X204577200Y-192785771D01*
X204720057Y-192857200D01*
X204791485Y-193000057D01*
X204791485Y-193142914D01*
X204077200Y-193285771D01*
X205434342Y-193642914D02*
X205505771Y-193714342D01*
X205434342Y-193785771D01*
X205362914Y-193714342D01*
X205434342Y-193642914D01*
X205434342Y-193785771D01*
X205434342Y-192857200D02*
X205505771Y-192928628D01*
X205434342Y-193000057D01*
X205362914Y-192928628D01*
X205434342Y-192857200D01*
X205434342Y-193000057D01*
X207220057Y-192428628D02*
X207291485Y-192357200D01*
X207434342Y-192285771D01*
X207791485Y-192285771D01*
X207934342Y-192357200D01*
X208005771Y-192428628D01*
X208077200Y-192571485D01*
X208077200Y-192714342D01*
X208005771Y-192928628D01*
X207148628Y-193785771D01*
X208077200Y-193785771D01*
X209005771Y-192285771D02*
X209148628Y-192285771D01*
X209291485Y-192357200D01*
X209362914Y-192428628D01*
X209434342Y-192571485D01*
X209505771Y-192857200D01*
X209505771Y-193214342D01*
X209434342Y-193500057D01*
X209362914Y-193642914D01*
X209291485Y-193714342D01*
X209148628Y-193785771D01*
X209005771Y-193785771D01*
X208862914Y-193714342D01*
X208791485Y-193642914D01*
X208720057Y-193500057D01*
X208648628Y-193214342D01*
X208648628Y-192857200D01*
X208720057Y-192571485D01*
X208791485Y-192428628D01*
X208862914Y-192357200D01*
X209005771Y-192285771D01*
X210077200Y-192428628D02*
X210148628Y-192357200D01*
X210291485Y-192285771D01*
X210648628Y-192285771D01*
X210791485Y-192357200D01*
X210862914Y-192428628D01*
X210934342Y-192571485D01*
X210934342Y-192714342D01*
X210862914Y-192928628D01*
X210005771Y-193785771D01*
X210934342Y-193785771D01*
X211862914Y-192285771D02*
X212005771Y-192285771D01*
X212148628Y-192357200D01*
X212220057Y-192428628D01*
X212291485Y-192571485D01*
X212362914Y-192857200D01*
X212362914Y-193214342D01*
X212291485Y-193500057D01*
X212220057Y-193642914D01*
X212148628Y-193714342D01*
X212005771Y-193785771D01*
X211862914Y-193785771D01*
X211720057Y-193714342D01*
X211648628Y-193642914D01*
X211577200Y-193500057D01*
X211505771Y-193214342D01*
X211505771Y-192857200D01*
X211577200Y-192571485D01*
X211648628Y-192428628D01*
X211720057Y-192357200D01*
X211862914Y-192285771D01*
X213005771Y-193214342D02*
X214148628Y-193214342D01*
X215148628Y-192285771D02*
X215291485Y-192285771D01*
X215434342Y-192357200D01*
X215505771Y-192428628D01*
X215577200Y-192571485D01*
X215648628Y-192857200D01*
X215648628Y-193214342D01*
X215577200Y-193500057D01*
X215505771Y-193642914D01*
X215434342Y-193714342D01*
X215291485Y-193785771D01*
X215148628Y-193785771D01*
X215005771Y-193714342D01*
X214934342Y-193642914D01*
X214862914Y-193500057D01*
X214791485Y-193214342D01*
X214791485Y-192857200D01*
X214862914Y-192571485D01*
X214934342Y-192428628D01*
X215005771Y-192357200D01*
X215148628Y-192285771D01*
X216934342Y-192285771D02*
X216648628Y-192285771D01*
X216505771Y-192357200D01*
X216434342Y-192428628D01*
X216291485Y-192642914D01*
X216220057Y-192928628D01*
X216220057Y-193500057D01*
X216291485Y-193642914D01*
X216362914Y-193714342D01*
X216505771Y-193785771D01*
X216791485Y-193785771D01*
X216934342Y-193714342D01*
X217005771Y-193642914D01*
X217077200Y-193500057D01*
X217077200Y-193142914D01*
X217005771Y-193000057D01*
X216934342Y-192928628D01*
X216791485Y-192857200D01*
X216505771Y-192857200D01*
X216362914Y-192928628D01*
X216291485Y-193000057D01*
X216220057Y-193142914D01*
X217720057Y-193214342D02*
X218862914Y-193214342D01*
X220362914Y-193785771D02*
X219505771Y-193785771D01*
X219934342Y-193785771D02*
X219934342Y-192285771D01*
X219791485Y-192500057D01*
X219648628Y-192642914D01*
X219505771Y-192714342D01*
X221220057Y-192928628D02*
X221077200Y-192857200D01*
X221005771Y-192785771D01*
X220934342Y-192642914D01*
X220934342Y-192571485D01*
X221005771Y-192428628D01*
X221077200Y-192357200D01*
X221220057Y-192285771D01*
X221505771Y-192285771D01*
X221648628Y-192357200D01*
X221720057Y-192428628D01*
X221791485Y-192571485D01*
X221791485Y-192642914D01*
X221720057Y-192785771D01*
X221648628Y-192857200D01*
X221505771Y-192928628D01*
X221220057Y-192928628D01*
X221077200Y-193000057D01*
X221005771Y-193071485D01*
X220934342Y-193214342D01*
X220934342Y-193500057D01*
X221005771Y-193642914D01*
X221077200Y-193714342D01*
X221220057Y-193785771D01*
X221505771Y-193785771D01*
X221648628Y-193714342D01*
X221720057Y-193642914D01*
X221791485Y-193500057D01*
X221791485Y-193214342D01*
X221720057Y-193071485D01*
X221648628Y-193000057D01*
X221505771Y-192928628D01*
D10*
D11*
X177002200Y-194507200D02*
X285002200Y-194507200D01*
D10*
D11*
X178434342Y-196585771D02*
X178434342Y-195085771D01*
X179291485Y-196585771D02*
X178648628Y-195728628D01*
X179291485Y-195085771D02*
X178434342Y-195942914D01*
X179934342Y-196585771D02*
X179934342Y-195585771D01*
X179934342Y-195085771D02*
X179862914Y-195157200D01*
X179934342Y-195228628D01*
X180005771Y-195157200D01*
X179934342Y-195085771D01*
X179934342Y-195228628D01*
X181505771Y-196442914D02*
X181434342Y-196514342D01*
X181220057Y-196585771D01*
X181077200Y-196585771D01*
X180862914Y-196514342D01*
X180720057Y-196371485D01*
X180648628Y-196228628D01*
X180577200Y-195942914D01*
X180577200Y-195728628D01*
X180648628Y-195442914D01*
X180720057Y-195300057D01*
X180862914Y-195157200D01*
X181077200Y-195085771D01*
X181220057Y-195085771D01*
X181434342Y-195157200D01*
X181505771Y-195228628D01*
X182791485Y-196585771D02*
X182791485Y-195800057D01*
X182720057Y-195657200D01*
X182577200Y-195585771D01*
X182291485Y-195585771D01*
X182148628Y-195657200D01*
X182791485Y-196514342D02*
X182648628Y-196585771D01*
X182291485Y-196585771D01*
X182148628Y-196514342D01*
X182077200Y-196371485D01*
X182077200Y-196228628D01*
X182148628Y-196085771D01*
X182291485Y-196014342D01*
X182648628Y-196014342D01*
X182791485Y-195942914D01*
X184148628Y-196585771D02*
X184148628Y-195085771D01*
X184148628Y-196514342D02*
X184005771Y-196585771D01*
X183720057Y-196585771D01*
X183577200Y-196514342D01*
X183505771Y-196442914D01*
X183434342Y-196300057D01*
X183434342Y-195871485D01*
X183505771Y-195728628D01*
X183577200Y-195657200D01*
X183720057Y-195585771D01*
X184005771Y-195585771D01*
X184148628Y-195657200D01*
X186005771Y-195800057D02*
X186505771Y-195800057D01*
X186720057Y-196585771D02*
X186005771Y-196585771D01*
X186005771Y-195085771D01*
X186720057Y-195085771D01*
X187362914Y-196442914D02*
X187434342Y-196514342D01*
X187362914Y-196585771D01*
X187291485Y-196514342D01*
X187362914Y-196442914D01*
X187362914Y-196585771D01*
X188077200Y-196585771D02*
X188077200Y-195085771D01*
X188434342Y-195085771D01*
X188648628Y-195157200D01*
X188791485Y-195300057D01*
X188862914Y-195442914D01*
X188934342Y-195728628D01*
X188934342Y-195942914D01*
X188862914Y-196228628D01*
X188791485Y-196371485D01*
X188648628Y-196514342D01*
X188434342Y-196585771D01*
X188077200Y-196585771D01*
X189577200Y-196442914D02*
X189648628Y-196514342D01*
X189577200Y-196585771D01*
X189505771Y-196514342D01*
X189577200Y-196442914D01*
X189577200Y-196585771D01*
X190220057Y-196157200D02*
X190934342Y-196157200D01*
X190077200Y-196585771D02*
X190577200Y-195085771D01*
X191077200Y-196585771D01*
X191577200Y-196442914D02*
X191648628Y-196514342D01*
X191577200Y-196585771D01*
X191505771Y-196514342D01*
X191577200Y-196442914D01*
X191577200Y-196585771D01*
X194577200Y-196585771D02*
X194577200Y-195085771D01*
X194720057Y-196014342D02*
X195148628Y-196585771D01*
X195148628Y-195585771D02*
X194577200Y-196157200D01*
X195791485Y-196585771D02*
X195791485Y-195585771D01*
X195791485Y-195085771D02*
X195720057Y-195157200D01*
X195791485Y-195228628D01*
X195862914Y-195157200D01*
X195791485Y-195085771D01*
X195791485Y-195228628D01*
X197148628Y-196514342D02*
X197005771Y-196585771D01*
X196720057Y-196585771D01*
X196577200Y-196514342D01*
X196505771Y-196442914D01*
X196434342Y-196300057D01*
X196434342Y-195871485D01*
X196505771Y-195728628D01*
X196577200Y-195657200D01*
X196720057Y-195585771D01*
X197005771Y-195585771D01*
X197148628Y-195657200D01*
X198434342Y-196585771D02*
X198434342Y-195800057D01*
X198362914Y-195657200D01*
X198220057Y-195585771D01*
X197934342Y-195585771D01*
X197791485Y-195657200D01*
X198434342Y-196514342D02*
X198291485Y-196585771D01*
X197934342Y-196585771D01*
X197791485Y-196514342D01*
X197720057Y-196371485D01*
X197720057Y-196228628D01*
X197791485Y-196085771D01*
X197934342Y-196014342D01*
X198291485Y-196014342D01*
X198434342Y-195942914D01*
X199791485Y-196585771D02*
X199791485Y-195085771D01*
X199791485Y-196514342D02*
X199648628Y-196585771D01*
X199362914Y-196585771D01*
X199220057Y-196514342D01*
X199148628Y-196442914D01*
X199077200Y-196300057D01*
X199077200Y-195871485D01*
X199148628Y-195728628D01*
X199220057Y-195657200D01*
X199362914Y-195585771D01*
X199648628Y-195585771D01*
X199791485Y-195657200D01*
X202077200Y-197157200D02*
X202005771Y-197085771D01*
X201862914Y-196871485D01*
X201791485Y-196728628D01*
X201720057Y-196514342D01*
X201648628Y-196157200D01*
X201648628Y-195871485D01*
X201720057Y-195514342D01*
X201791485Y-195300057D01*
X201862914Y-195157200D01*
X202005771Y-194942914D01*
X202077200Y-194871485D01*
X203362914Y-195085771D02*
X202648628Y-195085771D01*
X202577200Y-195800057D01*
X202648628Y-195728628D01*
X202791485Y-195657200D01*
X203148628Y-195657200D01*
X203291485Y-195728628D01*
X203362914Y-195800057D01*
X203434342Y-195942914D01*
X203434342Y-196300057D01*
X203362914Y-196442914D01*
X203291485Y-196514342D01*
X203148628Y-196585771D01*
X202791485Y-196585771D01*
X202648628Y-196514342D01*
X202577200Y-196442914D01*
X204077200Y-196442914D02*
X204148628Y-196514342D01*
X204077200Y-196585771D01*
X204005771Y-196514342D01*
X204077200Y-196442914D01*
X204077200Y-196585771D01*
X205577200Y-196585771D02*
X204720057Y-196585771D01*
X205148628Y-196585771D02*
X205148628Y-195085771D01*
X205005771Y-195300057D01*
X204862914Y-195442914D01*
X204720057Y-195514342D01*
X206220057Y-196442914D02*
X206291485Y-196514342D01*
X206220057Y-196585771D01*
X206148628Y-196514342D01*
X206220057Y-196442914D01*
X206220057Y-196585771D01*
X207648628Y-195085771D02*
X206934342Y-195085771D01*
X206862914Y-195800057D01*
X206934342Y-195728628D01*
X207077200Y-195657200D01*
X207434342Y-195657200D01*
X207577200Y-195728628D01*
X207648628Y-195800057D01*
X207720057Y-195942914D01*
X207720057Y-196300057D01*
X207648628Y-196442914D01*
X207577200Y-196514342D01*
X207434342Y-196585771D01*
X207077200Y-196585771D01*
X206934342Y-196514342D01*
X206862914Y-196442914D01*
X208220057Y-197157200D02*
X208291485Y-197085771D01*
X208434342Y-196871485D01*
X208505771Y-196728628D01*
X208577200Y-196514342D01*
X208648628Y-196157200D01*
X208648628Y-195871485D01*
X208577200Y-195514342D01*
X208505771Y-195300057D01*
X208434342Y-195157200D01*
X208291485Y-194942914D01*
X208220057Y-194871485D01*
X209362914Y-196014342D02*
X210505771Y-196014342D01*
X211077200Y-195085771D02*
X212005771Y-195085771D01*
X211505771Y-195657200D01*
X211720057Y-195657200D01*
X211862914Y-195728628D01*
X211934342Y-195800057D01*
X212005771Y-195942914D01*
X212005771Y-196300057D01*
X211934342Y-196442914D01*
X211862914Y-196514342D01*
X211720057Y-196585771D01*
X211291485Y-196585771D01*
X211148628Y-196514342D01*
X211077200Y-196442914D01*
D10*
D11*
X177002200Y-191507200D02*
X285002200Y-191507200D01*
D10*
D12*
X264411485Y-193785771D02*
X263911485Y-193071485D01*
X263554342Y-193785771D02*
X263554342Y-192285771D01*
X264125771Y-192285771D01*
X264268628Y-192357200D01*
X264340057Y-192428628D01*
X264411485Y-192571485D01*
X264411485Y-192785771D01*
X264340057Y-192928628D01*
X264268628Y-193000057D01*
X264125771Y-193071485D01*
X263554342Y-193071485D01*
X265625771Y-193714342D02*
X265482914Y-193785771D01*
X265197200Y-193785771D01*
X265054342Y-193714342D01*
X264982914Y-193571485D01*
X264982914Y-193000057D01*
X265054342Y-192857200D01*
X265197200Y-192785771D01*
X265482914Y-192785771D01*
X265625771Y-192857200D01*
X265697200Y-193000057D01*
X265697200Y-193142914D01*
X264982914Y-193285771D01*
X266197200Y-192785771D02*
X266554342Y-193785771D01*
X266911485Y-192785771D01*
X267482914Y-193642914D02*
X267554342Y-193714342D01*
X267482914Y-193785771D01*
X267411485Y-193714342D01*
X267482914Y-193642914D01*
X267482914Y-193785771D01*
X267482914Y-192857200D02*
X267554342Y-192928628D01*
X267482914Y-193000057D01*
X267411485Y-192928628D01*
X267482914Y-192857200D01*
X267482914Y-193000057D01*
X270125771Y-193785771D02*
X269268628Y-193785771D01*
X269697200Y-193785771D02*
X269697200Y-192285771D01*
X269554342Y-192500057D01*
X269411485Y-192642914D01*
X269268628Y-192714342D01*
X270697200Y-192428628D02*
X270768628Y-192357200D01*
X270911485Y-192285771D01*
X271268628Y-192285771D01*
X271411485Y-192357200D01*
X271482914Y-192428628D01*
X271554342Y-192571485D01*
X271554342Y-192714342D01*
X271482914Y-192928628D01*
X270625771Y-193785771D01*
X271554342Y-193785771D01*
D10*
D11*
X178362914Y-193714342D02*
X178577200Y-193785771D01*
X178934342Y-193785771D01*
X179077200Y-193714342D01*
X179148628Y-193642914D01*
X179220057Y-193500057D01*
X179220057Y-193357200D01*
X179148628Y-193214342D01*
X179077200Y-193142914D01*
X178934342Y-193071485D01*
X178648628Y-193000057D01*
X178505771Y-192928628D01*
X178434342Y-192857200D01*
X178362914Y-192714342D01*
X178362914Y-192571485D01*
X178434342Y-192428628D01*
X178505771Y-192357200D01*
X178648628Y-192285771D01*
X179005771Y-192285771D01*
X179220057Y-192357200D01*
X179862914Y-193785771D02*
X179862914Y-192785771D01*
X179862914Y-192285771D02*
X179791485Y-192357200D01*
X179862914Y-192428628D01*
X179934342Y-192357200D01*
X179862914Y-192285771D01*
X179862914Y-192428628D01*
X180434342Y-192785771D02*
X181220057Y-192785771D01*
X180434342Y-193785771D01*
X181220057Y-193785771D01*
X182362914Y-193714342D02*
X182220057Y-193785771D01*
X181934342Y-193785771D01*
X181791485Y-193714342D01*
X181720057Y-193571485D01*
X181720057Y-193000057D01*
X181791485Y-192857200D01*
X181934342Y-192785771D01*
X182220057Y-192785771D01*
X182362914Y-192857200D01*
X182434342Y-193000057D01*
X182434342Y-193142914D01*
X181720057Y-193285771D01*
X183077200Y-193642914D02*
X183148628Y-193714342D01*
X183077200Y-193785771D01*
X183005771Y-193714342D01*
X183077200Y-193642914D01*
X183077200Y-193785771D01*
X183077200Y-192857200D02*
X183148628Y-192928628D01*
X183077200Y-193000057D01*
X183005771Y-192928628D01*
X183077200Y-192857200D01*
X183077200Y-193000057D01*
X184862914Y-193357200D02*
X185577200Y-193357200D01*
X184720057Y-193785771D02*
X185220057Y-192285771D01*
X185720057Y-193785771D01*
X186862914Y-192785771D02*
X186862914Y-193785771D01*
X186505771Y-192214342D02*
X186148628Y-193285771D01*
X187077200Y-193285771D01*
D10*
D11*
X263434342Y-196585771D02*
X263434342Y-195085771D01*
X264791485Y-196585771D02*
X264791485Y-195085771D01*
X264791485Y-196514342D02*
X264648628Y-196585771D01*
X264362914Y-196585771D01*
X264220057Y-196514342D01*
X264148628Y-196442914D01*
X264077200Y-196300057D01*
X264077200Y-195871485D01*
X264148628Y-195728628D01*
X264220057Y-195657200D01*
X264362914Y-195585771D01*
X264648628Y-195585771D01*
X264791485Y-195657200D01*
X265505771Y-196442914D02*
X265577200Y-196514342D01*
X265505771Y-196585771D01*
X265434342Y-196514342D01*
X265505771Y-196442914D01*
X265505771Y-196585771D01*
X265505771Y-195657200D02*
X265577200Y-195728628D01*
X265505771Y-195800057D01*
X265434342Y-195728628D01*
X265505771Y-195657200D01*
X265505771Y-195800057D01*
X268148628Y-196585771D02*
X267291485Y-196585771D01*
X267720057Y-196585771D02*
X267720057Y-195085771D01*
X267577200Y-195300057D01*
X267434342Y-195442914D01*
X267291485Y-195514342D01*
X269862914Y-195014342D02*
X268577200Y-196942914D01*
X271148628Y-196585771D02*
X270291485Y-196585771D01*
X270720057Y-196585771D02*
X270720057Y-195085771D01*
X270577200Y-195300057D01*
X270434342Y-195442914D01*
X270291485Y-195514342D01*
D10*
D11*
X177002200Y-187507200D02*
X285002200Y-187507200D01*
D10*
D13*
X178714580Y-188211961D02*
X179857438Y-188211961D01*
X179036009Y-190211961D02*
X179286009Y-188211961D01*
X180274104Y-190211961D02*
X180440771Y-188878628D01*
X180524104Y-188211961D02*
X180416961Y-188307200D01*
X180500295Y-188402438D01*
X180607438Y-188307200D01*
X180524104Y-188211961D01*
X180500295Y-188402438D01*
X181107438Y-188878628D02*
X181869342Y-188878628D01*
X181476485Y-188211961D02*
X181262200Y-189926247D01*
X181333628Y-190116723D01*
X181512200Y-190211961D01*
X181702676Y-190211961D01*
X182655057Y-190211961D02*
X182476485Y-190116723D01*
X182405057Y-189926247D01*
X182619342Y-188211961D01*
X184190771Y-190116723D02*
X183988390Y-190211961D01*
X183607438Y-190211961D01*
X183428866Y-190116723D01*
X183357438Y-189926247D01*
X183452676Y-189164342D01*
X183571723Y-188973866D01*
X183774104Y-188878628D01*
X184155057Y-188878628D01*
X184333628Y-188973866D01*
X184405057Y-189164342D01*
X184381247Y-189354819D01*
X183405057Y-189545295D01*
X185155057Y-190021485D02*
X185238390Y-190116723D01*
X185131247Y-190211961D01*
X185047914Y-190116723D01*
X185155057Y-190021485D01*
X185131247Y-190211961D01*
X185286009Y-188973866D02*
X185369342Y-189069104D01*
X185262200Y-189164342D01*
X185178866Y-189069104D01*
X185286009Y-188973866D01*
X185262200Y-189164342D01*
X187607438Y-190211961D02*
X187857438Y-188211961D01*
X188619342Y-188211961D01*
X188797914Y-188307200D01*
X188881247Y-188402438D01*
X188952676Y-188592914D01*
X188916961Y-188878628D01*
X188797914Y-189069104D01*
X188690771Y-189164342D01*
X188488390Y-189259580D01*
X187726485Y-189259580D01*
X189893152Y-190211961D02*
X189714580Y-190116723D01*
X189631247Y-190021485D01*
X189559819Y-189831009D01*
X189631247Y-189259580D01*
X189750295Y-189069104D01*
X189857438Y-188973866D01*
X190059819Y-188878628D01*
X190345533Y-188878628D01*
X190524104Y-188973866D01*
X190607438Y-189069104D01*
X190678866Y-189259580D01*
X190607438Y-189831009D01*
X190488390Y-190021485D01*
X190381247Y-190116723D01*
X190178866Y-190211961D01*
X189893152Y-190211961D01*
X192286009Y-190116723D02*
X192083628Y-190211961D01*
X191702676Y-190211961D01*
X191524104Y-190116723D01*
X191440771Y-190021485D01*
X191369342Y-189831009D01*
X191440771Y-189259580D01*
X191559819Y-189069104D01*
X191666961Y-188973866D01*
X191869342Y-188878628D01*
X192250295Y-188878628D01*
X192428866Y-188973866D01*
X193131247Y-190211961D02*
X193381247Y-188211961D01*
X193416961Y-189450057D02*
X193893152Y-190211961D01*
X194059819Y-188878628D02*
X193202676Y-189640533D01*
X195524104Y-190116723D02*
X195321723Y-190211961D01*
X194940771Y-190211961D01*
X194762200Y-190116723D01*
X194690771Y-189926247D01*
X194786009Y-189164342D01*
X194905057Y-188973866D01*
X195107438Y-188878628D01*
X195488390Y-188878628D01*
X195666961Y-188973866D01*
X195738390Y-189164342D01*
X195714580Y-189354819D01*
X194738390Y-189545295D01*
X196345533Y-188878628D02*
X197107438Y-188878628D01*
X196714580Y-188211961D02*
X196500295Y-189926247D01*
X196571723Y-190116723D01*
X196750295Y-190211961D01*
X196940771Y-190211961D01*
X199131247Y-190211961D02*
X199381247Y-188211961D01*
X200143152Y-188211961D01*
X200321723Y-188307200D01*
X200405057Y-188402438D01*
X200476485Y-188592914D01*
X200440771Y-188878628D01*
X200321723Y-189069104D01*
X200214580Y-189164342D01*
X200012200Y-189259580D01*
X199250295Y-189259580D01*
X201047914Y-190116723D02*
X201226485Y-190211961D01*
X201607438Y-190211961D01*
X201809819Y-190116723D01*
X201928866Y-189926247D01*
X201940771Y-189831009D01*
X201869342Y-189640533D01*
X201690771Y-189545295D01*
X201405057Y-189545295D01*
X201226485Y-189450057D01*
X201155057Y-189259580D01*
X201166961Y-189164342D01*
X201286009Y-188973866D01*
X201488390Y-188878628D01*
X201774104Y-188878628D01*
X201952676Y-188973866D01*
X202750295Y-190211961D02*
X202916961Y-188878628D01*
X203000295Y-188211961D02*
X202893152Y-188307200D01*
X202976485Y-188402438D01*
X203083628Y-188307200D01*
X203000295Y-188211961D01*
X202976485Y-188402438D01*
X203583628Y-188878628D02*
X204345533Y-188878628D01*
X203952676Y-188211961D02*
X203738390Y-189926247D01*
X203809819Y-190116723D01*
X203988390Y-190211961D01*
X204178866Y-190211961D01*
X204845533Y-190211961D02*
X205095533Y-188211961D01*
X205702676Y-190211961D02*
X205833628Y-189164342D01*
X205762200Y-188973866D01*
X205583628Y-188878628D01*
X205297914Y-188878628D01*
X205095533Y-188973866D01*
X204988390Y-189069104D01*
X207428866Y-190116723D02*
X207226485Y-190211961D01*
X206845533Y-190211961D01*
X206666961Y-190116723D01*
X206595533Y-189926247D01*
X206690771Y-189164342D01*
X206809819Y-188973866D01*
X207012200Y-188878628D01*
X207393152Y-188878628D01*
X207571723Y-188973866D01*
X207643152Y-189164342D01*
X207619342Y-189354819D01*
X206643152Y-189545295D01*
X208369342Y-190211961D02*
X208536009Y-188878628D01*
X208512200Y-189069104D02*
X208619342Y-188973866D01*
X208821723Y-188878628D01*
X209107438Y-188878628D01*
X209286009Y-188973866D01*
X209357438Y-189164342D01*
X209226485Y-190211961D01*
X209357438Y-189164342D02*
X209476485Y-188973866D01*
X209678866Y-188878628D01*
X209964580Y-188878628D01*
X210143152Y-188973866D01*
X210214580Y-189164342D01*
X210083628Y-190211961D01*
X211036009Y-190211961D02*
X211202676Y-188878628D01*
X211286009Y-188211961D02*
X211178866Y-188307200D01*
X211262200Y-188402438D01*
X211369342Y-188307200D01*
X211286009Y-188211961D01*
X211262200Y-188402438D01*
X213012200Y-188878628D02*
X212845533Y-190211961D01*
X212155057Y-188878628D02*
X212024104Y-189926247D01*
X212095533Y-190116723D01*
X212274104Y-190211961D01*
X212559819Y-190211961D01*
X212762200Y-190116723D01*
X212869342Y-190021485D01*
X213714580Y-190116723D02*
X213893152Y-190211961D01*
X214274104Y-190211961D01*
X214476485Y-190116723D01*
X214595533Y-189926247D01*
X214607438Y-189831009D01*
X214536009Y-189640533D01*
X214357438Y-189545295D01*
X214071723Y-189545295D01*
X213893152Y-189450057D01*
X213821723Y-189259580D01*
X213833628Y-189164342D01*
X213952676Y-188973866D01*
X214155057Y-188878628D01*
X214440771Y-188878628D01*
X214619342Y-188973866D01*
D10*
D11*
X178934342Y-185600057D02*
X178434342Y-185600057D01*
X178434342Y-186385771D02*
X178434342Y-184885771D01*
X179148628Y-184885771D01*
X179720057Y-186385771D02*
X179720057Y-185385771D01*
X179720057Y-184885771D02*
X179648628Y-184957200D01*
X179720057Y-185028628D01*
X179791485Y-184957200D01*
X179720057Y-184885771D01*
X179720057Y-185028628D01*
X180648628Y-186385771D02*
X180505771Y-186314342D01*
X180434342Y-186171485D01*
X180434342Y-184885771D01*
X181791485Y-186314342D02*
X181648628Y-186385771D01*
X181362914Y-186385771D01*
X181220057Y-186314342D01*
X181148628Y-186171485D01*
X181148628Y-185600057D01*
X181220057Y-185457200D01*
X181362914Y-185385771D01*
X181648628Y-185385771D01*
X181791485Y-185457200D01*
X181862914Y-185600057D01*
X181862914Y-185742914D01*
X181148628Y-185885771D01*
X182505771Y-186242914D02*
X182577200Y-186314342D01*
X182505771Y-186385771D01*
X182434342Y-186314342D01*
X182505771Y-186242914D01*
X182505771Y-186385771D01*
X182505771Y-185457200D02*
X182577200Y-185528628D01*
X182505771Y-185600057D01*
X182434342Y-185528628D01*
X182505771Y-185457200D01*
X182505771Y-185600057D01*
X184362914Y-185385771D02*
X184362914Y-186885771D01*
X184362914Y-185457200D02*
X184505771Y-185385771D01*
X184791485Y-185385771D01*
X184934342Y-185457200D01*
X185005771Y-185528628D01*
X185077200Y-185671485D01*
X185077200Y-186100057D01*
X185005771Y-186242914D01*
X184934342Y-186314342D01*
X184791485Y-186385771D01*
X184505771Y-186385771D01*
X184362914Y-186314342D01*
X185648628Y-186314342D02*
X185791485Y-186385771D01*
X186077200Y-186385771D01*
X186220057Y-186314342D01*
X186291485Y-186171485D01*
X186291485Y-186100057D01*
X186220057Y-185957200D01*
X186077200Y-185885771D01*
X185862914Y-185885771D01*
X185720057Y-185814342D01*
X185648628Y-185671485D01*
X185648628Y-185600057D01*
X185720057Y-185457200D01*
X185862914Y-185385771D01*
X186077200Y-185385771D01*
X186220057Y-185457200D01*
X186934342Y-186385771D02*
X186934342Y-185385771D01*
X186934342Y-184885771D02*
X186862914Y-184957200D01*
X186934342Y-185028628D01*
X187005771Y-184957200D01*
X186934342Y-184885771D01*
X186934342Y-185028628D01*
X187434342Y-185385771D02*
X188005771Y-185385771D01*
X187648628Y-184885771D02*
X187648628Y-186171485D01*
X187720057Y-186314342D01*
X187862914Y-186385771D01*
X188005771Y-186385771D01*
X188505771Y-186385771D02*
X188505771Y-184885771D01*
X189148628Y-186385771D02*
X189148628Y-185600057D01*
X189077200Y-185457200D01*
X188934342Y-185385771D01*
X188720057Y-185385771D01*
X188577200Y-185457200D01*
X188505771Y-185528628D01*
X190434342Y-186314342D02*
X190291485Y-186385771D01*
X190005771Y-186385771D01*
X189862914Y-186314342D01*
X189791485Y-186171485D01*
X189791485Y-185600057D01*
X189862914Y-185457200D01*
X190005771Y-185385771D01*
X190291485Y-185385771D01*
X190434342Y-185457200D01*
X190505771Y-185600057D01*
X190505771Y-185742914D01*
X189791485Y-185885771D01*
X191148628Y-186385771D02*
X191148628Y-185385771D01*
X191148628Y-185528628D02*
X191220057Y-185457200D01*
X191362914Y-185385771D01*
X191577200Y-185385771D01*
X191720057Y-185457200D01*
X191791485Y-185600057D01*
X191791485Y-186385771D01*
X191791485Y-185600057D02*
X191862914Y-185457200D01*
X192005771Y-185385771D01*
X192220057Y-185385771D01*
X192362914Y-185457200D01*
X192434342Y-185600057D01*
X192434342Y-186385771D01*
X193148628Y-186385771D02*
X193148628Y-185385771D01*
X193148628Y-184885771D02*
X193077200Y-184957200D01*
X193148628Y-185028628D01*
X193220057Y-184957200D01*
X193148628Y-184885771D01*
X193148628Y-185028628D01*
X194505771Y-185385771D02*
X194505771Y-186385771D01*
X193862914Y-185385771D02*
X193862914Y-186171485D01*
X193934342Y-186314342D01*
X194077200Y-186385771D01*
X194291485Y-186385771D01*
X194434342Y-186314342D01*
X194505771Y-186242914D01*
X195148628Y-186314342D02*
X195291485Y-186385771D01*
X195577200Y-186385771D01*
X195720057Y-186314342D01*
X195791485Y-186171485D01*
X195791485Y-186100057D01*
X195720057Y-185957200D01*
X195577200Y-185885771D01*
X195362914Y-185885771D01*
X195220057Y-185814342D01*
X195148628Y-185671485D01*
X195148628Y-185600057D01*
X195220057Y-185457200D01*
X195362914Y-185385771D01*
X195577200Y-185385771D01*
X195720057Y-185457200D01*
X196434342Y-186242914D02*
X196505771Y-186314342D01*
X196434342Y-186385771D01*
X196362914Y-186314342D01*
X196434342Y-186242914D01*
X196434342Y-186385771D01*
X197148628Y-186385771D02*
X197148628Y-184885771D01*
X197291485Y-185814342D02*
X197720057Y-186385771D01*
X197720057Y-185385771D02*
X197148628Y-185957200D01*
X198362914Y-186385771D02*
X198362914Y-185385771D01*
X198362914Y-184885771D02*
X198291485Y-184957200D01*
X198362914Y-185028628D01*
X198434342Y-184957200D01*
X198362914Y-184885771D01*
X198362914Y-185028628D01*
X199720057Y-186314342D02*
X199577200Y-186385771D01*
X199291485Y-186385771D01*
X199148628Y-186314342D01*
X199077200Y-186242914D01*
X199005771Y-186100057D01*
X199005771Y-185671485D01*
X199077200Y-185528628D01*
X199148628Y-185457200D01*
X199291485Y-185385771D01*
X199577200Y-185385771D01*
X199720057Y-185457200D01*
X201005771Y-186385771D02*
X201005771Y-185600057D01*
X200934342Y-185457200D01*
X200791485Y-185385771D01*
X200505771Y-185385771D01*
X200362914Y-185457200D01*
X201005771Y-186314342D02*
X200862914Y-186385771D01*
X200505771Y-186385771D01*
X200362914Y-186314342D01*
X200291485Y-186171485D01*
X200291485Y-186028628D01*
X200362914Y-185885771D01*
X200505771Y-185814342D01*
X200862914Y-185814342D01*
X201005771Y-185742914D01*
X202362914Y-186385771D02*
X202362914Y-184885771D01*
X202362914Y-186314342D02*
X202220057Y-186385771D01*
X201934342Y-186385771D01*
X201791485Y-186314342D01*
X201720057Y-186242914D01*
X201648628Y-186100057D01*
X201648628Y-185671485D01*
X201720057Y-185528628D01*
X201791485Y-185457200D01*
X201934342Y-185385771D01*
X202220057Y-185385771D01*
X202362914Y-185457200D01*
X202720057Y-186528628D02*
X203862914Y-186528628D01*
X204220057Y-185385771D02*
X204220057Y-186885771D01*
X204220057Y-185457200D02*
X204362914Y-185385771D01*
X204648628Y-185385771D01*
X204791485Y-185457200D01*
X204862914Y-185528628D01*
X204934342Y-185671485D01*
X204934342Y-186100057D01*
X204862914Y-186242914D01*
X204791485Y-186314342D01*
X204648628Y-186385771D01*
X204362914Y-186385771D01*
X204220057Y-186314342D01*
X206220057Y-186314342D02*
X206077200Y-186385771D01*
X205791485Y-186385771D01*
X205648628Y-186314342D01*
X205577200Y-186242914D01*
X205505771Y-186100057D01*
X205505771Y-185671485D01*
X205577200Y-185528628D01*
X205648628Y-185457200D01*
X205791485Y-185385771D01*
X206077200Y-185385771D01*
X206220057Y-185457200D01*
X206862914Y-186385771D02*
X206862914Y-184885771D01*
X206862914Y-185457200D02*
X207005771Y-185385771D01*
X207291485Y-185385771D01*
X207434342Y-185457200D01*
X207505771Y-185528628D01*
X207577200Y-185671485D01*
X207577200Y-186100057D01*
X207505771Y-186242914D01*
X207434342Y-186314342D01*
X207291485Y-186385771D01*
X207005771Y-186385771D01*
X206862914Y-186314342D01*
D10*
D11*
X177002200Y-181507200D02*
X285002200Y-181507200D01*
D10*
D11*
X178362914Y-183614342D02*
X178577200Y-183685771D01*
X178934342Y-183685771D01*
X179077200Y-183614342D01*
X179148628Y-183542914D01*
X179220057Y-183400057D01*
X179220057Y-183257200D01*
X179148628Y-183114342D01*
X179077200Y-183042914D01*
X178934342Y-182971485D01*
X178648628Y-182900057D01*
X178505771Y-182828628D01*
X178434342Y-182757200D01*
X178362914Y-182614342D01*
X178362914Y-182471485D01*
X178434342Y-182328628D01*
X178505771Y-182257200D01*
X178648628Y-182185771D01*
X179005771Y-182185771D01*
X179220057Y-182257200D01*
X179862914Y-183685771D02*
X179862914Y-182185771D01*
X180505771Y-183685771D02*
X180505771Y-182900057D01*
X180434342Y-182757200D01*
X180291485Y-182685771D01*
X180077200Y-182685771D01*
X179934342Y-182757200D01*
X179862914Y-182828628D01*
X181791485Y-183614342D02*
X181648628Y-183685771D01*
X181362914Y-183685771D01*
X181220057Y-183614342D01*
X181148628Y-183471485D01*
X181148628Y-182900057D01*
X181220057Y-182757200D01*
X181362914Y-182685771D01*
X181648628Y-182685771D01*
X181791485Y-182757200D01*
X181862914Y-182900057D01*
X181862914Y-183042914D01*
X181148628Y-183185771D01*
X183077200Y-183614342D02*
X182934342Y-183685771D01*
X182648628Y-183685771D01*
X182505771Y-183614342D01*
X182434342Y-183471485D01*
X182434342Y-182900057D01*
X182505771Y-182757200D01*
X182648628Y-182685771D01*
X182934342Y-182685771D01*
X183077200Y-182757200D01*
X183148628Y-182900057D01*
X183148628Y-183042914D01*
X182434342Y-183185771D01*
X183577200Y-182685771D02*
X184148628Y-182685771D01*
X183791485Y-182185771D02*
X183791485Y-183471485D01*
X183862914Y-183614342D01*
X184005771Y-183685771D01*
X184148628Y-183685771D01*
X184648628Y-183542914D02*
X184720057Y-183614342D01*
X184648628Y-183685771D01*
X184577200Y-183614342D01*
X184648628Y-183542914D01*
X184648628Y-183685771D01*
X184648628Y-182757200D02*
X184720057Y-182828628D01*
X184648628Y-182900057D01*
X184577200Y-182828628D01*
X184648628Y-182757200D01*
X184648628Y-182900057D01*
D10*
D12*
X178482914Y-180614342D02*
X178697200Y-180685771D01*
X179054342Y-180685771D01*
X179197200Y-180614342D01*
X179268628Y-180542914D01*
X179340057Y-180400057D01*
X179340057Y-180257200D01*
X179268628Y-180114342D01*
X179197200Y-180042914D01*
X179054342Y-179971485D01*
X178768628Y-179900057D01*
X178625771Y-179828628D01*
X178554342Y-179757200D01*
X178482914Y-179614342D01*
X178482914Y-179471485D01*
X178554342Y-179328628D01*
X178625771Y-179257200D01*
X178768628Y-179185771D01*
X179125771Y-179185771D01*
X179340057Y-179257200D01*
X180625771Y-179685771D02*
X180625771Y-180685771D01*
X179982914Y-179685771D02*
X179982914Y-180471485D01*
X180054342Y-180614342D01*
X180197200Y-180685771D01*
X180411485Y-180685771D01*
X180554342Y-180614342D01*
X180625771Y-180542914D01*
X181340057Y-180685771D02*
X181340057Y-179185771D01*
X181340057Y-179757200D02*
X181482914Y-179685771D01*
X181768628Y-179685771D01*
X181911485Y-179757200D01*
X181982914Y-179828628D01*
X182054342Y-179971485D01*
X182054342Y-180400057D01*
X181982914Y-180542914D01*
X181911485Y-180614342D01*
X181768628Y-180685771D01*
X181482914Y-180685771D01*
X181340057Y-180614342D01*
X182911485Y-180685771D02*
X182768628Y-180614342D01*
X182697200Y-180471485D01*
X182697200Y-179185771D01*
X184125771Y-179685771D02*
X184125771Y-180685771D01*
X183482914Y-179685771D02*
X183482914Y-180471485D01*
X183554342Y-180614342D01*
X183697200Y-180685771D01*
X183911485Y-180685771D01*
X184054342Y-180614342D01*
X184125771Y-180542914D01*
X184840057Y-179685771D02*
X184840057Y-180685771D01*
X184840057Y-179828628D02*
X184911485Y-179757200D01*
X185054342Y-179685771D01*
X185268628Y-179685771D01*
X185411485Y-179757200D01*
X185482914Y-179900057D01*
X185482914Y-180685771D01*
X186840057Y-180685771D02*
X186840057Y-179900057D01*
X186768628Y-179757200D01*
X186625771Y-179685771D01*
X186340057Y-179685771D01*
X186197200Y-179757200D01*
X186840057Y-180614342D02*
X186697200Y-180685771D01*
X186340057Y-180685771D01*
X186197200Y-180614342D01*
X186125771Y-180471485D01*
X186125771Y-180328628D01*
X186197200Y-180185771D01*
X186340057Y-180114342D01*
X186697200Y-180114342D01*
X186840057Y-180042914D01*
X187554342Y-180685771D02*
X187554342Y-179685771D01*
X187554342Y-179971485D02*
X187625771Y-179828628D01*
X187697200Y-179757200D01*
X187840057Y-179685771D01*
X187982914Y-179685771D01*
X189625771Y-180685771D02*
X189625771Y-179185771D01*
X190197200Y-179185771D01*
X190340057Y-179257200D01*
X190411485Y-179328628D01*
X190482914Y-179471485D01*
X190482914Y-179685771D01*
X190411485Y-179828628D01*
X190340057Y-179900057D01*
X190197200Y-179971485D01*
X189625771Y-179971485D01*
X191054342Y-180614342D02*
X191197200Y-180685771D01*
X191482914Y-180685771D01*
X191625771Y-180614342D01*
X191697200Y-180471485D01*
X191697200Y-180400057D01*
X191625771Y-180257200D01*
X191482914Y-180185771D01*
X191268628Y-180185771D01*
X191125771Y-180114342D01*
X191054342Y-179971485D01*
X191054342Y-179900057D01*
X191125771Y-179757200D01*
X191268628Y-179685771D01*
X191482914Y-179685771D01*
X191625771Y-179757200D01*
X192340057Y-180685771D02*
X192340057Y-179685771D01*
X192340057Y-179185771D02*
X192268628Y-179257200D01*
X192340057Y-179328628D01*
X192411485Y-179257200D01*
X192340057Y-179185771D01*
X192340057Y-179328628D01*
X193268628Y-180685771D02*
X193125771Y-180614342D01*
X193054342Y-180542914D01*
X192982914Y-180400057D01*
X192982914Y-179971485D01*
X193054342Y-179828628D01*
X193125771Y-179757200D01*
X193268628Y-179685771D01*
X193482914Y-179685771D01*
X193625771Y-179757200D01*
X193697200Y-179828628D01*
X193768628Y-179971485D01*
X193768628Y-180400057D01*
X193697200Y-180542914D01*
X193625771Y-180614342D01*
X193482914Y-180685771D01*
X193268628Y-180685771D01*
X194411485Y-179685771D02*
X194411485Y-180685771D01*
X194411485Y-179828628D02*
X194482914Y-179757200D01*
X194625771Y-179685771D01*
X194840057Y-179685771D01*
X194982914Y-179757200D01*
X195054342Y-179900057D01*
X195054342Y-180685771D01*
X195768628Y-180685771D02*
X195768628Y-179685771D01*
X195768628Y-179185771D02*
X195697200Y-179257200D01*
X195768628Y-179328628D01*
X195840057Y-179257200D01*
X195768628Y-179185771D01*
X195768628Y-179328628D01*
X197125771Y-180614342D02*
X196982914Y-180685771D01*
X196697200Y-180685771D01*
X196554342Y-180614342D01*
X196482914Y-180542914D01*
X196411485Y-180400057D01*
X196411485Y-179971485D01*
X196482914Y-179828628D01*
X196554342Y-179757200D01*
X196697200Y-179685771D01*
X196982914Y-179685771D01*
X197125771Y-179757200D01*
X197697200Y-180614342D02*
X197840057Y-180685771D01*
X198125771Y-180685771D01*
X198268628Y-180614342D01*
X198340057Y-180471485D01*
X198340057Y-180400057D01*
X198268628Y-180257200D01*
X198125771Y-180185771D01*
X197911485Y-180185771D01*
X197768628Y-180114342D01*
X197697200Y-179971485D01*
X197697200Y-179900057D01*
X197768628Y-179757200D01*
X197911485Y-179685771D01*
X198125771Y-179685771D01*
X198268628Y-179757200D01*
D10*
D11*
X197002200Y-191507200D02*
X197002200Y-194507200D01*
D10*
D11*
X261002200Y-191507200D02*
X261002200Y-198007200D01*
D14*
X83310346Y-141090706D02*
G75*
G02X83410346Y-140917500I50000J86603D01*
G01*
X83410346Y-140917501D02*
G75*
G02X83310346Y-141090705I-50000J-86602D01*
G01*
D10*
X82769859Y-140550604D02*
G75*
G02X76534104Y-136947500I-4468064J-535165D01*
G01*
D14*
X83410346Y-140917500D02*
X83410346Y-140917500D01*
X83310346Y-141090705D02*
X83310346Y-141090705D01*
D10*
X76534104Y-136947500D02*
X76534104Y-136947500D01*
X77453719Y-136554680D02*
X76534104Y-136947500D01*
X78153719Y-135342244D02*
X77453719Y-136554680D01*
X83343372Y-138353502D02*
X78153719Y-135342244D01*
X82649872Y-139554680D02*
X83343372Y-138353502D01*
X82769487Y-140547500D02*
X82649872Y-139554680D01*
D14*
X114210000Y-52268000D02*
G75*
G02X114010000Y-52268000I-100000J0D01*
G01*
X114010000Y-52268000D02*
G75*
G02X114210000Y-52268000I100000J0D01*
G01*
X114010000Y-52268000D02*
X114010000Y-52268000D01*
X114210000Y-52268000D02*
X114210000Y-52268000D01*
D10*
X108110000Y-66818000D02*
X108110000Y-66318000D01*
X120110000Y-66818000D02*
X108110000Y-66818000D01*
X120110000Y-66318000D02*
X120110000Y-66818000D01*
X120110000Y-60318000D02*
X120110000Y-63318000D01*
X108110000Y-60318000D02*
X108110000Y-63318000D01*
X118110000Y-55118000D02*
X110110000Y-55118000D01*
D14*
X85125000Y-66975000D02*
G75*
G03X85125000Y-66975000I-100000J0D01*
G01*
D15*
X84485000Y-54575000D02*
X94585000Y-54575000D01*
X94585000Y-54575000D02*
X94585000Y-55955000D01*
X84485000Y-54575000D02*
X84485000Y-55955000D01*
X84485000Y-59195000D02*
X84485000Y-63255000D01*
X94585000Y-59205000D02*
X94585000Y-66075000D01*
X92615000Y-66075000D02*
X89355000Y-66075000D01*
X87415000Y-66075000D02*
X85955000Y-66075000D01*
D16*
X105410000Y-137160000D02*
X105410000Y-135890000D01*
X105410000Y-135890000D02*
X104140000Y-135890000D01*
X90043000Y-140473000D02*
X90043000Y-139223000D01*
X90043000Y-123433000D02*
X90043000Y-124683000D01*
X93013000Y-139223000D02*
X93013000Y-124683000D01*
X87073000Y-139223000D02*
X93013000Y-139223000D01*
X87073000Y-124683000D02*
X87073000Y-139223000D01*
X93013000Y-124683000D02*
X87073000Y-124683000D01*
X62309500Y-107692500D02*
G75*
G02X64309500Y-107692500I1000000J0D01*
G01*
X64309500Y-107692500D02*
X65959500Y-107692500D01*
X65959500Y-107692500D02*
X65959500Y-102492500D01*
X65959500Y-102492500D02*
X60659500Y-102492500D01*
X60659500Y-102492500D02*
X60659500Y-107692500D01*
X60659500Y-107692500D02*
X62309500Y-107692500D01*
X61262500Y-109062000D02*
X61262500Y-110902000D01*
X61262500Y-110902000D02*
X65102500Y-110902000D01*
X65102500Y-110902000D02*
X65102500Y-109062000D01*
X65102500Y-109062000D02*
X61262500Y-109062000D01*
X60312500Y-109982000D02*
X61262500Y-109982000D01*
X66052500Y-109982000D02*
X65102500Y-109982000D01*
X119713500Y-72580500D02*
G75*
G03X119713500Y-72580500I-4120000J0D01*
G01*
X115593500Y-68500500D02*
X115593500Y-76660500D01*
X115633500Y-68500500D02*
X115633500Y-76660500D01*
X115673500Y-68500500D02*
X115673500Y-76660500D01*
X115713500Y-68501500D02*
X115713500Y-76659500D01*
X115753500Y-68503500D02*
X115753500Y-76657500D01*
X115793500Y-68504500D02*
X115793500Y-76656500D01*
X115833500Y-68506500D02*
X115833500Y-76654500D01*
X115873500Y-68509500D02*
X115873500Y-76651500D01*
X115913500Y-68512500D02*
X115913500Y-76648500D01*
X115953500Y-68515500D02*
X115953500Y-76645500D01*
X115993500Y-68519500D02*
X115993500Y-76641500D01*
X116033500Y-68523500D02*
X116033500Y-76637500D01*
X116073500Y-68528500D02*
X116073500Y-76632500D01*
X116113500Y-68532500D02*
X116113500Y-76628500D01*
X116153500Y-68538500D02*
X116153500Y-76622500D01*
X116193500Y-68543500D02*
X116193500Y-76617500D01*
X116233500Y-68550500D02*
X116233500Y-76610500D01*
X116273500Y-68556500D02*
X116273500Y-76604500D01*
X116314500Y-68563500D02*
X116314500Y-76597500D01*
X116354500Y-68570500D02*
X116354500Y-76590500D01*
X116394500Y-68578500D02*
X116394500Y-76582500D01*
X116434500Y-68586500D02*
X116434500Y-76574500D01*
X116474500Y-68595500D02*
X116474500Y-76565500D01*
X116514500Y-68604500D02*
X116514500Y-76556500D01*
X116554500Y-68613500D02*
X116554500Y-76547500D01*
X116594500Y-68623500D02*
X116594500Y-76537500D01*
X116634500Y-68633500D02*
X116634500Y-76527500D01*
X116674500Y-68644500D02*
X116674500Y-76516500D01*
X116714500Y-68655500D02*
X116714500Y-76505500D01*
X116754500Y-68666500D02*
X116754500Y-76494500D01*
X116794500Y-68678500D02*
X116794500Y-76482500D01*
X116834500Y-68691500D02*
X116834500Y-76469500D01*
X116874500Y-68703500D02*
X116874500Y-76457500D01*
X116914500Y-68717500D02*
X116914500Y-76443500D01*
X116954500Y-68730500D02*
X116954500Y-76430500D01*
X116994500Y-68745500D02*
X116994500Y-76415500D01*
X117034500Y-68759500D02*
X117034500Y-76401500D01*
X117074500Y-68775500D02*
X117074500Y-71540500D01*
X117074500Y-73620500D02*
X117074500Y-76385500D01*
X117114500Y-68790500D02*
X117114500Y-71540500D01*
X117114500Y-73620500D02*
X117114500Y-76370500D01*
X117154500Y-68806500D02*
X117154500Y-71540500D01*
X117154500Y-73620500D02*
X117154500Y-76354500D01*
X117194500Y-68823500D02*
X117194500Y-71540500D01*
X117194500Y-73620500D02*
X117194500Y-76337500D01*
X117234500Y-68840500D02*
X117234500Y-71540500D01*
X117234500Y-73620500D02*
X117234500Y-76320500D01*
X117274500Y-68858500D02*
X117274500Y-71540500D01*
X117274500Y-73620500D02*
X117274500Y-76302500D01*
X117314500Y-68876500D02*
X117314500Y-71540500D01*
X117314500Y-73620500D02*
X117314500Y-76284500D01*
X117354500Y-68894500D02*
X117354500Y-71540500D01*
X117354500Y-73620500D02*
X117354500Y-76266500D01*
X117394500Y-68914500D02*
X117394500Y-71540500D01*
X117394500Y-73620500D02*
X117394500Y-76246500D01*
X117434500Y-68933500D02*
X117434500Y-71540500D01*
X117434500Y-73620500D02*
X117434500Y-76227500D01*
X117474500Y-68953500D02*
X117474500Y-71540500D01*
X117474500Y-73620500D02*
X117474500Y-76207500D01*
X117514500Y-68974500D02*
X117514500Y-71540500D01*
X117514500Y-73620500D02*
X117514500Y-76186500D01*
X117554500Y-68996500D02*
X117554500Y-71540500D01*
X117554500Y-73620500D02*
X117554500Y-76164500D01*
X117594500Y-69018500D02*
X117594500Y-71540500D01*
X117594500Y-73620500D02*
X117594500Y-76142500D01*
X117634500Y-69040500D02*
X117634500Y-71540500D01*
X117634500Y-73620500D02*
X117634500Y-76120500D01*
X117674500Y-69063500D02*
X117674500Y-71540500D01*
X117674500Y-73620500D02*
X117674500Y-76097500D01*
X117714500Y-69087500D02*
X117714500Y-71540500D01*
X117714500Y-73620500D02*
X117714500Y-76073500D01*
X117754500Y-69111500D02*
X117754500Y-71540500D01*
X117754500Y-73620500D02*
X117754500Y-76049500D01*
X117794500Y-69136500D02*
X117794500Y-71540500D01*
X117794500Y-73620500D02*
X117794500Y-76024500D01*
X117834500Y-69162500D02*
X117834500Y-71540500D01*
X117834500Y-73620500D02*
X117834500Y-75998500D01*
X117874500Y-69188500D02*
X117874500Y-71540500D01*
X117874500Y-73620500D02*
X117874500Y-75972500D01*
X117914500Y-69215500D02*
X117914500Y-71540500D01*
X117914500Y-73620500D02*
X117914500Y-75945500D01*
X117954500Y-69242500D02*
X117954500Y-71540500D01*
X117954500Y-73620500D02*
X117954500Y-75918500D01*
X117994500Y-69271500D02*
X117994500Y-71540500D01*
X117994500Y-73620500D02*
X117994500Y-75889500D01*
X118034500Y-69300500D02*
X118034500Y-71540500D01*
X118034500Y-73620500D02*
X118034500Y-75860500D01*
X118074500Y-69330500D02*
X118074500Y-71540500D01*
X118074500Y-73620500D02*
X118074500Y-75830500D01*
X118114500Y-69360500D02*
X118114500Y-71540500D01*
X118114500Y-73620500D02*
X118114500Y-75800500D01*
X118154500Y-69391500D02*
X118154500Y-71540500D01*
X118154500Y-73620500D02*
X118154500Y-75769500D01*
X118194500Y-69424500D02*
X118194500Y-71540500D01*
X118194500Y-73620500D02*
X118194500Y-75736500D01*
X118234500Y-69456500D02*
X118234500Y-71540500D01*
X118234500Y-73620500D02*
X118234500Y-75704500D01*
X118274500Y-69490500D02*
X118274500Y-71540500D01*
X118274500Y-73620500D02*
X118274500Y-75670500D01*
X118314500Y-69525500D02*
X118314500Y-71540500D01*
X118314500Y-73620500D02*
X118314500Y-75635500D01*
X118354500Y-69561500D02*
X118354500Y-71540500D01*
X118354500Y-73620500D02*
X118354500Y-75599500D01*
X118394500Y-69597500D02*
X118394500Y-71540500D01*
X118394500Y-73620500D02*
X118394500Y-75563500D01*
X118434500Y-69635500D02*
X118434500Y-71540500D01*
X118434500Y-73620500D02*
X118434500Y-75525500D01*
X118474500Y-69673500D02*
X118474500Y-71540500D01*
X118474500Y-73620500D02*
X118474500Y-75487500D01*
X118514500Y-69713500D02*
X118514500Y-71540500D01*
X118514500Y-73620500D02*
X118514500Y-75447500D01*
X118554500Y-69754500D02*
X118554500Y-71540500D01*
X118554500Y-73620500D02*
X118554500Y-75406500D01*
X118594500Y-69796500D02*
X118594500Y-71540500D01*
X118594500Y-73620500D02*
X118594500Y-75364500D01*
X118634500Y-69839500D02*
X118634500Y-71540500D01*
X118634500Y-73620500D02*
X118634500Y-75321500D01*
X118674500Y-69883500D02*
X118674500Y-71540500D01*
X118674500Y-73620500D02*
X118674500Y-75277500D01*
X118714500Y-69929500D02*
X118714500Y-71540500D01*
X118714500Y-73620500D02*
X118714500Y-75231500D01*
X118754500Y-69976500D02*
X118754500Y-71540500D01*
X118754500Y-73620500D02*
X118754500Y-75184500D01*
X118794500Y-70024500D02*
X118794500Y-71540500D01*
X118794500Y-73620500D02*
X118794500Y-75136500D01*
X118834500Y-70075500D02*
X118834500Y-71540500D01*
X118834500Y-73620500D02*
X118834500Y-75085500D01*
X118874500Y-70126500D02*
X118874500Y-71540500D01*
X118874500Y-73620500D02*
X118874500Y-75034500D01*
X118914500Y-70180500D02*
X118914500Y-71540500D01*
X118914500Y-73620500D02*
X118914500Y-74980500D01*
X118954500Y-70235500D02*
X118954500Y-71540500D01*
X118954500Y-73620500D02*
X118954500Y-74925500D01*
X118994500Y-70293500D02*
X118994500Y-71540500D01*
X118994500Y-73620500D02*
X118994500Y-74867500D01*
X119034500Y-70352500D02*
X119034500Y-71540500D01*
X119034500Y-73620500D02*
X119034500Y-74808500D01*
X119074500Y-70414500D02*
X119074500Y-71540500D01*
X119074500Y-73620500D02*
X119074500Y-74746500D01*
X119114500Y-70478500D02*
X119114500Y-71540500D01*
X119114500Y-73620500D02*
X119114500Y-74682500D01*
X119154500Y-70546500D02*
X119154500Y-74614500D01*
X119194500Y-70616500D02*
X119194500Y-74544500D01*
X119234500Y-70690500D02*
X119234500Y-74470500D01*
X119274500Y-70767500D02*
X119274500Y-74393500D01*
X119314500Y-70849500D02*
X119314500Y-74311500D01*
X119354500Y-70935500D02*
X119354500Y-74225500D01*
X119394500Y-71028500D02*
X119394500Y-74132500D01*
X119434500Y-71127500D02*
X119434500Y-74033500D01*
X119474500Y-71234500D02*
X119474500Y-73926500D01*
X119514500Y-71351500D02*
X119514500Y-73809500D01*
X119554500Y-71482500D02*
X119554500Y-73678500D01*
X119594500Y-71632500D02*
X119594500Y-73528500D01*
X119634500Y-71812500D02*
X119634500Y-73348500D01*
X119674500Y-72047500D02*
X119674500Y-73113500D01*
X111183802Y-70265500D02*
X111983802Y-70265500D01*
X111583802Y-69865500D02*
X111583802Y-70665500D01*
X122010500Y-74455500D02*
X122010500Y-69515500D01*
X124750500Y-74455500D02*
X124750500Y-69515500D01*
X122010500Y-74455500D02*
X122325500Y-74455500D01*
X124435500Y-74455500D02*
X124750500Y-74455500D01*
X122010500Y-69515500D02*
X122325500Y-69515500D01*
X124435500Y-69515500D02*
X124750500Y-69515500D01*
X130910257Y-87342212D02*
X132503743Y-86422212D01*
X132503743Y-86422212D02*
X130583743Y-83096674D01*
X130583743Y-83096674D02*
X128990257Y-84016674D01*
X128990257Y-84016674D02*
X130910257Y-87342212D01*
X132182000Y-87704936D02*
X131707000Y-86882212D01*
X129312000Y-82733950D02*
X129787000Y-83556674D01*
X140890000Y-89665500D02*
X139240000Y-89665500D01*
X140890000Y-99945500D02*
X140890000Y-89665500D01*
X135590000Y-99945500D02*
X140890000Y-99945500D01*
X135590000Y-89665500D02*
X135590000Y-99945500D01*
X137240000Y-89665500D02*
X135590000Y-89665500D01*
X139240000Y-89665500D02*
G75*
G02X137240000Y-89665500I-1000000J0D01*
G01*
X139302000Y-101350000D02*
G75*
G02X137302000Y-101350000I-1000000J0D01*
G01*
X137302000Y-101350000D02*
X135652000Y-101350000D01*
X135652000Y-101350000D02*
X135652000Y-119250000D01*
X135652000Y-119250000D02*
X140952000Y-119250000D01*
X140952000Y-119250000D02*
X140952000Y-101350000D01*
X140952000Y-101350000D02*
X139302000Y-101350000D01*
X127163257Y-111408712D02*
X128756743Y-110488712D01*
X128756743Y-110488712D02*
X126836743Y-107163174D01*
X126836743Y-107163174D02*
X125243257Y-108083174D01*
X125243257Y-108083174D02*
X127163257Y-111408712D01*
X128435000Y-111771436D02*
X127960000Y-110948712D01*
X125565000Y-106800450D02*
X126040000Y-107623174D01*
X69946000Y-100028000D02*
X71786000Y-100028000D01*
X71786000Y-100028000D02*
X71786000Y-96188000D01*
X71786000Y-96188000D02*
X69946000Y-96188000D01*
X69946000Y-96188000D02*
X69946000Y-100028000D01*
X70866000Y-100978000D02*
X70866000Y-100028000D01*
X70866000Y-95238000D02*
X70866000Y-96188000D01*
X87504288Y-78761257D02*
X86584288Y-80354743D01*
X86584288Y-80354743D02*
X89909826Y-82274743D01*
X89909826Y-82274743D02*
X90829826Y-80681257D01*
X90829826Y-80681257D02*
X87504288Y-78761257D01*
X86221564Y-79083000D02*
X87044288Y-79558000D01*
X91192550Y-81953000D02*
X90369826Y-81478000D01*
X86107288Y-81237757D02*
X85187288Y-82831243D01*
X85187288Y-82831243D02*
X88512826Y-84751243D01*
X88512826Y-84751243D02*
X89432826Y-83157757D01*
X89432826Y-83157757D02*
X86107288Y-81237757D01*
X84824564Y-81559500D02*
X85647288Y-82034500D01*
X89795550Y-84429500D02*
X88972826Y-83954500D01*
X136446500Y-120238000D02*
X136446500Y-122078000D01*
X136446500Y-122078000D02*
X140286500Y-122078000D01*
X140286500Y-122078000D02*
X140286500Y-120238000D01*
X140286500Y-120238000D02*
X136446500Y-120238000D01*
X135496500Y-121158000D02*
X136446500Y-121158000D01*
X141236500Y-121158000D02*
X140286500Y-121158000D01*
X129189212Y-97944243D02*
X128269212Y-96350757D01*
X128269212Y-96350757D02*
X124943674Y-98270757D01*
X124943674Y-98270757D02*
X125863674Y-99864243D01*
X125863674Y-99864243D02*
X129189212Y-97944243D01*
X129551936Y-96672500D02*
X128729212Y-97147500D01*
X124580950Y-99542500D02*
X125403674Y-99067500D01*
X133374257Y-85905812D02*
X134967743Y-84985812D01*
X134967743Y-84985812D02*
X133047743Y-81660274D01*
X133047743Y-81660274D02*
X131454257Y-82580274D01*
X131454257Y-82580274D02*
X133374257Y-85905812D01*
X134646000Y-86268536D02*
X134171000Y-85445812D01*
X131776000Y-81297550D02*
X132251000Y-82120274D01*
X123522500Y-120617500D02*
X123522500Y-118777500D01*
X123522500Y-118777500D02*
X119682500Y-118777500D01*
X119682500Y-118777500D02*
X119682500Y-120617500D01*
X119682500Y-120617500D02*
X123522500Y-120617500D01*
X124472500Y-119697500D02*
X123522500Y-119697500D01*
X118732500Y-119697500D02*
X119682500Y-119697500D01*
X106335257Y-74959712D02*
X107928743Y-74039712D01*
X107928743Y-74039712D02*
X106008743Y-70714174D01*
X106008743Y-70714174D02*
X104415257Y-71634174D01*
X104415257Y-71634174D02*
X106335257Y-74959712D01*
X107607000Y-75322436D02*
X107132000Y-74499712D01*
X104737000Y-70351450D02*
X105212000Y-71174174D01*
X63979545Y-83045519D02*
X66449545Y-78767354D01*
X66352455Y-84415519D02*
X68822455Y-80137354D01*
X63979545Y-83045519D02*
X64252343Y-83203019D01*
X66079657Y-84258019D02*
X66352455Y-84415519D01*
X66449545Y-78767354D02*
X66722343Y-78924854D01*
X68549657Y-79979854D02*
X68822455Y-80137354D01*
X62246000Y-97405500D02*
G75*
G02X64246000Y-97405500I1000000J0D01*
G01*
X64246000Y-97405500D02*
X65896000Y-97405500D01*
X65896000Y-97405500D02*
X65896000Y-87125500D01*
X65896000Y-87125500D02*
X60596000Y-87125500D01*
X60596000Y-87125500D02*
X60596000Y-97405500D01*
X60596000Y-97405500D02*
X62246000Y-97405500D01*
X74146743Y-83630788D02*
X72553257Y-82710788D01*
X72553257Y-82710788D02*
X70633257Y-86036326D01*
X70633257Y-86036326D02*
X72226743Y-86956326D01*
X72226743Y-86956326D02*
X74146743Y-83630788D01*
X73825000Y-82348064D02*
X73350000Y-83170788D01*
X70955000Y-87319050D02*
X71430000Y-86496326D01*
X74135500Y-96187500D02*
X72295500Y-96187500D01*
X72295500Y-96187500D02*
X72295500Y-100027500D01*
X72295500Y-100027500D02*
X74135500Y-100027500D01*
X74135500Y-100027500D02*
X74135500Y-96187500D01*
X73215500Y-95237500D02*
X73215500Y-96187500D01*
X73215500Y-100977500D02*
X73215500Y-100027500D01*
X76940743Y-109729288D02*
X75347257Y-108809288D01*
X75347257Y-108809288D02*
X73427257Y-112134826D01*
X73427257Y-112134826D02*
X75020743Y-113054826D01*
X75020743Y-113054826D02*
X76940743Y-109729288D01*
X76619000Y-108446564D02*
X76144000Y-109269288D01*
X73749000Y-113417550D02*
X74224000Y-112594826D01*
X84687743Y-75629788D02*
X83094257Y-74709788D01*
X83094257Y-74709788D02*
X81174257Y-78035326D01*
X81174257Y-78035326D02*
X82767743Y-78955326D01*
X82767743Y-78955326D02*
X84687743Y-75629788D01*
X84366000Y-74347064D02*
X83891000Y-75169788D01*
X81496000Y-79318050D02*
X81971000Y-78495326D01*
X65314500Y-99885500D02*
G75*
G03X65314500Y-99885500I-2120000J0D01*
G01*
X63194500Y-99045500D02*
X63194500Y-97805500D01*
X63194500Y-101965500D02*
X63194500Y-100725500D01*
X63154500Y-99045500D02*
X63154500Y-97805500D01*
X63154500Y-101965500D02*
X63154500Y-100725500D01*
X63114500Y-99045500D02*
X63114500Y-97806500D01*
X63114500Y-101964500D02*
X63114500Y-100725500D01*
X63074500Y-101962500D02*
X63074500Y-100725500D01*
X63074500Y-99045500D02*
X63074500Y-97808500D01*
X63034500Y-101959500D02*
X63034500Y-100725500D01*
X63034500Y-99045500D02*
X63034500Y-97811500D01*
X62994500Y-101956500D02*
X62994500Y-100725500D01*
X62994500Y-99045500D02*
X62994500Y-97814500D01*
X62954500Y-101952500D02*
X62954500Y-100725500D01*
X62954500Y-99045500D02*
X62954500Y-97818500D01*
X62914500Y-101947500D02*
X62914500Y-100725500D01*
X62914500Y-99045500D02*
X62914500Y-97823500D01*
X62874500Y-101941500D02*
X62874500Y-100725500D01*
X62874500Y-99045500D02*
X62874500Y-97829500D01*
X62834500Y-101935500D02*
X62834500Y-100725500D01*
X62834500Y-99045500D02*
X62834500Y-97835500D01*
X62794500Y-101927500D02*
X62794500Y-100725500D01*
X62794500Y-99045500D02*
X62794500Y-97843500D01*
X62754500Y-101919500D02*
X62754500Y-100725500D01*
X62754500Y-99045500D02*
X62754500Y-97851500D01*
X62714500Y-101910500D02*
X62714500Y-100725500D01*
X62714500Y-99045500D02*
X62714500Y-97860500D01*
X62674500Y-101901500D02*
X62674500Y-100725500D01*
X62674500Y-99045500D02*
X62674500Y-97869500D01*
X62634500Y-101890500D02*
X62634500Y-100725500D01*
X62634500Y-99045500D02*
X62634500Y-97880500D01*
X62594500Y-101879500D02*
X62594500Y-100725500D01*
X62594500Y-99045500D02*
X62594500Y-97891500D01*
X62554500Y-101867500D02*
X62554500Y-100725500D01*
X62554500Y-99045500D02*
X62554500Y-97903500D01*
X62514500Y-101853500D02*
X62514500Y-100725500D01*
X62514500Y-99045500D02*
X62514500Y-97917500D01*
X62473500Y-101839500D02*
X62473500Y-100725500D01*
X62473500Y-99045500D02*
X62473500Y-97931500D01*
X62433500Y-101825500D02*
X62433500Y-100725500D01*
X62433500Y-99045500D02*
X62433500Y-97945500D01*
X62393500Y-101809500D02*
X62393500Y-100725500D01*
X62393500Y-99045500D02*
X62393500Y-97961500D01*
X62353500Y-101792500D02*
X62353500Y-100725500D01*
X62353500Y-99045500D02*
X62353500Y-97978500D01*
X62313500Y-101774500D02*
X62313500Y-100725500D01*
X62313500Y-99045500D02*
X62313500Y-97996500D01*
X62273500Y-101755500D02*
X62273500Y-100725500D01*
X62273500Y-99045500D02*
X62273500Y-98015500D01*
X62233500Y-101736500D02*
X62233500Y-100725500D01*
X62233500Y-99045500D02*
X62233500Y-98034500D01*
X62193500Y-101715500D02*
X62193500Y-100725500D01*
X62193500Y-99045500D02*
X62193500Y-98055500D01*
X62153500Y-101693500D02*
X62153500Y-100725500D01*
X62153500Y-99045500D02*
X62153500Y-98077500D01*
X62113500Y-101670500D02*
X62113500Y-100725500D01*
X62113500Y-99045500D02*
X62113500Y-98100500D01*
X62073500Y-101645500D02*
X62073500Y-100725500D01*
X62073500Y-99045500D02*
X62073500Y-98125500D01*
X62033500Y-101620500D02*
X62033500Y-100725500D01*
X62033500Y-99045500D02*
X62033500Y-98150500D01*
X61993500Y-101593500D02*
X61993500Y-100725500D01*
X61993500Y-99045500D02*
X61993500Y-98177500D01*
X61953500Y-101565500D02*
X61953500Y-100725500D01*
X61953500Y-99045500D02*
X61953500Y-98205500D01*
X61913500Y-101535500D02*
X61913500Y-100725500D01*
X61913500Y-99045500D02*
X61913500Y-98235500D01*
X61873500Y-101504500D02*
X61873500Y-100725500D01*
X61873500Y-99045500D02*
X61873500Y-98266500D01*
X61833500Y-101472500D02*
X61833500Y-100725500D01*
X61833500Y-99045500D02*
X61833500Y-98298500D01*
X61793500Y-101437500D02*
X61793500Y-100725500D01*
X61793500Y-99045500D02*
X61793500Y-98333500D01*
X61753500Y-101401500D02*
X61753500Y-100725500D01*
X61753500Y-99045500D02*
X61753500Y-98369500D01*
X61713500Y-101363500D02*
X61713500Y-100725500D01*
X61713500Y-99045500D02*
X61713500Y-98407500D01*
X61673500Y-101323500D02*
X61673500Y-100725500D01*
X61673500Y-99045500D02*
X61673500Y-98447500D01*
X61633500Y-101281500D02*
X61633500Y-100725500D01*
X61633500Y-99045500D02*
X61633500Y-98489500D01*
X61593500Y-101236500D02*
X61593500Y-98534500D01*
X61553500Y-101189500D02*
X61553500Y-98581500D01*
X61513500Y-101139500D02*
X61513500Y-98631500D01*
X61473500Y-101085500D02*
X61473500Y-98685500D01*
X61433500Y-101027500D02*
X61433500Y-98743500D01*
X61393500Y-100965500D02*
X61393500Y-98805500D01*
X61353500Y-100898500D02*
X61353500Y-98872500D01*
X61313500Y-100825500D02*
X61313500Y-98945500D01*
X61273500Y-100744500D02*
X61273500Y-99026500D01*
X61233500Y-100653500D02*
X61233500Y-99117500D01*
X61193500Y-100549500D02*
X61193500Y-99221500D01*
X61153500Y-100422500D02*
X61153500Y-99348500D01*
X61113500Y-100255500D02*
X61113500Y-99515500D01*
X65464301Y-101080500D02*
X65064301Y-101080500D01*
X65264301Y-101280500D02*
X65264301Y-100880500D01*
X60273570Y-81138224D02*
X62943570Y-76513649D01*
X63254430Y-82859224D02*
X65924430Y-78234649D01*
X60273570Y-81138224D02*
X60850343Y-81471224D01*
X62677657Y-82526224D02*
X63254430Y-82859224D01*
X62943570Y-76513649D02*
X63520343Y-76846649D01*
X65347657Y-77901649D02*
X65924430Y-78234649D01*
X67091045Y-84760019D02*
X69561045Y-80481854D01*
X69463955Y-86130019D02*
X71933955Y-81851854D01*
X67091045Y-84760019D02*
X67363843Y-84917519D01*
X69191157Y-85972519D02*
X69463955Y-86130019D01*
X69561045Y-80481854D02*
X69833843Y-80639354D01*
X71661157Y-81694354D02*
X71933955Y-81851854D01*
X75263500Y-122301000D02*
G75*
G03X75263500Y-122301000I-4120000J0D01*
G01*
X71143500Y-118221000D02*
X71143500Y-126381000D01*
X71183500Y-118221000D02*
X71183500Y-126381000D01*
X71223500Y-118221000D02*
X71223500Y-126381000D01*
X71263500Y-118222000D02*
X71263500Y-126380000D01*
X71303500Y-118224000D02*
X71303500Y-126378000D01*
X71343500Y-118225000D02*
X71343500Y-126377000D01*
X71383500Y-118227000D02*
X71383500Y-126375000D01*
X71423500Y-118230000D02*
X71423500Y-126372000D01*
X71463500Y-118233000D02*
X71463500Y-126369000D01*
X71503500Y-118236000D02*
X71503500Y-126366000D01*
X71543500Y-118240000D02*
X71543500Y-126362000D01*
X71583500Y-118244000D02*
X71583500Y-126358000D01*
X71623500Y-118249000D02*
X71623500Y-126353000D01*
X71663500Y-118253000D02*
X71663500Y-126349000D01*
X71703500Y-118259000D02*
X71703500Y-126343000D01*
X71743500Y-118264000D02*
X71743500Y-126338000D01*
X71783500Y-118271000D02*
X71783500Y-126331000D01*
X71823500Y-118277000D02*
X71823500Y-126325000D01*
X71864500Y-118284000D02*
X71864500Y-126318000D01*
X71904500Y-118291000D02*
X71904500Y-126311000D01*
X71944500Y-118299000D02*
X71944500Y-126303000D01*
X71984500Y-118307000D02*
X71984500Y-126295000D01*
X72024500Y-118316000D02*
X72024500Y-126286000D01*
X72064500Y-118325000D02*
X72064500Y-126277000D01*
X72104500Y-118334000D02*
X72104500Y-126268000D01*
X72144500Y-118344000D02*
X72144500Y-126258000D01*
X72184500Y-118354000D02*
X72184500Y-126248000D01*
X72224500Y-118365000D02*
X72224500Y-126237000D01*
X72264500Y-118376000D02*
X72264500Y-126226000D01*
X72304500Y-118387000D02*
X72304500Y-126215000D01*
X72344500Y-118399000D02*
X72344500Y-126203000D01*
X72384500Y-118412000D02*
X72384500Y-126190000D01*
X72424500Y-118424000D02*
X72424500Y-126178000D01*
X72464500Y-118438000D02*
X72464500Y-126164000D01*
X72504500Y-118451000D02*
X72504500Y-126151000D01*
X72544500Y-118466000D02*
X72544500Y-126136000D01*
X72584500Y-118480000D02*
X72584500Y-126122000D01*
X72624500Y-118496000D02*
X72624500Y-121261000D01*
X72624500Y-123341000D02*
X72624500Y-126106000D01*
X72664500Y-118511000D02*
X72664500Y-121261000D01*
X72664500Y-123341000D02*
X72664500Y-126091000D01*
X72704500Y-118527000D02*
X72704500Y-121261000D01*
X72704500Y-123341000D02*
X72704500Y-126075000D01*
X72744500Y-118544000D02*
X72744500Y-121261000D01*
X72744500Y-123341000D02*
X72744500Y-126058000D01*
X72784500Y-118561000D02*
X72784500Y-121261000D01*
X72784500Y-123341000D02*
X72784500Y-126041000D01*
X72824500Y-118579000D02*
X72824500Y-121261000D01*
X72824500Y-123341000D02*
X72824500Y-126023000D01*
X72864500Y-118597000D02*
X72864500Y-121261000D01*
X72864500Y-123341000D02*
X72864500Y-126005000D01*
X72904500Y-118615000D02*
X72904500Y-121261000D01*
X72904500Y-123341000D02*
X72904500Y-125987000D01*
X72944500Y-118635000D02*
X72944500Y-121261000D01*
X72944500Y-123341000D02*
X72944500Y-125967000D01*
X72984500Y-118654000D02*
X72984500Y-121261000D01*
X72984500Y-123341000D02*
X72984500Y-125948000D01*
X73024500Y-118674000D02*
X73024500Y-121261000D01*
X73024500Y-123341000D02*
X73024500Y-125928000D01*
X73064500Y-118695000D02*
X73064500Y-121261000D01*
X73064500Y-123341000D02*
X73064500Y-125907000D01*
X73104500Y-118717000D02*
X73104500Y-121261000D01*
X73104500Y-123341000D02*
X73104500Y-125885000D01*
X73144500Y-118739000D02*
X73144500Y-121261000D01*
X73144500Y-123341000D02*
X73144500Y-125863000D01*
X73184500Y-118761000D02*
X73184500Y-121261000D01*
X73184500Y-123341000D02*
X73184500Y-125841000D01*
X73224500Y-118784000D02*
X73224500Y-121261000D01*
X73224500Y-123341000D02*
X73224500Y-125818000D01*
X73264500Y-118808000D02*
X73264500Y-121261000D01*
X73264500Y-123341000D02*
X73264500Y-125794000D01*
X73304500Y-118832000D02*
X73304500Y-121261000D01*
X73304500Y-123341000D02*
X73304500Y-125770000D01*
X73344500Y-118857000D02*
X73344500Y-121261000D01*
X73344500Y-123341000D02*
X73344500Y-125745000D01*
X73384500Y-118883000D02*
X73384500Y-121261000D01*
X73384500Y-123341000D02*
X73384500Y-125719000D01*
X73424500Y-118909000D02*
X73424500Y-121261000D01*
X73424500Y-123341000D02*
X73424500Y-125693000D01*
X73464500Y-118936000D02*
X73464500Y-121261000D01*
X73464500Y-123341000D02*
X73464500Y-125666000D01*
X73504500Y-118963000D02*
X73504500Y-121261000D01*
X73504500Y-123341000D02*
X73504500Y-125639000D01*
X73544500Y-118992000D02*
X73544500Y-121261000D01*
X73544500Y-123341000D02*
X73544500Y-125610000D01*
X73584500Y-119021000D02*
X73584500Y-121261000D01*
X73584500Y-123341000D02*
X73584500Y-125581000D01*
X73624500Y-119051000D02*
X73624500Y-121261000D01*
X73624500Y-123341000D02*
X73624500Y-125551000D01*
X73664500Y-119081000D02*
X73664500Y-121261000D01*
X73664500Y-123341000D02*
X73664500Y-125521000D01*
X73704500Y-119112000D02*
X73704500Y-121261000D01*
X73704500Y-123341000D02*
X73704500Y-125490000D01*
X73744500Y-119145000D02*
X73744500Y-121261000D01*
X73744500Y-123341000D02*
X73744500Y-125457000D01*
X73784500Y-119177000D02*
X73784500Y-121261000D01*
X73784500Y-123341000D02*
X73784500Y-125425000D01*
X73824500Y-119211000D02*
X73824500Y-121261000D01*
X73824500Y-123341000D02*
X73824500Y-125391000D01*
X73864500Y-119246000D02*
X73864500Y-121261000D01*
X73864500Y-123341000D02*
X73864500Y-125356000D01*
X73904500Y-119282000D02*
X73904500Y-121261000D01*
X73904500Y-123341000D02*
X73904500Y-125320000D01*
X73944500Y-119318000D02*
X73944500Y-121261000D01*
X73944500Y-123341000D02*
X73944500Y-125284000D01*
X73984500Y-119356000D02*
X73984500Y-121261000D01*
X73984500Y-123341000D02*
X73984500Y-125246000D01*
X74024500Y-119394000D02*
X74024500Y-121261000D01*
X74024500Y-123341000D02*
X74024500Y-125208000D01*
X74064500Y-119434000D02*
X74064500Y-121261000D01*
X74064500Y-123341000D02*
X74064500Y-125168000D01*
X74104500Y-119475000D02*
X74104500Y-121261000D01*
X74104500Y-123341000D02*
X74104500Y-125127000D01*
X74144500Y-119517000D02*
X74144500Y-121261000D01*
X74144500Y-123341000D02*
X74144500Y-125085000D01*
X74184500Y-119560000D02*
X74184500Y-121261000D01*
X74184500Y-123341000D02*
X74184500Y-125042000D01*
X74224500Y-119604000D02*
X74224500Y-121261000D01*
X74224500Y-123341000D02*
X74224500Y-124998000D01*
X74264500Y-119650000D02*
X74264500Y-121261000D01*
X74264500Y-123341000D02*
X74264500Y-124952000D01*
X74304500Y-119697000D02*
X74304500Y-121261000D01*
X74304500Y-123341000D02*
X74304500Y-124905000D01*
X74344500Y-119745000D02*
X74344500Y-121261000D01*
X74344500Y-123341000D02*
X74344500Y-124857000D01*
X74384500Y-119796000D02*
X74384500Y-121261000D01*
X74384500Y-123341000D02*
X74384500Y-124806000D01*
X74424500Y-119847000D02*
X74424500Y-121261000D01*
X74424500Y-123341000D02*
X74424500Y-124755000D01*
X74464500Y-119901000D02*
X74464500Y-121261000D01*
X74464500Y-123341000D02*
X74464500Y-124701000D01*
X74504500Y-119956000D02*
X74504500Y-121261000D01*
X74504500Y-123341000D02*
X74504500Y-124646000D01*
X74544500Y-120014000D02*
X74544500Y-121261000D01*
X74544500Y-123341000D02*
X74544500Y-124588000D01*
X74584500Y-120073000D02*
X74584500Y-121261000D01*
X74584500Y-123341000D02*
X74584500Y-124529000D01*
X74624500Y-120135000D02*
X74624500Y-121261000D01*
X74624500Y-123341000D02*
X74624500Y-124467000D01*
X74664500Y-120199000D02*
X74664500Y-121261000D01*
X74664500Y-123341000D02*
X74664500Y-124403000D01*
X74704500Y-120267000D02*
X74704500Y-124335000D01*
X74744500Y-120337000D02*
X74744500Y-124265000D01*
X74784500Y-120411000D02*
X74784500Y-124191000D01*
X74824500Y-120488000D02*
X74824500Y-124114000D01*
X74864500Y-120570000D02*
X74864500Y-124032000D01*
X74904500Y-120656000D02*
X74904500Y-123946000D01*
X74944500Y-120749000D02*
X74944500Y-123853000D01*
X74984500Y-120848000D02*
X74984500Y-123754000D01*
X75024500Y-120955000D02*
X75024500Y-123647000D01*
X75064500Y-121072000D02*
X75064500Y-123530000D01*
X75104500Y-121203000D02*
X75104500Y-123399000D01*
X75144500Y-121353000D02*
X75144500Y-123249000D01*
X75184500Y-121533000D02*
X75184500Y-123069000D01*
X75224500Y-121768000D02*
X75224500Y-122834000D01*
X66733802Y-119986000D02*
X67533802Y-119986000D01*
X67133802Y-119586000D02*
X67133802Y-120386000D01*
X65227000Y-114300000D02*
G75*
G03X65227000Y-114300000I-2120000J0D01*
G01*
X63107000Y-115140000D02*
X63107000Y-116380000D01*
X63107000Y-112220000D02*
X63107000Y-113460000D01*
X63147000Y-115140000D02*
X63147000Y-116380000D01*
X63147000Y-112220000D02*
X63147000Y-113460000D01*
X63187000Y-115140000D02*
X63187000Y-116379000D01*
X63187000Y-112221000D02*
X63187000Y-113460000D01*
X63227000Y-112223000D02*
X63227000Y-113460000D01*
X63227000Y-115140000D02*
X63227000Y-116377000D01*
X63267000Y-112226000D02*
X63267000Y-113460000D01*
X63267000Y-115140000D02*
X63267000Y-116374000D01*
X63307000Y-112229000D02*
X63307000Y-113460000D01*
X63307000Y-115140000D02*
X63307000Y-116371000D01*
X63347000Y-112233000D02*
X63347000Y-113460000D01*
X63347000Y-115140000D02*
X63347000Y-116367000D01*
X63387000Y-112238000D02*
X63387000Y-113460000D01*
X63387000Y-115140000D02*
X63387000Y-116362000D01*
X63427000Y-112244000D02*
X63427000Y-113460000D01*
X63427000Y-115140000D02*
X63427000Y-116356000D01*
X63467000Y-112250000D02*
X63467000Y-113460000D01*
X63467000Y-115140000D02*
X63467000Y-116350000D01*
X63507000Y-112258000D02*
X63507000Y-113460000D01*
X63507000Y-115140000D02*
X63507000Y-116342000D01*
X63547000Y-112266000D02*
X63547000Y-113460000D01*
X63547000Y-115140000D02*
X63547000Y-116334000D01*
X63587000Y-112275000D02*
X63587000Y-113460000D01*
X63587000Y-115140000D02*
X63587000Y-116325000D01*
X63627000Y-112284000D02*
X63627000Y-113460000D01*
X63627000Y-115140000D02*
X63627000Y-116316000D01*
X63667000Y-112295000D02*
X63667000Y-113460000D01*
X63667000Y-115140000D02*
X63667000Y-116305000D01*
X63707000Y-112306000D02*
X63707000Y-113460000D01*
X63707000Y-115140000D02*
X63707000Y-116294000D01*
X63747000Y-112318000D02*
X63747000Y-113460000D01*
X63747000Y-115140000D02*
X63747000Y-116282000D01*
X63787000Y-112332000D02*
X63787000Y-113460000D01*
X63787000Y-115140000D02*
X63787000Y-116268000D01*
X63828000Y-112346000D02*
X63828000Y-113460000D01*
X63828000Y-115140000D02*
X63828000Y-116254000D01*
X63868000Y-112360000D02*
X63868000Y-113460000D01*
X63868000Y-115140000D02*
X63868000Y-116240000D01*
X63908000Y-112376000D02*
X63908000Y-113460000D01*
X63908000Y-115140000D02*
X63908000Y-116224000D01*
X63948000Y-112393000D02*
X63948000Y-113460000D01*
X63948000Y-115140000D02*
X63948000Y-116207000D01*
X63988000Y-112411000D02*
X63988000Y-113460000D01*
X63988000Y-115140000D02*
X63988000Y-116189000D01*
X64028000Y-112430000D02*
X64028000Y-113460000D01*
X64028000Y-115140000D02*
X64028000Y-116170000D01*
X64068000Y-112449000D02*
X64068000Y-113460000D01*
X64068000Y-115140000D02*
X64068000Y-116151000D01*
X64108000Y-112470000D02*
X64108000Y-113460000D01*
X64108000Y-115140000D02*
X64108000Y-116130000D01*
X64148000Y-112492000D02*
X64148000Y-113460000D01*
X64148000Y-115140000D02*
X64148000Y-116108000D01*
X64188000Y-112515000D02*
X64188000Y-113460000D01*
X64188000Y-115140000D02*
X64188000Y-116085000D01*
X64228000Y-112540000D02*
X64228000Y-113460000D01*
X64228000Y-115140000D02*
X64228000Y-116060000D01*
X64268000Y-112565000D02*
X64268000Y-113460000D01*
X64268000Y-115140000D02*
X64268000Y-116035000D01*
X64308000Y-112592000D02*
X64308000Y-113460000D01*
X64308000Y-115140000D02*
X64308000Y-116008000D01*
X64348000Y-112620000D02*
X64348000Y-113460000D01*
X64348000Y-115140000D02*
X64348000Y-115980000D01*
X64388000Y-112650000D02*
X64388000Y-113460000D01*
X64388000Y-115140000D02*
X64388000Y-115950000D01*
X64428000Y-112681000D02*
X64428000Y-113460000D01*
X64428000Y-115140000D02*
X64428000Y-115919000D01*
X64468000Y-112713000D02*
X64468000Y-113460000D01*
X64468000Y-115140000D02*
X64468000Y-115887000D01*
X64508000Y-112748000D02*
X64508000Y-113460000D01*
X64508000Y-115140000D02*
X64508000Y-115852000D01*
X64548000Y-112784000D02*
X64548000Y-113460000D01*
X64548000Y-115140000D02*
X64548000Y-115816000D01*
X64588000Y-112822000D02*
X64588000Y-113460000D01*
X64588000Y-115140000D02*
X64588000Y-115778000D01*
X64628000Y-112862000D02*
X64628000Y-113460000D01*
X64628000Y-115140000D02*
X64628000Y-115738000D01*
X64668000Y-112904000D02*
X64668000Y-113460000D01*
X64668000Y-115140000D02*
X64668000Y-115696000D01*
X64708000Y-112949000D02*
X64708000Y-115651000D01*
X64748000Y-112996000D02*
X64748000Y-115604000D01*
X64788000Y-113046000D02*
X64788000Y-115554000D01*
X64828000Y-113100000D02*
X64828000Y-115500000D01*
X64868000Y-113158000D02*
X64868000Y-115442000D01*
X64908000Y-113220000D02*
X64908000Y-115380000D01*
X64948000Y-113287000D02*
X64948000Y-115313000D01*
X64988000Y-113360000D02*
X64988000Y-115240000D01*
X65028000Y-113441000D02*
X65028000Y-115159000D01*
X65068000Y-113532000D02*
X65068000Y-115068000D01*
X65108000Y-113636000D02*
X65108000Y-114964000D01*
X65148000Y-113763000D02*
X65148000Y-114837000D01*
X65188000Y-113930000D02*
X65188000Y-114670000D01*
X60837199Y-113105000D02*
X61237199Y-113105000D01*
X61037199Y-112905000D02*
X61037199Y-113305000D01*
X110619375Y-122189381D02*
X111676218Y-125093031D01*
X116053409Y-122765634D02*
G75*
G03X116053409Y-122765634I-2499999J0D01*
G01*
X116363249Y-121743427D02*
G75*
G03X110619434Y-122189541I-2809839J-1022207D01*
G01*
X116362934Y-121742560D02*
G75*
G02X111676159Y-125092871I-2809524J-1023074D01*
G01*
X114330218Y-83312514D02*
X116274818Y-80911133D01*
X115813025Y-80500763D02*
G75*
G03X115813025Y-80500763I-2500000J0D01*
G01*
X110989650Y-78618736D02*
G75*
G03X114330325Y-83312382I2323375J-1882027D01*
G01*
X110989069Y-78619454D02*
G75*
G02X116274711Y-80911265I2323956J-1881309D01*
G01*
X76730713Y-104525361D02*
G75*
G02X76172646Y-98791341I518754J2944655D01*
G01*
X76729804Y-104525201D02*
G75*
G03X79215367Y-99327855I519663J2944495D01*
G01*
X79749467Y-101580706D02*
G75*
G03X79749467Y-101580706I-2500000J0D01*
G01*
X79215534Y-99327884D02*
X76172478Y-98791312D01*
X76459564Y-94331358D02*
X78884436Y-95731358D01*
X82659564Y-83592642D02*
X85084436Y-84992642D01*
X86989691Y-86092642D02*
X89241358Y-87392642D01*
X89241358Y-87392642D02*
X83041358Y-98131358D01*
X83041358Y-98131358D02*
X80789691Y-96831358D01*
X74554309Y-93231358D02*
X72302642Y-91931358D01*
X72302642Y-91931358D02*
X78502642Y-81192642D01*
X78502642Y-81192642D02*
X80754309Y-82492642D01*
X95400000Y-124330000D02*
X95400000Y-127130000D01*
X107800000Y-124330000D02*
X107800000Y-127130000D01*
X107800000Y-129330000D02*
X107800000Y-131930000D01*
X107800000Y-131930000D02*
X95400000Y-131930000D01*
X95400000Y-131930000D02*
X95400000Y-129330000D01*
X95400000Y-122130000D02*
X95400000Y-119530000D01*
X95400000Y-119530000D02*
X107800000Y-119530000D01*
X107800000Y-119530000D02*
X107800000Y-122130000D01*
X130897358Y-91931358D02*
X128645691Y-93231358D01*
X124697358Y-81192642D02*
X130897358Y-91931358D01*
X122445691Y-82492642D02*
X124697358Y-81192642D01*
X113958642Y-87392642D02*
X116210309Y-86092642D01*
X120158642Y-98131358D02*
X113958642Y-87392642D01*
X122410309Y-96831358D02*
X120158642Y-98131358D01*
X126740436Y-94331358D02*
X124315564Y-95731358D01*
X120540436Y-83592642D02*
X118115564Y-84992642D01*
D14*
X78547667Y-57580087D02*
G75*
G03X78374461Y-57680087I-86603J-50000D01*
G01*
X78374462Y-57680087D02*
G75*
G03X78547666Y-57580087I86602J50000D01*
G01*
X78374461Y-57680087D02*
X78374461Y-57680087D01*
X78547666Y-57580087D02*
X78547666Y-57580087D01*
D10*
X72848886Y-61909510D02*
X73714911Y-61409510D01*
X74648886Y-65027201D02*
X72848886Y-61909510D01*
X75514911Y-64527201D02*
X74648886Y-65027201D01*
X80643114Y-57409510D02*
X79777089Y-57909510D01*
X82443114Y-60527201D02*
X80643114Y-57409510D01*
X81577089Y-61027201D02*
X82443114Y-60527201D01*
D17*
X77309250Y-139478716D02*
X77040867Y-140790235D01*
X78042485Y-139902049D01*
X78402589Y-141576425D02*
X78338353Y-140841019D01*
X77774102Y-141213568D02*
X78409102Y-140113716D01*
X78828093Y-140355621D01*
X78902603Y-140468471D01*
X78924739Y-140551083D01*
X78916637Y-140686069D01*
X78825922Y-140843190D01*
X78713072Y-140917700D01*
X78630460Y-140939836D01*
X78495474Y-140931734D01*
X78076483Y-140689829D01*
X79450067Y-142181187D02*
X78821580Y-141818330D01*
X79135824Y-141999759D02*
X79770824Y-140899906D01*
X79575362Y-140996552D01*
X79410138Y-141040824D01*
X79275152Y-141032721D01*
X113414523Y-59916333D02*
X114321666Y-59916333D01*
X114503095Y-59976809D01*
X114624047Y-60097761D01*
X114684523Y-60279190D01*
X114684523Y-60400142D01*
X114684523Y-58646333D02*
X114684523Y-59372047D01*
X114684523Y-59009190D02*
X113414523Y-59009190D01*
X113595952Y-59130142D01*
X113716904Y-59251095D01*
X113777380Y-59372047D01*
D18*
X89074504Y-59967613D02*
X89074504Y-60682248D01*
X89026861Y-60825174D01*
X88931577Y-60920459D01*
X88788650Y-60968101D01*
X88693365Y-60968101D01*
X89503284Y-60062898D02*
X89550926Y-60015256D01*
X89646211Y-59967613D01*
X89884422Y-59967613D01*
X89979707Y-60015256D01*
X90027349Y-60062898D01*
X90074992Y-60158182D01*
X90074992Y-60253467D01*
X90027349Y-60396394D01*
X89455642Y-60968101D01*
X90074992Y-60968101D01*
D15*
X101451833Y-145378714D02*
X101451833Y-145923000D01*
X101421595Y-146031857D01*
X101361119Y-146104428D01*
X101270404Y-146140714D01*
X101209928Y-146140714D01*
X102026357Y-145632714D02*
X102026357Y-146140714D01*
X101875166Y-145342428D02*
X101723976Y-145886714D01*
X102117071Y-145886714D01*
D11*
X101266666Y-59134380D02*
X101266666Y-59848666D01*
X101219047Y-59991523D01*
X101123809Y-60086761D01*
X100980952Y-60134380D01*
X100885714Y-60134380D01*
X101647619Y-59134380D02*
X102266666Y-59134380D01*
X101933333Y-59515333D01*
X102076190Y-59515333D01*
X102171428Y-59562952D01*
X102219047Y-59610571D01*
X102266666Y-59705809D01*
X102266666Y-59943904D01*
X102219047Y-60039142D01*
X102171428Y-60086761D01*
X102076190Y-60134380D01*
X101790476Y-60134380D01*
X101695238Y-60086761D01*
X101647619Y-60039142D01*
X90558880Y-132341857D02*
X90082690Y-132675190D01*
X90558880Y-132913285D02*
X89558880Y-132913285D01*
X89558880Y-132532333D01*
X89606500Y-132437095D01*
X89654119Y-132389476D01*
X89749357Y-132341857D01*
X89892214Y-132341857D01*
X89987452Y-132389476D01*
X90035071Y-132437095D01*
X90082690Y-132532333D01*
X90082690Y-132913285D01*
X90558880Y-131389476D02*
X90558880Y-131960904D01*
X90558880Y-131675190D02*
X89558880Y-131675190D01*
X89701738Y-131770428D01*
X89796976Y-131865666D01*
X89844595Y-131960904D01*
X89558880Y-130532333D02*
X89558880Y-130722809D01*
X89606500Y-130818047D01*
X89654119Y-130865666D01*
X89796976Y-130960904D01*
X89987452Y-131008523D01*
X90368404Y-131008523D01*
X90463642Y-130960904D01*
X90511261Y-130913285D01*
X90558880Y-130818047D01*
X90558880Y-130627571D01*
X90511261Y-130532333D01*
X90463642Y-130484714D01*
X90368404Y-130437095D01*
X90130309Y-130437095D01*
X90035071Y-130484714D01*
X89987452Y-130532333D01*
X89939833Y-130627571D01*
X89939833Y-130818047D01*
X89987452Y-130913285D01*
X90035071Y-130960904D01*
X90130309Y-131008523D01*
X62611095Y-105116380D02*
X62611095Y-105925904D01*
X62658714Y-106021142D01*
X62706333Y-106068761D01*
X62801571Y-106116380D01*
X62992047Y-106116380D01*
X63087285Y-106068761D01*
X63134904Y-106021142D01*
X63182523Y-105925904D01*
X63182523Y-105116380D01*
X63563476Y-105116380D02*
X64182523Y-105116380D01*
X63849190Y-105497333D01*
X63992047Y-105497333D01*
X64087285Y-105544952D01*
X64134904Y-105592571D01*
X64182523Y-105687809D01*
X64182523Y-105925904D01*
X64134904Y-106021142D01*
X64087285Y-106068761D01*
X63992047Y-106116380D01*
X63706333Y-106116380D01*
X63611095Y-106068761D01*
X63563476Y-106021142D01*
X62666642Y-110497880D02*
X62333309Y-110021690D01*
X62095214Y-110497880D02*
X62095214Y-109497880D01*
X62476166Y-109497880D01*
X62571404Y-109545500D01*
X62619023Y-109593119D01*
X62666642Y-109688357D01*
X62666642Y-109831214D01*
X62619023Y-109926452D01*
X62571404Y-109974071D01*
X62476166Y-110021690D01*
X62095214Y-110021690D01*
X63619023Y-110497880D02*
X63047595Y-110497880D01*
X63333309Y-110497880D02*
X63333309Y-109497880D01*
X63238071Y-109640738D01*
X63142833Y-109735976D01*
X63047595Y-109783595D01*
X64523785Y-109497880D02*
X64047595Y-109497880D01*
X63999976Y-109974071D01*
X64047595Y-109926452D01*
X64142833Y-109878833D01*
X64380928Y-109878833D01*
X64476166Y-109926452D01*
X64523785Y-109974071D01*
X64571404Y-110069309D01*
X64571404Y-110307404D01*
X64523785Y-110402642D01*
X64476166Y-110450261D01*
X64380928Y-110497880D01*
X64142833Y-110497880D01*
X64047595Y-110450261D01*
X63999976Y-110402642D01*
X109339142Y-72874142D02*
X109291523Y-72921761D01*
X109148666Y-72969380D01*
X109053428Y-72969380D01*
X108910571Y-72921761D01*
X108815333Y-72826523D01*
X108767714Y-72731285D01*
X108720095Y-72540809D01*
X108720095Y-72397952D01*
X108767714Y-72207476D01*
X108815333Y-72112238D01*
X108910571Y-72017000D01*
X109053428Y-71969380D01*
X109148666Y-71969380D01*
X109291523Y-72017000D01*
X109339142Y-72064619D01*
X110291523Y-72969380D02*
X109720095Y-72969380D01*
X110005809Y-72969380D02*
X110005809Y-71969380D01*
X109910571Y-72112238D01*
X109815333Y-72207476D01*
X109720095Y-72255095D01*
X111243904Y-72969380D02*
X110672476Y-72969380D01*
X110958190Y-72969380D02*
X110958190Y-71969380D01*
X110862952Y-72112238D01*
X110767714Y-72207476D01*
X110672476Y-72255095D01*
X123864642Y-72588357D02*
X123912261Y-72635976D01*
X123959880Y-72778833D01*
X123959880Y-72874071D01*
X123912261Y-73016928D01*
X123817023Y-73112166D01*
X123721785Y-73159785D01*
X123531309Y-73207404D01*
X123388452Y-73207404D01*
X123197976Y-73159785D01*
X123102738Y-73112166D01*
X123007500Y-73016928D01*
X122959880Y-72874071D01*
X122959880Y-72778833D01*
X123007500Y-72635976D01*
X123055119Y-72588357D01*
X123959880Y-71635976D02*
X123959880Y-72207404D01*
X123959880Y-71921690D02*
X122959880Y-71921690D01*
X123102738Y-72016928D01*
X123197976Y-72112166D01*
X123245595Y-72207404D01*
X122959880Y-71016928D02*
X122959880Y-70921690D01*
X123007500Y-70826452D01*
X123055119Y-70778833D01*
X123150357Y-70731214D01*
X123340833Y-70683595D01*
X123578928Y-70683595D01*
X123769404Y-70731214D01*
X123864642Y-70778833D01*
X123912261Y-70826452D01*
X123959880Y-70921690D01*
X123959880Y-71016928D01*
X123912261Y-71112166D01*
X123864642Y-71159785D01*
X123769404Y-71207404D01*
X123578928Y-71255023D01*
X123340833Y-71255023D01*
X123150357Y-71207404D01*
X123055119Y-71159785D01*
X123007500Y-71112166D01*
X122959880Y-71016928D01*
X130271893Y-85298852D02*
X130517619Y-84772082D01*
X129986178Y-84803981D02*
X130852204Y-84303981D01*
X131042680Y-84633895D01*
X131049060Y-84740183D01*
X131031630Y-84805232D01*
X130972961Y-84894091D01*
X130849243Y-84965519D01*
X130742955Y-84971899D01*
X130677906Y-84954469D01*
X130589048Y-84895800D01*
X130398572Y-84565886D01*
X131566490Y-85541160D02*
X131471252Y-85376203D01*
X131382393Y-85317534D01*
X131317344Y-85300104D01*
X131146007Y-85289054D01*
X130957241Y-85343053D01*
X130627326Y-85533529D01*
X130568657Y-85622387D01*
X130551227Y-85687436D01*
X130557607Y-85793724D01*
X130652845Y-85958681D01*
X130741704Y-86017350D01*
X130806752Y-86034780D01*
X130913040Y-86028400D01*
X131119237Y-85909353D01*
X131177906Y-85820494D01*
X131195336Y-85755446D01*
X131188956Y-85649157D01*
X131093718Y-85484200D01*
X131004860Y-85425531D01*
X130939811Y-85408101D01*
X130833523Y-85414481D01*
X137478095Y-91336880D02*
X137478095Y-92146404D01*
X137525714Y-92241642D01*
X137573333Y-92289261D01*
X137668571Y-92336880D01*
X137859047Y-92336880D01*
X137954285Y-92289261D01*
X138001904Y-92241642D01*
X138049523Y-92146404D01*
X138049523Y-91336880D01*
X138478095Y-91432119D02*
X138525714Y-91384500D01*
X138620952Y-91336880D01*
X138859047Y-91336880D01*
X138954285Y-91384500D01*
X139001904Y-91432119D01*
X139049523Y-91527357D01*
X139049523Y-91622595D01*
X139001904Y-91765452D01*
X138430476Y-92336880D01*
X139049523Y-92336880D01*
X137541095Y-103020880D02*
X137541095Y-103830404D01*
X137588714Y-103925642D01*
X137636333Y-103973261D01*
X137731571Y-104020880D01*
X137922047Y-104020880D01*
X138017285Y-103973261D01*
X138064904Y-103925642D01*
X138112523Y-103830404D01*
X138112523Y-103020880D01*
X139112523Y-104020880D02*
X138541095Y-104020880D01*
X138826809Y-104020880D02*
X138826809Y-103020880D01*
X138731571Y-103163738D01*
X138636333Y-103258976D01*
X138541095Y-103306595D01*
X126524893Y-109492352D02*
X126770619Y-108965582D01*
X126239178Y-108997481D02*
X127105204Y-108497481D01*
X127295680Y-108827395D01*
X127302060Y-108933683D01*
X127284630Y-108998732D01*
X127225961Y-109087591D01*
X127102243Y-109159019D01*
X126995955Y-109165399D01*
X126930906Y-109147969D01*
X126842048Y-109089300D01*
X126651572Y-108759386D01*
X127557585Y-109281028D02*
X127890918Y-109858378D01*
X126810607Y-109987224D01*
X71381880Y-98210666D02*
X70905690Y-98544000D01*
X71381880Y-98782095D02*
X70381880Y-98782095D01*
X70381880Y-98401142D01*
X70429500Y-98305904D01*
X70477119Y-98258285D01*
X70572357Y-98210666D01*
X70715214Y-98210666D01*
X70810452Y-98258285D01*
X70858071Y-98305904D01*
X70905690Y-98401142D01*
X70905690Y-98782095D01*
X70715214Y-97353523D02*
X71381880Y-97353523D01*
X70334261Y-97591619D02*
X71048547Y-97829714D01*
X71048547Y-97210666D01*
X87951503Y-80619233D02*
X87900924Y-80040174D01*
X87456632Y-80333519D02*
X87956632Y-79467494D01*
X88286546Y-79657970D01*
X88345215Y-79746828D01*
X88362645Y-79811877D01*
X88356265Y-79918165D01*
X88284837Y-80041883D01*
X88195978Y-80100552D01*
X88130930Y-80117982D01*
X88024641Y-80111602D01*
X87694727Y-79921126D01*
X88776290Y-81095424D02*
X88281418Y-80809710D01*
X88528854Y-80952567D02*
X89028854Y-80086541D01*
X88874946Y-80162640D01*
X88744849Y-80197500D01*
X88638561Y-80191120D01*
X89812400Y-80538922D02*
X89894879Y-80586541D01*
X89953548Y-80675400D01*
X89970978Y-80740448D01*
X89964598Y-80846737D01*
X89910599Y-81035503D01*
X89791552Y-81241700D01*
X89655074Y-81382848D01*
X89566216Y-81441517D01*
X89501167Y-81458946D01*
X89394879Y-81452567D01*
X89312400Y-81404948D01*
X89253731Y-81316089D01*
X89236302Y-81251040D01*
X89242681Y-81144752D01*
X89296680Y-80955986D01*
X89415728Y-80749789D01*
X89552205Y-80608641D01*
X89641064Y-80549972D01*
X89706112Y-80532542D01*
X89812400Y-80538922D01*
X86939528Y-83302940D02*
X86888949Y-82723880D01*
X86444657Y-83017225D02*
X86944657Y-82151200D01*
X87274571Y-82341676D01*
X87333240Y-82430534D01*
X87350670Y-82495583D01*
X87344290Y-82601871D01*
X87272862Y-82725589D01*
X87184003Y-82784258D01*
X87118955Y-82801688D01*
X87012666Y-82795308D01*
X86682752Y-82604832D01*
X87351922Y-83541035D02*
X87516879Y-83636273D01*
X87623167Y-83642653D01*
X87688216Y-83625223D01*
X87842123Y-83549124D01*
X87978600Y-83407976D01*
X88169076Y-83078062D01*
X88175456Y-82971774D01*
X88158026Y-82906725D01*
X88099357Y-82817867D01*
X87934400Y-82722628D01*
X87828112Y-82716249D01*
X87763063Y-82733678D01*
X87674205Y-82792348D01*
X87555157Y-82998544D01*
X87548777Y-83104832D01*
X87566207Y-83169881D01*
X87624876Y-83258739D01*
X87789834Y-83353978D01*
X87896122Y-83360357D01*
X87961170Y-83342927D01*
X88050029Y-83284258D01*
X138263333Y-121673880D02*
X137930000Y-121197690D01*
X137691904Y-121673880D02*
X137691904Y-120673880D01*
X138072857Y-120673880D01*
X138168095Y-120721500D01*
X138215714Y-120769119D01*
X138263333Y-120864357D01*
X138263333Y-121007214D01*
X138215714Y-121102452D01*
X138168095Y-121150071D01*
X138072857Y-121197690D01*
X137691904Y-121197690D01*
X138596666Y-120673880D02*
X139215714Y-120673880D01*
X138882380Y-121054833D01*
X139025238Y-121054833D01*
X139120476Y-121102452D01*
X139168095Y-121150071D01*
X139215714Y-121245309D01*
X139215714Y-121483404D01*
X139168095Y-121578642D01*
X139120476Y-121626261D01*
X139025238Y-121673880D01*
X138739523Y-121673880D01*
X138644285Y-121626261D01*
X138596666Y-121578642D01*
X127208852Y-98582606D02*
X126682082Y-98336880D01*
X126713981Y-98868321D02*
X126213981Y-98002295D01*
X126543895Y-97811819D01*
X126650183Y-97805439D01*
X126715232Y-97822869D01*
X126804091Y-97881538D01*
X126875519Y-98005256D01*
X126881899Y-98111544D01*
X126864469Y-98176593D01*
X126805800Y-98265451D01*
X126475886Y-98455927D01*
X127086386Y-97608583D02*
X127103816Y-97543534D01*
X127162485Y-97454676D01*
X127368681Y-97335628D01*
X127474969Y-97329249D01*
X127540018Y-97346678D01*
X127628877Y-97405348D01*
X127676496Y-97487826D01*
X127706685Y-97635354D01*
X127497528Y-98415940D01*
X128033639Y-98106416D01*
X132509798Y-83425959D02*
X132755524Y-82899189D01*
X132224083Y-82931088D02*
X133090109Y-82431088D01*
X133280585Y-82761002D01*
X133286965Y-82867290D01*
X133269535Y-82932339D01*
X133210866Y-83021197D01*
X133087148Y-83092626D01*
X132980860Y-83099006D01*
X132915811Y-83081576D01*
X132826952Y-83022907D01*
X132636476Y-82692992D01*
X132985988Y-84250745D02*
X132700274Y-83755874D01*
X132843131Y-84003310D02*
X133709156Y-83503310D01*
X133537819Y-83492260D01*
X133407722Y-83457400D01*
X133318863Y-83398731D01*
X133462178Y-85075532D02*
X133176464Y-84580660D01*
X133319321Y-84828096D02*
X134185347Y-84328096D01*
X134014010Y-84317046D01*
X133883912Y-84282186D01*
X133795054Y-84223517D01*
X120959642Y-120213380D02*
X120626309Y-119737190D01*
X120388214Y-120213380D02*
X120388214Y-119213380D01*
X120769166Y-119213380D01*
X120864404Y-119261000D01*
X120912023Y-119308619D01*
X120959642Y-119403857D01*
X120959642Y-119546714D01*
X120912023Y-119641952D01*
X120864404Y-119689571D01*
X120769166Y-119737190D01*
X120388214Y-119737190D01*
X121912023Y-120213380D02*
X121340595Y-120213380D01*
X121626309Y-120213380D02*
X121626309Y-119213380D01*
X121531071Y-119356238D01*
X121435833Y-119451476D01*
X121340595Y-119499095D01*
X122769166Y-119546714D02*
X122769166Y-120213380D01*
X122531071Y-119165761D02*
X122292976Y-119880047D01*
X122912023Y-119880047D01*
X105458798Y-72503959D02*
X105704524Y-71977189D01*
X105173083Y-72009088D02*
X106039109Y-71509088D01*
X106229585Y-71839002D01*
X106235965Y-71945290D01*
X106218535Y-72010339D01*
X106159866Y-72099197D01*
X106036148Y-72170626D01*
X105929860Y-72177006D01*
X105864811Y-72159576D01*
X105775952Y-72100907D01*
X105585476Y-71770992D01*
X105934988Y-73328745D02*
X105649274Y-72833874D01*
X105792131Y-73081310D02*
X106658156Y-72581310D01*
X106486819Y-72570260D01*
X106356722Y-72535400D01*
X106267863Y-72476731D01*
X106967680Y-73117421D02*
X107277204Y-73653532D01*
X106780623Y-73555333D01*
X106852051Y-73679051D01*
X106858431Y-73785339D01*
X106841001Y-73850387D01*
X106782332Y-73939246D01*
X106576136Y-74058293D01*
X106469848Y-74064673D01*
X106404799Y-74047243D01*
X106315940Y-73988574D01*
X106173083Y-73741139D01*
X106166704Y-73634850D01*
X106184133Y-73569802D01*
X66583461Y-82047408D02*
X66600891Y-82112457D01*
X66570701Y-82259985D01*
X66523082Y-82342463D01*
X66410415Y-82442372D01*
X66280317Y-82477231D01*
X66174029Y-82470852D01*
X65985262Y-82416853D01*
X65861544Y-82345424D01*
X65720396Y-82208947D01*
X65661727Y-82120088D01*
X65626868Y-81989991D01*
X65657057Y-81842463D01*
X65704676Y-81759985D01*
X65817344Y-81660076D01*
X65882393Y-81642647D01*
X66072869Y-81312732D02*
X66055439Y-81247683D01*
X66061819Y-81141395D01*
X66180867Y-80935199D01*
X66269725Y-80876530D01*
X66334774Y-80859100D01*
X66441062Y-80865480D01*
X66523540Y-80913099D01*
X66623449Y-81025766D01*
X66832606Y-81806352D01*
X67142130Y-81270241D01*
X62547595Y-94829380D02*
X62547595Y-95638904D01*
X62595214Y-95734142D01*
X62642833Y-95781761D01*
X62738071Y-95829380D01*
X62928547Y-95829380D01*
X63023785Y-95781761D01*
X63071404Y-95734142D01*
X63119023Y-95638904D01*
X63119023Y-94829380D01*
X64023785Y-95162714D02*
X64023785Y-95829380D01*
X63785690Y-94781761D02*
X63547595Y-95496047D01*
X64166642Y-95496047D01*
X72728074Y-85260299D02*
X72149014Y-85310878D01*
X72442359Y-85755170D02*
X71576334Y-85255170D01*
X71766810Y-84925256D01*
X71855668Y-84866587D01*
X71920717Y-84849157D01*
X72027005Y-84855537D01*
X72150723Y-84926965D01*
X72209392Y-85015824D01*
X72226822Y-85080872D01*
X72220442Y-85187161D01*
X72029966Y-85517075D01*
X72314429Y-83976752D02*
X72076334Y-84389145D01*
X72464917Y-84668479D01*
X72447488Y-84603431D01*
X72453867Y-84497142D01*
X72572915Y-84290946D01*
X72661773Y-84232277D01*
X72726822Y-84214847D01*
X72833110Y-84221227D01*
X73039307Y-84340274D01*
X73097976Y-84429133D01*
X73115406Y-84494182D01*
X73109026Y-84600470D01*
X72989978Y-84806666D01*
X72901120Y-84865335D01*
X72836071Y-84882765D01*
X73753401Y-98253039D02*
X73277211Y-98586373D01*
X73753401Y-98824468D02*
X72753401Y-98824468D01*
X72753401Y-98443515D01*
X72801021Y-98348277D01*
X72848640Y-98300658D01*
X72943878Y-98253039D01*
X73086735Y-98253039D01*
X73181973Y-98300658D01*
X73229592Y-98348277D01*
X73277211Y-98443515D01*
X73277211Y-98824468D01*
X73181973Y-97681611D02*
X73134354Y-97776849D01*
X73086735Y-97824468D01*
X72991497Y-97872087D01*
X72943878Y-97872087D01*
X72848640Y-97824468D01*
X72801021Y-97776849D01*
X72753401Y-97681611D01*
X72753401Y-97491134D01*
X72801021Y-97395896D01*
X72848640Y-97348277D01*
X72943878Y-97300658D01*
X72991497Y-97300658D01*
X73086735Y-97348277D01*
X73134354Y-97395896D01*
X73181973Y-97491134D01*
X73181973Y-97681611D01*
X73229592Y-97776849D01*
X73277211Y-97824468D01*
X73372449Y-97872087D01*
X73562925Y-97872087D01*
X73658163Y-97824468D01*
X73705782Y-97776849D01*
X73753401Y-97681611D01*
X73753401Y-97491134D01*
X73705782Y-97395896D01*
X73658163Y-97348277D01*
X73562925Y-97300658D01*
X73372449Y-97300658D01*
X73277211Y-97348277D01*
X73229592Y-97395896D01*
X73181973Y-97491134D01*
X75254344Y-111717421D02*
X74675285Y-111768000D01*
X74968630Y-112212292D02*
X74102605Y-111712292D01*
X74293081Y-111382378D01*
X74381939Y-111323709D01*
X74446988Y-111306279D01*
X74553276Y-111312659D01*
X74676994Y-111384087D01*
X74735663Y-111472946D01*
X74753093Y-111537994D01*
X74746713Y-111644283D01*
X74556237Y-111974197D01*
X75730535Y-110892634D02*
X75444821Y-111387506D01*
X75587678Y-111140070D02*
X74721652Y-110640070D01*
X74797751Y-110793978D01*
X74832611Y-110924075D01*
X74826231Y-111030363D01*
X75137464Y-110110339D02*
X75120034Y-110045290D01*
X75126414Y-109939002D01*
X75245462Y-109732806D01*
X75334320Y-109674137D01*
X75399369Y-109656707D01*
X75505657Y-109663086D01*
X75588136Y-109710706D01*
X75688044Y-109823373D01*
X75897201Y-110603959D01*
X76206725Y-110067848D01*
X83366440Y-77142028D02*
X82787380Y-77192607D01*
X83080725Y-77636899D02*
X82214700Y-77136899D01*
X82405176Y-76806985D01*
X82494034Y-76748316D01*
X82559083Y-76730886D01*
X82665371Y-76737266D01*
X82789089Y-76808694D01*
X82847758Y-76897553D01*
X82865188Y-76962601D01*
X82858808Y-77068890D01*
X82668332Y-77398804D01*
X83842630Y-76317241D02*
X83556916Y-76812113D01*
X83699773Y-76564677D02*
X82833747Y-76064677D01*
X82909846Y-76218584D01*
X82944706Y-76348682D01*
X82938326Y-76454970D01*
X66444833Y-100179142D02*
X66397214Y-100226761D01*
X66254357Y-100274380D01*
X66159119Y-100274380D01*
X66016261Y-100226761D01*
X65921023Y-100131523D01*
X65873404Y-100036285D01*
X65825785Y-99845809D01*
X65825785Y-99702952D01*
X65873404Y-99512476D01*
X65921023Y-99417238D01*
X66016261Y-99322000D01*
X66159119Y-99274380D01*
X66254357Y-99274380D01*
X66397214Y-99322000D01*
X66444833Y-99369619D01*
X67301976Y-99607714D02*
X67301976Y-100274380D01*
X67063880Y-99226761D02*
X66825785Y-99941047D01*
X67444833Y-99941047D01*
X63344961Y-79951908D02*
X63362391Y-80016957D01*
X63332201Y-80164485D01*
X63284582Y-80246963D01*
X63171915Y-80346872D01*
X63041817Y-80381731D01*
X62935529Y-80375352D01*
X62746762Y-80321353D01*
X62623044Y-80249924D01*
X62481896Y-80113447D01*
X62423227Y-80024588D01*
X62388368Y-79894491D01*
X62418557Y-79746963D01*
X62466176Y-79664485D01*
X62578844Y-79564576D01*
X62643893Y-79547147D01*
X63903630Y-79174741D02*
X63617916Y-79669613D01*
X63760773Y-79422177D02*
X62894747Y-78922177D01*
X62970846Y-79076084D01*
X63005706Y-79206182D01*
X62999326Y-79312470D01*
X69631461Y-83698408D02*
X69648891Y-83763457D01*
X69618701Y-83910985D01*
X69571082Y-83993463D01*
X69458415Y-84093372D01*
X69328317Y-84128231D01*
X69222029Y-84121852D01*
X69033262Y-84067853D01*
X68909544Y-83996424D01*
X68768396Y-83859947D01*
X68709727Y-83771088D01*
X68674868Y-83640991D01*
X68705057Y-83493463D01*
X68752676Y-83410985D01*
X68865344Y-83311076D01*
X68930393Y-83293647D01*
X69300295Y-82462481D02*
X69062200Y-82874874D01*
X69450783Y-83154208D01*
X69433354Y-83089160D01*
X69439733Y-82982871D01*
X69558781Y-82776675D01*
X69647639Y-82718006D01*
X69712688Y-82700576D01*
X69818976Y-82706956D01*
X70025173Y-82826003D01*
X70083842Y-82914862D01*
X70101272Y-82979911D01*
X70094892Y-83086199D01*
X69975844Y-83292395D01*
X69886986Y-83351064D01*
X69821937Y-83368494D01*
X70976833Y-117408142D02*
X70929214Y-117455761D01*
X70786357Y-117503380D01*
X70691119Y-117503380D01*
X70548261Y-117455761D01*
X70453023Y-117360523D01*
X70405404Y-117265285D01*
X70357785Y-117074809D01*
X70357785Y-116931952D01*
X70405404Y-116741476D01*
X70453023Y-116646238D01*
X70548261Y-116551000D01*
X70691119Y-116503380D01*
X70786357Y-116503380D01*
X70929214Y-116551000D01*
X70976833Y-116598619D01*
X71833976Y-116503380D02*
X71643500Y-116503380D01*
X71548261Y-116551000D01*
X71500642Y-116598619D01*
X71405404Y-116741476D01*
X71357785Y-116931952D01*
X71357785Y-117312904D01*
X71405404Y-117408142D01*
X71453023Y-117455761D01*
X71548261Y-117503380D01*
X71738738Y-117503380D01*
X71833976Y-117455761D01*
X71881595Y-117408142D01*
X71929214Y-117312904D01*
X71929214Y-117074809D01*
X71881595Y-116979571D01*
X71833976Y-116931952D01*
X71738738Y-116884333D01*
X71548261Y-116884333D01*
X71453023Y-116931952D01*
X71405404Y-116979571D01*
X71357785Y-117074809D01*
X66381333Y-114657142D02*
X66333714Y-114704761D01*
X66190857Y-114752380D01*
X66095619Y-114752380D01*
X65952761Y-114704761D01*
X65857523Y-114609523D01*
X65809904Y-114514285D01*
X65762285Y-114323809D01*
X65762285Y-114180952D01*
X65809904Y-113990476D01*
X65857523Y-113895238D01*
X65952761Y-113800000D01*
X66095619Y-113752380D01*
X66190857Y-113752380D01*
X66333714Y-113800000D01*
X66381333Y-113847619D01*
X66714666Y-113752380D02*
X67333714Y-113752380D01*
X67000380Y-114133333D01*
X67143238Y-114133333D01*
X67238476Y-114180952D01*
X67286095Y-114228571D01*
X67333714Y-114323809D01*
X67333714Y-114561904D01*
X67286095Y-114657142D01*
X67238476Y-114704761D01*
X67143238Y-114752380D01*
X66857523Y-114752380D01*
X66762285Y-114704761D01*
X66714666Y-114657142D01*
X111660150Y-119721994D02*
X111318130Y-118782301D01*
X111541866Y-118700868D01*
X111692395Y-118696755D01*
X111814463Y-118753676D01*
X111891783Y-118826884D01*
X112001677Y-118989587D01*
X112050537Y-119123828D01*
X112070937Y-119319104D01*
X112058763Y-119424885D01*
X112001842Y-119546953D01*
X111883887Y-119640561D01*
X111660150Y-119721994D01*
X112774555Y-118606932D02*
X113002568Y-119233394D01*
X112420525Y-118330387D02*
X112441089Y-119083030D01*
X113022803Y-118871303D01*
X115965067Y-83916300D02*
X115187921Y-83286979D01*
X115337759Y-83101945D01*
X115464669Y-83020891D01*
X115598618Y-83006813D01*
X115702600Y-83029741D01*
X115880595Y-83112605D01*
X115991616Y-83202508D01*
X116109676Y-83359385D01*
X116153723Y-83456327D01*
X116167801Y-83590277D01*
X116114905Y-83731265D01*
X115965067Y-83916300D01*
X115757306Y-82583847D02*
X116146886Y-82102757D01*
X116233168Y-82601547D01*
X116323071Y-82490526D01*
X116420013Y-82446480D01*
X116486987Y-82439440D01*
X116590969Y-82462369D01*
X116776004Y-82612207D01*
X116820050Y-82709149D01*
X116827089Y-82776124D01*
X116804161Y-82880105D01*
X116624355Y-83102147D01*
X116527413Y-83146193D01*
X116460438Y-83153232D01*
D15*
X75678570Y-105668090D02*
X75810890Y-104917666D01*
X75959784Y-104943920D01*
X76042819Y-104995407D01*
X76089775Y-105077377D01*
X76106951Y-105154097D01*
X76111526Y-105302286D01*
X76092624Y-105409489D01*
X76037641Y-105547176D01*
X75995260Y-105613394D01*
X75923101Y-105674361D01*
X75827464Y-105694344D01*
X75678570Y-105668090D01*
X76393863Y-105094151D02*
X76429942Y-105063667D01*
X76495801Y-105038434D01*
X76644694Y-105064688D01*
X76697951Y-105110924D01*
X76721429Y-105151909D01*
X76738605Y-105228629D01*
X76726003Y-105300098D01*
X76677322Y-105402051D01*
X76244366Y-105767855D01*
X76631489Y-105836115D01*
X80425273Y-90485949D02*
X80502055Y-90425531D01*
X80577650Y-90294596D01*
X80576464Y-90224079D01*
X80560158Y-90179749D01*
X80512429Y-90117277D01*
X80449580Y-90080991D01*
X80371612Y-90070892D01*
X80325069Y-90078936D01*
X80263406Y-90113167D01*
X80171506Y-90199772D01*
X80109843Y-90234003D01*
X80063300Y-90242047D01*
X79985332Y-90231949D01*
X79922484Y-90195663D01*
X79874754Y-90133190D01*
X79858449Y-90088860D01*
X79857262Y-90018344D01*
X79932858Y-89887409D01*
X80009639Y-89826991D01*
X80084048Y-89625539D02*
X80819555Y-89875604D01*
X80408666Y-89498714D01*
X80940507Y-89666109D01*
X80356191Y-89154174D01*
X81303364Y-89037622D02*
X81121936Y-89351865D01*
X81212650Y-89194744D02*
X80552739Y-88813744D01*
X80616773Y-88920546D01*
X80649384Y-89009206D01*
X80650570Y-89079722D01*
X100689833Y-126165428D02*
X100780547Y-126201714D01*
X100931738Y-126201714D01*
X100992214Y-126165428D01*
X101022452Y-126129142D01*
X101052690Y-126056571D01*
X101052690Y-125984000D01*
X101022452Y-125911428D01*
X100992214Y-125875142D01*
X100931738Y-125838857D01*
X100810785Y-125802571D01*
X100750309Y-125766285D01*
X100720071Y-125730000D01*
X100689833Y-125657428D01*
X100689833Y-125584857D01*
X100720071Y-125512285D01*
X100750309Y-125476000D01*
X100810785Y-125439714D01*
X100961976Y-125439714D01*
X101052690Y-125476000D01*
X101264357Y-125439714D02*
X101415547Y-126201714D01*
X101536500Y-125657428D01*
X101657452Y-126201714D01*
X101808642Y-125439714D01*
X102020309Y-125512285D02*
X102050547Y-125476000D01*
X102111023Y-125439714D01*
X102262214Y-125439714D01*
X102322690Y-125476000D01*
X102352928Y-125512285D01*
X102383166Y-125584857D01*
X102383166Y-125657428D01*
X102352928Y-125766285D01*
X101990071Y-126201714D01*
X102383166Y-126201714D01*
X121928059Y-88828979D02*
X121941992Y-88925683D01*
X122017587Y-89056617D01*
X122079250Y-89090849D01*
X122125793Y-89098893D01*
X122203761Y-89088794D01*
X122266610Y-89052508D01*
X122314339Y-88990035D01*
X122330644Y-88945706D01*
X122331831Y-88875189D01*
X122302779Y-88752298D01*
X122303965Y-88681781D01*
X122320270Y-88637452D01*
X122368000Y-88574979D01*
X122430849Y-88538693D01*
X122508817Y-88528594D01*
X122555360Y-88536639D01*
X122617022Y-88570870D01*
X122692618Y-88701804D01*
X122706550Y-88798508D01*
X122843808Y-88963674D02*
X122259492Y-89475609D01*
X122791333Y-89308214D01*
X122380444Y-89685104D01*
X123115951Y-89435039D01*
X123206665Y-89592161D02*
X123403213Y-89932591D01*
X123045985Y-89894426D01*
X123091342Y-89972987D01*
X123090156Y-90043503D01*
X123073850Y-90087833D01*
X123026121Y-90150306D01*
X122868999Y-90241020D01*
X122791031Y-90251119D01*
X122744488Y-90243075D01*
X122682825Y-90208844D01*
X122592111Y-90051722D01*
X122593297Y-89981205D01*
X122609603Y-89936875D01*
D17*
X76324054Y-62315344D02*
X76511413Y-62277004D01*
X76773283Y-62125814D01*
X76847793Y-62012964D01*
X76869929Y-61930351D01*
X76861826Y-61795366D01*
X76801350Y-61690618D01*
X76688500Y-61616108D01*
X76605888Y-61593972D01*
X76470902Y-61602074D01*
X76231168Y-61670653D01*
X76096182Y-61678755D01*
X76013570Y-61656619D01*
X75900720Y-61582110D01*
X75840244Y-61477362D01*
X75832142Y-61342376D01*
X75854278Y-61259764D01*
X75928787Y-61146914D01*
X76190657Y-60995723D01*
X76378017Y-60957383D01*
X76714396Y-60693342D02*
X77611266Y-61642004D01*
X77367190Y-60735443D01*
X78030257Y-61400099D01*
X77657127Y-60149057D01*
X78759150Y-60001626D02*
X79182483Y-60734861D01*
X78255376Y-59733826D02*
X78447077Y-60670625D01*
X79127938Y-60277530D01*
M02*
