G04 #@! TF.GenerationSoftware,KiCad,Pcbnew,(5.1.5)-3*
G04 #@! TF.CreationDate,2020-06-18T20:32:11+02:00*
G04 #@! TF.ProjectId,psithemius,70736974-6865-46d6-9975-732e6b696361,12*
G04 #@! TF.SameCoordinates,Original*
G04 #@! TF.FileFunction,Soldermask,Bot*
G04 #@! TF.FilePolarity,Negative*
%FSLAX46Y46*%
G04 Gerber Fmt 4.6, Leading zero omitted, Abs format (unit mm)*
G04 Created by KiCad (PCBNEW (5.1.5)-3) date 2020-06-18 20:32:11*
%MOMM*%
%LPD*%
G04 APERTURE LIST*
%ADD10C,0.100000*%
%ADD11C,0.150000*%
%ADD12C,0.300000*%
%ADD13C,0.400000*%
G04 APERTURE END LIST*
D10*
D11*
X177002200Y-166007200D02*
X177002200Y-198007200D01*
X285002200Y-198007200D01*
X285002200Y-166007200D01*
X177002200Y-166007200D01*
D10*
D11*
X10000000Y-10000000D02*
X10000000Y-200007200D01*
X287002200Y-200007200D01*
X287002200Y-10000000D01*
X10000000Y-10000000D01*
D10*
D11*
X12000000Y-12000000D02*
X12000000Y-198007200D01*
X285002200Y-198007200D01*
X285002200Y-12000000D01*
X12000000Y-12000000D01*
D10*
D11*
X60000000Y-12000000D02*
X60000000Y-10000000D01*
D10*
D11*
X110000000Y-12000000D02*
X110000000Y-10000000D01*
D10*
D11*
X160000000Y-12000000D02*
X160000000Y-10000000D01*
D10*
D11*
X210000000Y-12000000D02*
X210000000Y-10000000D01*
D10*
D11*
X260000000Y-12000000D02*
X260000000Y-10000000D01*
D10*
D11*
X36065476Y-11588095D02*
X35322619Y-11588095D01*
X35694047Y-11588095D02*
X35694047Y-10288095D01*
X35570238Y-10473809D01*
X35446428Y-10597619D01*
X35322619Y-10659523D01*
D10*
D11*
X85322619Y-10411904D02*
X85384523Y-10350000D01*
X85508333Y-10288095D01*
X85817857Y-10288095D01*
X85941666Y-10350000D01*
X86003571Y-10411904D01*
X86065476Y-10535714D01*
X86065476Y-10659523D01*
X86003571Y-10845238D01*
X85260714Y-11588095D01*
X86065476Y-11588095D01*
D10*
D11*
X135260714Y-10288095D02*
X136065476Y-10288095D01*
X135632142Y-10783333D01*
X135817857Y-10783333D01*
X135941666Y-10845238D01*
X136003571Y-10907142D01*
X136065476Y-11030952D01*
X136065476Y-11340476D01*
X136003571Y-11464285D01*
X135941666Y-11526190D01*
X135817857Y-11588095D01*
X135446428Y-11588095D01*
X135322619Y-11526190D01*
X135260714Y-11464285D01*
D10*
D11*
X185941666Y-10721428D02*
X185941666Y-11588095D01*
X185632142Y-10226190D02*
X185322619Y-11154761D01*
X186127380Y-11154761D01*
D10*
D11*
X236003571Y-10288095D02*
X235384523Y-10288095D01*
X235322619Y-10907142D01*
X235384523Y-10845238D01*
X235508333Y-10783333D01*
X235817857Y-10783333D01*
X235941666Y-10845238D01*
X236003571Y-10907142D01*
X236065476Y-11030952D01*
X236065476Y-11340476D01*
X236003571Y-11464285D01*
X235941666Y-11526190D01*
X235817857Y-11588095D01*
X235508333Y-11588095D01*
X235384523Y-11526190D01*
X235322619Y-11464285D01*
D10*
D11*
X285941666Y-10288095D02*
X285694047Y-10288095D01*
X285570238Y-10350000D01*
X285508333Y-10411904D01*
X285384523Y-10597619D01*
X285322619Y-10845238D01*
X285322619Y-11340476D01*
X285384523Y-11464285D01*
X285446428Y-11526190D01*
X285570238Y-11588095D01*
X285817857Y-11588095D01*
X285941666Y-11526190D01*
X286003571Y-11464285D01*
X286065476Y-11340476D01*
X286065476Y-11030952D01*
X286003571Y-10907142D01*
X285941666Y-10845238D01*
X285817857Y-10783333D01*
X285570238Y-10783333D01*
X285446428Y-10845238D01*
X285384523Y-10907142D01*
X285322619Y-11030952D01*
D10*
D11*
X60000000Y-198007200D02*
X60000000Y-200007200D01*
D10*
D11*
X110000000Y-198007200D02*
X110000000Y-200007200D01*
D10*
D11*
X160000000Y-198007200D02*
X160000000Y-200007200D01*
D10*
D11*
X210000000Y-198007200D02*
X210000000Y-200007200D01*
D10*
D11*
X260000000Y-198007200D02*
X260000000Y-200007200D01*
D10*
D11*
X36065476Y-199595295D02*
X35322619Y-199595295D01*
X35694047Y-199595295D02*
X35694047Y-198295295D01*
X35570238Y-198481009D01*
X35446428Y-198604819D01*
X35322619Y-198666723D01*
D10*
D11*
X85322619Y-198419104D02*
X85384523Y-198357200D01*
X85508333Y-198295295D01*
X85817857Y-198295295D01*
X85941666Y-198357200D01*
X86003571Y-198419104D01*
X86065476Y-198542914D01*
X86065476Y-198666723D01*
X86003571Y-198852438D01*
X85260714Y-199595295D01*
X86065476Y-199595295D01*
D10*
D11*
X135260714Y-198295295D02*
X136065476Y-198295295D01*
X135632142Y-198790533D01*
X135817857Y-198790533D01*
X135941666Y-198852438D01*
X136003571Y-198914342D01*
X136065476Y-199038152D01*
X136065476Y-199347676D01*
X136003571Y-199471485D01*
X135941666Y-199533390D01*
X135817857Y-199595295D01*
X135446428Y-199595295D01*
X135322619Y-199533390D01*
X135260714Y-199471485D01*
D10*
D11*
X185941666Y-198728628D02*
X185941666Y-199595295D01*
X185632142Y-198233390D02*
X185322619Y-199161961D01*
X186127380Y-199161961D01*
D10*
D11*
X236003571Y-198295295D02*
X235384523Y-198295295D01*
X235322619Y-198914342D01*
X235384523Y-198852438D01*
X235508333Y-198790533D01*
X235817857Y-198790533D01*
X235941666Y-198852438D01*
X236003571Y-198914342D01*
X236065476Y-199038152D01*
X236065476Y-199347676D01*
X236003571Y-199471485D01*
X235941666Y-199533390D01*
X235817857Y-199595295D01*
X235508333Y-199595295D01*
X235384523Y-199533390D01*
X235322619Y-199471485D01*
D10*
D11*
X285941666Y-198295295D02*
X285694047Y-198295295D01*
X285570238Y-198357200D01*
X285508333Y-198419104D01*
X285384523Y-198604819D01*
X285322619Y-198852438D01*
X285322619Y-199347676D01*
X285384523Y-199471485D01*
X285446428Y-199533390D01*
X285570238Y-199595295D01*
X285817857Y-199595295D01*
X285941666Y-199533390D01*
X286003571Y-199471485D01*
X286065476Y-199347676D01*
X286065476Y-199038152D01*
X286003571Y-198914342D01*
X285941666Y-198852438D01*
X285817857Y-198790533D01*
X285570238Y-198790533D01*
X285446428Y-198852438D01*
X285384523Y-198914342D01*
X285322619Y-199038152D01*
D10*
D11*
X10000000Y-60000000D02*
X12000000Y-60000000D01*
D10*
D11*
X10000000Y-110000000D02*
X12000000Y-110000000D01*
D10*
D11*
X10000000Y-160000000D02*
X12000000Y-160000000D01*
D10*
D11*
X10690476Y-35216666D02*
X11309523Y-35216666D01*
X10566666Y-35588095D02*
X11000000Y-34288095D01*
X11433333Y-35588095D01*
D10*
D11*
X11092857Y-84907142D02*
X11278571Y-84969047D01*
X11340476Y-85030952D01*
X11402380Y-85154761D01*
X11402380Y-85340476D01*
X11340476Y-85464285D01*
X11278571Y-85526190D01*
X11154761Y-85588095D01*
X10659523Y-85588095D01*
X10659523Y-84288095D01*
X11092857Y-84288095D01*
X11216666Y-84350000D01*
X11278571Y-84411904D01*
X11340476Y-84535714D01*
X11340476Y-84659523D01*
X11278571Y-84783333D01*
X11216666Y-84845238D01*
X11092857Y-84907142D01*
X10659523Y-84907142D01*
D10*
D11*
X11402380Y-135464285D02*
X11340476Y-135526190D01*
X11154761Y-135588095D01*
X11030952Y-135588095D01*
X10845238Y-135526190D01*
X10721428Y-135402380D01*
X10659523Y-135278571D01*
X10597619Y-135030952D01*
X10597619Y-134845238D01*
X10659523Y-134597619D01*
X10721428Y-134473809D01*
X10845238Y-134350000D01*
X11030952Y-134288095D01*
X11154761Y-134288095D01*
X11340476Y-134350000D01*
X11402380Y-134411904D01*
D10*
D11*
X10659523Y-185588095D02*
X10659523Y-184288095D01*
X10969047Y-184288095D01*
X11154761Y-184350000D01*
X11278571Y-184473809D01*
X11340476Y-184597619D01*
X11402380Y-184845238D01*
X11402380Y-185030952D01*
X11340476Y-185278571D01*
X11278571Y-185402380D01*
X11154761Y-185526190D01*
X10969047Y-185588095D01*
X10659523Y-185588095D01*
D10*
D11*
X287002200Y-60000000D02*
X285002200Y-60000000D01*
D10*
D11*
X287002200Y-110000000D02*
X285002200Y-110000000D01*
D10*
D11*
X287002200Y-160000000D02*
X285002200Y-160000000D01*
D10*
D11*
X285692676Y-35216666D02*
X286311723Y-35216666D01*
X285568866Y-35588095D02*
X286002200Y-34288095D01*
X286435533Y-35588095D01*
D10*
D11*
X286095057Y-84907142D02*
X286280771Y-84969047D01*
X286342676Y-85030952D01*
X286404580Y-85154761D01*
X286404580Y-85340476D01*
X286342676Y-85464285D01*
X286280771Y-85526190D01*
X286156961Y-85588095D01*
X285661723Y-85588095D01*
X285661723Y-84288095D01*
X286095057Y-84288095D01*
X286218866Y-84350000D01*
X286280771Y-84411904D01*
X286342676Y-84535714D01*
X286342676Y-84659523D01*
X286280771Y-84783333D01*
X286218866Y-84845238D01*
X286095057Y-84907142D01*
X285661723Y-84907142D01*
D10*
D11*
X286404580Y-135464285D02*
X286342676Y-135526190D01*
X286156961Y-135588095D01*
X286033152Y-135588095D01*
X285847438Y-135526190D01*
X285723628Y-135402380D01*
X285661723Y-135278571D01*
X285599819Y-135030952D01*
X285599819Y-134845238D01*
X285661723Y-134597619D01*
X285723628Y-134473809D01*
X285847438Y-134350000D01*
X286033152Y-134288095D01*
X286156961Y-134288095D01*
X286342676Y-134350000D01*
X286404580Y-134411904D01*
D10*
D11*
X285661723Y-185588095D02*
X285661723Y-184288095D01*
X285971247Y-184288095D01*
X286156961Y-184350000D01*
X286280771Y-184473809D01*
X286342676Y-184597619D01*
X286404580Y-184845238D01*
X286404580Y-185030952D01*
X286342676Y-185278571D01*
X286280771Y-185402380D01*
X286156961Y-185526190D01*
X285971247Y-185588095D01*
X285661723Y-185588095D01*
D10*
D11*
X200434342Y-193785771D02*
X200434342Y-192285771D01*
X200791485Y-192285771D01*
X201005771Y-192357200D01*
X201148628Y-192500057D01*
X201220057Y-192642914D01*
X201291485Y-192928628D01*
X201291485Y-193142914D01*
X201220057Y-193428628D01*
X201148628Y-193571485D01*
X201005771Y-193714342D01*
X200791485Y-193785771D01*
X200434342Y-193785771D01*
X202577200Y-193785771D02*
X202577200Y-193000057D01*
X202505771Y-192857200D01*
X202362914Y-192785771D01*
X202077200Y-192785771D01*
X201934342Y-192857200D01*
X202577200Y-193714342D02*
X202434342Y-193785771D01*
X202077200Y-193785771D01*
X201934342Y-193714342D01*
X201862914Y-193571485D01*
X201862914Y-193428628D01*
X201934342Y-193285771D01*
X202077200Y-193214342D01*
X202434342Y-193214342D01*
X202577200Y-193142914D01*
X203077200Y-192785771D02*
X203648628Y-192785771D01*
X203291485Y-192285771D02*
X203291485Y-193571485D01*
X203362914Y-193714342D01*
X203505771Y-193785771D01*
X203648628Y-193785771D01*
X204720057Y-193714342D02*
X204577200Y-193785771D01*
X204291485Y-193785771D01*
X204148628Y-193714342D01*
X204077200Y-193571485D01*
X204077200Y-193000057D01*
X204148628Y-192857200D01*
X204291485Y-192785771D01*
X204577200Y-192785771D01*
X204720057Y-192857200D01*
X204791485Y-193000057D01*
X204791485Y-193142914D01*
X204077200Y-193285771D01*
X205434342Y-193642914D02*
X205505771Y-193714342D01*
X205434342Y-193785771D01*
X205362914Y-193714342D01*
X205434342Y-193642914D01*
X205434342Y-193785771D01*
X205434342Y-192857200D02*
X205505771Y-192928628D01*
X205434342Y-193000057D01*
X205362914Y-192928628D01*
X205434342Y-192857200D01*
X205434342Y-193000057D01*
X207220057Y-192428628D02*
X207291485Y-192357200D01*
X207434342Y-192285771D01*
X207791485Y-192285771D01*
X207934342Y-192357200D01*
X208005771Y-192428628D01*
X208077200Y-192571485D01*
X208077200Y-192714342D01*
X208005771Y-192928628D01*
X207148628Y-193785771D01*
X208077200Y-193785771D01*
X209005771Y-192285771D02*
X209148628Y-192285771D01*
X209291485Y-192357200D01*
X209362914Y-192428628D01*
X209434342Y-192571485D01*
X209505771Y-192857200D01*
X209505771Y-193214342D01*
X209434342Y-193500057D01*
X209362914Y-193642914D01*
X209291485Y-193714342D01*
X209148628Y-193785771D01*
X209005771Y-193785771D01*
X208862914Y-193714342D01*
X208791485Y-193642914D01*
X208720057Y-193500057D01*
X208648628Y-193214342D01*
X208648628Y-192857200D01*
X208720057Y-192571485D01*
X208791485Y-192428628D01*
X208862914Y-192357200D01*
X209005771Y-192285771D01*
X210077200Y-192428628D02*
X210148628Y-192357200D01*
X210291485Y-192285771D01*
X210648628Y-192285771D01*
X210791485Y-192357200D01*
X210862914Y-192428628D01*
X210934342Y-192571485D01*
X210934342Y-192714342D01*
X210862914Y-192928628D01*
X210005771Y-193785771D01*
X210934342Y-193785771D01*
X211862914Y-192285771D02*
X212005771Y-192285771D01*
X212148628Y-192357200D01*
X212220057Y-192428628D01*
X212291485Y-192571485D01*
X212362914Y-192857200D01*
X212362914Y-193214342D01*
X212291485Y-193500057D01*
X212220057Y-193642914D01*
X212148628Y-193714342D01*
X212005771Y-193785771D01*
X211862914Y-193785771D01*
X211720057Y-193714342D01*
X211648628Y-193642914D01*
X211577200Y-193500057D01*
X211505771Y-193214342D01*
X211505771Y-192857200D01*
X211577200Y-192571485D01*
X211648628Y-192428628D01*
X211720057Y-192357200D01*
X211862914Y-192285771D01*
X213005771Y-193214342D02*
X214148628Y-193214342D01*
X215148628Y-192285771D02*
X215291485Y-192285771D01*
X215434342Y-192357200D01*
X215505771Y-192428628D01*
X215577200Y-192571485D01*
X215648628Y-192857200D01*
X215648628Y-193214342D01*
X215577200Y-193500057D01*
X215505771Y-193642914D01*
X215434342Y-193714342D01*
X215291485Y-193785771D01*
X215148628Y-193785771D01*
X215005771Y-193714342D01*
X214934342Y-193642914D01*
X214862914Y-193500057D01*
X214791485Y-193214342D01*
X214791485Y-192857200D01*
X214862914Y-192571485D01*
X214934342Y-192428628D01*
X215005771Y-192357200D01*
X215148628Y-192285771D01*
X216934342Y-192285771D02*
X216648628Y-192285771D01*
X216505771Y-192357200D01*
X216434342Y-192428628D01*
X216291485Y-192642914D01*
X216220057Y-192928628D01*
X216220057Y-193500057D01*
X216291485Y-193642914D01*
X216362914Y-193714342D01*
X216505771Y-193785771D01*
X216791485Y-193785771D01*
X216934342Y-193714342D01*
X217005771Y-193642914D01*
X217077200Y-193500057D01*
X217077200Y-193142914D01*
X217005771Y-193000057D01*
X216934342Y-192928628D01*
X216791485Y-192857200D01*
X216505771Y-192857200D01*
X216362914Y-192928628D01*
X216291485Y-193000057D01*
X216220057Y-193142914D01*
X217720057Y-193214342D02*
X218862914Y-193214342D01*
X220362914Y-193785771D02*
X219505771Y-193785771D01*
X219934342Y-193785771D02*
X219934342Y-192285771D01*
X219791485Y-192500057D01*
X219648628Y-192642914D01*
X219505771Y-192714342D01*
X221220057Y-192928628D02*
X221077200Y-192857200D01*
X221005771Y-192785771D01*
X220934342Y-192642914D01*
X220934342Y-192571485D01*
X221005771Y-192428628D01*
X221077200Y-192357200D01*
X221220057Y-192285771D01*
X221505771Y-192285771D01*
X221648628Y-192357200D01*
X221720057Y-192428628D01*
X221791485Y-192571485D01*
X221791485Y-192642914D01*
X221720057Y-192785771D01*
X221648628Y-192857200D01*
X221505771Y-192928628D01*
X221220057Y-192928628D01*
X221077200Y-193000057D01*
X221005771Y-193071485D01*
X220934342Y-193214342D01*
X220934342Y-193500057D01*
X221005771Y-193642914D01*
X221077200Y-193714342D01*
X221220057Y-193785771D01*
X221505771Y-193785771D01*
X221648628Y-193714342D01*
X221720057Y-193642914D01*
X221791485Y-193500057D01*
X221791485Y-193214342D01*
X221720057Y-193071485D01*
X221648628Y-193000057D01*
X221505771Y-192928628D01*
D10*
D11*
X177002200Y-194507200D02*
X285002200Y-194507200D01*
D10*
D11*
X178434342Y-196585771D02*
X178434342Y-195085771D01*
X179291485Y-196585771D02*
X178648628Y-195728628D01*
X179291485Y-195085771D02*
X178434342Y-195942914D01*
X179934342Y-196585771D02*
X179934342Y-195585771D01*
X179934342Y-195085771D02*
X179862914Y-195157200D01*
X179934342Y-195228628D01*
X180005771Y-195157200D01*
X179934342Y-195085771D01*
X179934342Y-195228628D01*
X181505771Y-196442914D02*
X181434342Y-196514342D01*
X181220057Y-196585771D01*
X181077200Y-196585771D01*
X180862914Y-196514342D01*
X180720057Y-196371485D01*
X180648628Y-196228628D01*
X180577200Y-195942914D01*
X180577200Y-195728628D01*
X180648628Y-195442914D01*
X180720057Y-195300057D01*
X180862914Y-195157200D01*
X181077200Y-195085771D01*
X181220057Y-195085771D01*
X181434342Y-195157200D01*
X181505771Y-195228628D01*
X182791485Y-196585771D02*
X182791485Y-195800057D01*
X182720057Y-195657200D01*
X182577200Y-195585771D01*
X182291485Y-195585771D01*
X182148628Y-195657200D01*
X182791485Y-196514342D02*
X182648628Y-196585771D01*
X182291485Y-196585771D01*
X182148628Y-196514342D01*
X182077200Y-196371485D01*
X182077200Y-196228628D01*
X182148628Y-196085771D01*
X182291485Y-196014342D01*
X182648628Y-196014342D01*
X182791485Y-195942914D01*
X184148628Y-196585771D02*
X184148628Y-195085771D01*
X184148628Y-196514342D02*
X184005771Y-196585771D01*
X183720057Y-196585771D01*
X183577200Y-196514342D01*
X183505771Y-196442914D01*
X183434342Y-196300057D01*
X183434342Y-195871485D01*
X183505771Y-195728628D01*
X183577200Y-195657200D01*
X183720057Y-195585771D01*
X184005771Y-195585771D01*
X184148628Y-195657200D01*
X186005771Y-195800057D02*
X186505771Y-195800057D01*
X186720057Y-196585771D02*
X186005771Y-196585771D01*
X186005771Y-195085771D01*
X186720057Y-195085771D01*
X187362914Y-196442914D02*
X187434342Y-196514342D01*
X187362914Y-196585771D01*
X187291485Y-196514342D01*
X187362914Y-196442914D01*
X187362914Y-196585771D01*
X188077200Y-196585771D02*
X188077200Y-195085771D01*
X188434342Y-195085771D01*
X188648628Y-195157200D01*
X188791485Y-195300057D01*
X188862914Y-195442914D01*
X188934342Y-195728628D01*
X188934342Y-195942914D01*
X188862914Y-196228628D01*
X188791485Y-196371485D01*
X188648628Y-196514342D01*
X188434342Y-196585771D01*
X188077200Y-196585771D01*
X189577200Y-196442914D02*
X189648628Y-196514342D01*
X189577200Y-196585771D01*
X189505771Y-196514342D01*
X189577200Y-196442914D01*
X189577200Y-196585771D01*
X190220057Y-196157200D02*
X190934342Y-196157200D01*
X190077200Y-196585771D02*
X190577200Y-195085771D01*
X191077200Y-196585771D01*
X191577200Y-196442914D02*
X191648628Y-196514342D01*
X191577200Y-196585771D01*
X191505771Y-196514342D01*
X191577200Y-196442914D01*
X191577200Y-196585771D01*
X194577200Y-196585771D02*
X194577200Y-195085771D01*
X194720057Y-196014342D02*
X195148628Y-196585771D01*
X195148628Y-195585771D02*
X194577200Y-196157200D01*
X195791485Y-196585771D02*
X195791485Y-195585771D01*
X195791485Y-195085771D02*
X195720057Y-195157200D01*
X195791485Y-195228628D01*
X195862914Y-195157200D01*
X195791485Y-195085771D01*
X195791485Y-195228628D01*
X197148628Y-196514342D02*
X197005771Y-196585771D01*
X196720057Y-196585771D01*
X196577200Y-196514342D01*
X196505771Y-196442914D01*
X196434342Y-196300057D01*
X196434342Y-195871485D01*
X196505771Y-195728628D01*
X196577200Y-195657200D01*
X196720057Y-195585771D01*
X197005771Y-195585771D01*
X197148628Y-195657200D01*
X198434342Y-196585771D02*
X198434342Y-195800057D01*
X198362914Y-195657200D01*
X198220057Y-195585771D01*
X197934342Y-195585771D01*
X197791485Y-195657200D01*
X198434342Y-196514342D02*
X198291485Y-196585771D01*
X197934342Y-196585771D01*
X197791485Y-196514342D01*
X197720057Y-196371485D01*
X197720057Y-196228628D01*
X197791485Y-196085771D01*
X197934342Y-196014342D01*
X198291485Y-196014342D01*
X198434342Y-195942914D01*
X199791485Y-196585771D02*
X199791485Y-195085771D01*
X199791485Y-196514342D02*
X199648628Y-196585771D01*
X199362914Y-196585771D01*
X199220057Y-196514342D01*
X199148628Y-196442914D01*
X199077200Y-196300057D01*
X199077200Y-195871485D01*
X199148628Y-195728628D01*
X199220057Y-195657200D01*
X199362914Y-195585771D01*
X199648628Y-195585771D01*
X199791485Y-195657200D01*
X202077200Y-197157200D02*
X202005771Y-197085771D01*
X201862914Y-196871485D01*
X201791485Y-196728628D01*
X201720057Y-196514342D01*
X201648628Y-196157200D01*
X201648628Y-195871485D01*
X201720057Y-195514342D01*
X201791485Y-195300057D01*
X201862914Y-195157200D01*
X202005771Y-194942914D01*
X202077200Y-194871485D01*
X203362914Y-195085771D02*
X202648628Y-195085771D01*
X202577200Y-195800057D01*
X202648628Y-195728628D01*
X202791485Y-195657200D01*
X203148628Y-195657200D01*
X203291485Y-195728628D01*
X203362914Y-195800057D01*
X203434342Y-195942914D01*
X203434342Y-196300057D01*
X203362914Y-196442914D01*
X203291485Y-196514342D01*
X203148628Y-196585771D01*
X202791485Y-196585771D01*
X202648628Y-196514342D01*
X202577200Y-196442914D01*
X204077200Y-196442914D02*
X204148628Y-196514342D01*
X204077200Y-196585771D01*
X204005771Y-196514342D01*
X204077200Y-196442914D01*
X204077200Y-196585771D01*
X205577200Y-196585771D02*
X204720057Y-196585771D01*
X205148628Y-196585771D02*
X205148628Y-195085771D01*
X205005771Y-195300057D01*
X204862914Y-195442914D01*
X204720057Y-195514342D01*
X206220057Y-196442914D02*
X206291485Y-196514342D01*
X206220057Y-196585771D01*
X206148628Y-196514342D01*
X206220057Y-196442914D01*
X206220057Y-196585771D01*
X207648628Y-195085771D02*
X206934342Y-195085771D01*
X206862914Y-195800057D01*
X206934342Y-195728628D01*
X207077200Y-195657200D01*
X207434342Y-195657200D01*
X207577200Y-195728628D01*
X207648628Y-195800057D01*
X207720057Y-195942914D01*
X207720057Y-196300057D01*
X207648628Y-196442914D01*
X207577200Y-196514342D01*
X207434342Y-196585771D01*
X207077200Y-196585771D01*
X206934342Y-196514342D01*
X206862914Y-196442914D01*
X208220057Y-197157200D02*
X208291485Y-197085771D01*
X208434342Y-196871485D01*
X208505771Y-196728628D01*
X208577200Y-196514342D01*
X208648628Y-196157200D01*
X208648628Y-195871485D01*
X208577200Y-195514342D01*
X208505771Y-195300057D01*
X208434342Y-195157200D01*
X208291485Y-194942914D01*
X208220057Y-194871485D01*
X209362914Y-196014342D02*
X210505771Y-196014342D01*
X211077200Y-195085771D02*
X212005771Y-195085771D01*
X211505771Y-195657200D01*
X211720057Y-195657200D01*
X211862914Y-195728628D01*
X211934342Y-195800057D01*
X212005771Y-195942914D01*
X212005771Y-196300057D01*
X211934342Y-196442914D01*
X211862914Y-196514342D01*
X211720057Y-196585771D01*
X211291485Y-196585771D01*
X211148628Y-196514342D01*
X211077200Y-196442914D01*
D10*
D11*
X177002200Y-191507200D02*
X285002200Y-191507200D01*
D10*
D12*
X264411485Y-193785771D02*
X263911485Y-193071485D01*
X263554342Y-193785771D02*
X263554342Y-192285771D01*
X264125771Y-192285771D01*
X264268628Y-192357200D01*
X264340057Y-192428628D01*
X264411485Y-192571485D01*
X264411485Y-192785771D01*
X264340057Y-192928628D01*
X264268628Y-193000057D01*
X264125771Y-193071485D01*
X263554342Y-193071485D01*
X265625771Y-193714342D02*
X265482914Y-193785771D01*
X265197200Y-193785771D01*
X265054342Y-193714342D01*
X264982914Y-193571485D01*
X264982914Y-193000057D01*
X265054342Y-192857200D01*
X265197200Y-192785771D01*
X265482914Y-192785771D01*
X265625771Y-192857200D01*
X265697200Y-193000057D01*
X265697200Y-193142914D01*
X264982914Y-193285771D01*
X266197200Y-192785771D02*
X266554342Y-193785771D01*
X266911485Y-192785771D01*
X267482914Y-193642914D02*
X267554342Y-193714342D01*
X267482914Y-193785771D01*
X267411485Y-193714342D01*
X267482914Y-193642914D01*
X267482914Y-193785771D01*
X267482914Y-192857200D02*
X267554342Y-192928628D01*
X267482914Y-193000057D01*
X267411485Y-192928628D01*
X267482914Y-192857200D01*
X267482914Y-193000057D01*
X270125771Y-193785771D02*
X269268628Y-193785771D01*
X269697200Y-193785771D02*
X269697200Y-192285771D01*
X269554342Y-192500057D01*
X269411485Y-192642914D01*
X269268628Y-192714342D01*
X270697200Y-192428628D02*
X270768628Y-192357200D01*
X270911485Y-192285771D01*
X271268628Y-192285771D01*
X271411485Y-192357200D01*
X271482914Y-192428628D01*
X271554342Y-192571485D01*
X271554342Y-192714342D01*
X271482914Y-192928628D01*
X270625771Y-193785771D01*
X271554342Y-193785771D01*
D10*
D11*
X178362914Y-193714342D02*
X178577200Y-193785771D01*
X178934342Y-193785771D01*
X179077200Y-193714342D01*
X179148628Y-193642914D01*
X179220057Y-193500057D01*
X179220057Y-193357200D01*
X179148628Y-193214342D01*
X179077200Y-193142914D01*
X178934342Y-193071485D01*
X178648628Y-193000057D01*
X178505771Y-192928628D01*
X178434342Y-192857200D01*
X178362914Y-192714342D01*
X178362914Y-192571485D01*
X178434342Y-192428628D01*
X178505771Y-192357200D01*
X178648628Y-192285771D01*
X179005771Y-192285771D01*
X179220057Y-192357200D01*
X179862914Y-193785771D02*
X179862914Y-192785771D01*
X179862914Y-192285771D02*
X179791485Y-192357200D01*
X179862914Y-192428628D01*
X179934342Y-192357200D01*
X179862914Y-192285771D01*
X179862914Y-192428628D01*
X180434342Y-192785771D02*
X181220057Y-192785771D01*
X180434342Y-193785771D01*
X181220057Y-193785771D01*
X182362914Y-193714342D02*
X182220057Y-193785771D01*
X181934342Y-193785771D01*
X181791485Y-193714342D01*
X181720057Y-193571485D01*
X181720057Y-193000057D01*
X181791485Y-192857200D01*
X181934342Y-192785771D01*
X182220057Y-192785771D01*
X182362914Y-192857200D01*
X182434342Y-193000057D01*
X182434342Y-193142914D01*
X181720057Y-193285771D01*
X183077200Y-193642914D02*
X183148628Y-193714342D01*
X183077200Y-193785771D01*
X183005771Y-193714342D01*
X183077200Y-193642914D01*
X183077200Y-193785771D01*
X183077200Y-192857200D02*
X183148628Y-192928628D01*
X183077200Y-193000057D01*
X183005771Y-192928628D01*
X183077200Y-192857200D01*
X183077200Y-193000057D01*
X184862914Y-193357200D02*
X185577200Y-193357200D01*
X184720057Y-193785771D02*
X185220057Y-192285771D01*
X185720057Y-193785771D01*
X186862914Y-192785771D02*
X186862914Y-193785771D01*
X186505771Y-192214342D02*
X186148628Y-193285771D01*
X187077200Y-193285771D01*
D10*
D11*
X263434342Y-196585771D02*
X263434342Y-195085771D01*
X264791485Y-196585771D02*
X264791485Y-195085771D01*
X264791485Y-196514342D02*
X264648628Y-196585771D01*
X264362914Y-196585771D01*
X264220057Y-196514342D01*
X264148628Y-196442914D01*
X264077200Y-196300057D01*
X264077200Y-195871485D01*
X264148628Y-195728628D01*
X264220057Y-195657200D01*
X264362914Y-195585771D01*
X264648628Y-195585771D01*
X264791485Y-195657200D01*
X265505771Y-196442914D02*
X265577200Y-196514342D01*
X265505771Y-196585771D01*
X265434342Y-196514342D01*
X265505771Y-196442914D01*
X265505771Y-196585771D01*
X265505771Y-195657200D02*
X265577200Y-195728628D01*
X265505771Y-195800057D01*
X265434342Y-195728628D01*
X265505771Y-195657200D01*
X265505771Y-195800057D01*
X268148628Y-196585771D02*
X267291485Y-196585771D01*
X267720057Y-196585771D02*
X267720057Y-195085771D01*
X267577200Y-195300057D01*
X267434342Y-195442914D01*
X267291485Y-195514342D01*
X269862914Y-195014342D02*
X268577200Y-196942914D01*
X271148628Y-196585771D02*
X270291485Y-196585771D01*
X270720057Y-196585771D02*
X270720057Y-195085771D01*
X270577200Y-195300057D01*
X270434342Y-195442914D01*
X270291485Y-195514342D01*
D10*
D11*
X177002200Y-187507200D02*
X285002200Y-187507200D01*
D10*
D13*
X178714580Y-188211961D02*
X179857438Y-188211961D01*
X179036009Y-190211961D02*
X179286009Y-188211961D01*
X180274104Y-190211961D02*
X180440771Y-188878628D01*
X180524104Y-188211961D02*
X180416961Y-188307200D01*
X180500295Y-188402438D01*
X180607438Y-188307200D01*
X180524104Y-188211961D01*
X180500295Y-188402438D01*
X181107438Y-188878628D02*
X181869342Y-188878628D01*
X181476485Y-188211961D02*
X181262200Y-189926247D01*
X181333628Y-190116723D01*
X181512200Y-190211961D01*
X181702676Y-190211961D01*
X182655057Y-190211961D02*
X182476485Y-190116723D01*
X182405057Y-189926247D01*
X182619342Y-188211961D01*
X184190771Y-190116723D02*
X183988390Y-190211961D01*
X183607438Y-190211961D01*
X183428866Y-190116723D01*
X183357438Y-189926247D01*
X183452676Y-189164342D01*
X183571723Y-188973866D01*
X183774104Y-188878628D01*
X184155057Y-188878628D01*
X184333628Y-188973866D01*
X184405057Y-189164342D01*
X184381247Y-189354819D01*
X183405057Y-189545295D01*
X185155057Y-190021485D02*
X185238390Y-190116723D01*
X185131247Y-190211961D01*
X185047914Y-190116723D01*
X185155057Y-190021485D01*
X185131247Y-190211961D01*
X185286009Y-188973866D02*
X185369342Y-189069104D01*
X185262200Y-189164342D01*
X185178866Y-189069104D01*
X185286009Y-188973866D01*
X185262200Y-189164342D01*
X187607438Y-190211961D02*
X187857438Y-188211961D01*
X188619342Y-188211961D01*
X188797914Y-188307200D01*
X188881247Y-188402438D01*
X188952676Y-188592914D01*
X188916961Y-188878628D01*
X188797914Y-189069104D01*
X188690771Y-189164342D01*
X188488390Y-189259580D01*
X187726485Y-189259580D01*
X189893152Y-190211961D02*
X189714580Y-190116723D01*
X189631247Y-190021485D01*
X189559819Y-189831009D01*
X189631247Y-189259580D01*
X189750295Y-189069104D01*
X189857438Y-188973866D01*
X190059819Y-188878628D01*
X190345533Y-188878628D01*
X190524104Y-188973866D01*
X190607438Y-189069104D01*
X190678866Y-189259580D01*
X190607438Y-189831009D01*
X190488390Y-190021485D01*
X190381247Y-190116723D01*
X190178866Y-190211961D01*
X189893152Y-190211961D01*
X192286009Y-190116723D02*
X192083628Y-190211961D01*
X191702676Y-190211961D01*
X191524104Y-190116723D01*
X191440771Y-190021485D01*
X191369342Y-189831009D01*
X191440771Y-189259580D01*
X191559819Y-189069104D01*
X191666961Y-188973866D01*
X191869342Y-188878628D01*
X192250295Y-188878628D01*
X192428866Y-188973866D01*
X193131247Y-190211961D02*
X193381247Y-188211961D01*
X193416961Y-189450057D02*
X193893152Y-190211961D01*
X194059819Y-188878628D02*
X193202676Y-189640533D01*
X195524104Y-190116723D02*
X195321723Y-190211961D01*
X194940771Y-190211961D01*
X194762200Y-190116723D01*
X194690771Y-189926247D01*
X194786009Y-189164342D01*
X194905057Y-188973866D01*
X195107438Y-188878628D01*
X195488390Y-188878628D01*
X195666961Y-188973866D01*
X195738390Y-189164342D01*
X195714580Y-189354819D01*
X194738390Y-189545295D01*
X196345533Y-188878628D02*
X197107438Y-188878628D01*
X196714580Y-188211961D02*
X196500295Y-189926247D01*
X196571723Y-190116723D01*
X196750295Y-190211961D01*
X196940771Y-190211961D01*
X199131247Y-190211961D02*
X199381247Y-188211961D01*
X200143152Y-188211961D01*
X200321723Y-188307200D01*
X200405057Y-188402438D01*
X200476485Y-188592914D01*
X200440771Y-188878628D01*
X200321723Y-189069104D01*
X200214580Y-189164342D01*
X200012200Y-189259580D01*
X199250295Y-189259580D01*
X201047914Y-190116723D02*
X201226485Y-190211961D01*
X201607438Y-190211961D01*
X201809819Y-190116723D01*
X201928866Y-189926247D01*
X201940771Y-189831009D01*
X201869342Y-189640533D01*
X201690771Y-189545295D01*
X201405057Y-189545295D01*
X201226485Y-189450057D01*
X201155057Y-189259580D01*
X201166961Y-189164342D01*
X201286009Y-188973866D01*
X201488390Y-188878628D01*
X201774104Y-188878628D01*
X201952676Y-188973866D01*
X202750295Y-190211961D02*
X202916961Y-188878628D01*
X203000295Y-188211961D02*
X202893152Y-188307200D01*
X202976485Y-188402438D01*
X203083628Y-188307200D01*
X203000295Y-188211961D01*
X202976485Y-188402438D01*
X203583628Y-188878628D02*
X204345533Y-188878628D01*
X203952676Y-188211961D02*
X203738390Y-189926247D01*
X203809819Y-190116723D01*
X203988390Y-190211961D01*
X204178866Y-190211961D01*
X204845533Y-190211961D02*
X205095533Y-188211961D01*
X205702676Y-190211961D02*
X205833628Y-189164342D01*
X205762200Y-188973866D01*
X205583628Y-188878628D01*
X205297914Y-188878628D01*
X205095533Y-188973866D01*
X204988390Y-189069104D01*
X207428866Y-190116723D02*
X207226485Y-190211961D01*
X206845533Y-190211961D01*
X206666961Y-190116723D01*
X206595533Y-189926247D01*
X206690771Y-189164342D01*
X206809819Y-188973866D01*
X207012200Y-188878628D01*
X207393152Y-188878628D01*
X207571723Y-188973866D01*
X207643152Y-189164342D01*
X207619342Y-189354819D01*
X206643152Y-189545295D01*
X208369342Y-190211961D02*
X208536009Y-188878628D01*
X208512200Y-189069104D02*
X208619342Y-188973866D01*
X208821723Y-188878628D01*
X209107438Y-188878628D01*
X209286009Y-188973866D01*
X209357438Y-189164342D01*
X209226485Y-190211961D01*
X209357438Y-189164342D02*
X209476485Y-188973866D01*
X209678866Y-188878628D01*
X209964580Y-188878628D01*
X210143152Y-188973866D01*
X210214580Y-189164342D01*
X210083628Y-190211961D01*
X211036009Y-190211961D02*
X211202676Y-188878628D01*
X211286009Y-188211961D02*
X211178866Y-188307200D01*
X211262200Y-188402438D01*
X211369342Y-188307200D01*
X211286009Y-188211961D01*
X211262200Y-188402438D01*
X213012200Y-188878628D02*
X212845533Y-190211961D01*
X212155057Y-188878628D02*
X212024104Y-189926247D01*
X212095533Y-190116723D01*
X212274104Y-190211961D01*
X212559819Y-190211961D01*
X212762200Y-190116723D01*
X212869342Y-190021485D01*
X213714580Y-190116723D02*
X213893152Y-190211961D01*
X214274104Y-190211961D01*
X214476485Y-190116723D01*
X214595533Y-189926247D01*
X214607438Y-189831009D01*
X214536009Y-189640533D01*
X214357438Y-189545295D01*
X214071723Y-189545295D01*
X213893152Y-189450057D01*
X213821723Y-189259580D01*
X213833628Y-189164342D01*
X213952676Y-188973866D01*
X214155057Y-188878628D01*
X214440771Y-188878628D01*
X214619342Y-188973866D01*
D10*
D11*
X178934342Y-185600057D02*
X178434342Y-185600057D01*
X178434342Y-186385771D02*
X178434342Y-184885771D01*
X179148628Y-184885771D01*
X179720057Y-186385771D02*
X179720057Y-185385771D01*
X179720057Y-184885771D02*
X179648628Y-184957200D01*
X179720057Y-185028628D01*
X179791485Y-184957200D01*
X179720057Y-184885771D01*
X179720057Y-185028628D01*
X180648628Y-186385771D02*
X180505771Y-186314342D01*
X180434342Y-186171485D01*
X180434342Y-184885771D01*
X181791485Y-186314342D02*
X181648628Y-186385771D01*
X181362914Y-186385771D01*
X181220057Y-186314342D01*
X181148628Y-186171485D01*
X181148628Y-185600057D01*
X181220057Y-185457200D01*
X181362914Y-185385771D01*
X181648628Y-185385771D01*
X181791485Y-185457200D01*
X181862914Y-185600057D01*
X181862914Y-185742914D01*
X181148628Y-185885771D01*
X182505771Y-186242914D02*
X182577200Y-186314342D01*
X182505771Y-186385771D01*
X182434342Y-186314342D01*
X182505771Y-186242914D01*
X182505771Y-186385771D01*
X182505771Y-185457200D02*
X182577200Y-185528628D01*
X182505771Y-185600057D01*
X182434342Y-185528628D01*
X182505771Y-185457200D01*
X182505771Y-185600057D01*
X184362914Y-185385771D02*
X184362914Y-186885771D01*
X184362914Y-185457200D02*
X184505771Y-185385771D01*
X184791485Y-185385771D01*
X184934342Y-185457200D01*
X185005771Y-185528628D01*
X185077200Y-185671485D01*
X185077200Y-186100057D01*
X185005771Y-186242914D01*
X184934342Y-186314342D01*
X184791485Y-186385771D01*
X184505771Y-186385771D01*
X184362914Y-186314342D01*
X185648628Y-186314342D02*
X185791485Y-186385771D01*
X186077200Y-186385771D01*
X186220057Y-186314342D01*
X186291485Y-186171485D01*
X186291485Y-186100057D01*
X186220057Y-185957200D01*
X186077200Y-185885771D01*
X185862914Y-185885771D01*
X185720057Y-185814342D01*
X185648628Y-185671485D01*
X185648628Y-185600057D01*
X185720057Y-185457200D01*
X185862914Y-185385771D01*
X186077200Y-185385771D01*
X186220057Y-185457200D01*
X186934342Y-186385771D02*
X186934342Y-185385771D01*
X186934342Y-184885771D02*
X186862914Y-184957200D01*
X186934342Y-185028628D01*
X187005771Y-184957200D01*
X186934342Y-184885771D01*
X186934342Y-185028628D01*
X187434342Y-185385771D02*
X188005771Y-185385771D01*
X187648628Y-184885771D02*
X187648628Y-186171485D01*
X187720057Y-186314342D01*
X187862914Y-186385771D01*
X188005771Y-186385771D01*
X188505771Y-186385771D02*
X188505771Y-184885771D01*
X189148628Y-186385771D02*
X189148628Y-185600057D01*
X189077200Y-185457200D01*
X188934342Y-185385771D01*
X188720057Y-185385771D01*
X188577200Y-185457200D01*
X188505771Y-185528628D01*
X190434342Y-186314342D02*
X190291485Y-186385771D01*
X190005771Y-186385771D01*
X189862914Y-186314342D01*
X189791485Y-186171485D01*
X189791485Y-185600057D01*
X189862914Y-185457200D01*
X190005771Y-185385771D01*
X190291485Y-185385771D01*
X190434342Y-185457200D01*
X190505771Y-185600057D01*
X190505771Y-185742914D01*
X189791485Y-185885771D01*
X191148628Y-186385771D02*
X191148628Y-185385771D01*
X191148628Y-185528628D02*
X191220057Y-185457200D01*
X191362914Y-185385771D01*
X191577200Y-185385771D01*
X191720057Y-185457200D01*
X191791485Y-185600057D01*
X191791485Y-186385771D01*
X191791485Y-185600057D02*
X191862914Y-185457200D01*
X192005771Y-185385771D01*
X192220057Y-185385771D01*
X192362914Y-185457200D01*
X192434342Y-185600057D01*
X192434342Y-186385771D01*
X193148628Y-186385771D02*
X193148628Y-185385771D01*
X193148628Y-184885771D02*
X193077200Y-184957200D01*
X193148628Y-185028628D01*
X193220057Y-184957200D01*
X193148628Y-184885771D01*
X193148628Y-185028628D01*
X194505771Y-185385771D02*
X194505771Y-186385771D01*
X193862914Y-185385771D02*
X193862914Y-186171485D01*
X193934342Y-186314342D01*
X194077200Y-186385771D01*
X194291485Y-186385771D01*
X194434342Y-186314342D01*
X194505771Y-186242914D01*
X195148628Y-186314342D02*
X195291485Y-186385771D01*
X195577200Y-186385771D01*
X195720057Y-186314342D01*
X195791485Y-186171485D01*
X195791485Y-186100057D01*
X195720057Y-185957200D01*
X195577200Y-185885771D01*
X195362914Y-185885771D01*
X195220057Y-185814342D01*
X195148628Y-185671485D01*
X195148628Y-185600057D01*
X195220057Y-185457200D01*
X195362914Y-185385771D01*
X195577200Y-185385771D01*
X195720057Y-185457200D01*
X196434342Y-186242914D02*
X196505771Y-186314342D01*
X196434342Y-186385771D01*
X196362914Y-186314342D01*
X196434342Y-186242914D01*
X196434342Y-186385771D01*
X197148628Y-186385771D02*
X197148628Y-184885771D01*
X197291485Y-185814342D02*
X197720057Y-186385771D01*
X197720057Y-185385771D02*
X197148628Y-185957200D01*
X198362914Y-186385771D02*
X198362914Y-185385771D01*
X198362914Y-184885771D02*
X198291485Y-184957200D01*
X198362914Y-185028628D01*
X198434342Y-184957200D01*
X198362914Y-184885771D01*
X198362914Y-185028628D01*
X199720057Y-186314342D02*
X199577200Y-186385771D01*
X199291485Y-186385771D01*
X199148628Y-186314342D01*
X199077200Y-186242914D01*
X199005771Y-186100057D01*
X199005771Y-185671485D01*
X199077200Y-185528628D01*
X199148628Y-185457200D01*
X199291485Y-185385771D01*
X199577200Y-185385771D01*
X199720057Y-185457200D01*
X201005771Y-186385771D02*
X201005771Y-185600057D01*
X200934342Y-185457200D01*
X200791485Y-185385771D01*
X200505771Y-185385771D01*
X200362914Y-185457200D01*
X201005771Y-186314342D02*
X200862914Y-186385771D01*
X200505771Y-186385771D01*
X200362914Y-186314342D01*
X200291485Y-186171485D01*
X200291485Y-186028628D01*
X200362914Y-185885771D01*
X200505771Y-185814342D01*
X200862914Y-185814342D01*
X201005771Y-185742914D01*
X202362914Y-186385771D02*
X202362914Y-184885771D01*
X202362914Y-186314342D02*
X202220057Y-186385771D01*
X201934342Y-186385771D01*
X201791485Y-186314342D01*
X201720057Y-186242914D01*
X201648628Y-186100057D01*
X201648628Y-185671485D01*
X201720057Y-185528628D01*
X201791485Y-185457200D01*
X201934342Y-185385771D01*
X202220057Y-185385771D01*
X202362914Y-185457200D01*
X202720057Y-186528628D02*
X203862914Y-186528628D01*
X204220057Y-185385771D02*
X204220057Y-186885771D01*
X204220057Y-185457200D02*
X204362914Y-185385771D01*
X204648628Y-185385771D01*
X204791485Y-185457200D01*
X204862914Y-185528628D01*
X204934342Y-185671485D01*
X204934342Y-186100057D01*
X204862914Y-186242914D01*
X204791485Y-186314342D01*
X204648628Y-186385771D01*
X204362914Y-186385771D01*
X204220057Y-186314342D01*
X206220057Y-186314342D02*
X206077200Y-186385771D01*
X205791485Y-186385771D01*
X205648628Y-186314342D01*
X205577200Y-186242914D01*
X205505771Y-186100057D01*
X205505771Y-185671485D01*
X205577200Y-185528628D01*
X205648628Y-185457200D01*
X205791485Y-185385771D01*
X206077200Y-185385771D01*
X206220057Y-185457200D01*
X206862914Y-186385771D02*
X206862914Y-184885771D01*
X206862914Y-185457200D02*
X207005771Y-185385771D01*
X207291485Y-185385771D01*
X207434342Y-185457200D01*
X207505771Y-185528628D01*
X207577200Y-185671485D01*
X207577200Y-186100057D01*
X207505771Y-186242914D01*
X207434342Y-186314342D01*
X207291485Y-186385771D01*
X207005771Y-186385771D01*
X206862914Y-186314342D01*
D10*
D11*
X177002200Y-181507200D02*
X285002200Y-181507200D01*
D10*
D11*
X178362914Y-183614342D02*
X178577200Y-183685771D01*
X178934342Y-183685771D01*
X179077200Y-183614342D01*
X179148628Y-183542914D01*
X179220057Y-183400057D01*
X179220057Y-183257200D01*
X179148628Y-183114342D01*
X179077200Y-183042914D01*
X178934342Y-182971485D01*
X178648628Y-182900057D01*
X178505771Y-182828628D01*
X178434342Y-182757200D01*
X178362914Y-182614342D01*
X178362914Y-182471485D01*
X178434342Y-182328628D01*
X178505771Y-182257200D01*
X178648628Y-182185771D01*
X179005771Y-182185771D01*
X179220057Y-182257200D01*
X179862914Y-183685771D02*
X179862914Y-182185771D01*
X180505771Y-183685771D02*
X180505771Y-182900057D01*
X180434342Y-182757200D01*
X180291485Y-182685771D01*
X180077200Y-182685771D01*
X179934342Y-182757200D01*
X179862914Y-182828628D01*
X181791485Y-183614342D02*
X181648628Y-183685771D01*
X181362914Y-183685771D01*
X181220057Y-183614342D01*
X181148628Y-183471485D01*
X181148628Y-182900057D01*
X181220057Y-182757200D01*
X181362914Y-182685771D01*
X181648628Y-182685771D01*
X181791485Y-182757200D01*
X181862914Y-182900057D01*
X181862914Y-183042914D01*
X181148628Y-183185771D01*
X183077200Y-183614342D02*
X182934342Y-183685771D01*
X182648628Y-183685771D01*
X182505771Y-183614342D01*
X182434342Y-183471485D01*
X182434342Y-182900057D01*
X182505771Y-182757200D01*
X182648628Y-182685771D01*
X182934342Y-182685771D01*
X183077200Y-182757200D01*
X183148628Y-182900057D01*
X183148628Y-183042914D01*
X182434342Y-183185771D01*
X183577200Y-182685771D02*
X184148628Y-182685771D01*
X183791485Y-182185771D02*
X183791485Y-183471485D01*
X183862914Y-183614342D01*
X184005771Y-183685771D01*
X184148628Y-183685771D01*
X184648628Y-183542914D02*
X184720057Y-183614342D01*
X184648628Y-183685771D01*
X184577200Y-183614342D01*
X184648628Y-183542914D01*
X184648628Y-183685771D01*
X184648628Y-182757200D02*
X184720057Y-182828628D01*
X184648628Y-182900057D01*
X184577200Y-182828628D01*
X184648628Y-182757200D01*
X184648628Y-182900057D01*
D10*
D12*
X178482914Y-180614342D02*
X178697200Y-180685771D01*
X179054342Y-180685771D01*
X179197200Y-180614342D01*
X179268628Y-180542914D01*
X179340057Y-180400057D01*
X179340057Y-180257200D01*
X179268628Y-180114342D01*
X179197200Y-180042914D01*
X179054342Y-179971485D01*
X178768628Y-179900057D01*
X178625771Y-179828628D01*
X178554342Y-179757200D01*
X178482914Y-179614342D01*
X178482914Y-179471485D01*
X178554342Y-179328628D01*
X178625771Y-179257200D01*
X178768628Y-179185771D01*
X179125771Y-179185771D01*
X179340057Y-179257200D01*
X180625771Y-179685771D02*
X180625771Y-180685771D01*
X179982914Y-179685771D02*
X179982914Y-180471485D01*
X180054342Y-180614342D01*
X180197200Y-180685771D01*
X180411485Y-180685771D01*
X180554342Y-180614342D01*
X180625771Y-180542914D01*
X181340057Y-180685771D02*
X181340057Y-179185771D01*
X181340057Y-179757200D02*
X181482914Y-179685771D01*
X181768628Y-179685771D01*
X181911485Y-179757200D01*
X181982914Y-179828628D01*
X182054342Y-179971485D01*
X182054342Y-180400057D01*
X181982914Y-180542914D01*
X181911485Y-180614342D01*
X181768628Y-180685771D01*
X181482914Y-180685771D01*
X181340057Y-180614342D01*
X182911485Y-180685771D02*
X182768628Y-180614342D01*
X182697200Y-180471485D01*
X182697200Y-179185771D01*
X184125771Y-179685771D02*
X184125771Y-180685771D01*
X183482914Y-179685771D02*
X183482914Y-180471485D01*
X183554342Y-180614342D01*
X183697200Y-180685771D01*
X183911485Y-180685771D01*
X184054342Y-180614342D01*
X184125771Y-180542914D01*
X184840057Y-179685771D02*
X184840057Y-180685771D01*
X184840057Y-179828628D02*
X184911485Y-179757200D01*
X185054342Y-179685771D01*
X185268628Y-179685771D01*
X185411485Y-179757200D01*
X185482914Y-179900057D01*
X185482914Y-180685771D01*
X186840057Y-180685771D02*
X186840057Y-179900057D01*
X186768628Y-179757200D01*
X186625771Y-179685771D01*
X186340057Y-179685771D01*
X186197200Y-179757200D01*
X186840057Y-180614342D02*
X186697200Y-180685771D01*
X186340057Y-180685771D01*
X186197200Y-180614342D01*
X186125771Y-180471485D01*
X186125771Y-180328628D01*
X186197200Y-180185771D01*
X186340057Y-180114342D01*
X186697200Y-180114342D01*
X186840057Y-180042914D01*
X187554342Y-180685771D02*
X187554342Y-179685771D01*
X187554342Y-179971485D02*
X187625771Y-179828628D01*
X187697200Y-179757200D01*
X187840057Y-179685771D01*
X187982914Y-179685771D01*
X189625771Y-180685771D02*
X189625771Y-179185771D01*
X190197200Y-179185771D01*
X190340057Y-179257200D01*
X190411485Y-179328628D01*
X190482914Y-179471485D01*
X190482914Y-179685771D01*
X190411485Y-179828628D01*
X190340057Y-179900057D01*
X190197200Y-179971485D01*
X189625771Y-179971485D01*
X191054342Y-180614342D02*
X191197200Y-180685771D01*
X191482914Y-180685771D01*
X191625771Y-180614342D01*
X191697200Y-180471485D01*
X191697200Y-180400057D01*
X191625771Y-180257200D01*
X191482914Y-180185771D01*
X191268628Y-180185771D01*
X191125771Y-180114342D01*
X191054342Y-179971485D01*
X191054342Y-179900057D01*
X191125771Y-179757200D01*
X191268628Y-179685771D01*
X191482914Y-179685771D01*
X191625771Y-179757200D01*
X192340057Y-180685771D02*
X192340057Y-179685771D01*
X192340057Y-179185771D02*
X192268628Y-179257200D01*
X192340057Y-179328628D01*
X192411485Y-179257200D01*
X192340057Y-179185771D01*
X192340057Y-179328628D01*
X193268628Y-180685771D02*
X193125771Y-180614342D01*
X193054342Y-180542914D01*
X192982914Y-180400057D01*
X192982914Y-179971485D01*
X193054342Y-179828628D01*
X193125771Y-179757200D01*
X193268628Y-179685771D01*
X193482914Y-179685771D01*
X193625771Y-179757200D01*
X193697200Y-179828628D01*
X193768628Y-179971485D01*
X193768628Y-180400057D01*
X193697200Y-180542914D01*
X193625771Y-180614342D01*
X193482914Y-180685771D01*
X193268628Y-180685771D01*
X194411485Y-179685771D02*
X194411485Y-180685771D01*
X194411485Y-179828628D02*
X194482914Y-179757200D01*
X194625771Y-179685771D01*
X194840057Y-179685771D01*
X194982914Y-179757200D01*
X195054342Y-179900057D01*
X195054342Y-180685771D01*
X195768628Y-180685771D02*
X195768628Y-179685771D01*
X195768628Y-179185771D02*
X195697200Y-179257200D01*
X195768628Y-179328628D01*
X195840057Y-179257200D01*
X195768628Y-179185771D01*
X195768628Y-179328628D01*
X197125771Y-180614342D02*
X196982914Y-180685771D01*
X196697200Y-180685771D01*
X196554342Y-180614342D01*
X196482914Y-180542914D01*
X196411485Y-180400057D01*
X196411485Y-179971485D01*
X196482914Y-179828628D01*
X196554342Y-179757200D01*
X196697200Y-179685771D01*
X196982914Y-179685771D01*
X197125771Y-179757200D01*
X197697200Y-180614342D02*
X197840057Y-180685771D01*
X198125771Y-180685771D01*
X198268628Y-180614342D01*
X198340057Y-180471485D01*
X198340057Y-180400057D01*
X198268628Y-180257200D01*
X198125771Y-180185771D01*
X197911485Y-180185771D01*
X197768628Y-180114342D01*
X197697200Y-179971485D01*
X197697200Y-179900057D01*
X197768628Y-179757200D01*
X197911485Y-179685771D01*
X198125771Y-179685771D01*
X198268628Y-179757200D01*
D10*
D11*
X197002200Y-191507200D02*
X197002200Y-194507200D01*
D10*
D11*
X261002200Y-191507200D02*
X261002200Y-198007200D01*
D10*
G36*
X90466241Y-140717760D02*
G01*
X90730305Y-140827139D01*
X90967958Y-140985934D01*
X91170066Y-141188042D01*
X91328861Y-141425695D01*
X91438240Y-141689759D01*
X91494000Y-141970088D01*
X91494000Y-142255912D01*
X91438240Y-142536241D01*
X91328861Y-142800305D01*
X91170066Y-143037958D01*
X90967958Y-143240066D01*
X90730305Y-143398861D01*
X90466241Y-143508240D01*
X90185912Y-143564000D01*
X89900088Y-143564000D01*
X89619759Y-143508240D01*
X89355695Y-143398861D01*
X89118042Y-143240066D01*
X88915934Y-143037958D01*
X88757139Y-142800305D01*
X88647760Y-142536241D01*
X88592000Y-142255912D01*
X88592000Y-141970088D01*
X88647760Y-141689759D01*
X88757139Y-141425695D01*
X88915934Y-141188042D01*
X89118042Y-140985934D01*
X89355695Y-140827139D01*
X89619759Y-140717760D01*
X89900088Y-140662000D01*
X90185912Y-140662000D01*
X90466241Y-140717760D01*
G37*
G36*
X82051411Y-139350656D02*
G01*
X82179260Y-139403613D01*
X82294315Y-139480490D01*
X82392170Y-139578345D01*
X82469047Y-139693400D01*
X82522004Y-139821249D01*
X82549000Y-139956968D01*
X82549000Y-140095352D01*
X82522004Y-140231071D01*
X82469047Y-140358920D01*
X82392170Y-140473975D01*
X82294315Y-140571830D01*
X82179260Y-140648707D01*
X82051411Y-140701664D01*
X81915692Y-140728660D01*
X81777308Y-140728660D01*
X81641589Y-140701664D01*
X81513740Y-140648707D01*
X81398685Y-140571830D01*
X81300830Y-140473975D01*
X81223953Y-140358920D01*
X81170996Y-140231071D01*
X81144000Y-140095352D01*
X81144000Y-139956968D01*
X81170996Y-139821249D01*
X81223953Y-139693400D01*
X81300830Y-139578345D01*
X81398685Y-139480490D01*
X81513740Y-139403613D01*
X81641589Y-139350656D01*
X81777308Y-139323660D01*
X81915692Y-139323660D01*
X82051411Y-139350656D01*
G37*
G36*
X101866778Y-138820547D02*
G01*
X102033224Y-138889491D01*
X102183022Y-138989583D01*
X102310417Y-139116978D01*
X102410509Y-139266776D01*
X102479453Y-139433222D01*
X102514600Y-139609918D01*
X102514600Y-139790082D01*
X102479453Y-139966778D01*
X102410509Y-140133224D01*
X102310417Y-140283022D01*
X102183022Y-140410417D01*
X102033224Y-140510509D01*
X101866778Y-140579453D01*
X101690082Y-140614600D01*
X101509918Y-140614600D01*
X101333222Y-140579453D01*
X101166776Y-140510509D01*
X101016978Y-140410417D01*
X100889583Y-140283022D01*
X100789491Y-140133224D01*
X100720547Y-139966778D01*
X100685400Y-139790082D01*
X100685400Y-139609918D01*
X100720547Y-139433222D01*
X100789491Y-139266776D01*
X100889583Y-139116978D01*
X101016978Y-138989583D01*
X101166776Y-138889491D01*
X101333222Y-138820547D01*
X101509918Y-138785400D01*
X101690082Y-138785400D01*
X101866778Y-138820547D01*
G37*
G36*
X104406778Y-138820547D02*
G01*
X104573224Y-138889491D01*
X104723022Y-138989583D01*
X104850417Y-139116978D01*
X104950509Y-139266776D01*
X105019453Y-139433222D01*
X105054600Y-139609918D01*
X105054600Y-139790082D01*
X105019453Y-139966778D01*
X104950509Y-140133224D01*
X104850417Y-140283022D01*
X104723022Y-140410417D01*
X104573224Y-140510509D01*
X104406778Y-140579453D01*
X104230082Y-140614600D01*
X104049918Y-140614600D01*
X103873222Y-140579453D01*
X103706776Y-140510509D01*
X103556978Y-140410417D01*
X103429583Y-140283022D01*
X103329491Y-140133224D01*
X103260547Y-139966778D01*
X103225400Y-139790082D01*
X103225400Y-139609918D01*
X103260547Y-139433222D01*
X103329491Y-139266776D01*
X103429583Y-139116978D01*
X103556978Y-138989583D01*
X103706776Y-138889491D01*
X103873222Y-138820547D01*
X104049918Y-138785400D01*
X104230082Y-138785400D01*
X104406778Y-138820547D01*
G37*
G36*
X99326778Y-138820547D02*
G01*
X99493224Y-138889491D01*
X99643022Y-138989583D01*
X99770417Y-139116978D01*
X99870509Y-139266776D01*
X99939453Y-139433222D01*
X99974600Y-139609918D01*
X99974600Y-139790082D01*
X99939453Y-139966778D01*
X99870509Y-140133224D01*
X99770417Y-140283022D01*
X99643022Y-140410417D01*
X99493224Y-140510509D01*
X99326778Y-140579453D01*
X99150082Y-140614600D01*
X98969918Y-140614600D01*
X98793222Y-140579453D01*
X98626776Y-140510509D01*
X98476978Y-140410417D01*
X98349583Y-140283022D01*
X98249491Y-140133224D01*
X98180547Y-139966778D01*
X98145400Y-139790082D01*
X98145400Y-139609918D01*
X98180547Y-139433222D01*
X98249491Y-139266776D01*
X98349583Y-139116978D01*
X98476978Y-138989583D01*
X98626776Y-138889491D01*
X98793222Y-138820547D01*
X98969918Y-138785400D01*
X99150082Y-138785400D01*
X99326778Y-138820547D01*
G37*
G36*
X79851706Y-138080656D02*
G01*
X79979555Y-138133613D01*
X80094610Y-138210490D01*
X80192465Y-138308345D01*
X80269342Y-138423400D01*
X80322299Y-138551249D01*
X80349295Y-138686968D01*
X80349295Y-138825352D01*
X80322299Y-138961071D01*
X80269342Y-139088920D01*
X80192465Y-139203975D01*
X80094610Y-139301830D01*
X79979555Y-139378707D01*
X79851706Y-139431664D01*
X79715987Y-139458660D01*
X79577603Y-139458660D01*
X79441884Y-139431664D01*
X79314035Y-139378707D01*
X79198980Y-139301830D01*
X79101125Y-139203975D01*
X79024248Y-139088920D01*
X78971291Y-138961071D01*
X78944295Y-138825352D01*
X78944295Y-138686968D01*
X78971291Y-138551249D01*
X79024248Y-138423400D01*
X79101125Y-138308345D01*
X79198980Y-138210490D01*
X79314035Y-138133613D01*
X79441884Y-138080656D01*
X79577603Y-138053660D01*
X79715987Y-138053660D01*
X79851706Y-138080656D01*
G37*
G36*
X77652002Y-136810656D02*
G01*
X77779851Y-136863613D01*
X77894906Y-136940490D01*
X77992761Y-137038345D01*
X78069638Y-137153400D01*
X78122595Y-137281249D01*
X78149591Y-137416968D01*
X78149591Y-137555352D01*
X78122595Y-137691071D01*
X78069638Y-137818920D01*
X77992761Y-137933975D01*
X77894906Y-138031830D01*
X77779851Y-138108707D01*
X77652002Y-138161664D01*
X77516283Y-138188660D01*
X77377899Y-138188660D01*
X77242180Y-138161664D01*
X77114331Y-138108707D01*
X76999276Y-138031830D01*
X76901421Y-137933975D01*
X76824544Y-137818920D01*
X76771587Y-137691071D01*
X76744591Y-137555352D01*
X76744591Y-137416968D01*
X76771587Y-137281249D01*
X76824544Y-137153400D01*
X76901421Y-137038345D01*
X76999276Y-136940490D01*
X77114331Y-136863613D01*
X77242180Y-136810656D01*
X77377899Y-136783660D01*
X77516283Y-136783660D01*
X77652002Y-136810656D01*
G37*
G36*
X99326778Y-136280547D02*
G01*
X99493224Y-136349491D01*
X99643022Y-136449583D01*
X99770417Y-136576978D01*
X99870509Y-136726776D01*
X99939453Y-136893222D01*
X99974600Y-137069918D01*
X99974600Y-137250082D01*
X99939453Y-137426778D01*
X99870509Y-137593224D01*
X99770417Y-137743022D01*
X99643022Y-137870417D01*
X99493224Y-137970509D01*
X99326778Y-138039453D01*
X99150082Y-138074600D01*
X98969918Y-138074600D01*
X98793222Y-138039453D01*
X98626776Y-137970509D01*
X98476978Y-137870417D01*
X98349583Y-137743022D01*
X98249491Y-137593224D01*
X98180547Y-137426778D01*
X98145400Y-137250082D01*
X98145400Y-137069918D01*
X98180547Y-136893222D01*
X98249491Y-136726776D01*
X98349583Y-136576978D01*
X98476978Y-136449583D01*
X98626776Y-136349491D01*
X98793222Y-136280547D01*
X98969918Y-136245400D01*
X99150082Y-136245400D01*
X99326778Y-136280547D01*
G37*
G36*
X101866778Y-136280547D02*
G01*
X102033224Y-136349491D01*
X102183022Y-136449583D01*
X102310417Y-136576978D01*
X102410509Y-136726776D01*
X102479453Y-136893222D01*
X102514600Y-137069918D01*
X102514600Y-137250082D01*
X102479453Y-137426778D01*
X102410509Y-137593224D01*
X102310417Y-137743022D01*
X102183022Y-137870417D01*
X102033224Y-137970509D01*
X101866778Y-138039453D01*
X101690082Y-138074600D01*
X101509918Y-138074600D01*
X101333222Y-138039453D01*
X101166776Y-137970509D01*
X101016978Y-137870417D01*
X100889583Y-137743022D01*
X100789491Y-137593224D01*
X100720547Y-137426778D01*
X100685400Y-137250082D01*
X100685400Y-137069918D01*
X100720547Y-136893222D01*
X100789491Y-136726776D01*
X100889583Y-136576978D01*
X101016978Y-136449583D01*
X101166776Y-136349491D01*
X101333222Y-136280547D01*
X101509918Y-136245400D01*
X101690082Y-136245400D01*
X101866778Y-136280547D01*
G37*
G36*
X105054600Y-138074600D02*
G01*
X103225400Y-138074600D01*
X103225400Y-136245400D01*
X105054600Y-136245400D01*
X105054600Y-138074600D01*
G37*
G36*
X101877395Y-129315546D02*
G01*
X102050466Y-129387234D01*
X102050467Y-129387235D01*
X102206227Y-129491310D01*
X102338690Y-129623773D01*
X102338691Y-129623775D01*
X102442766Y-129779534D01*
X102514454Y-129952605D01*
X102551000Y-130136333D01*
X102551000Y-130323667D01*
X102514454Y-130507395D01*
X102442766Y-130680466D01*
X102442765Y-130680467D01*
X102338690Y-130836227D01*
X102206227Y-130968690D01*
X102127818Y-131021081D01*
X102050466Y-131072766D01*
X101877395Y-131144454D01*
X101693667Y-131181000D01*
X101506333Y-131181000D01*
X101322605Y-131144454D01*
X101149534Y-131072766D01*
X101072182Y-131021081D01*
X100993773Y-130968690D01*
X100861310Y-130836227D01*
X100757235Y-130680467D01*
X100757234Y-130680466D01*
X100685546Y-130507395D01*
X100649000Y-130323667D01*
X100649000Y-130136333D01*
X100685546Y-129952605D01*
X100757234Y-129779534D01*
X100861309Y-129623775D01*
X100861310Y-129623773D01*
X100993773Y-129491310D01*
X101149533Y-129387235D01*
X101149534Y-129387234D01*
X101322605Y-129315546D01*
X101506333Y-129279000D01*
X101693667Y-129279000D01*
X101877395Y-129315546D01*
G37*
G36*
X95627395Y-127315546D02*
G01*
X95800466Y-127387234D01*
X95800467Y-127387235D01*
X95956227Y-127491310D01*
X96088690Y-127623773D01*
X96088691Y-127623775D01*
X96192766Y-127779534D01*
X96264454Y-127952605D01*
X96301000Y-128136333D01*
X96301000Y-128323667D01*
X96264454Y-128507395D01*
X96192766Y-128680466D01*
X96192765Y-128680467D01*
X96088690Y-128836227D01*
X95956227Y-128968690D01*
X95936066Y-128982161D01*
X95800466Y-129072766D01*
X95627395Y-129144454D01*
X95443667Y-129181000D01*
X95256333Y-129181000D01*
X95072605Y-129144454D01*
X94899534Y-129072766D01*
X94763934Y-128982161D01*
X94743773Y-128968690D01*
X94611310Y-128836227D01*
X94507235Y-128680467D01*
X94507234Y-128680466D01*
X94435546Y-128507395D01*
X94399000Y-128323667D01*
X94399000Y-128136333D01*
X94435546Y-127952605D01*
X94507234Y-127779534D01*
X94611309Y-127623775D01*
X94611310Y-127623773D01*
X94743773Y-127491310D01*
X94899533Y-127387235D01*
X94899534Y-127387234D01*
X95072605Y-127315546D01*
X95256333Y-127279000D01*
X95443667Y-127279000D01*
X95627395Y-127315546D01*
G37*
G36*
X108127395Y-127315546D02*
G01*
X108300466Y-127387234D01*
X108300467Y-127387235D01*
X108456227Y-127491310D01*
X108588690Y-127623773D01*
X108588691Y-127623775D01*
X108692766Y-127779534D01*
X108764454Y-127952605D01*
X108801000Y-128136333D01*
X108801000Y-128323667D01*
X108764454Y-128507395D01*
X108692766Y-128680466D01*
X108692765Y-128680467D01*
X108588690Y-128836227D01*
X108456227Y-128968690D01*
X108436066Y-128982161D01*
X108300466Y-129072766D01*
X108127395Y-129144454D01*
X107943667Y-129181000D01*
X107756333Y-129181000D01*
X107572605Y-129144454D01*
X107399534Y-129072766D01*
X107263934Y-128982161D01*
X107243773Y-128968690D01*
X107111310Y-128836227D01*
X107007235Y-128680467D01*
X107007234Y-128680466D01*
X106935546Y-128507395D01*
X106899000Y-128323667D01*
X106899000Y-128136333D01*
X106935546Y-127952605D01*
X107007234Y-127779534D01*
X107111309Y-127623775D01*
X107111310Y-127623773D01*
X107243773Y-127491310D01*
X107399533Y-127387235D01*
X107399534Y-127387234D01*
X107572605Y-127315546D01*
X107756333Y-127279000D01*
X107943667Y-127279000D01*
X108127395Y-127315546D01*
G37*
G36*
X127953433Y-126269893D02*
G01*
X128043657Y-126287839D01*
X128149267Y-126331585D01*
X128298621Y-126393449D01*
X128298622Y-126393450D01*
X128528086Y-126546772D01*
X128723228Y-126741914D01*
X128825675Y-126895237D01*
X128876551Y-126971379D01*
X128982161Y-127226344D01*
X129036000Y-127497012D01*
X129036000Y-127772988D01*
X128982161Y-128043656D01*
X128876551Y-128298621D01*
X128876550Y-128298622D01*
X128723228Y-128528086D01*
X128528086Y-128723228D01*
X128374763Y-128825675D01*
X128298621Y-128876551D01*
X128149267Y-128938415D01*
X128043657Y-128982161D01*
X127953433Y-129000107D01*
X127772988Y-129036000D01*
X127497012Y-129036000D01*
X127316567Y-129000107D01*
X127226343Y-128982161D01*
X127120733Y-128938415D01*
X126971379Y-128876551D01*
X126895237Y-128825675D01*
X126741914Y-128723228D01*
X126546772Y-128528086D01*
X126393450Y-128298622D01*
X126393449Y-128298621D01*
X126287839Y-128043656D01*
X126234000Y-127772988D01*
X126234000Y-127497012D01*
X126287839Y-127226344D01*
X126393449Y-126971379D01*
X126444325Y-126895237D01*
X126546772Y-126741914D01*
X126741914Y-126546772D01*
X126971378Y-126393450D01*
X126971379Y-126393449D01*
X127120733Y-126331585D01*
X127226343Y-126287839D01*
X127316567Y-126269893D01*
X127497012Y-126234000D01*
X127772988Y-126234000D01*
X127953433Y-126269893D01*
G37*
G36*
X75883433Y-126269893D02*
G01*
X75973657Y-126287839D01*
X76079267Y-126331585D01*
X76228621Y-126393449D01*
X76228622Y-126393450D01*
X76458086Y-126546772D01*
X76653228Y-126741914D01*
X76755675Y-126895237D01*
X76806551Y-126971379D01*
X76912161Y-127226344D01*
X76966000Y-127497012D01*
X76966000Y-127772988D01*
X76912161Y-128043656D01*
X76806551Y-128298621D01*
X76806550Y-128298622D01*
X76653228Y-128528086D01*
X76458086Y-128723228D01*
X76304763Y-128825675D01*
X76228621Y-128876551D01*
X76079267Y-128938415D01*
X75973657Y-128982161D01*
X75883433Y-129000107D01*
X75702988Y-129036000D01*
X75427012Y-129036000D01*
X75246567Y-129000107D01*
X75156343Y-128982161D01*
X75050733Y-128938415D01*
X74901379Y-128876551D01*
X74825237Y-128825675D01*
X74671914Y-128723228D01*
X74476772Y-128528086D01*
X74323450Y-128298622D01*
X74323449Y-128298621D01*
X74217839Y-128043656D01*
X74164000Y-127772988D01*
X74164000Y-127497012D01*
X74217839Y-127226344D01*
X74323449Y-126971379D01*
X74374325Y-126895237D01*
X74476772Y-126741914D01*
X74671914Y-126546772D01*
X74901378Y-126393450D01*
X74901379Y-126393449D01*
X75050733Y-126331585D01*
X75156343Y-126287839D01*
X75246567Y-126269893D01*
X75427012Y-126234000D01*
X75702988Y-126234000D01*
X75883433Y-126269893D01*
G37*
G36*
X113367753Y-123188240D02*
G01*
X113546909Y-123680466D01*
X113578909Y-123768387D01*
X112445263Y-124181000D01*
X111791614Y-124418909D01*
X111791613Y-124418909D01*
X111246079Y-122920065D01*
X111141091Y-122631614D01*
X111141091Y-122631613D01*
X112479553Y-122144453D01*
X112928386Y-121981091D01*
X112928387Y-121981091D01*
X113367753Y-123188240D01*
G37*
G36*
X108127395Y-122315546D02*
G01*
X108300466Y-122387234D01*
X108300467Y-122387235D01*
X108456227Y-122491310D01*
X108588690Y-122623773D01*
X108588691Y-122623775D01*
X108692766Y-122779534D01*
X108764454Y-122952605D01*
X108801000Y-123136333D01*
X108801000Y-123323667D01*
X108764454Y-123507395D01*
X108692766Y-123680466D01*
X108692765Y-123680467D01*
X108588690Y-123836227D01*
X108456227Y-123968690D01*
X108377818Y-124021081D01*
X108300466Y-124072766D01*
X108127395Y-124144454D01*
X107943667Y-124181000D01*
X107756333Y-124181000D01*
X107572605Y-124144454D01*
X107399534Y-124072766D01*
X107322182Y-124021081D01*
X107243773Y-123968690D01*
X107111310Y-123836227D01*
X107007235Y-123680467D01*
X107007234Y-123680466D01*
X106935546Y-123507395D01*
X106899000Y-123323667D01*
X106899000Y-123136333D01*
X106935546Y-122952605D01*
X107007234Y-122779534D01*
X107111309Y-122623775D01*
X107111310Y-122623773D01*
X107243773Y-122491310D01*
X107399533Y-122387235D01*
X107399534Y-122387234D01*
X107572605Y-122315546D01*
X107756333Y-122279000D01*
X107943667Y-122279000D01*
X108127395Y-122315546D01*
G37*
G36*
X95627395Y-122315546D02*
G01*
X95800466Y-122387234D01*
X95800467Y-122387235D01*
X95956227Y-122491310D01*
X96088690Y-122623773D01*
X96088691Y-122623775D01*
X96192766Y-122779534D01*
X96264454Y-122952605D01*
X96301000Y-123136333D01*
X96301000Y-123323667D01*
X96264454Y-123507395D01*
X96192766Y-123680466D01*
X96192765Y-123680467D01*
X96088690Y-123836227D01*
X95956227Y-123968690D01*
X95877818Y-124021081D01*
X95800466Y-124072766D01*
X95627395Y-124144454D01*
X95443667Y-124181000D01*
X95256333Y-124181000D01*
X95072605Y-124144454D01*
X94899534Y-124072766D01*
X94822182Y-124021081D01*
X94743773Y-123968690D01*
X94611310Y-123836227D01*
X94507235Y-123680467D01*
X94507234Y-123680466D01*
X94435546Y-123507395D01*
X94399000Y-123323667D01*
X94399000Y-123136333D01*
X94435546Y-122952605D01*
X94507234Y-122779534D01*
X94611309Y-122623775D01*
X94611310Y-122623773D01*
X94743773Y-122491310D01*
X94899533Y-122387235D01*
X94899534Y-122387234D01*
X95072605Y-122315546D01*
X95256333Y-122279000D01*
X95443667Y-122279000D01*
X95627395Y-122315546D01*
G37*
G36*
X115024214Y-121416815D02*
G01*
X115197285Y-121488503D01*
X115197286Y-121488504D01*
X115353046Y-121592579D01*
X115485509Y-121725042D01*
X115507878Y-121758520D01*
X115589585Y-121880803D01*
X115661273Y-122053874D01*
X115697819Y-122237602D01*
X115697819Y-122424936D01*
X115661273Y-122608664D01*
X115589585Y-122781735D01*
X115589584Y-122781736D01*
X115485509Y-122937496D01*
X115353046Y-123069959D01*
X115339723Y-123078861D01*
X115197285Y-123174035D01*
X115024214Y-123245723D01*
X114840486Y-123282269D01*
X114653152Y-123282269D01*
X114469424Y-123245723D01*
X114296353Y-123174035D01*
X114153915Y-123078861D01*
X114140592Y-123069959D01*
X114008129Y-122937496D01*
X113904054Y-122781736D01*
X113904053Y-122781735D01*
X113832365Y-122608664D01*
X113795819Y-122424936D01*
X113795819Y-122237602D01*
X113832365Y-122053874D01*
X113904053Y-121880803D01*
X113985760Y-121758520D01*
X114008129Y-121725042D01*
X114140592Y-121592579D01*
X114296352Y-121488504D01*
X114296353Y-121488503D01*
X114469424Y-121416815D01*
X114653152Y-121380269D01*
X114840486Y-121380269D01*
X115024214Y-121416815D01*
G37*
G36*
X90466241Y-120397760D02*
G01*
X90730305Y-120507139D01*
X90967958Y-120665934D01*
X91170066Y-120868042D01*
X91328861Y-121105695D01*
X91438240Y-121369759D01*
X91494000Y-121650088D01*
X91494000Y-121935912D01*
X91438240Y-122216241D01*
X91328861Y-122480305D01*
X91170066Y-122717958D01*
X90967958Y-122920066D01*
X90730305Y-123078861D01*
X90466241Y-123188240D01*
X90185912Y-123244000D01*
X89900088Y-123244000D01*
X89619759Y-123188240D01*
X89355695Y-123078861D01*
X89118042Y-122920066D01*
X88915934Y-122717958D01*
X88757139Y-122480305D01*
X88647760Y-122216241D01*
X88592000Y-121935912D01*
X88592000Y-121650088D01*
X88647760Y-121369759D01*
X88757139Y-121105695D01*
X88915934Y-120868042D01*
X89118042Y-120665934D01*
X89355695Y-120507139D01*
X89619759Y-120397760D01*
X89900088Y-120342000D01*
X90185912Y-120342000D01*
X90466241Y-120397760D01*
G37*
G36*
X69494500Y-123152000D02*
G01*
X67792500Y-123152000D01*
X67792500Y-121450000D01*
X69494500Y-121450000D01*
X69494500Y-123152000D01*
G37*
G36*
X73891728Y-121482703D02*
G01*
X74046600Y-121546853D01*
X74185981Y-121639985D01*
X74304515Y-121758519D01*
X74397647Y-121897900D01*
X74461797Y-122052772D01*
X74494500Y-122217184D01*
X74494500Y-122384816D01*
X74461797Y-122549228D01*
X74397647Y-122704100D01*
X74304515Y-122843481D01*
X74185981Y-122962015D01*
X74046600Y-123055147D01*
X73891728Y-123119297D01*
X73727316Y-123152000D01*
X73559684Y-123152000D01*
X73395272Y-123119297D01*
X73240400Y-123055147D01*
X73101019Y-122962015D01*
X72982485Y-122843481D01*
X72889353Y-122704100D01*
X72825203Y-122549228D01*
X72792500Y-122384816D01*
X72792500Y-122217184D01*
X72825203Y-122052772D01*
X72889353Y-121897900D01*
X72982485Y-121758519D01*
X73101019Y-121639985D01*
X73240400Y-121546853D01*
X73395272Y-121482703D01*
X73559684Y-121450000D01*
X73727316Y-121450000D01*
X73891728Y-121482703D01*
G37*
G36*
X101877395Y-120315546D02*
G01*
X102050466Y-120387234D01*
X102080048Y-120407000D01*
X102206227Y-120491310D01*
X102338690Y-120623773D01*
X102375768Y-120679265D01*
X102442766Y-120779534D01*
X102514454Y-120952605D01*
X102551000Y-121136333D01*
X102551000Y-121323667D01*
X102514454Y-121507395D01*
X102442766Y-121680466D01*
X102391081Y-121757818D01*
X102338690Y-121836227D01*
X102206227Y-121968690D01*
X102127818Y-122021081D01*
X102050466Y-122072766D01*
X101877395Y-122144454D01*
X101693667Y-122181000D01*
X101506333Y-122181000D01*
X101322605Y-122144454D01*
X101149534Y-122072766D01*
X101072182Y-122021081D01*
X100993773Y-121968690D01*
X100861310Y-121836227D01*
X100808919Y-121757818D01*
X100757234Y-121680466D01*
X100685546Y-121507395D01*
X100649000Y-121323667D01*
X100649000Y-121136333D01*
X100685546Y-120952605D01*
X100757234Y-120779534D01*
X100824232Y-120679265D01*
X100861310Y-120623773D01*
X100993773Y-120491310D01*
X101119952Y-120407000D01*
X101149534Y-120387234D01*
X101322605Y-120315546D01*
X101506333Y-120279000D01*
X101693667Y-120279000D01*
X101877395Y-120315546D01*
G37*
G36*
X142395559Y-120435860D02*
G01*
X142529425Y-120491309D01*
X142532232Y-120492472D01*
X142655235Y-120574660D01*
X142759840Y-120679265D01*
X142842028Y-120802268D01*
X142842029Y-120802270D01*
X142898640Y-120938941D01*
X142927500Y-121084032D01*
X142927500Y-121231968D01*
X142898640Y-121377059D01*
X142844653Y-121507396D01*
X142842028Y-121513732D01*
X142759840Y-121636735D01*
X142655235Y-121741340D01*
X142532232Y-121823528D01*
X142532231Y-121823529D01*
X142532230Y-121823529D01*
X142395559Y-121880140D01*
X142250468Y-121909000D01*
X142102532Y-121909000D01*
X141957441Y-121880140D01*
X141820770Y-121823529D01*
X141820769Y-121823529D01*
X141820768Y-121823528D01*
X141697765Y-121741340D01*
X141593160Y-121636735D01*
X141510972Y-121513732D01*
X141508348Y-121507396D01*
X141454360Y-121377059D01*
X141425500Y-121231968D01*
X141425500Y-121084032D01*
X141454360Y-120938941D01*
X141510971Y-120802270D01*
X141510972Y-120802268D01*
X141593160Y-120679265D01*
X141697765Y-120574660D01*
X141820768Y-120492472D01*
X141823576Y-120491309D01*
X141957441Y-120435860D01*
X142102532Y-120407000D01*
X142250468Y-120407000D01*
X142395559Y-120435860D01*
G37*
G36*
X134775559Y-120435860D02*
G01*
X134909425Y-120491309D01*
X134912232Y-120492472D01*
X135035235Y-120574660D01*
X135139840Y-120679265D01*
X135222028Y-120802268D01*
X135222029Y-120802270D01*
X135278640Y-120938941D01*
X135307500Y-121084032D01*
X135307500Y-121231968D01*
X135278640Y-121377059D01*
X135224653Y-121507396D01*
X135222028Y-121513732D01*
X135139840Y-121636735D01*
X135035235Y-121741340D01*
X134912232Y-121823528D01*
X134912231Y-121823529D01*
X134912230Y-121823529D01*
X134775559Y-121880140D01*
X134630468Y-121909000D01*
X134482532Y-121909000D01*
X134337441Y-121880140D01*
X134200770Y-121823529D01*
X134200769Y-121823529D01*
X134200768Y-121823528D01*
X134077765Y-121741340D01*
X133973160Y-121636735D01*
X133890972Y-121513732D01*
X133888348Y-121507396D01*
X133834360Y-121377059D01*
X133805500Y-121231968D01*
X133805500Y-121084032D01*
X133834360Y-120938941D01*
X133890971Y-120802270D01*
X133890972Y-120802268D01*
X133973160Y-120679265D01*
X134077765Y-120574660D01*
X134200768Y-120492472D01*
X134203576Y-120491309D01*
X134337441Y-120435860D01*
X134482532Y-120407000D01*
X134630468Y-120407000D01*
X134775559Y-120435860D01*
G37*
G36*
X118011559Y-118975360D02*
G01*
X118148232Y-119031972D01*
X118271235Y-119114160D01*
X118375840Y-119218765D01*
X118458028Y-119341768D01*
X118514640Y-119478441D01*
X118543500Y-119623533D01*
X118543500Y-119771467D01*
X118514640Y-119916559D01*
X118458028Y-120053232D01*
X118375840Y-120176235D01*
X118271235Y-120280840D01*
X118148232Y-120363028D01*
X118148231Y-120363029D01*
X118148230Y-120363029D01*
X118011559Y-120419640D01*
X117866468Y-120448500D01*
X117718532Y-120448500D01*
X117573441Y-120419640D01*
X117436770Y-120363029D01*
X117436769Y-120363029D01*
X117436768Y-120363028D01*
X117313765Y-120280840D01*
X117209160Y-120176235D01*
X117126972Y-120053232D01*
X117070360Y-119916559D01*
X117041500Y-119771467D01*
X117041500Y-119623533D01*
X117070360Y-119478441D01*
X117126972Y-119341768D01*
X117209160Y-119218765D01*
X117313765Y-119114160D01*
X117436768Y-119031972D01*
X117573441Y-118975360D01*
X117718532Y-118946500D01*
X117866468Y-118946500D01*
X118011559Y-118975360D01*
G37*
G36*
X125631559Y-118975360D02*
G01*
X125768232Y-119031972D01*
X125891235Y-119114160D01*
X125995840Y-119218765D01*
X126078028Y-119341768D01*
X126134640Y-119478441D01*
X126163500Y-119623533D01*
X126163500Y-119771467D01*
X126134640Y-119916559D01*
X126078028Y-120053232D01*
X125995840Y-120176235D01*
X125891235Y-120280840D01*
X125768232Y-120363028D01*
X125768231Y-120363029D01*
X125768230Y-120363029D01*
X125631559Y-120419640D01*
X125486468Y-120448500D01*
X125338532Y-120448500D01*
X125193441Y-120419640D01*
X125056770Y-120363029D01*
X125056769Y-120363029D01*
X125056768Y-120363028D01*
X124933765Y-120280840D01*
X124829160Y-120176235D01*
X124746972Y-120053232D01*
X124690360Y-119916559D01*
X124661500Y-119771467D01*
X124661500Y-119623533D01*
X124690360Y-119478441D01*
X124746972Y-119341768D01*
X124829160Y-119218765D01*
X124933765Y-119114160D01*
X125056768Y-119031972D01*
X125193441Y-118975360D01*
X125338532Y-118946500D01*
X125486468Y-118946500D01*
X125631559Y-118975360D01*
G37*
G36*
X142360228Y-117101703D02*
G01*
X142515100Y-117165853D01*
X142654481Y-117258985D01*
X142773015Y-117377519D01*
X142866147Y-117516900D01*
X142930297Y-117671772D01*
X142963000Y-117836184D01*
X142963000Y-118003816D01*
X142930297Y-118168228D01*
X142866147Y-118323100D01*
X142773015Y-118462481D01*
X142654481Y-118581015D01*
X142515100Y-118674147D01*
X142360228Y-118738297D01*
X142195816Y-118771000D01*
X142028184Y-118771000D01*
X141863772Y-118738297D01*
X141708900Y-118674147D01*
X141569519Y-118581015D01*
X141450985Y-118462481D01*
X141357853Y-118323100D01*
X141293703Y-118168228D01*
X141261000Y-118003816D01*
X141261000Y-117836184D01*
X141293703Y-117671772D01*
X141357853Y-117516900D01*
X141450985Y-117377519D01*
X141569519Y-117258985D01*
X141708900Y-117165853D01*
X141863772Y-117101703D01*
X142028184Y-117069000D01*
X142195816Y-117069000D01*
X142360228Y-117101703D01*
G37*
G36*
X134740228Y-117101703D02*
G01*
X134895100Y-117165853D01*
X135034481Y-117258985D01*
X135153015Y-117377519D01*
X135246147Y-117516900D01*
X135310297Y-117671772D01*
X135343000Y-117836184D01*
X135343000Y-118003816D01*
X135310297Y-118168228D01*
X135246147Y-118323100D01*
X135153015Y-118462481D01*
X135034481Y-118581015D01*
X134895100Y-118674147D01*
X134740228Y-118738297D01*
X134575816Y-118771000D01*
X134408184Y-118771000D01*
X134243772Y-118738297D01*
X134088900Y-118674147D01*
X133949519Y-118581015D01*
X133830985Y-118462481D01*
X133737853Y-118323100D01*
X133673703Y-118168228D01*
X133641000Y-118003816D01*
X133641000Y-117836184D01*
X133673703Y-117671772D01*
X133737853Y-117516900D01*
X133830985Y-117377519D01*
X133949519Y-117258985D01*
X134088900Y-117165853D01*
X134243772Y-117101703D01*
X134408184Y-117069000D01*
X134575816Y-117069000D01*
X134740228Y-117101703D01*
G37*
G36*
X134740228Y-114561703D02*
G01*
X134895100Y-114625853D01*
X135034481Y-114718985D01*
X135153015Y-114837519D01*
X135246147Y-114976900D01*
X135310297Y-115131772D01*
X135343000Y-115296184D01*
X135343000Y-115463816D01*
X135310297Y-115628228D01*
X135246147Y-115783100D01*
X135153015Y-115922481D01*
X135034481Y-116041015D01*
X134895100Y-116134147D01*
X134740228Y-116198297D01*
X134575816Y-116231000D01*
X134408184Y-116231000D01*
X134243772Y-116198297D01*
X134088900Y-116134147D01*
X133949519Y-116041015D01*
X133830985Y-115922481D01*
X133737853Y-115783100D01*
X133673703Y-115628228D01*
X133641000Y-115463816D01*
X133641000Y-115296184D01*
X133673703Y-115131772D01*
X133737853Y-114976900D01*
X133830985Y-114837519D01*
X133949519Y-114718985D01*
X134088900Y-114625853D01*
X134243772Y-114561703D01*
X134408184Y-114529000D01*
X134575816Y-114529000D01*
X134740228Y-114561703D01*
G37*
G36*
X142360228Y-114561703D02*
G01*
X142515100Y-114625853D01*
X142654481Y-114718985D01*
X142773015Y-114837519D01*
X142866147Y-114976900D01*
X142930297Y-115131772D01*
X142963000Y-115296184D01*
X142963000Y-115463816D01*
X142930297Y-115628228D01*
X142866147Y-115783100D01*
X142773015Y-115922481D01*
X142654481Y-116041015D01*
X142515100Y-116134147D01*
X142360228Y-116198297D01*
X142195816Y-116231000D01*
X142028184Y-116231000D01*
X141863772Y-116198297D01*
X141708900Y-116134147D01*
X141569519Y-116041015D01*
X141450985Y-115922481D01*
X141357853Y-115783100D01*
X141293703Y-115628228D01*
X141261000Y-115463816D01*
X141261000Y-115296184D01*
X141293703Y-115131772D01*
X141357853Y-114976900D01*
X141450985Y-114837519D01*
X141569519Y-114718985D01*
X141708900Y-114625853D01*
X141863772Y-114561703D01*
X142028184Y-114529000D01*
X142195816Y-114529000D01*
X142360228Y-114561703D01*
G37*
G36*
X73455532Y-113501015D02*
G01*
X73498059Y-113509474D01*
X73634732Y-113566086D01*
X73757735Y-113648274D01*
X73862340Y-113752879D01*
X73862341Y-113752881D01*
X73944529Y-113875884D01*
X74001140Y-114012555D01*
X74020545Y-114110110D01*
X74030000Y-114157647D01*
X74030000Y-114305581D01*
X74001140Y-114450673D01*
X73944528Y-114587346D01*
X73862340Y-114710349D01*
X73757735Y-114814954D01*
X73634732Y-114897142D01*
X73634731Y-114897143D01*
X73634730Y-114897143D01*
X73498059Y-114953754D01*
X73352968Y-114982614D01*
X73205032Y-114982614D01*
X73059941Y-114953754D01*
X72923270Y-114897143D01*
X72923269Y-114897143D01*
X72923268Y-114897142D01*
X72800265Y-114814954D01*
X72695660Y-114710349D01*
X72613472Y-114587346D01*
X72556860Y-114450673D01*
X72528000Y-114305581D01*
X72528000Y-114157647D01*
X72537456Y-114110110D01*
X72556860Y-114012555D01*
X72613471Y-113875884D01*
X72695659Y-113752881D01*
X72695660Y-113752879D01*
X72800265Y-113648274D01*
X72923268Y-113566086D01*
X73059941Y-113509474D01*
X73102468Y-113501015D01*
X73205032Y-113480614D01*
X73352968Y-113480614D01*
X73455532Y-113501015D01*
G37*
G36*
X63008000Y-114020109D02*
G01*
X63010402Y-114044495D01*
X63017515Y-114067944D01*
X63029066Y-114089555D01*
X63044611Y-114108497D01*
X63063553Y-114124042D01*
X63085164Y-114135593D01*
X63108613Y-114142706D01*
X63132999Y-114145108D01*
X63157385Y-114142706D01*
X63180834Y-114135593D01*
X63202445Y-114124042D01*
X63221387Y-114108497D01*
X63236932Y-114089555D01*
X63248483Y-114067944D01*
X63280090Y-113991638D01*
X63351335Y-113885012D01*
X63442012Y-113794335D01*
X63504055Y-113752879D01*
X63548636Y-113723091D01*
X63667110Y-113674017D01*
X63792881Y-113649000D01*
X63921119Y-113649000D01*
X64046890Y-113674017D01*
X64165364Y-113723091D01*
X64209945Y-113752879D01*
X64271988Y-113794335D01*
X64362665Y-113885012D01*
X64433910Y-113991638D01*
X64482983Y-114110110D01*
X64492439Y-114157647D01*
X64508000Y-114235882D01*
X64508000Y-114364118D01*
X64482983Y-114489890D01*
X64433909Y-114608364D01*
X64362665Y-114714988D01*
X64271988Y-114805665D01*
X64165364Y-114876909D01*
X64165363Y-114876910D01*
X64165362Y-114876910D01*
X64046890Y-114925983D01*
X63921119Y-114951000D01*
X63792881Y-114951000D01*
X63667110Y-114925983D01*
X63548638Y-114876910D01*
X63548637Y-114876910D01*
X63548636Y-114876909D01*
X63442012Y-114805665D01*
X63351335Y-114714988D01*
X63280091Y-114608364D01*
X63248483Y-114532055D01*
X63236932Y-114510445D01*
X63221387Y-114491503D01*
X63202445Y-114475958D01*
X63180834Y-114464407D01*
X63157385Y-114457294D01*
X63132999Y-114454892D01*
X63108613Y-114457294D01*
X63085164Y-114464407D01*
X63063553Y-114475958D01*
X63044611Y-114491503D01*
X63029066Y-114510445D01*
X63017515Y-114532056D01*
X63010402Y-114555505D01*
X63008000Y-114579891D01*
X63008000Y-114951000D01*
X61706000Y-114951000D01*
X61706000Y-113649000D01*
X63008000Y-113649000D01*
X63008000Y-114020109D01*
G37*
G36*
X142360228Y-112021703D02*
G01*
X142515100Y-112085853D01*
X142654481Y-112178985D01*
X142773015Y-112297519D01*
X142866147Y-112436900D01*
X142930297Y-112591772D01*
X142963000Y-112756184D01*
X142963000Y-112923816D01*
X142930297Y-113088228D01*
X142866147Y-113243100D01*
X142773015Y-113382481D01*
X142654481Y-113501015D01*
X142515100Y-113594147D01*
X142360228Y-113658297D01*
X142195816Y-113691000D01*
X142028184Y-113691000D01*
X141863772Y-113658297D01*
X141708900Y-113594147D01*
X141569519Y-113501015D01*
X141450985Y-113382481D01*
X141357853Y-113243100D01*
X141293703Y-113088228D01*
X141261000Y-112923816D01*
X141261000Y-112756184D01*
X141293703Y-112591772D01*
X141357853Y-112436900D01*
X141450985Y-112297519D01*
X141569519Y-112178985D01*
X141708900Y-112085853D01*
X141863772Y-112021703D01*
X142028184Y-111989000D01*
X142195816Y-111989000D01*
X142360228Y-112021703D01*
G37*
G36*
X134740228Y-112021703D02*
G01*
X134895100Y-112085853D01*
X135034481Y-112178985D01*
X135153015Y-112297519D01*
X135246147Y-112436900D01*
X135310297Y-112591772D01*
X135343000Y-112756184D01*
X135343000Y-112923816D01*
X135310297Y-113088228D01*
X135246147Y-113243100D01*
X135153015Y-113382481D01*
X135034481Y-113501015D01*
X134895100Y-113594147D01*
X134740228Y-113658297D01*
X134575816Y-113691000D01*
X134408184Y-113691000D01*
X134243772Y-113658297D01*
X134088900Y-113594147D01*
X133949519Y-113501015D01*
X133830985Y-113382481D01*
X133737853Y-113243100D01*
X133673703Y-113088228D01*
X133641000Y-112923816D01*
X133641000Y-112756184D01*
X133673703Y-112591772D01*
X133737853Y-112436900D01*
X133830985Y-112297519D01*
X133949519Y-112178985D01*
X134088900Y-112085853D01*
X134243772Y-112021703D01*
X134408184Y-111989000D01*
X134575816Y-111989000D01*
X134740228Y-112021703D01*
G37*
G36*
X129124059Y-111863360D02*
G01*
X129260732Y-111919972D01*
X129383735Y-112002160D01*
X129488340Y-112106765D01*
X129488341Y-112106767D01*
X129570529Y-112229770D01*
X129627140Y-112366441D01*
X129656000Y-112511532D01*
X129656000Y-112659468D01*
X129627140Y-112804559D01*
X129577743Y-112923815D01*
X129570528Y-112941232D01*
X129488340Y-113064235D01*
X129383735Y-113168840D01*
X129260732Y-113251028D01*
X129260731Y-113251029D01*
X129260730Y-113251029D01*
X129124059Y-113307640D01*
X128978968Y-113336500D01*
X128831032Y-113336500D01*
X128685941Y-113307640D01*
X128549270Y-113251029D01*
X128549269Y-113251029D01*
X128549268Y-113251028D01*
X128426265Y-113168840D01*
X128321660Y-113064235D01*
X128239472Y-112941232D01*
X128232258Y-112923815D01*
X128182860Y-112804559D01*
X128154000Y-112659468D01*
X128154000Y-112511532D01*
X128182860Y-112366441D01*
X128239471Y-112229770D01*
X128321659Y-112106767D01*
X128321660Y-112106765D01*
X128426265Y-112002160D01*
X128549268Y-111919972D01*
X128685941Y-111863360D01*
X128831032Y-111834500D01*
X128978968Y-111834500D01*
X129124059Y-111863360D01*
G37*
G36*
X134740228Y-109481703D02*
G01*
X134895100Y-109545853D01*
X135034481Y-109638985D01*
X135153015Y-109757519D01*
X135246147Y-109896900D01*
X135310297Y-110051772D01*
X135343000Y-110216184D01*
X135343000Y-110383816D01*
X135310297Y-110548228D01*
X135246147Y-110703100D01*
X135153015Y-110842481D01*
X135034481Y-110961015D01*
X134895100Y-111054147D01*
X134740228Y-111118297D01*
X134575816Y-111151000D01*
X134408184Y-111151000D01*
X134243772Y-111118297D01*
X134088900Y-111054147D01*
X133949519Y-110961015D01*
X133830985Y-110842481D01*
X133737853Y-110703100D01*
X133673703Y-110548228D01*
X133641000Y-110383816D01*
X133641000Y-110216184D01*
X133673703Y-110051772D01*
X133737853Y-109896900D01*
X133830985Y-109757519D01*
X133949519Y-109638985D01*
X134088900Y-109545853D01*
X134243772Y-109481703D01*
X134408184Y-109449000D01*
X134575816Y-109449000D01*
X134740228Y-109481703D01*
G37*
G36*
X142360228Y-109481703D02*
G01*
X142515100Y-109545853D01*
X142654481Y-109638985D01*
X142773015Y-109757519D01*
X142866147Y-109896900D01*
X142930297Y-110051772D01*
X142963000Y-110216184D01*
X142963000Y-110383816D01*
X142930297Y-110548228D01*
X142866147Y-110703100D01*
X142773015Y-110842481D01*
X142654481Y-110961015D01*
X142515100Y-111054147D01*
X142360228Y-111118297D01*
X142195816Y-111151000D01*
X142028184Y-111151000D01*
X141863772Y-111118297D01*
X141708900Y-111054147D01*
X141569519Y-110961015D01*
X141450985Y-110842481D01*
X141357853Y-110703100D01*
X141293703Y-110548228D01*
X141261000Y-110383816D01*
X141261000Y-110216184D01*
X141293703Y-110051772D01*
X141357853Y-109896900D01*
X141450985Y-109757519D01*
X141569519Y-109638985D01*
X141708900Y-109545853D01*
X141863772Y-109481703D01*
X142028184Y-109449000D01*
X142195816Y-109449000D01*
X142360228Y-109481703D01*
G37*
G36*
X67211559Y-109259860D02*
G01*
X67348232Y-109316472D01*
X67471235Y-109398660D01*
X67575840Y-109503265D01*
X67658028Y-109626268D01*
X67714640Y-109762941D01*
X67743500Y-109908033D01*
X67743500Y-110055967D01*
X67714640Y-110201059D01*
X67658028Y-110337732D01*
X67575840Y-110460735D01*
X67471235Y-110565340D01*
X67348232Y-110647528D01*
X67348231Y-110647529D01*
X67348230Y-110647529D01*
X67211559Y-110704140D01*
X67066468Y-110733000D01*
X66918532Y-110733000D01*
X66773441Y-110704140D01*
X66636770Y-110647529D01*
X66636769Y-110647529D01*
X66636768Y-110647528D01*
X66513765Y-110565340D01*
X66409160Y-110460735D01*
X66326972Y-110337732D01*
X66270360Y-110201059D01*
X66241500Y-110055967D01*
X66241500Y-109908033D01*
X66270360Y-109762941D01*
X66326972Y-109626268D01*
X66409160Y-109503265D01*
X66513765Y-109398660D01*
X66636768Y-109316472D01*
X66773441Y-109259860D01*
X66918532Y-109231000D01*
X67066468Y-109231000D01*
X67211559Y-109259860D01*
G37*
G36*
X59591559Y-109259860D02*
G01*
X59728232Y-109316472D01*
X59851235Y-109398660D01*
X59955840Y-109503265D01*
X60038028Y-109626268D01*
X60094640Y-109762941D01*
X60123500Y-109908033D01*
X60123500Y-110055967D01*
X60094640Y-110201059D01*
X60038028Y-110337732D01*
X59955840Y-110460735D01*
X59851235Y-110565340D01*
X59728232Y-110647528D01*
X59728231Y-110647529D01*
X59728230Y-110647529D01*
X59591559Y-110704140D01*
X59446468Y-110733000D01*
X59298532Y-110733000D01*
X59153441Y-110704140D01*
X59016770Y-110647529D01*
X59016769Y-110647529D01*
X59016768Y-110647528D01*
X58893765Y-110565340D01*
X58789160Y-110460735D01*
X58706972Y-110337732D01*
X58650360Y-110201059D01*
X58621500Y-110055967D01*
X58621500Y-109908033D01*
X58650360Y-109762941D01*
X58706972Y-109626268D01*
X58789160Y-109503265D01*
X58893765Y-109398660D01*
X59016768Y-109316472D01*
X59153441Y-109259860D01*
X59298532Y-109231000D01*
X59446468Y-109231000D01*
X59591559Y-109259860D01*
G37*
G36*
X134740228Y-106941703D02*
G01*
X134895100Y-107005853D01*
X135034481Y-107098985D01*
X135153015Y-107217519D01*
X135246147Y-107356900D01*
X135310297Y-107511772D01*
X135343000Y-107676184D01*
X135343000Y-107843816D01*
X135310297Y-108008228D01*
X135246147Y-108163100D01*
X135153015Y-108302481D01*
X135034481Y-108421015D01*
X134895100Y-108514147D01*
X134740228Y-108578297D01*
X134575816Y-108611000D01*
X134408184Y-108611000D01*
X134243772Y-108578297D01*
X134088900Y-108514147D01*
X133949519Y-108421015D01*
X133830985Y-108302481D01*
X133737853Y-108163100D01*
X133673703Y-108008228D01*
X133641000Y-107843816D01*
X133641000Y-107676184D01*
X133673703Y-107511772D01*
X133737853Y-107356900D01*
X133830985Y-107217519D01*
X133949519Y-107098985D01*
X134088900Y-107005853D01*
X134243772Y-106941703D01*
X134408184Y-106909000D01*
X134575816Y-106909000D01*
X134740228Y-106941703D01*
G37*
G36*
X142360228Y-106941703D02*
G01*
X142515100Y-107005853D01*
X142654481Y-107098985D01*
X142773015Y-107217519D01*
X142866147Y-107356900D01*
X142930297Y-107511772D01*
X142963000Y-107676184D01*
X142963000Y-107843816D01*
X142930297Y-108008228D01*
X142866147Y-108163100D01*
X142773015Y-108302481D01*
X142654481Y-108421015D01*
X142515100Y-108514147D01*
X142360228Y-108578297D01*
X142195816Y-108611000D01*
X142028184Y-108611000D01*
X141863772Y-108578297D01*
X141708900Y-108514147D01*
X141569519Y-108421015D01*
X141450985Y-108302481D01*
X141357853Y-108163100D01*
X141293703Y-108008228D01*
X141261000Y-107843816D01*
X141261000Y-107676184D01*
X141293703Y-107511772D01*
X141357853Y-107356900D01*
X141450985Y-107217519D01*
X141569519Y-107098985D01*
X141708900Y-107005853D01*
X141863772Y-106941703D01*
X142028184Y-106909000D01*
X142195816Y-106909000D01*
X142360228Y-106941703D01*
G37*
G36*
X77308059Y-106910360D02*
G01*
X77383728Y-106941703D01*
X77444732Y-106966972D01*
X77567735Y-107049160D01*
X77672340Y-107153765D01*
X77754528Y-107276768D01*
X77811140Y-107413441D01*
X77840000Y-107558533D01*
X77840000Y-107706467D01*
X77811140Y-107851559D01*
X77754528Y-107988232D01*
X77672340Y-108111235D01*
X77567735Y-108215840D01*
X77444732Y-108298028D01*
X77444731Y-108298029D01*
X77444730Y-108298029D01*
X77308059Y-108354640D01*
X77162968Y-108383500D01*
X77015032Y-108383500D01*
X76869941Y-108354640D01*
X76733270Y-108298029D01*
X76733269Y-108298029D01*
X76733268Y-108298028D01*
X76610265Y-108215840D01*
X76505660Y-108111235D01*
X76423472Y-107988232D01*
X76366860Y-107851559D01*
X76338000Y-107706467D01*
X76338000Y-107558533D01*
X76366860Y-107413441D01*
X76423472Y-107276768D01*
X76505660Y-107153765D01*
X76610265Y-107049160D01*
X76733268Y-106966972D01*
X76794273Y-106941703D01*
X76869941Y-106910360D01*
X77015032Y-106881500D01*
X77162968Y-106881500D01*
X77308059Y-106910360D01*
G37*
G36*
X59747728Y-105544203D02*
G01*
X59902600Y-105608353D01*
X60041981Y-105701485D01*
X60160515Y-105820019D01*
X60253647Y-105959400D01*
X60317797Y-106114272D01*
X60350500Y-106278684D01*
X60350500Y-106446316D01*
X60317797Y-106610728D01*
X60253647Y-106765600D01*
X60160515Y-106904981D01*
X60041981Y-107023515D01*
X59902600Y-107116647D01*
X59747728Y-107180797D01*
X59583316Y-107213500D01*
X59415684Y-107213500D01*
X59251272Y-107180797D01*
X59096400Y-107116647D01*
X58957019Y-107023515D01*
X58838485Y-106904981D01*
X58745353Y-106765600D01*
X58681203Y-106610728D01*
X58648500Y-106446316D01*
X58648500Y-106278684D01*
X58681203Y-106114272D01*
X58745353Y-105959400D01*
X58838485Y-105820019D01*
X58957019Y-105701485D01*
X59096400Y-105608353D01*
X59251272Y-105544203D01*
X59415684Y-105511500D01*
X59583316Y-105511500D01*
X59747728Y-105544203D01*
G37*
G36*
X67970500Y-107213500D02*
G01*
X66268500Y-107213500D01*
X66268500Y-105511500D01*
X67970500Y-105511500D01*
X67970500Y-107213500D01*
G37*
G36*
X125314059Y-105264246D02*
G01*
X125450732Y-105320858D01*
X125573735Y-105403046D01*
X125678340Y-105507651D01*
X125760528Y-105630654D01*
X125760529Y-105630656D01*
X125817140Y-105767327D01*
X125839754Y-105881015D01*
X125846000Y-105912419D01*
X125846000Y-106060353D01*
X125817140Y-106205445D01*
X125760528Y-106342118D01*
X125678340Y-106465121D01*
X125573735Y-106569726D01*
X125450732Y-106651914D01*
X125450731Y-106651915D01*
X125450730Y-106651915D01*
X125314059Y-106708526D01*
X125168968Y-106737386D01*
X125021032Y-106737386D01*
X124875941Y-106708526D01*
X124739270Y-106651915D01*
X124739269Y-106651915D01*
X124739268Y-106651914D01*
X124616265Y-106569726D01*
X124511660Y-106465121D01*
X124429472Y-106342118D01*
X124372860Y-106205445D01*
X124344000Y-106060353D01*
X124344000Y-105912419D01*
X124350247Y-105881015D01*
X124372860Y-105767327D01*
X124429471Y-105630656D01*
X124429472Y-105630654D01*
X124511660Y-105507651D01*
X124616265Y-105403046D01*
X124739268Y-105320858D01*
X124875941Y-105264246D01*
X125021032Y-105235386D01*
X125168968Y-105235386D01*
X125314059Y-105264246D01*
G37*
G36*
X142360228Y-104401703D02*
G01*
X142515100Y-104465853D01*
X142654481Y-104558985D01*
X142773015Y-104677519D01*
X142866147Y-104816900D01*
X142930297Y-104971772D01*
X142963000Y-105136184D01*
X142963000Y-105303816D01*
X142930297Y-105468228D01*
X142866147Y-105623100D01*
X142773015Y-105762481D01*
X142654481Y-105881015D01*
X142515100Y-105974147D01*
X142360228Y-106038297D01*
X142195816Y-106071000D01*
X142028184Y-106071000D01*
X141863772Y-106038297D01*
X141708900Y-105974147D01*
X141569519Y-105881015D01*
X141450985Y-105762481D01*
X141357853Y-105623100D01*
X141293703Y-105468228D01*
X141261000Y-105303816D01*
X141261000Y-105136184D01*
X141293703Y-104971772D01*
X141357853Y-104816900D01*
X141450985Y-104677519D01*
X141569519Y-104558985D01*
X141708900Y-104465853D01*
X141863772Y-104401703D01*
X142028184Y-104369000D01*
X142195816Y-104369000D01*
X142360228Y-104401703D01*
G37*
G36*
X134740228Y-104401703D02*
G01*
X134895100Y-104465853D01*
X135034481Y-104558985D01*
X135153015Y-104677519D01*
X135246147Y-104816900D01*
X135310297Y-104971772D01*
X135343000Y-105136184D01*
X135343000Y-105303816D01*
X135310297Y-105468228D01*
X135246147Y-105623100D01*
X135153015Y-105762481D01*
X135034481Y-105881015D01*
X134895100Y-105974147D01*
X134740228Y-106038297D01*
X134575816Y-106071000D01*
X134408184Y-106071000D01*
X134243772Y-106038297D01*
X134088900Y-105974147D01*
X133949519Y-105881015D01*
X133830985Y-105762481D01*
X133737853Y-105623100D01*
X133673703Y-105468228D01*
X133641000Y-105303816D01*
X133641000Y-105136184D01*
X133673703Y-104971772D01*
X133737853Y-104816900D01*
X133830985Y-104677519D01*
X133949519Y-104558985D01*
X134088900Y-104465853D01*
X134243772Y-104401703D01*
X134408184Y-104369000D01*
X134575816Y-104369000D01*
X134740228Y-104401703D01*
G37*
G36*
X59747728Y-103004203D02*
G01*
X59902600Y-103068353D01*
X60041981Y-103161485D01*
X60160515Y-103280019D01*
X60253647Y-103419400D01*
X60317797Y-103574272D01*
X60350500Y-103738684D01*
X60350500Y-103906316D01*
X60317797Y-104070728D01*
X60253647Y-104225600D01*
X60160515Y-104364981D01*
X60041981Y-104483515D01*
X59902600Y-104576647D01*
X59747728Y-104640797D01*
X59583316Y-104673500D01*
X59415684Y-104673500D01*
X59251272Y-104640797D01*
X59096400Y-104576647D01*
X58957019Y-104483515D01*
X58838485Y-104364981D01*
X58745353Y-104225600D01*
X58681203Y-104070728D01*
X58648500Y-103906316D01*
X58648500Y-103738684D01*
X58681203Y-103574272D01*
X58745353Y-103419400D01*
X58838485Y-103280019D01*
X58957019Y-103161485D01*
X59096400Y-103068353D01*
X59251272Y-103004203D01*
X59415684Y-102971500D01*
X59583316Y-102971500D01*
X59747728Y-103004203D01*
G37*
G36*
X67367728Y-103004203D02*
G01*
X67522600Y-103068353D01*
X67661981Y-103161485D01*
X67780515Y-103280019D01*
X67873647Y-103419400D01*
X67937797Y-103574272D01*
X67970500Y-103738684D01*
X67970500Y-103906316D01*
X67937797Y-104070728D01*
X67873647Y-104225600D01*
X67780515Y-104364981D01*
X67661981Y-104483515D01*
X67522600Y-104576647D01*
X67367728Y-104640797D01*
X67203316Y-104673500D01*
X67035684Y-104673500D01*
X66871272Y-104640797D01*
X66716400Y-104576647D01*
X66577019Y-104483515D01*
X66458485Y-104364981D01*
X66365353Y-104225600D01*
X66301203Y-104070728D01*
X66268500Y-103906316D01*
X66268500Y-103738684D01*
X66301203Y-103574272D01*
X66365353Y-103419400D01*
X66458485Y-103280019D01*
X66577019Y-103161485D01*
X66716400Y-103068353D01*
X66871272Y-103004203D01*
X67035684Y-102971500D01*
X67203316Y-102971500D01*
X67367728Y-103004203D01*
G37*
G36*
X77306329Y-101916958D02*
G01*
X77479400Y-101988646D01*
X77514654Y-102012202D01*
X77635161Y-102092722D01*
X77767624Y-102225185D01*
X77800062Y-102273732D01*
X77871700Y-102380946D01*
X77943388Y-102554017D01*
X77979934Y-102737745D01*
X77979934Y-102925079D01*
X77943388Y-103108807D01*
X77871700Y-103281878D01*
X77871699Y-103281879D01*
X77767624Y-103437639D01*
X77635161Y-103570102D01*
X77628920Y-103574272D01*
X77479400Y-103674178D01*
X77306329Y-103745866D01*
X77122601Y-103782412D01*
X76935267Y-103782412D01*
X76751539Y-103745866D01*
X76578468Y-103674178D01*
X76428948Y-103574272D01*
X76422707Y-103570102D01*
X76290244Y-103437639D01*
X76186169Y-103281879D01*
X76186168Y-103281878D01*
X76114480Y-103108807D01*
X76077934Y-102925079D01*
X76077934Y-102737745D01*
X76114480Y-102554017D01*
X76186168Y-102380946D01*
X76257806Y-102273732D01*
X76290244Y-102225185D01*
X76422707Y-102092722D01*
X76543214Y-102012202D01*
X76578468Y-101988646D01*
X76751539Y-101916958D01*
X76935267Y-101880412D01*
X77122601Y-101880412D01*
X77306329Y-101916958D01*
G37*
G36*
X102651000Y-103751000D02*
G01*
X100549000Y-103751000D01*
X100549000Y-102749000D01*
X102651000Y-102749000D01*
X102651000Y-103751000D01*
G37*
G36*
X142360228Y-101861703D02*
G01*
X142515100Y-101925853D01*
X142654481Y-102018985D01*
X142773015Y-102137519D01*
X142866147Y-102276900D01*
X142930297Y-102431772D01*
X142963000Y-102596184D01*
X142963000Y-102763816D01*
X142930297Y-102928228D01*
X142866147Y-103083100D01*
X142773015Y-103222481D01*
X142654481Y-103341015D01*
X142515100Y-103434147D01*
X142360228Y-103498297D01*
X142195816Y-103531000D01*
X142028184Y-103531000D01*
X141863772Y-103498297D01*
X141708900Y-103434147D01*
X141569519Y-103341015D01*
X141450985Y-103222481D01*
X141357853Y-103083100D01*
X141293703Y-102928228D01*
X141261000Y-102763816D01*
X141261000Y-102596184D01*
X141293703Y-102431772D01*
X141357853Y-102276900D01*
X141450985Y-102137519D01*
X141569519Y-102018985D01*
X141708900Y-101925853D01*
X141863772Y-101861703D01*
X142028184Y-101829000D01*
X142195816Y-101829000D01*
X142360228Y-101861703D01*
G37*
G36*
X135343000Y-103531000D02*
G01*
X133641000Y-103531000D01*
X133641000Y-101829000D01*
X135343000Y-101829000D01*
X135343000Y-103531000D01*
G37*
G36*
X71085059Y-101195860D02*
G01*
X71220523Y-101251971D01*
X71221732Y-101252472D01*
X71344735Y-101334660D01*
X71449340Y-101439265D01*
X71449341Y-101439267D01*
X71531529Y-101562270D01*
X71588140Y-101698941D01*
X71616901Y-101843532D01*
X71617000Y-101844033D01*
X71617000Y-101991967D01*
X71588140Y-102137059D01*
X71531528Y-102273732D01*
X71449340Y-102396735D01*
X71344735Y-102501340D01*
X71221732Y-102583528D01*
X71221731Y-102583529D01*
X71221730Y-102583529D01*
X71085059Y-102640140D01*
X70939968Y-102669000D01*
X70792032Y-102669000D01*
X70646941Y-102640140D01*
X70510270Y-102583529D01*
X70510269Y-102583529D01*
X70510268Y-102583528D01*
X70387265Y-102501340D01*
X70282660Y-102396735D01*
X70200472Y-102273732D01*
X70143860Y-102137059D01*
X70115000Y-101991967D01*
X70115000Y-101844033D01*
X70115100Y-101843532D01*
X70143860Y-101698941D01*
X70200471Y-101562270D01*
X70282659Y-101439267D01*
X70282660Y-101439265D01*
X70387265Y-101334660D01*
X70510268Y-101252472D01*
X70511478Y-101251971D01*
X70646941Y-101195860D01*
X70792032Y-101167000D01*
X70939968Y-101167000D01*
X71085059Y-101195860D01*
G37*
G36*
X73434559Y-101195360D02*
G01*
X73571232Y-101251972D01*
X73694235Y-101334160D01*
X73798840Y-101438765D01*
X73867954Y-101542202D01*
X73881029Y-101561770D01*
X73937640Y-101698441D01*
X73966500Y-101843532D01*
X73966500Y-101991468D01*
X73937640Y-102136559D01*
X73916417Y-102187797D01*
X73881028Y-102273232D01*
X73798840Y-102396235D01*
X73694235Y-102500840D01*
X73571232Y-102583028D01*
X73571231Y-102583029D01*
X73571230Y-102583029D01*
X73434559Y-102639640D01*
X73289468Y-102668500D01*
X73141532Y-102668500D01*
X72996441Y-102639640D01*
X72859770Y-102583029D01*
X72859769Y-102583029D01*
X72859768Y-102583028D01*
X72736765Y-102500840D01*
X72632160Y-102396235D01*
X72549972Y-102273232D01*
X72514584Y-102187797D01*
X72493360Y-102136559D01*
X72464500Y-101991468D01*
X72464500Y-101843532D01*
X72493360Y-101698441D01*
X72549971Y-101561770D01*
X72563046Y-101542202D01*
X72632160Y-101438765D01*
X72736765Y-101334160D01*
X72859768Y-101251972D01*
X72996441Y-101195360D01*
X73141532Y-101166500D01*
X73289468Y-101166500D01*
X73434559Y-101195360D01*
G37*
G36*
X115927797Y-101810567D02*
G01*
X115982575Y-101833257D01*
X115982577Y-101833258D01*
X116031876Y-101866198D01*
X116073802Y-101908124D01*
X116106742Y-101957423D01*
X116106743Y-101957425D01*
X116129433Y-102012203D01*
X116141000Y-102070353D01*
X116141000Y-102129647D01*
X116129433Y-102187797D01*
X116113946Y-102225185D01*
X116106742Y-102242577D01*
X116073802Y-102291876D01*
X116031876Y-102333802D01*
X115982577Y-102366742D01*
X115982576Y-102366743D01*
X115982575Y-102366743D01*
X115927797Y-102389433D01*
X115869647Y-102401000D01*
X115810353Y-102401000D01*
X115752203Y-102389433D01*
X115697425Y-102366743D01*
X115697424Y-102366743D01*
X115697423Y-102366742D01*
X115648124Y-102333802D01*
X115606198Y-102291876D01*
X115573258Y-102242577D01*
X115566054Y-102225185D01*
X115550567Y-102187797D01*
X115539000Y-102129647D01*
X115539000Y-102070353D01*
X115550567Y-102012203D01*
X115573257Y-101957425D01*
X115573258Y-101957423D01*
X115606198Y-101908124D01*
X115648124Y-101866198D01*
X115697423Y-101833258D01*
X115697425Y-101833257D01*
X115752203Y-101810567D01*
X115810353Y-101799000D01*
X115869647Y-101799000D01*
X115927797Y-101810567D01*
G37*
G36*
X103277797Y-101340567D02*
G01*
X103332575Y-101363257D01*
X103332577Y-101363258D01*
X103381876Y-101396198D01*
X103423802Y-101438124D01*
X103456742Y-101487423D01*
X103456743Y-101487425D01*
X103479433Y-101542203D01*
X103491000Y-101600353D01*
X103491000Y-101659647D01*
X103479433Y-101717797D01*
X103456743Y-101772575D01*
X103456742Y-101772577D01*
X103423802Y-101821876D01*
X103381876Y-101863802D01*
X103332577Y-101896742D01*
X103332576Y-101896743D01*
X103332575Y-101896743D01*
X103277797Y-101919433D01*
X103219647Y-101931000D01*
X103160353Y-101931000D01*
X103102203Y-101919433D01*
X103047425Y-101896743D01*
X103047424Y-101896743D01*
X103047423Y-101896742D01*
X102998124Y-101863802D01*
X102956198Y-101821876D01*
X102923258Y-101772577D01*
X102923257Y-101772575D01*
X102900567Y-101717797D01*
X102889000Y-101659647D01*
X102889000Y-101600353D01*
X102900567Y-101542203D01*
X102923257Y-101487425D01*
X102923258Y-101487423D01*
X102956198Y-101438124D01*
X102998124Y-101396198D01*
X103047423Y-101363258D01*
X103047425Y-101363257D01*
X103102203Y-101340567D01*
X103160353Y-101329000D01*
X103219647Y-101329000D01*
X103277797Y-101340567D01*
G37*
G36*
X78571692Y-99558587D02*
G01*
X78241413Y-101431692D01*
X76368308Y-101101413D01*
X76698587Y-99228308D01*
X78571692Y-99558587D01*
G37*
G36*
X123985945Y-99290360D02*
G01*
X124029959Y-99308591D01*
X124122618Y-99346972D01*
X124245621Y-99429160D01*
X124350226Y-99533765D01*
X124414525Y-99629995D01*
X124432415Y-99656770D01*
X124489026Y-99793441D01*
X124494584Y-99821381D01*
X124517886Y-99938533D01*
X124517886Y-100086467D01*
X124489026Y-100231559D01*
X124432414Y-100368232D01*
X124350226Y-100491235D01*
X124245621Y-100595840D01*
X124122618Y-100678028D01*
X124122617Y-100678029D01*
X124122616Y-100678029D01*
X123985945Y-100734640D01*
X123840854Y-100763500D01*
X123692918Y-100763500D01*
X123547827Y-100734640D01*
X123411156Y-100678029D01*
X123411155Y-100678029D01*
X123411154Y-100678028D01*
X123288151Y-100595840D01*
X123183546Y-100491235D01*
X123101358Y-100368232D01*
X123044746Y-100231559D01*
X123015886Y-100086467D01*
X123015886Y-99938533D01*
X123039189Y-99821381D01*
X123044746Y-99793441D01*
X123101357Y-99656770D01*
X123119247Y-99629995D01*
X123183546Y-99533765D01*
X123288151Y-99429160D01*
X123411154Y-99346972D01*
X123503814Y-99308591D01*
X123547827Y-99290360D01*
X123692918Y-99261500D01*
X123840854Y-99261500D01*
X123985945Y-99290360D01*
G37*
G36*
X62634390Y-99259517D02*
G01*
X62675427Y-99276515D01*
X62752864Y-99308591D01*
X62810305Y-99346972D01*
X62859488Y-99379835D01*
X62950165Y-99470512D01*
X63021410Y-99577138D01*
X63053017Y-99653444D01*
X63064568Y-99675055D01*
X63080113Y-99693997D01*
X63099055Y-99709542D01*
X63120666Y-99721093D01*
X63144115Y-99728206D01*
X63168501Y-99730608D01*
X63192887Y-99728206D01*
X63216336Y-99721093D01*
X63237947Y-99709542D01*
X63256889Y-99693997D01*
X63272434Y-99675055D01*
X63283985Y-99653444D01*
X63291098Y-99629995D01*
X63293500Y-99605609D01*
X63293500Y-99234500D01*
X64595500Y-99234500D01*
X64595500Y-100536500D01*
X63293500Y-100536500D01*
X63293500Y-100165391D01*
X63291098Y-100141005D01*
X63283985Y-100117556D01*
X63272434Y-100095945D01*
X63256889Y-100077003D01*
X63237947Y-100061458D01*
X63216336Y-100049907D01*
X63192887Y-100042794D01*
X63168501Y-100040392D01*
X63144115Y-100042794D01*
X63120666Y-100049907D01*
X63099055Y-100061458D01*
X63080113Y-100077003D01*
X63064568Y-100095945D01*
X63053017Y-100117555D01*
X63021409Y-100193864D01*
X62950165Y-100300488D01*
X62859488Y-100391165D01*
X62752864Y-100462409D01*
X62752863Y-100462410D01*
X62752862Y-100462410D01*
X62634390Y-100511483D01*
X62508619Y-100536500D01*
X62380381Y-100536500D01*
X62254610Y-100511483D01*
X62136138Y-100462410D01*
X62136137Y-100462410D01*
X62136136Y-100462409D01*
X62029512Y-100391165D01*
X61938835Y-100300488D01*
X61867591Y-100193864D01*
X61818517Y-100075390D01*
X61793500Y-99949618D01*
X61793500Y-99821382D01*
X61818517Y-99695610D01*
X61867591Y-99577136D01*
X61938835Y-99470512D01*
X62029512Y-99379835D01*
X62136136Y-99308591D01*
X62213574Y-99276515D01*
X62254610Y-99259517D01*
X62380381Y-99234500D01*
X62508619Y-99234500D01*
X62634390Y-99259517D01*
G37*
G36*
X102651000Y-100451000D02*
G01*
X100549000Y-100451000D01*
X100549000Y-99449000D01*
X102651000Y-99449000D01*
X102651000Y-100451000D01*
G37*
G36*
X142298228Y-97797203D02*
G01*
X142453100Y-97861353D01*
X142592481Y-97954485D01*
X142711015Y-98073019D01*
X142804147Y-98212400D01*
X142868297Y-98367272D01*
X142901000Y-98531684D01*
X142901000Y-98699316D01*
X142868297Y-98863728D01*
X142804147Y-99018600D01*
X142711015Y-99157981D01*
X142592481Y-99276515D01*
X142453100Y-99369647D01*
X142298228Y-99433797D01*
X142133816Y-99466500D01*
X141966184Y-99466500D01*
X141801772Y-99433797D01*
X141646900Y-99369647D01*
X141507519Y-99276515D01*
X141388985Y-99157981D01*
X141295853Y-99018600D01*
X141231703Y-98863728D01*
X141199000Y-98699316D01*
X141199000Y-98531684D01*
X141231703Y-98367272D01*
X141295853Y-98212400D01*
X141388985Y-98073019D01*
X141507519Y-97954485D01*
X141646900Y-97861353D01*
X141801772Y-97797203D01*
X141966184Y-97764500D01*
X142133816Y-97764500D01*
X142298228Y-97797203D01*
G37*
G36*
X134678228Y-97797203D02*
G01*
X134833100Y-97861353D01*
X134972481Y-97954485D01*
X135091015Y-98073019D01*
X135184147Y-98212400D01*
X135248297Y-98367272D01*
X135281000Y-98531684D01*
X135281000Y-98699316D01*
X135248297Y-98863728D01*
X135184147Y-99018600D01*
X135091015Y-99157981D01*
X134972481Y-99276515D01*
X134833100Y-99369647D01*
X134678228Y-99433797D01*
X134513816Y-99466500D01*
X134346184Y-99466500D01*
X134181772Y-99433797D01*
X134026900Y-99369647D01*
X133887519Y-99276515D01*
X133768985Y-99157981D01*
X133675853Y-99018600D01*
X133611703Y-98863728D01*
X133579000Y-98699316D01*
X133579000Y-98531684D01*
X133611703Y-98367272D01*
X133675853Y-98212400D01*
X133768985Y-98073019D01*
X133887519Y-97954485D01*
X134026900Y-97861353D01*
X134181772Y-97797203D01*
X134346184Y-97764500D01*
X134513816Y-97764500D01*
X134678228Y-97797203D01*
G37*
G36*
X80089459Y-95410205D02*
G01*
X80262530Y-95481893D01*
X80262531Y-95481894D01*
X80418291Y-95585969D01*
X80550754Y-95718432D01*
X80603145Y-95796841D01*
X80654830Y-95874193D01*
X80726518Y-96047264D01*
X80763064Y-96230992D01*
X80763064Y-96418326D01*
X80726518Y-96602054D01*
X80654830Y-96775125D01*
X80618399Y-96829648D01*
X80550754Y-96930886D01*
X80418291Y-97063349D01*
X80339882Y-97115740D01*
X80262530Y-97167425D01*
X80089459Y-97239113D01*
X79905731Y-97275659D01*
X79718397Y-97275659D01*
X79534669Y-97239113D01*
X79361598Y-97167425D01*
X79284246Y-97115740D01*
X79205837Y-97063349D01*
X79073374Y-96930886D01*
X79005729Y-96829648D01*
X78969298Y-96775125D01*
X78897610Y-96602054D01*
X78861064Y-96418326D01*
X78861064Y-96230992D01*
X78897610Y-96047264D01*
X78969298Y-95874193D01*
X79020983Y-95796841D01*
X79073374Y-95718432D01*
X79205837Y-95585969D01*
X79361597Y-95481894D01*
X79361598Y-95481893D01*
X79534669Y-95410205D01*
X79718397Y-95373659D01*
X79905731Y-95373659D01*
X80089459Y-95410205D01*
G37*
G36*
X123665331Y-95410205D02*
G01*
X123838402Y-95481893D01*
X123838403Y-95481894D01*
X123994163Y-95585969D01*
X124126626Y-95718432D01*
X124179017Y-95796841D01*
X124230702Y-95874193D01*
X124302390Y-96047264D01*
X124338936Y-96230992D01*
X124338936Y-96418326D01*
X124302390Y-96602054D01*
X124230702Y-96775125D01*
X124194271Y-96829648D01*
X124126626Y-96930886D01*
X123994163Y-97063349D01*
X123915754Y-97115740D01*
X123838402Y-97167425D01*
X123665331Y-97239113D01*
X123481603Y-97275659D01*
X123294269Y-97275659D01*
X123110541Y-97239113D01*
X122937470Y-97167425D01*
X122860118Y-97115740D01*
X122781709Y-97063349D01*
X122649246Y-96930886D01*
X122581601Y-96829648D01*
X122545170Y-96775125D01*
X122473482Y-96602054D01*
X122436936Y-96418326D01*
X122436936Y-96230992D01*
X122473482Y-96047264D01*
X122545170Y-95874193D01*
X122596855Y-95796841D01*
X122649246Y-95718432D01*
X122781709Y-95585969D01*
X122937469Y-95481894D01*
X122937470Y-95481893D01*
X123110541Y-95410205D01*
X123294269Y-95373659D01*
X123481603Y-95373659D01*
X123665331Y-95410205D01*
G37*
G36*
X130585059Y-95480360D02*
G01*
X130721732Y-95536972D01*
X130844735Y-95619160D01*
X130949340Y-95723765D01*
X131018501Y-95827272D01*
X131031529Y-95846770D01*
X131088140Y-95983441D01*
X131117000Y-96128532D01*
X131117000Y-96276468D01*
X131107599Y-96323729D01*
X131088140Y-96421559D01*
X131031528Y-96558232D01*
X130949340Y-96681235D01*
X130844735Y-96785840D01*
X130721732Y-96868028D01*
X130721731Y-96868029D01*
X130721730Y-96868029D01*
X130585059Y-96924640D01*
X130439968Y-96953500D01*
X130292032Y-96953500D01*
X130146941Y-96924640D01*
X130010270Y-96868029D01*
X130010269Y-96868029D01*
X130010268Y-96868028D01*
X129887265Y-96785840D01*
X129782660Y-96681235D01*
X129700472Y-96558232D01*
X129643860Y-96421559D01*
X129624401Y-96323729D01*
X129615000Y-96276468D01*
X129615000Y-96128532D01*
X129643860Y-95983441D01*
X129700471Y-95846770D01*
X129713499Y-95827272D01*
X129782660Y-95723765D01*
X129887265Y-95619160D01*
X130010268Y-95536972D01*
X130146941Y-95480360D01*
X130292032Y-95451500D01*
X130439968Y-95451500D01*
X130585059Y-95480360D01*
G37*
G36*
X67907000Y-96926500D02*
G01*
X66205000Y-96926500D01*
X66205000Y-95224500D01*
X67907000Y-95224500D01*
X67907000Y-96926500D01*
G37*
G36*
X59684228Y-95257203D02*
G01*
X59839100Y-95321353D01*
X59978481Y-95414485D01*
X60097015Y-95533019D01*
X60190147Y-95672400D01*
X60254297Y-95827272D01*
X60287000Y-95991684D01*
X60287000Y-96159316D01*
X60254297Y-96323728D01*
X60190147Y-96478600D01*
X60097015Y-96617981D01*
X59978481Y-96736515D01*
X59839100Y-96829647D01*
X59684228Y-96893797D01*
X59519816Y-96926500D01*
X59352184Y-96926500D01*
X59187772Y-96893797D01*
X59032900Y-96829647D01*
X58893519Y-96736515D01*
X58774985Y-96617981D01*
X58681853Y-96478600D01*
X58617703Y-96323728D01*
X58585000Y-96159316D01*
X58585000Y-95991684D01*
X58617703Y-95827272D01*
X58681853Y-95672400D01*
X58774985Y-95533019D01*
X58893519Y-95414485D01*
X59032900Y-95321353D01*
X59187772Y-95257203D01*
X59352184Y-95224500D01*
X59519816Y-95224500D01*
X59684228Y-95257203D01*
G37*
G36*
X142298228Y-95257203D02*
G01*
X142453100Y-95321353D01*
X142592481Y-95414485D01*
X142711015Y-95533019D01*
X142804147Y-95672400D01*
X142868297Y-95827272D01*
X142901000Y-95991684D01*
X142901000Y-96159316D01*
X142868297Y-96323728D01*
X142804147Y-96478600D01*
X142711015Y-96617981D01*
X142592481Y-96736515D01*
X142453100Y-96829647D01*
X142298228Y-96893797D01*
X142133816Y-96926500D01*
X141966184Y-96926500D01*
X141801772Y-96893797D01*
X141646900Y-96829647D01*
X141507519Y-96736515D01*
X141388985Y-96617981D01*
X141295853Y-96478600D01*
X141231703Y-96323728D01*
X141199000Y-96159316D01*
X141199000Y-95991684D01*
X141231703Y-95827272D01*
X141295853Y-95672400D01*
X141388985Y-95533019D01*
X141507519Y-95414485D01*
X141646900Y-95321353D01*
X141801772Y-95257203D01*
X141966184Y-95224500D01*
X142133816Y-95224500D01*
X142298228Y-95257203D01*
G37*
G36*
X134678228Y-95257203D02*
G01*
X134833100Y-95321353D01*
X134972481Y-95414485D01*
X135091015Y-95533019D01*
X135184147Y-95672400D01*
X135248297Y-95827272D01*
X135281000Y-95991684D01*
X135281000Y-96159316D01*
X135248297Y-96323728D01*
X135184147Y-96478600D01*
X135091015Y-96617981D01*
X134972481Y-96736515D01*
X134833100Y-96829647D01*
X134678228Y-96893797D01*
X134513816Y-96926500D01*
X134346184Y-96926500D01*
X134181772Y-96893797D01*
X134026900Y-96829647D01*
X133887519Y-96736515D01*
X133768985Y-96617981D01*
X133675853Y-96478600D01*
X133611703Y-96323728D01*
X133579000Y-96159316D01*
X133579000Y-95991684D01*
X133611703Y-95827272D01*
X133675853Y-95672400D01*
X133768985Y-95533019D01*
X133887519Y-95414485D01*
X134026900Y-95321353D01*
X134181772Y-95257203D01*
X134346184Y-95224500D01*
X134513816Y-95224500D01*
X134678228Y-95257203D01*
G37*
G36*
X71085059Y-93575860D02*
G01*
X71220523Y-93631971D01*
X71221732Y-93632472D01*
X71344735Y-93714660D01*
X71449340Y-93819265D01*
X71449341Y-93819267D01*
X71531529Y-93942270D01*
X71588140Y-94078941D01*
X71616901Y-94223532D01*
X71617000Y-94224033D01*
X71617000Y-94371967D01*
X71588140Y-94517059D01*
X71531528Y-94653732D01*
X71449340Y-94776735D01*
X71344735Y-94881340D01*
X71221732Y-94963528D01*
X71221731Y-94963529D01*
X71221730Y-94963529D01*
X71085059Y-95020140D01*
X70939968Y-95049000D01*
X70792032Y-95049000D01*
X70646941Y-95020140D01*
X70510270Y-94963529D01*
X70510269Y-94963529D01*
X70510268Y-94963528D01*
X70387265Y-94881340D01*
X70282660Y-94776735D01*
X70200472Y-94653732D01*
X70143860Y-94517059D01*
X70115000Y-94371967D01*
X70115000Y-94224033D01*
X70115100Y-94223532D01*
X70143860Y-94078941D01*
X70200471Y-93942270D01*
X70282659Y-93819267D01*
X70282660Y-93819265D01*
X70387265Y-93714660D01*
X70510268Y-93632472D01*
X70511478Y-93631971D01*
X70646941Y-93575860D01*
X70792032Y-93547000D01*
X70939968Y-93547000D01*
X71085059Y-93575860D01*
G37*
G36*
X73434559Y-93575360D02*
G01*
X73540676Y-93619315D01*
X73571232Y-93631972D01*
X73694235Y-93714160D01*
X73798840Y-93818765D01*
X73878909Y-93938597D01*
X73881029Y-93941770D01*
X73937640Y-94078441D01*
X73966500Y-94223532D01*
X73966500Y-94371468D01*
X73937640Y-94516559D01*
X73918259Y-94563350D01*
X73881028Y-94653232D01*
X73798840Y-94776235D01*
X73694235Y-94880840D01*
X73571232Y-94963028D01*
X73571231Y-94963029D01*
X73571230Y-94963029D01*
X73434559Y-95019640D01*
X73289468Y-95048500D01*
X73141532Y-95048500D01*
X72996441Y-95019640D01*
X72859770Y-94963029D01*
X72859769Y-94963029D01*
X72859768Y-94963028D01*
X72736765Y-94880840D01*
X72632160Y-94776235D01*
X72549972Y-94653232D01*
X72512742Y-94563350D01*
X72493360Y-94516559D01*
X72464500Y-94371468D01*
X72464500Y-94223532D01*
X72493360Y-94078441D01*
X72549971Y-93941770D01*
X72552091Y-93938597D01*
X72632160Y-93818765D01*
X72736765Y-93714160D01*
X72859768Y-93631972D01*
X72890325Y-93619315D01*
X72996441Y-93575360D01*
X73141532Y-93546500D01*
X73289468Y-93546500D01*
X73434559Y-93575360D01*
G37*
G36*
X75759331Y-92910205D02*
G01*
X75932402Y-92981893D01*
X76009754Y-93033578D01*
X76088163Y-93085969D01*
X76220626Y-93218432D01*
X76266623Y-93287272D01*
X76324702Y-93374193D01*
X76396390Y-93547264D01*
X76432936Y-93730992D01*
X76432936Y-93918326D01*
X76396390Y-94102054D01*
X76324702Y-94275125D01*
X76314998Y-94289648D01*
X76220626Y-94430886D01*
X76088163Y-94563349D01*
X76009754Y-94615740D01*
X75932402Y-94667425D01*
X75759331Y-94739113D01*
X75575603Y-94775659D01*
X75388269Y-94775659D01*
X75204541Y-94739113D01*
X75031470Y-94667425D01*
X74954118Y-94615740D01*
X74875709Y-94563349D01*
X74743246Y-94430886D01*
X74648874Y-94289648D01*
X74639170Y-94275125D01*
X74567482Y-94102054D01*
X74530936Y-93918326D01*
X74530936Y-93730992D01*
X74567482Y-93547264D01*
X74639170Y-93374193D01*
X74697249Y-93287272D01*
X74743246Y-93218432D01*
X74875709Y-93085969D01*
X74954118Y-93033578D01*
X75031470Y-92981893D01*
X75204541Y-92910205D01*
X75388269Y-92873659D01*
X75575603Y-92873659D01*
X75759331Y-92910205D01*
G37*
G36*
X127995459Y-92910205D02*
G01*
X128168530Y-92981893D01*
X128245882Y-93033578D01*
X128324291Y-93085969D01*
X128456754Y-93218432D01*
X128502751Y-93287272D01*
X128560830Y-93374193D01*
X128632518Y-93547264D01*
X128669064Y-93730992D01*
X128669064Y-93918326D01*
X128632518Y-94102054D01*
X128560830Y-94275125D01*
X128551126Y-94289648D01*
X128456754Y-94430886D01*
X128324291Y-94563349D01*
X128245882Y-94615740D01*
X128168530Y-94667425D01*
X127995459Y-94739113D01*
X127811731Y-94775659D01*
X127624397Y-94775659D01*
X127440669Y-94739113D01*
X127267598Y-94667425D01*
X127190246Y-94615740D01*
X127111837Y-94563349D01*
X126979374Y-94430886D01*
X126885002Y-94289648D01*
X126875298Y-94275125D01*
X126803610Y-94102054D01*
X126767064Y-93918326D01*
X126767064Y-93730992D01*
X126803610Y-93547264D01*
X126875298Y-93374193D01*
X126933377Y-93287272D01*
X126979374Y-93218432D01*
X127111837Y-93085969D01*
X127190246Y-93033578D01*
X127267598Y-92981893D01*
X127440669Y-92910205D01*
X127624397Y-92873659D01*
X127811731Y-92873659D01*
X127995459Y-92910205D01*
G37*
G36*
X142298228Y-92717203D02*
G01*
X142453100Y-92781353D01*
X142592481Y-92874485D01*
X142711015Y-92993019D01*
X142804147Y-93132400D01*
X142868297Y-93287272D01*
X142901000Y-93451684D01*
X142901000Y-93619316D01*
X142868297Y-93783728D01*
X142804147Y-93938600D01*
X142711015Y-94077981D01*
X142592481Y-94196515D01*
X142453100Y-94289647D01*
X142298228Y-94353797D01*
X142133816Y-94386500D01*
X141966184Y-94386500D01*
X141801772Y-94353797D01*
X141646900Y-94289647D01*
X141507519Y-94196515D01*
X141388985Y-94077981D01*
X141295853Y-93938600D01*
X141231703Y-93783728D01*
X141199000Y-93619316D01*
X141199000Y-93451684D01*
X141231703Y-93287272D01*
X141295853Y-93132400D01*
X141388985Y-92993019D01*
X141507519Y-92874485D01*
X141646900Y-92781353D01*
X141801772Y-92717203D01*
X141966184Y-92684500D01*
X142133816Y-92684500D01*
X142298228Y-92717203D01*
G37*
G36*
X67304228Y-92717203D02*
G01*
X67459100Y-92781353D01*
X67598481Y-92874485D01*
X67717015Y-92993019D01*
X67810147Y-93132400D01*
X67874297Y-93287272D01*
X67907000Y-93451684D01*
X67907000Y-93619316D01*
X67874297Y-93783728D01*
X67810147Y-93938600D01*
X67717015Y-94077981D01*
X67598481Y-94196515D01*
X67459100Y-94289647D01*
X67304228Y-94353797D01*
X67139816Y-94386500D01*
X66972184Y-94386500D01*
X66807772Y-94353797D01*
X66652900Y-94289647D01*
X66513519Y-94196515D01*
X66394985Y-94077981D01*
X66301853Y-93938600D01*
X66237703Y-93783728D01*
X66205000Y-93619316D01*
X66205000Y-93451684D01*
X66237703Y-93287272D01*
X66301853Y-93132400D01*
X66394985Y-92993019D01*
X66513519Y-92874485D01*
X66652900Y-92781353D01*
X66807772Y-92717203D01*
X66972184Y-92684500D01*
X67139816Y-92684500D01*
X67304228Y-92717203D01*
G37*
G36*
X59684228Y-92717203D02*
G01*
X59839100Y-92781353D01*
X59978481Y-92874485D01*
X60097015Y-92993019D01*
X60190147Y-93132400D01*
X60254297Y-93287272D01*
X60287000Y-93451684D01*
X60287000Y-93619316D01*
X60254297Y-93783728D01*
X60190147Y-93938600D01*
X60097015Y-94077981D01*
X59978481Y-94196515D01*
X59839100Y-94289647D01*
X59684228Y-94353797D01*
X59519816Y-94386500D01*
X59352184Y-94386500D01*
X59187772Y-94353797D01*
X59032900Y-94289647D01*
X58893519Y-94196515D01*
X58774985Y-94077981D01*
X58681853Y-93938600D01*
X58617703Y-93783728D01*
X58585000Y-93619316D01*
X58585000Y-93451684D01*
X58617703Y-93287272D01*
X58681853Y-93132400D01*
X58774985Y-92993019D01*
X58893519Y-92874485D01*
X59032900Y-92781353D01*
X59187772Y-92717203D01*
X59352184Y-92684500D01*
X59519816Y-92684500D01*
X59684228Y-92717203D01*
G37*
G36*
X134678228Y-92717203D02*
G01*
X134833100Y-92781353D01*
X134972481Y-92874485D01*
X135091015Y-92993019D01*
X135184147Y-93132400D01*
X135248297Y-93287272D01*
X135281000Y-93451684D01*
X135281000Y-93619316D01*
X135248297Y-93783728D01*
X135184147Y-93938600D01*
X135091015Y-94077981D01*
X134972481Y-94196515D01*
X134833100Y-94289647D01*
X134678228Y-94353797D01*
X134513816Y-94386500D01*
X134346184Y-94386500D01*
X134181772Y-94353797D01*
X134026900Y-94289647D01*
X133887519Y-94196515D01*
X133768985Y-94077981D01*
X133675853Y-93938600D01*
X133611703Y-93783728D01*
X133579000Y-93619316D01*
X133579000Y-93451684D01*
X133611703Y-93287272D01*
X133675853Y-93132400D01*
X133768985Y-92993019D01*
X133887519Y-92874485D01*
X134026900Y-92781353D01*
X134181772Y-92717203D01*
X134346184Y-92684500D01*
X134513816Y-92684500D01*
X134678228Y-92717203D01*
G37*
G36*
X84946509Y-90997546D02*
G01*
X85119580Y-91069234D01*
X85196932Y-91120919D01*
X85275341Y-91173310D01*
X85407804Y-91305773D01*
X85407805Y-91305775D01*
X85511880Y-91461534D01*
X85583568Y-91634605D01*
X85620114Y-91818333D01*
X85620114Y-92005667D01*
X85583568Y-92189395D01*
X85511880Y-92362466D01*
X85511879Y-92362467D01*
X85407804Y-92518227D01*
X85275341Y-92650690D01*
X85196932Y-92703081D01*
X85119580Y-92754766D01*
X84946509Y-92826454D01*
X84762781Y-92863000D01*
X84575447Y-92863000D01*
X84391719Y-92826454D01*
X84218648Y-92754766D01*
X84141296Y-92703081D01*
X84062887Y-92650690D01*
X83930424Y-92518227D01*
X83826349Y-92362467D01*
X83826348Y-92362466D01*
X83754660Y-92189395D01*
X83718114Y-92005667D01*
X83718114Y-91818333D01*
X83754660Y-91634605D01*
X83826348Y-91461534D01*
X83930423Y-91305775D01*
X83930424Y-91305773D01*
X84062887Y-91173310D01*
X84141296Y-91120919D01*
X84218648Y-91069234D01*
X84391719Y-90997546D01*
X84575447Y-90961000D01*
X84762781Y-90961000D01*
X84946509Y-90997546D01*
G37*
G36*
X118808281Y-90997546D02*
G01*
X118981352Y-91069234D01*
X119058704Y-91120919D01*
X119137113Y-91173310D01*
X119269576Y-91305773D01*
X119269577Y-91305775D01*
X119373652Y-91461534D01*
X119445340Y-91634605D01*
X119481886Y-91818333D01*
X119481886Y-92005667D01*
X119445340Y-92189395D01*
X119373652Y-92362466D01*
X119373651Y-92362467D01*
X119269576Y-92518227D01*
X119137113Y-92650690D01*
X119058704Y-92703081D01*
X118981352Y-92754766D01*
X118808281Y-92826454D01*
X118624553Y-92863000D01*
X118437219Y-92863000D01*
X118253491Y-92826454D01*
X118080420Y-92754766D01*
X118003068Y-92703081D01*
X117924659Y-92650690D01*
X117792196Y-92518227D01*
X117688121Y-92362467D01*
X117688120Y-92362466D01*
X117616432Y-92189395D01*
X117579886Y-92005667D01*
X117579886Y-91818333D01*
X117616432Y-91634605D01*
X117688120Y-91461534D01*
X117792195Y-91305775D01*
X117792196Y-91305773D01*
X117924659Y-91173310D01*
X118003068Y-91120919D01*
X118080420Y-91069234D01*
X118253491Y-90997546D01*
X118437219Y-90961000D01*
X118624553Y-90961000D01*
X118808281Y-90997546D01*
G37*
G36*
X135281000Y-91846500D02*
G01*
X133579000Y-91846500D01*
X133579000Y-90144500D01*
X135281000Y-90144500D01*
X135281000Y-91846500D01*
G37*
G36*
X67304228Y-90177203D02*
G01*
X67459100Y-90241353D01*
X67598481Y-90334485D01*
X67717015Y-90453019D01*
X67810147Y-90592400D01*
X67874297Y-90747272D01*
X67907000Y-90911684D01*
X67907000Y-91079316D01*
X67874297Y-91243728D01*
X67810147Y-91398600D01*
X67717015Y-91537981D01*
X67598481Y-91656515D01*
X67459100Y-91749647D01*
X67304228Y-91813797D01*
X67139816Y-91846500D01*
X66972184Y-91846500D01*
X66807772Y-91813797D01*
X66652900Y-91749647D01*
X66513519Y-91656515D01*
X66394985Y-91537981D01*
X66301853Y-91398600D01*
X66237703Y-91243728D01*
X66205000Y-91079316D01*
X66205000Y-90911684D01*
X66237703Y-90747272D01*
X66301853Y-90592400D01*
X66394985Y-90453019D01*
X66513519Y-90334485D01*
X66652900Y-90241353D01*
X66807772Y-90177203D01*
X66972184Y-90144500D01*
X67139816Y-90144500D01*
X67304228Y-90177203D01*
G37*
G36*
X59684228Y-90177203D02*
G01*
X59839100Y-90241353D01*
X59978481Y-90334485D01*
X60097015Y-90453019D01*
X60190147Y-90592400D01*
X60254297Y-90747272D01*
X60287000Y-90911684D01*
X60287000Y-91079316D01*
X60254297Y-91243728D01*
X60190147Y-91398600D01*
X60097015Y-91537981D01*
X59978481Y-91656515D01*
X59839100Y-91749647D01*
X59684228Y-91813797D01*
X59519816Y-91846500D01*
X59352184Y-91846500D01*
X59187772Y-91813797D01*
X59032900Y-91749647D01*
X58893519Y-91656515D01*
X58774985Y-91537981D01*
X58681853Y-91398600D01*
X58617703Y-91243728D01*
X58585000Y-91079316D01*
X58585000Y-90911684D01*
X58617703Y-90747272D01*
X58681853Y-90592400D01*
X58774985Y-90453019D01*
X58893519Y-90334485D01*
X59032900Y-90241353D01*
X59187772Y-90177203D01*
X59352184Y-90144500D01*
X59519816Y-90144500D01*
X59684228Y-90177203D01*
G37*
G36*
X142298228Y-90177203D02*
G01*
X142453100Y-90241353D01*
X142592481Y-90334485D01*
X142711015Y-90453019D01*
X142804147Y-90592400D01*
X142868297Y-90747272D01*
X142901000Y-90911684D01*
X142901000Y-91079316D01*
X142868297Y-91243728D01*
X142804147Y-91398600D01*
X142711015Y-91537981D01*
X142592481Y-91656515D01*
X142453100Y-91749647D01*
X142298228Y-91813797D01*
X142133816Y-91846500D01*
X141966184Y-91846500D01*
X141801772Y-91813797D01*
X141646900Y-91749647D01*
X141507519Y-91656515D01*
X141388985Y-91537981D01*
X141295853Y-91398600D01*
X141231703Y-91243728D01*
X141199000Y-91079316D01*
X141199000Y-90911684D01*
X141231703Y-90747272D01*
X141295853Y-90592400D01*
X141388985Y-90453019D01*
X141507519Y-90334485D01*
X141646900Y-90241353D01*
X141801772Y-90177203D01*
X141966184Y-90144500D01*
X142133816Y-90144500D01*
X142298228Y-90177203D01*
G37*
G36*
X59684228Y-87637203D02*
G01*
X59839100Y-87701353D01*
X59978481Y-87794485D01*
X60097015Y-87913019D01*
X60190147Y-88052400D01*
X60254297Y-88207272D01*
X60287000Y-88371684D01*
X60287000Y-88539316D01*
X60254297Y-88703728D01*
X60190147Y-88858600D01*
X60097015Y-88997981D01*
X59978481Y-89116515D01*
X59839100Y-89209647D01*
X59684228Y-89273797D01*
X59519816Y-89306500D01*
X59352184Y-89306500D01*
X59187772Y-89273797D01*
X59032900Y-89209647D01*
X58893519Y-89116515D01*
X58774985Y-88997981D01*
X58681853Y-88858600D01*
X58617703Y-88703728D01*
X58585000Y-88539316D01*
X58585000Y-88371684D01*
X58617703Y-88207272D01*
X58681853Y-88052400D01*
X58774985Y-87913019D01*
X58893519Y-87794485D01*
X59032900Y-87701353D01*
X59187772Y-87637203D01*
X59352184Y-87604500D01*
X59519816Y-87604500D01*
X59684228Y-87637203D01*
G37*
G36*
X67304228Y-87637203D02*
G01*
X67459100Y-87701353D01*
X67598481Y-87794485D01*
X67717015Y-87913019D01*
X67810147Y-88052400D01*
X67874297Y-88207272D01*
X67907000Y-88371684D01*
X67907000Y-88539316D01*
X67874297Y-88703728D01*
X67810147Y-88858600D01*
X67717015Y-88997981D01*
X67598481Y-89116515D01*
X67459100Y-89209647D01*
X67304228Y-89273797D01*
X67139816Y-89306500D01*
X66972184Y-89306500D01*
X66807772Y-89273797D01*
X66652900Y-89209647D01*
X66513519Y-89116515D01*
X66394985Y-88997981D01*
X66301853Y-88858600D01*
X66237703Y-88703728D01*
X66205000Y-88539316D01*
X66205000Y-88371684D01*
X66237703Y-88207272D01*
X66301853Y-88052400D01*
X66394985Y-87913019D01*
X66513519Y-87794485D01*
X66652900Y-87701353D01*
X66807772Y-87637203D01*
X66972184Y-87604500D01*
X67139816Y-87604500D01*
X67304228Y-87637203D01*
G37*
G36*
X132773145Y-87777384D02*
G01*
X132871059Y-87796860D01*
X133007732Y-87853472D01*
X133130735Y-87935660D01*
X133235340Y-88040265D01*
X133309124Y-88150691D01*
X133317529Y-88163270D01*
X133374140Y-88299941D01*
X133403000Y-88445032D01*
X133403000Y-88592968D01*
X133374140Y-88738059D01*
X133324212Y-88858597D01*
X133317528Y-88874732D01*
X133235340Y-88997735D01*
X133130735Y-89102340D01*
X133007732Y-89184528D01*
X133007731Y-89184529D01*
X133007730Y-89184529D01*
X132871059Y-89241140D01*
X132725968Y-89270000D01*
X132578032Y-89270000D01*
X132432941Y-89241140D01*
X132296270Y-89184529D01*
X132296269Y-89184529D01*
X132296268Y-89184528D01*
X132173265Y-89102340D01*
X132068660Y-88997735D01*
X131986472Y-88874732D01*
X131979789Y-88858597D01*
X131929860Y-88738059D01*
X131901000Y-88592968D01*
X131901000Y-88445032D01*
X131929860Y-88299941D01*
X131986471Y-88163270D01*
X131994876Y-88150691D01*
X132068660Y-88040265D01*
X132173265Y-87935660D01*
X132296268Y-87853472D01*
X132432941Y-87796860D01*
X132530855Y-87777384D01*
X132578032Y-87768000D01*
X132725968Y-87768000D01*
X132773145Y-87777384D01*
G37*
G36*
X70704059Y-87410974D02*
G01*
X70840732Y-87467586D01*
X70963735Y-87549774D01*
X71068340Y-87654379D01*
X71144259Y-87768000D01*
X71150529Y-87777384D01*
X71207140Y-87914055D01*
X71236000Y-88059146D01*
X71236000Y-88207082D01*
X71207140Y-88352173D01*
X71168677Y-88445032D01*
X71150528Y-88488846D01*
X71068340Y-88611849D01*
X70963735Y-88716454D01*
X70840732Y-88798642D01*
X70840731Y-88798643D01*
X70840730Y-88798643D01*
X70704059Y-88855254D01*
X70558968Y-88884114D01*
X70411032Y-88884114D01*
X70265941Y-88855254D01*
X70129270Y-88798643D01*
X70129269Y-88798643D01*
X70129268Y-88798642D01*
X70006265Y-88716454D01*
X69901660Y-88611849D01*
X69819472Y-88488846D01*
X69801324Y-88445032D01*
X69762860Y-88352173D01*
X69734000Y-88207082D01*
X69734000Y-88059146D01*
X69762860Y-87914055D01*
X69819471Y-87777384D01*
X69825741Y-87768000D01*
X69901660Y-87654379D01*
X70006265Y-87549774D01*
X70129268Y-87467586D01*
X70265941Y-87410974D01*
X70411032Y-87382114D01*
X70558968Y-87382114D01*
X70704059Y-87410974D01*
G37*
G36*
X126602509Y-86497546D02*
G01*
X126775580Y-86569234D01*
X126775581Y-86569235D01*
X126931341Y-86673310D01*
X127063804Y-86805773D01*
X127063805Y-86805775D01*
X127167880Y-86961534D01*
X127239568Y-87134605D01*
X127276114Y-87318333D01*
X127276114Y-87505667D01*
X127239568Y-87689395D01*
X127167880Y-87862466D01*
X127134101Y-87913020D01*
X127063804Y-88018227D01*
X126931341Y-88150690D01*
X126852932Y-88203081D01*
X126775580Y-88254766D01*
X126602509Y-88326454D01*
X126418781Y-88363000D01*
X126231447Y-88363000D01*
X126047719Y-88326454D01*
X125874648Y-88254766D01*
X125797296Y-88203081D01*
X125718887Y-88150690D01*
X125586424Y-88018227D01*
X125516127Y-87913020D01*
X125482348Y-87862466D01*
X125410660Y-87689395D01*
X125374114Y-87505667D01*
X125374114Y-87318333D01*
X125410660Y-87134605D01*
X125482348Y-86961534D01*
X125586423Y-86805775D01*
X125586424Y-86805773D01*
X125718887Y-86673310D01*
X125874647Y-86569235D01*
X125874648Y-86569234D01*
X126047719Y-86497546D01*
X126231447Y-86461000D01*
X126418781Y-86461000D01*
X126602509Y-86497546D01*
G37*
G36*
X77152281Y-86497546D02*
G01*
X77325352Y-86569234D01*
X77325353Y-86569235D01*
X77481113Y-86673310D01*
X77613576Y-86805773D01*
X77613577Y-86805775D01*
X77717652Y-86961534D01*
X77789340Y-87134605D01*
X77825886Y-87318333D01*
X77825886Y-87505667D01*
X77789340Y-87689395D01*
X77717652Y-87862466D01*
X77683873Y-87913020D01*
X77613576Y-88018227D01*
X77481113Y-88150690D01*
X77402704Y-88203081D01*
X77325352Y-88254766D01*
X77152281Y-88326454D01*
X76968553Y-88363000D01*
X76781219Y-88363000D01*
X76597491Y-88326454D01*
X76424420Y-88254766D01*
X76347068Y-88203081D01*
X76268659Y-88150690D01*
X76136196Y-88018227D01*
X76065899Y-87913020D01*
X76032120Y-87862466D01*
X75960432Y-87689395D01*
X75923886Y-87505667D01*
X75923886Y-87318333D01*
X75960432Y-87134605D01*
X76032120Y-86961534D01*
X76136195Y-86805775D01*
X76136196Y-86805773D01*
X76268659Y-86673310D01*
X76424419Y-86569235D01*
X76424420Y-86569234D01*
X76597491Y-86497546D01*
X76781219Y-86461000D01*
X76968553Y-86461000D01*
X77152281Y-86497546D01*
G37*
G36*
X135335059Y-86360460D02*
G01*
X135463819Y-86413794D01*
X135471732Y-86417072D01*
X135594735Y-86499260D01*
X135699340Y-86603865D01*
X135781528Y-86726868D01*
X135781529Y-86726870D01*
X135838140Y-86863541D01*
X135857632Y-86961533D01*
X135867000Y-87008633D01*
X135867000Y-87156567D01*
X135838140Y-87301659D01*
X135781528Y-87438332D01*
X135699340Y-87561335D01*
X135594735Y-87665940D01*
X135471732Y-87748128D01*
X135471731Y-87748129D01*
X135471730Y-87748129D01*
X135335059Y-87804740D01*
X135189968Y-87833600D01*
X135042032Y-87833600D01*
X134896941Y-87804740D01*
X134760270Y-87748129D01*
X134760269Y-87748129D01*
X134760268Y-87748128D01*
X134637265Y-87665940D01*
X134532660Y-87561335D01*
X134450472Y-87438332D01*
X134393860Y-87301659D01*
X134365000Y-87156567D01*
X134365000Y-87008633D01*
X134374369Y-86961533D01*
X134393860Y-86863541D01*
X134450471Y-86726870D01*
X134450472Y-86726868D01*
X134532660Y-86603865D01*
X134637265Y-86499260D01*
X134760268Y-86417072D01*
X134768182Y-86413794D01*
X134896941Y-86360460D01*
X135042032Y-86331600D01*
X135189968Y-86331600D01*
X135335059Y-86360460D01*
G37*
G36*
X86339459Y-84584887D02*
G01*
X86512530Y-84656575D01*
X86512531Y-84656576D01*
X86668291Y-84760651D01*
X86800754Y-84893114D01*
X86800755Y-84893116D01*
X86904830Y-85048875D01*
X86976518Y-85221946D01*
X87013064Y-85405674D01*
X87013064Y-85593008D01*
X86976518Y-85776736D01*
X86904830Y-85949807D01*
X86904829Y-85949808D01*
X86800754Y-86105568D01*
X86668291Y-86238031D01*
X86591569Y-86289295D01*
X86512530Y-86342107D01*
X86339459Y-86413795D01*
X86155731Y-86450341D01*
X85968397Y-86450341D01*
X85784669Y-86413795D01*
X85611598Y-86342107D01*
X85532559Y-86289295D01*
X85455837Y-86238031D01*
X85323374Y-86105568D01*
X85219299Y-85949808D01*
X85219298Y-85949807D01*
X85147610Y-85776736D01*
X85111064Y-85593008D01*
X85111064Y-85405674D01*
X85147610Y-85221946D01*
X85219298Y-85048875D01*
X85323373Y-84893116D01*
X85323374Y-84893114D01*
X85455837Y-84760651D01*
X85611597Y-84656576D01*
X85611598Y-84656575D01*
X85784669Y-84584887D01*
X85968397Y-84548341D01*
X86155731Y-84548341D01*
X86339459Y-84584887D01*
G37*
G36*
X117415331Y-84584887D02*
G01*
X117588402Y-84656575D01*
X117588403Y-84656576D01*
X117744163Y-84760651D01*
X117876626Y-84893114D01*
X117876627Y-84893116D01*
X117980702Y-85048875D01*
X118052390Y-85221946D01*
X118088936Y-85405674D01*
X118088936Y-85593008D01*
X118052390Y-85776736D01*
X117980702Y-85949807D01*
X117980701Y-85949808D01*
X117876626Y-86105568D01*
X117744163Y-86238031D01*
X117667441Y-86289295D01*
X117588402Y-86342107D01*
X117415331Y-86413795D01*
X117231603Y-86450341D01*
X117044269Y-86450341D01*
X116860541Y-86413795D01*
X116687470Y-86342107D01*
X116608431Y-86289295D01*
X116531709Y-86238031D01*
X116399246Y-86105568D01*
X116295171Y-85949808D01*
X116295170Y-85949807D01*
X116223482Y-85776736D01*
X116186936Y-85593008D01*
X116186936Y-85405674D01*
X116223482Y-85221946D01*
X116295170Y-85048875D01*
X116399245Y-84893116D01*
X116399246Y-84893114D01*
X116531709Y-84760651D01*
X116687469Y-84656576D01*
X116687470Y-84656575D01*
X116860541Y-84584887D01*
X117044269Y-84548341D01*
X117231603Y-84548341D01*
X117415331Y-84584887D01*
G37*
G36*
X68510728Y-84652703D02*
G01*
X68665600Y-84716853D01*
X68804981Y-84809985D01*
X68923515Y-84928519D01*
X69016647Y-85067900D01*
X69080797Y-85222772D01*
X69113500Y-85387184D01*
X69113500Y-85554816D01*
X69080797Y-85719228D01*
X69016647Y-85874100D01*
X68923515Y-86013481D01*
X68804981Y-86132015D01*
X68665600Y-86225147D01*
X68510728Y-86289297D01*
X68346316Y-86322000D01*
X68178684Y-86322000D01*
X68014272Y-86289297D01*
X67859400Y-86225147D01*
X67720019Y-86132015D01*
X67601485Y-86013481D01*
X67508353Y-85874100D01*
X67444203Y-85719228D01*
X67411500Y-85554816D01*
X67411500Y-85387184D01*
X67444203Y-85222772D01*
X67508353Y-85067900D01*
X67601485Y-84928519D01*
X67720019Y-84809985D01*
X67859400Y-84716853D01*
X68014272Y-84652703D01*
X68178684Y-84620000D01*
X68346316Y-84620000D01*
X68510728Y-84652703D01*
G37*
G36*
X90739371Y-84159597D02*
G01*
X90828673Y-84177360D01*
X90965346Y-84233972D01*
X91088349Y-84316160D01*
X91192954Y-84420765D01*
X91192955Y-84420767D01*
X91275143Y-84543770D01*
X91331754Y-84680441D01*
X91360614Y-84825532D01*
X91360614Y-84973468D01*
X91331754Y-85118559D01*
X91288588Y-85222772D01*
X91275142Y-85255232D01*
X91192954Y-85378235D01*
X91088349Y-85482840D01*
X90965346Y-85565028D01*
X90965345Y-85565029D01*
X90965344Y-85565029D01*
X90828673Y-85621640D01*
X90683582Y-85650500D01*
X90535646Y-85650500D01*
X90390555Y-85621640D01*
X90253884Y-85565029D01*
X90253883Y-85565029D01*
X90253882Y-85565028D01*
X90130879Y-85482840D01*
X90026274Y-85378235D01*
X89944086Y-85255232D01*
X89930641Y-85222772D01*
X89887474Y-85118559D01*
X89858614Y-84973468D01*
X89858614Y-84825532D01*
X89887474Y-84680441D01*
X89944085Y-84543770D01*
X90026273Y-84420767D01*
X90026274Y-84420765D01*
X90130879Y-84316160D01*
X90253882Y-84233972D01*
X90390555Y-84177360D01*
X90479857Y-84159597D01*
X90535646Y-84148500D01*
X90683582Y-84148500D01*
X90739371Y-84159597D01*
G37*
G36*
X65399228Y-82938203D02*
G01*
X65554100Y-83002353D01*
X65693481Y-83095485D01*
X65812015Y-83214019D01*
X65905147Y-83353400D01*
X65969297Y-83508272D01*
X66002000Y-83672684D01*
X66002000Y-83840316D01*
X65969297Y-84004728D01*
X65905147Y-84159600D01*
X65812015Y-84298981D01*
X65693481Y-84417515D01*
X65554100Y-84510647D01*
X65399228Y-84574797D01*
X65234816Y-84607500D01*
X65067184Y-84607500D01*
X64902772Y-84574797D01*
X64747900Y-84510647D01*
X64608519Y-84417515D01*
X64489985Y-84298981D01*
X64396853Y-84159600D01*
X64332703Y-84004728D01*
X64300000Y-83840316D01*
X64300000Y-83672684D01*
X64332703Y-83508272D01*
X64396853Y-83353400D01*
X64489985Y-83214019D01*
X64608519Y-83095485D01*
X64747900Y-83002353D01*
X64902772Y-82938203D01*
X65067184Y-82905500D01*
X65234816Y-82905500D01*
X65399228Y-82938203D01*
G37*
G36*
X121745459Y-82084887D02*
G01*
X121918530Y-82156575D01*
X121918531Y-82156576D01*
X122074291Y-82260651D01*
X122206754Y-82393114D01*
X122259145Y-82471523D01*
X122310830Y-82548875D01*
X122382518Y-82721946D01*
X122419064Y-82905674D01*
X122419064Y-83093008D01*
X122382518Y-83276736D01*
X122310830Y-83449807D01*
X122271765Y-83508272D01*
X122206754Y-83605568D01*
X122074291Y-83738031D01*
X121995882Y-83790422D01*
X121918530Y-83842107D01*
X121745459Y-83913795D01*
X121561731Y-83950341D01*
X121374397Y-83950341D01*
X121190669Y-83913795D01*
X121017598Y-83842107D01*
X120940246Y-83790422D01*
X120861837Y-83738031D01*
X120729374Y-83605568D01*
X120664363Y-83508272D01*
X120625298Y-83449807D01*
X120553610Y-83276736D01*
X120517064Y-83093008D01*
X120517064Y-82905674D01*
X120553610Y-82721946D01*
X120625298Y-82548875D01*
X120676983Y-82471523D01*
X120729374Y-82393114D01*
X120861837Y-82260651D01*
X121017597Y-82156576D01*
X121017598Y-82156575D01*
X121190669Y-82084887D01*
X121374397Y-82048341D01*
X121561731Y-82048341D01*
X121745459Y-82084887D01*
G37*
G36*
X82009331Y-82084887D02*
G01*
X82182402Y-82156575D01*
X82182403Y-82156576D01*
X82338163Y-82260651D01*
X82470626Y-82393114D01*
X82523017Y-82471523D01*
X82574702Y-82548875D01*
X82646390Y-82721946D01*
X82682936Y-82905674D01*
X82682936Y-83093008D01*
X82646390Y-83276736D01*
X82574702Y-83449807D01*
X82535637Y-83508272D01*
X82470626Y-83605568D01*
X82338163Y-83738031D01*
X82259754Y-83790422D01*
X82182402Y-83842107D01*
X82009331Y-83913795D01*
X81825603Y-83950341D01*
X81638269Y-83950341D01*
X81454541Y-83913795D01*
X81281470Y-83842107D01*
X81204118Y-83790422D01*
X81125709Y-83738031D01*
X80993246Y-83605568D01*
X80928235Y-83508272D01*
X80889170Y-83449807D01*
X80817482Y-83276736D01*
X80780936Y-83093008D01*
X80780936Y-82905674D01*
X80817482Y-82721946D01*
X80889170Y-82548875D01*
X80940855Y-82471523D01*
X80993246Y-82393114D01*
X81125709Y-82260651D01*
X81281469Y-82156576D01*
X81281470Y-82156575D01*
X81454541Y-82084887D01*
X81638269Y-82048341D01*
X81825603Y-82048341D01*
X82009331Y-82084887D01*
G37*
G36*
X92137658Y-81683353D02*
G01*
X92225673Y-81700860D01*
X92362346Y-81757472D01*
X92485349Y-81839660D01*
X92589954Y-81944265D01*
X92623088Y-81993854D01*
X92672143Y-82067270D01*
X92728754Y-82203941D01*
X92757614Y-82349032D01*
X92757614Y-82496968D01*
X92728754Y-82642059D01*
X92703719Y-82702500D01*
X92672142Y-82778732D01*
X92589954Y-82901735D01*
X92485349Y-83006340D01*
X92362346Y-83088528D01*
X92362345Y-83088529D01*
X92362344Y-83088529D01*
X92225673Y-83145140D01*
X92080582Y-83174000D01*
X91932646Y-83174000D01*
X91787555Y-83145140D01*
X91650884Y-83088529D01*
X91650883Y-83088529D01*
X91650882Y-83088528D01*
X91527879Y-83006340D01*
X91423274Y-82901735D01*
X91341086Y-82778732D01*
X91309510Y-82702500D01*
X91284474Y-82642059D01*
X91255614Y-82496968D01*
X91255614Y-82349032D01*
X91284474Y-82203941D01*
X91341085Y-82067270D01*
X91390140Y-81993854D01*
X91423274Y-81944265D01*
X91527879Y-81839660D01*
X91650882Y-81757472D01*
X91787555Y-81700860D01*
X91875570Y-81683353D01*
X91932646Y-81672000D01*
X92080582Y-81672000D01*
X92137658Y-81683353D01*
G37*
G36*
X62097228Y-81033203D02*
G01*
X62252100Y-81097353D01*
X62391481Y-81190485D01*
X62510015Y-81309019D01*
X62603147Y-81448400D01*
X62667297Y-81603272D01*
X62700000Y-81767684D01*
X62700000Y-81935316D01*
X62667297Y-82099728D01*
X62603147Y-82254600D01*
X62510015Y-82393981D01*
X62391481Y-82512515D01*
X62252100Y-82605647D01*
X62097228Y-82669797D01*
X61932816Y-82702500D01*
X61765184Y-82702500D01*
X61600772Y-82669797D01*
X61445900Y-82605647D01*
X61306519Y-82512515D01*
X61187985Y-82393981D01*
X61094853Y-82254600D01*
X61030703Y-82099728D01*
X60998000Y-81935316D01*
X60998000Y-81767684D01*
X61030703Y-81603272D01*
X61094853Y-81448400D01*
X61187985Y-81309019D01*
X61306519Y-81190485D01*
X61445900Y-81097353D01*
X61600772Y-81033203D01*
X61765184Y-81000500D01*
X61932816Y-81000500D01*
X62097228Y-81033203D01*
G37*
G36*
X128963145Y-81178270D02*
G01*
X129061059Y-81197746D01*
X129197732Y-81254358D01*
X129320735Y-81336546D01*
X129425340Y-81441151D01*
X129494041Y-81543970D01*
X129507529Y-81564156D01*
X129564140Y-81700827D01*
X129577439Y-81767684D01*
X129593000Y-81845919D01*
X129593000Y-81993853D01*
X129564140Y-82138945D01*
X129507528Y-82275618D01*
X129425340Y-82398621D01*
X129320735Y-82503226D01*
X129197732Y-82585414D01*
X129197731Y-82585415D01*
X129197730Y-82585415D01*
X129061059Y-82642026D01*
X128915968Y-82670886D01*
X128768032Y-82670886D01*
X128622941Y-82642026D01*
X128486270Y-82585415D01*
X128486269Y-82585415D01*
X128486268Y-82585414D01*
X128363265Y-82503226D01*
X128258660Y-82398621D01*
X128176472Y-82275618D01*
X128119860Y-82138945D01*
X128091000Y-81993853D01*
X128091000Y-81845919D01*
X128106562Y-81767684D01*
X128119860Y-81700827D01*
X128176471Y-81564156D01*
X128189959Y-81543970D01*
X128258660Y-81441151D01*
X128363265Y-81336546D01*
X128486268Y-81254358D01*
X128622941Y-81197746D01*
X128720855Y-81178270D01*
X128768032Y-81168886D01*
X128915968Y-81168886D01*
X128963145Y-81178270D01*
G37*
G36*
X115637550Y-81159418D02*
G01*
X114440582Y-82637550D01*
X112962450Y-81440582D01*
X114159418Y-79962450D01*
X115637550Y-81159418D01*
G37*
G36*
X74442579Y-80797642D02*
G01*
X74514059Y-80811860D01*
X74650732Y-80868472D01*
X74773735Y-80950660D01*
X74878340Y-81055265D01*
X74950638Y-81163467D01*
X74960529Y-81178270D01*
X75017140Y-81314941D01*
X75046000Y-81460032D01*
X75046000Y-81607968D01*
X75017140Y-81753059D01*
X74978677Y-81845918D01*
X74960528Y-81889732D01*
X74878340Y-82012735D01*
X74773735Y-82117340D01*
X74650732Y-82199528D01*
X74650731Y-82199529D01*
X74650730Y-82199529D01*
X74514059Y-82256140D01*
X74368968Y-82285000D01*
X74221032Y-82285000D01*
X74075941Y-82256140D01*
X73939270Y-82199529D01*
X73939269Y-82199529D01*
X73939268Y-82199528D01*
X73816265Y-82117340D01*
X73711660Y-82012735D01*
X73629472Y-81889732D01*
X73611324Y-81845918D01*
X73572860Y-81753059D01*
X73544000Y-81607968D01*
X73544000Y-81460032D01*
X73572860Y-81314941D01*
X73629471Y-81178270D01*
X73639362Y-81163467D01*
X73711660Y-81055265D01*
X73816265Y-80950660D01*
X73939268Y-80868472D01*
X74075941Y-80811860D01*
X74147421Y-80797642D01*
X74221032Y-80783000D01*
X74368968Y-80783000D01*
X74442579Y-80797642D01*
G37*
G36*
X71010728Y-80322576D02*
G01*
X71165600Y-80386726D01*
X71304981Y-80479858D01*
X71423515Y-80598392D01*
X71516647Y-80737773D01*
X71580797Y-80892645D01*
X71613500Y-81057057D01*
X71613500Y-81224689D01*
X71580797Y-81389101D01*
X71516647Y-81543973D01*
X71423515Y-81683354D01*
X71304981Y-81801888D01*
X71165600Y-81895020D01*
X71010728Y-81959170D01*
X70846316Y-81991873D01*
X70678684Y-81991873D01*
X70514272Y-81959170D01*
X70359400Y-81895020D01*
X70220019Y-81801888D01*
X70101485Y-81683354D01*
X70008353Y-81543973D01*
X69944203Y-81389101D01*
X69911500Y-81224689D01*
X69911500Y-81057057D01*
X69944203Y-80892645D01*
X70008353Y-80737773D01*
X70101485Y-80598392D01*
X70220019Y-80479858D01*
X70359400Y-80386726D01*
X70514272Y-80322576D01*
X70678684Y-80289873D01*
X70846316Y-80289873D01*
X71010728Y-80322576D01*
G37*
G36*
X84229559Y-80367360D02*
G01*
X84331340Y-80409519D01*
X84366232Y-80423972D01*
X84489235Y-80506160D01*
X84593840Y-80610765D01*
X84676028Y-80733768D01*
X84676029Y-80733770D01*
X84732640Y-80870441D01*
X84761500Y-81015532D01*
X84761500Y-81163468D01*
X84732640Y-81308559D01*
X84677719Y-81441151D01*
X84676028Y-81445232D01*
X84593840Y-81568235D01*
X84489235Y-81672840D01*
X84366232Y-81755028D01*
X84366231Y-81755029D01*
X84366230Y-81755029D01*
X84229559Y-81811640D01*
X84084468Y-81840500D01*
X83936532Y-81840500D01*
X83791441Y-81811640D01*
X83654770Y-81755029D01*
X83654769Y-81755029D01*
X83654768Y-81755028D01*
X83531765Y-81672840D01*
X83427160Y-81568235D01*
X83344972Y-81445232D01*
X83343282Y-81441151D01*
X83288360Y-81308559D01*
X83259500Y-81163468D01*
X83259500Y-81015532D01*
X83288360Y-80870441D01*
X83344971Y-80733770D01*
X83344972Y-80733768D01*
X83427160Y-80610765D01*
X83531765Y-80506160D01*
X83654768Y-80423972D01*
X83689661Y-80409519D01*
X83791441Y-80367360D01*
X83936532Y-80338500D01*
X84084468Y-80338500D01*
X84229559Y-80367360D01*
G37*
G36*
X131525059Y-79761346D02*
G01*
X131661732Y-79817958D01*
X131784735Y-79900146D01*
X131889340Y-80004751D01*
X131889341Y-80004753D01*
X131971529Y-80127756D01*
X132028140Y-80264427D01*
X132057000Y-80409518D01*
X132057000Y-80557454D01*
X132028140Y-80702545D01*
X131988750Y-80797642D01*
X131971528Y-80839218D01*
X131889340Y-80962221D01*
X131784735Y-81066826D01*
X131661732Y-81149014D01*
X131661731Y-81149015D01*
X131661730Y-81149015D01*
X131525059Y-81205626D01*
X131379968Y-81234486D01*
X131232032Y-81234486D01*
X131086941Y-81205626D01*
X130950270Y-81149015D01*
X130950269Y-81149015D01*
X130950268Y-81149014D01*
X130827265Y-81066826D01*
X130722660Y-80962221D01*
X130640472Y-80839218D01*
X130623251Y-80797642D01*
X130583860Y-80702545D01*
X130555000Y-80557454D01*
X130555000Y-80409518D01*
X130583860Y-80264427D01*
X130640471Y-80127756D01*
X130722659Y-80004753D01*
X130722660Y-80004751D01*
X130827265Y-79900146D01*
X130950268Y-79817958D01*
X131086941Y-79761346D01*
X131232032Y-79732486D01*
X131379968Y-79732486D01*
X131525059Y-79761346D01*
G37*
G36*
X81245059Y-79409974D02*
G01*
X81279235Y-79424130D01*
X81381732Y-79466586D01*
X81504735Y-79548774D01*
X81609340Y-79653379D01*
X81681481Y-79761346D01*
X81691529Y-79776384D01*
X81748140Y-79913055D01*
X81777000Y-80058146D01*
X81777000Y-80206082D01*
X81760333Y-80289873D01*
X81748140Y-80351173D01*
X81691528Y-80487846D01*
X81609340Y-80610849D01*
X81504735Y-80715454D01*
X81381732Y-80797642D01*
X81381731Y-80797643D01*
X81381730Y-80797643D01*
X81245059Y-80854254D01*
X81099968Y-80883114D01*
X80952032Y-80883114D01*
X80806941Y-80854254D01*
X80670270Y-80797643D01*
X80670269Y-80797643D01*
X80670268Y-80797642D01*
X80547265Y-80715454D01*
X80442660Y-80610849D01*
X80360472Y-80487846D01*
X80303860Y-80351173D01*
X80291667Y-80289873D01*
X80275000Y-80206082D01*
X80275000Y-80058146D01*
X80303860Y-79913055D01*
X80360471Y-79776384D01*
X80370519Y-79761346D01*
X80442660Y-79653379D01*
X80547265Y-79548774D01*
X80670268Y-79466586D01*
X80772766Y-79424130D01*
X80806941Y-79409974D01*
X80952032Y-79381114D01*
X81099968Y-79381114D01*
X81245059Y-79409974D01*
G37*
G36*
X112603444Y-78787072D02*
G01*
X112776515Y-78858760D01*
X112814129Y-78883893D01*
X112932276Y-78962836D01*
X113064739Y-79095299D01*
X113064740Y-79095301D01*
X113168815Y-79251060D01*
X113240503Y-79424131D01*
X113277049Y-79607859D01*
X113277049Y-79795193D01*
X113240503Y-79978921D01*
X113168815Y-80151992D01*
X113132674Y-80206081D01*
X113064739Y-80307753D01*
X112932276Y-80440216D01*
X112872947Y-80479858D01*
X112776515Y-80544292D01*
X112603444Y-80615980D01*
X112419716Y-80652526D01*
X112232382Y-80652526D01*
X112048654Y-80615980D01*
X111875583Y-80544292D01*
X111779151Y-80479858D01*
X111719822Y-80440216D01*
X111587359Y-80307753D01*
X111519424Y-80206081D01*
X111483283Y-80151992D01*
X111411595Y-79978921D01*
X111375049Y-79795193D01*
X111375049Y-79607859D01*
X111411595Y-79424131D01*
X111483283Y-79251060D01*
X111587358Y-79095301D01*
X111587359Y-79095299D01*
X111719822Y-78962836D01*
X111837969Y-78883893D01*
X111875583Y-78858760D01*
X112048654Y-78787072D01*
X112232382Y-78750526D01*
X112419716Y-78750526D01*
X112603444Y-78787072D01*
G37*
G36*
X67899228Y-78608076D02*
G01*
X68054100Y-78672226D01*
X68193481Y-78765358D01*
X68312015Y-78883892D01*
X68405147Y-79023273D01*
X68469297Y-79178145D01*
X68502000Y-79342557D01*
X68502000Y-79510189D01*
X68469297Y-79674601D01*
X68405147Y-79829473D01*
X68312015Y-79968854D01*
X68193481Y-80087388D01*
X68054100Y-80180520D01*
X67899228Y-80244670D01*
X67734816Y-80277373D01*
X67567184Y-80277373D01*
X67402772Y-80244670D01*
X67247900Y-80180520D01*
X67108519Y-80087388D01*
X66989985Y-79968854D01*
X66896853Y-79829473D01*
X66832703Y-79674601D01*
X66800000Y-79510189D01*
X66800000Y-79342557D01*
X66832703Y-79178145D01*
X66896853Y-79023273D01*
X66989985Y-78883892D01*
X67108519Y-78765358D01*
X67247900Y-78672226D01*
X67402772Y-78608076D01*
X67567184Y-78575373D01*
X67734816Y-78575373D01*
X67899228Y-78608076D01*
G37*
G36*
X85626559Y-77890860D02*
G01*
X85707701Y-77924470D01*
X85763232Y-77947472D01*
X85886235Y-78029660D01*
X85990840Y-78134265D01*
X86073028Y-78257268D01*
X86129640Y-78393941D01*
X86158500Y-78539033D01*
X86158500Y-78686967D01*
X86129640Y-78832059D01*
X86073028Y-78968732D01*
X85990840Y-79091735D01*
X85886235Y-79196340D01*
X85763232Y-79278528D01*
X85763231Y-79278529D01*
X85763230Y-79278529D01*
X85626559Y-79335140D01*
X85481468Y-79364000D01*
X85333532Y-79364000D01*
X85188441Y-79335140D01*
X85051770Y-79278529D01*
X85051769Y-79278529D01*
X85051768Y-79278528D01*
X84928765Y-79196340D01*
X84824160Y-79091735D01*
X84741972Y-78968732D01*
X84685360Y-78832059D01*
X84656500Y-78686967D01*
X84656500Y-78539033D01*
X84685360Y-78393941D01*
X84741972Y-78257268D01*
X84824160Y-78134265D01*
X84928765Y-78029660D01*
X85051768Y-77947472D01*
X85107300Y-77924470D01*
X85188441Y-77890860D01*
X85333532Y-77862000D01*
X85481468Y-77862000D01*
X85626559Y-77890860D01*
G37*
G36*
X64597228Y-76703076D02*
G01*
X64752100Y-76767226D01*
X64891481Y-76860358D01*
X65010015Y-76978892D01*
X65103147Y-77118273D01*
X65167297Y-77273145D01*
X65200000Y-77437557D01*
X65200000Y-77605189D01*
X65167297Y-77769601D01*
X65103147Y-77924473D01*
X65010015Y-78063854D01*
X64891481Y-78182388D01*
X64752100Y-78275520D01*
X64597228Y-78339670D01*
X64432816Y-78372373D01*
X64265184Y-78372373D01*
X64100772Y-78339670D01*
X63945900Y-78275520D01*
X63806519Y-78182388D01*
X63687985Y-78063854D01*
X63594853Y-77924473D01*
X63530703Y-77769601D01*
X63498000Y-77605189D01*
X63498000Y-77437557D01*
X63530703Y-77273145D01*
X63594853Y-77118273D01*
X63687985Y-76978892D01*
X63806519Y-76860358D01*
X63945900Y-76767226D01*
X64100772Y-76703076D01*
X64265184Y-76670373D01*
X64432816Y-76670373D01*
X64597228Y-76703076D01*
G37*
G36*
X127946573Y-74198528D02*
G01*
X128043657Y-74217839D01*
X128133709Y-74255140D01*
X128298621Y-74323449D01*
X128298622Y-74323450D01*
X128528086Y-74476772D01*
X128723228Y-74671914D01*
X128764531Y-74733729D01*
X128876551Y-74901379D01*
X128982161Y-75156344D01*
X129036000Y-75427012D01*
X129036000Y-75702988D01*
X128982161Y-75973656D01*
X128876551Y-76228621D01*
X128876550Y-76228622D01*
X128723228Y-76458086D01*
X128528086Y-76653228D01*
X128428393Y-76719840D01*
X128298621Y-76806551D01*
X128172867Y-76858640D01*
X128043657Y-76912161D01*
X127953433Y-76930107D01*
X127772988Y-76966000D01*
X127497012Y-76966000D01*
X127316567Y-76930107D01*
X127226343Y-76912161D01*
X127097133Y-76858640D01*
X126971379Y-76806551D01*
X126841607Y-76719840D01*
X126741914Y-76653228D01*
X126546772Y-76458086D01*
X126393450Y-76228622D01*
X126393449Y-76228621D01*
X126287839Y-75973656D01*
X126234000Y-75702988D01*
X126234000Y-75427012D01*
X126287839Y-75156344D01*
X126393449Y-74901379D01*
X126505469Y-74733729D01*
X126546772Y-74671914D01*
X126741914Y-74476772D01*
X126971378Y-74323450D01*
X126971379Y-74323449D01*
X127136291Y-74255140D01*
X127226343Y-74217839D01*
X127323427Y-74198528D01*
X127497012Y-74164000D01*
X127772988Y-74164000D01*
X127946573Y-74198528D01*
G37*
G36*
X75876573Y-74198528D02*
G01*
X75973657Y-74217839D01*
X76063709Y-74255140D01*
X76228621Y-74323449D01*
X76228622Y-74323450D01*
X76458086Y-74476772D01*
X76653228Y-74671914D01*
X76694531Y-74733729D01*
X76806551Y-74901379D01*
X76912161Y-75156344D01*
X76966000Y-75427012D01*
X76966000Y-75702988D01*
X76912161Y-75973656D01*
X76806551Y-76228621D01*
X76806550Y-76228622D01*
X76653228Y-76458086D01*
X76458086Y-76653228D01*
X76358393Y-76719840D01*
X76228621Y-76806551D01*
X76102867Y-76858640D01*
X75973657Y-76912161D01*
X75883433Y-76930107D01*
X75702988Y-76966000D01*
X75427012Y-76966000D01*
X75246567Y-76930107D01*
X75156343Y-76912161D01*
X75027133Y-76858640D01*
X74901379Y-76806551D01*
X74771607Y-76719840D01*
X74671914Y-76653228D01*
X74476772Y-76458086D01*
X74323450Y-76228622D01*
X74323449Y-76228621D01*
X74217839Y-75973656D01*
X74164000Y-75702988D01*
X74164000Y-75427012D01*
X74217839Y-75156344D01*
X74323449Y-74901379D01*
X74435469Y-74733729D01*
X74476772Y-74671914D01*
X74671914Y-74476772D01*
X74901378Y-74323450D01*
X74901379Y-74323449D01*
X75066291Y-74255140D01*
X75156343Y-74217839D01*
X75253427Y-74198528D01*
X75427012Y-74164000D01*
X75702988Y-74164000D01*
X75876573Y-74198528D01*
G37*
G36*
X108296059Y-75414360D02*
G01*
X108432732Y-75470972D01*
X108555735Y-75553160D01*
X108660340Y-75657765D01*
X108742528Y-75780768D01*
X108799140Y-75917441D01*
X108828000Y-76062533D01*
X108828000Y-76210467D01*
X108799140Y-76355559D01*
X108742528Y-76492232D01*
X108660340Y-76615235D01*
X108555735Y-76719840D01*
X108432732Y-76802028D01*
X108432731Y-76802029D01*
X108432730Y-76802029D01*
X108296059Y-76858640D01*
X108150968Y-76887500D01*
X108003032Y-76887500D01*
X107857941Y-76858640D01*
X107721270Y-76802029D01*
X107721269Y-76802029D01*
X107721268Y-76802028D01*
X107598265Y-76719840D01*
X107493660Y-76615235D01*
X107411472Y-76492232D01*
X107354860Y-76355559D01*
X107326000Y-76210467D01*
X107326000Y-76062533D01*
X107354860Y-75917441D01*
X107411472Y-75780768D01*
X107493660Y-75657765D01*
X107598265Y-75553160D01*
X107721268Y-75470972D01*
X107857941Y-75414360D01*
X108003032Y-75385500D01*
X108150968Y-75385500D01*
X108296059Y-75414360D01*
G37*
G36*
X123628728Y-73667203D02*
G01*
X123783600Y-73731353D01*
X123922981Y-73824485D01*
X124041515Y-73943019D01*
X124134647Y-74082400D01*
X124198797Y-74237272D01*
X124231500Y-74401684D01*
X124231500Y-74569316D01*
X124198797Y-74733728D01*
X124134647Y-74888600D01*
X124041515Y-75027981D01*
X123922981Y-75146515D01*
X123783600Y-75239647D01*
X123628728Y-75303797D01*
X123464316Y-75336500D01*
X123296684Y-75336500D01*
X123132272Y-75303797D01*
X122977400Y-75239647D01*
X122838019Y-75146515D01*
X122719485Y-75027981D01*
X122626353Y-74888600D01*
X122562203Y-74733728D01*
X122529500Y-74569316D01*
X122529500Y-74401684D01*
X122562203Y-74237272D01*
X122626353Y-74082400D01*
X122719485Y-73943019D01*
X122838019Y-73824485D01*
X122977400Y-73731353D01*
X123132272Y-73667203D01*
X123296684Y-73634500D01*
X123464316Y-73634500D01*
X123628728Y-73667203D01*
G37*
G36*
X85055059Y-72810860D02*
G01*
X85098199Y-72828729D01*
X85191732Y-72867472D01*
X85314735Y-72949660D01*
X85419340Y-73054265D01*
X85501528Y-73177268D01*
X85501529Y-73177270D01*
X85558140Y-73313941D01*
X85587000Y-73459032D01*
X85587000Y-73606968D01*
X85575019Y-73667203D01*
X85558140Y-73752059D01*
X85501528Y-73888732D01*
X85419340Y-74011735D01*
X85314735Y-74116340D01*
X85191732Y-74198528D01*
X85191731Y-74198529D01*
X85191730Y-74198529D01*
X85055059Y-74255140D01*
X84909968Y-74284000D01*
X84762032Y-74284000D01*
X84616941Y-74255140D01*
X84480270Y-74198529D01*
X84480269Y-74198529D01*
X84480268Y-74198528D01*
X84357265Y-74116340D01*
X84252660Y-74011735D01*
X84170472Y-73888732D01*
X84113860Y-73752059D01*
X84096981Y-73667203D01*
X84085000Y-73606968D01*
X84085000Y-73459032D01*
X84113860Y-73313941D01*
X84170471Y-73177270D01*
X84170472Y-73177268D01*
X84252660Y-73054265D01*
X84357265Y-72949660D01*
X84480268Y-72867472D01*
X84573802Y-72828729D01*
X84616941Y-72810860D01*
X84762032Y-72782000D01*
X84909968Y-72782000D01*
X85055059Y-72810860D01*
G37*
G36*
X118341728Y-71762203D02*
G01*
X118496600Y-71826353D01*
X118635981Y-71919485D01*
X118754515Y-72038019D01*
X118847647Y-72177400D01*
X118911797Y-72332272D01*
X118944500Y-72496684D01*
X118944500Y-72664316D01*
X118911797Y-72828728D01*
X118847647Y-72983600D01*
X118754515Y-73122981D01*
X118635981Y-73241515D01*
X118496600Y-73334647D01*
X118341728Y-73398797D01*
X118177316Y-73431500D01*
X118009684Y-73431500D01*
X117845272Y-73398797D01*
X117690400Y-73334647D01*
X117551019Y-73241515D01*
X117432485Y-73122981D01*
X117339353Y-72983600D01*
X117275203Y-72828728D01*
X117242500Y-72664316D01*
X117242500Y-72496684D01*
X117275203Y-72332272D01*
X117339353Y-72177400D01*
X117432485Y-72038019D01*
X117551019Y-71919485D01*
X117690400Y-71826353D01*
X117845272Y-71762203D01*
X118009684Y-71729500D01*
X118177316Y-71729500D01*
X118341728Y-71762203D01*
G37*
G36*
X113944500Y-73431500D02*
G01*
X112242500Y-73431500D01*
X112242500Y-71729500D01*
X113944500Y-71729500D01*
X113944500Y-73431500D01*
G37*
G36*
X87418893Y-70953540D02*
G01*
X87482156Y-70963984D01*
X87602170Y-71009155D01*
X87711067Y-71076871D01*
X87711068Y-71076872D01*
X87804663Y-71164533D01*
X87860644Y-71242654D01*
X88167617Y-71774346D01*
X88207281Y-71861887D01*
X88220711Y-71919485D01*
X88236401Y-71986776D01*
X88240596Y-72114938D01*
X88219707Y-72241465D01*
X88185529Y-72332271D01*
X88174536Y-72361479D01*
X88106819Y-72470377D01*
X88019158Y-72563972D01*
X87914922Y-72638666D01*
X87798117Y-72691590D01*
X87718219Y-72710219D01*
X87673228Y-72720710D01*
X87545066Y-72724905D01*
X87545064Y-72724905D01*
X87481803Y-72714461D01*
X87418539Y-72704016D01*
X87298526Y-72658845D01*
X87189629Y-72591129D01*
X87096032Y-72503466D01*
X87040050Y-72425343D01*
X86896902Y-72177403D01*
X86733079Y-71893653D01*
X86693415Y-71806112D01*
X86669610Y-71704016D01*
X86664295Y-71681223D01*
X86660100Y-71553062D01*
X86680989Y-71426535D01*
X86726160Y-71306521D01*
X86793876Y-71197624D01*
X86881539Y-71104027D01*
X86985774Y-71029334D01*
X87102577Y-70976411D01*
X87102579Y-70976410D01*
X87182477Y-70957781D01*
X87227468Y-70947290D01*
X87355629Y-70943095D01*
X87355631Y-70943095D01*
X87418893Y-70953540D01*
G37*
G36*
X89150942Y-69953539D02*
G01*
X89214206Y-69963984D01*
X89334220Y-70009155D01*
X89443117Y-70076871D01*
X89443118Y-70076872D01*
X89536713Y-70164533D01*
X89592694Y-70242654D01*
X89899667Y-70774346D01*
X89939331Y-70861887D01*
X89957960Y-70941785D01*
X89968451Y-70986776D01*
X89972646Y-71114938D01*
X89951757Y-71241465D01*
X89906586Y-71361479D01*
X89866131Y-71426537D01*
X89838869Y-71470377D01*
X89751208Y-71563972D01*
X89646972Y-71638666D01*
X89530167Y-71691590D01*
X89450269Y-71710219D01*
X89405278Y-71720710D01*
X89277116Y-71724905D01*
X89277114Y-71724905D01*
X89213852Y-71714460D01*
X89150589Y-71704016D01*
X89030576Y-71658845D01*
X88921679Y-71591129D01*
X88828082Y-71503466D01*
X88791457Y-71452355D01*
X88772102Y-71425346D01*
X88465129Y-70893653D01*
X88425465Y-70806112D01*
X88401660Y-70704016D01*
X88396345Y-70681223D01*
X88392150Y-70553062D01*
X88413039Y-70426535D01*
X88458210Y-70306521D01*
X88525926Y-70197624D01*
X88613589Y-70104027D01*
X88717824Y-70029334D01*
X88834627Y-69976411D01*
X88834629Y-69976410D01*
X88914527Y-69957781D01*
X88959518Y-69947290D01*
X89087679Y-69943095D01*
X89087681Y-69943095D01*
X89150942Y-69953539D01*
G37*
G36*
X90882993Y-68953539D02*
G01*
X90946257Y-68963984D01*
X91066271Y-69009155D01*
X91175168Y-69076871D01*
X91175169Y-69076872D01*
X91268764Y-69164533D01*
X91324745Y-69242654D01*
X91631718Y-69774346D01*
X91671382Y-69861887D01*
X91690011Y-69941785D01*
X91700502Y-69986776D01*
X91703451Y-70076871D01*
X91704697Y-70114940D01*
X91699484Y-70146515D01*
X91683808Y-70241465D01*
X91638637Y-70361479D01*
X91598182Y-70426537D01*
X91570920Y-70470377D01*
X91483259Y-70563972D01*
X91379023Y-70638666D01*
X91262218Y-70691590D01*
X91182320Y-70710219D01*
X91137329Y-70720710D01*
X91009167Y-70724905D01*
X91009165Y-70724905D01*
X90945903Y-70714460D01*
X90882640Y-70704016D01*
X90762627Y-70658845D01*
X90653730Y-70591129D01*
X90560133Y-70503466D01*
X90523508Y-70452355D01*
X90504153Y-70425346D01*
X90433976Y-70303795D01*
X90396940Y-70239647D01*
X90197180Y-69893653D01*
X90157516Y-69806112D01*
X90128397Y-69681226D01*
X90128396Y-69681223D01*
X90124201Y-69553062D01*
X90145090Y-69426535D01*
X90190261Y-69306521D01*
X90257977Y-69197624D01*
X90345640Y-69104027D01*
X90449875Y-69029334D01*
X90566678Y-68976411D01*
X90566680Y-68976410D01*
X90662599Y-68954045D01*
X90691569Y-68947290D01*
X90819730Y-68943095D01*
X90819732Y-68943095D01*
X90882993Y-68953539D01*
G37*
G36*
X123628728Y-68667203D02*
G01*
X123783600Y-68731353D01*
X123922981Y-68824485D01*
X124041515Y-68943019D01*
X124134647Y-69082400D01*
X124198797Y-69237272D01*
X124231500Y-69401684D01*
X124231500Y-69569316D01*
X124198797Y-69733728D01*
X124134647Y-69888600D01*
X124041515Y-70027981D01*
X123922981Y-70146515D01*
X123783600Y-70239647D01*
X123628728Y-70303797D01*
X123464316Y-70336500D01*
X123296684Y-70336500D01*
X123132272Y-70303797D01*
X122977400Y-70239647D01*
X122838019Y-70146515D01*
X122719485Y-70027981D01*
X122626353Y-69888600D01*
X122562203Y-69733728D01*
X122529500Y-69569316D01*
X122529500Y-69401684D01*
X122562203Y-69237272D01*
X122626353Y-69082400D01*
X122719485Y-68943019D01*
X122838019Y-68824485D01*
X122977400Y-68731353D01*
X123132272Y-68667203D01*
X123296684Y-68634500D01*
X123464316Y-68634500D01*
X123628728Y-68667203D01*
G37*
G36*
X104486059Y-68815246D02*
G01*
X104622732Y-68871858D01*
X104745735Y-68954046D01*
X104850340Y-69058651D01*
X104927604Y-69174285D01*
X104932529Y-69181656D01*
X104989140Y-69318327D01*
X105018000Y-69463418D01*
X105018000Y-69611354D01*
X104989140Y-69756445D01*
X104934400Y-69888600D01*
X104932528Y-69893118D01*
X104850340Y-70016121D01*
X104745735Y-70120726D01*
X104622732Y-70202914D01*
X104622731Y-70202915D01*
X104622730Y-70202915D01*
X104486059Y-70259526D01*
X104340968Y-70288386D01*
X104193032Y-70288386D01*
X104047941Y-70259526D01*
X103911270Y-70202915D01*
X103911269Y-70202915D01*
X103911268Y-70202914D01*
X103788265Y-70120726D01*
X103683660Y-70016121D01*
X103601472Y-69893118D01*
X103599601Y-69888600D01*
X103544860Y-69756445D01*
X103516000Y-69611354D01*
X103516000Y-69463418D01*
X103544860Y-69318327D01*
X103601471Y-69181656D01*
X103606396Y-69174285D01*
X103683660Y-69058651D01*
X103788265Y-68954046D01*
X103911268Y-68871858D01*
X104047941Y-68815246D01*
X104193032Y-68786386D01*
X104340968Y-68786386D01*
X104486059Y-68815246D01*
G37*
G36*
X92725864Y-67786496D02*
G01*
X92762138Y-67800149D01*
X92795059Y-67820622D01*
X92823348Y-67847117D01*
X92849522Y-67883641D01*
X93571044Y-69133356D01*
X93589589Y-69174285D01*
X93598392Y-69212038D01*
X93599660Y-69250779D01*
X93593347Y-69289021D01*
X93579694Y-69325295D01*
X93559221Y-69358217D01*
X93532727Y-69386505D01*
X93496200Y-69412680D01*
X92722801Y-69859201D01*
X92681872Y-69877746D01*
X92644119Y-69886549D01*
X92605378Y-69887817D01*
X92567136Y-69881504D01*
X92530862Y-69867851D01*
X92497941Y-69847378D01*
X92469652Y-69820883D01*
X92443478Y-69784359D01*
X91721956Y-68534644D01*
X91703411Y-68493715D01*
X91694608Y-68455962D01*
X91693340Y-68417221D01*
X91699653Y-68378979D01*
X91713306Y-68342705D01*
X91733779Y-68309783D01*
X91760273Y-68281495D01*
X91796800Y-68255320D01*
X92570199Y-67808799D01*
X92611128Y-67790254D01*
X92648881Y-67781451D01*
X92687622Y-67780183D01*
X92725864Y-67786496D01*
G37*
G36*
X85123204Y-63526200D02*
G01*
X85256096Y-63566513D01*
X85378570Y-63631977D01*
X85485923Y-63720078D01*
X85574023Y-63827429D01*
X85639487Y-63949903D01*
X85679800Y-64082795D01*
X85690000Y-64186364D01*
X85690000Y-65563636D01*
X85679800Y-65667205D01*
X85639487Y-65800097D01*
X85574023Y-65922571D01*
X85485923Y-66029923D01*
X85378571Y-66118023D01*
X85256097Y-66183487D01*
X85123205Y-66223800D01*
X84985000Y-66237411D01*
X84846796Y-66223800D01*
X84713904Y-66183487D01*
X84591430Y-66118023D01*
X84484078Y-66029923D01*
X84395978Y-65922571D01*
X84330514Y-65800097D01*
X84290201Y-65667205D01*
X84280001Y-65563636D01*
X84280000Y-64186365D01*
X84290200Y-64082796D01*
X84330513Y-63949904D01*
X84395977Y-63827430D01*
X84484078Y-63720077D01*
X84591429Y-63631977D01*
X84713903Y-63566513D01*
X84846795Y-63526200D01*
X84985000Y-63512589D01*
X85123204Y-63526200D01*
G37*
G36*
X88523204Y-63526200D02*
G01*
X88656096Y-63566513D01*
X88778570Y-63631977D01*
X88885923Y-63720078D01*
X88974023Y-63827429D01*
X89039487Y-63949903D01*
X89079800Y-64082795D01*
X89090000Y-64186364D01*
X89090000Y-65563636D01*
X89079800Y-65667205D01*
X89039487Y-65800097D01*
X88974023Y-65922571D01*
X88885923Y-66029923D01*
X88778571Y-66118023D01*
X88656097Y-66183487D01*
X88523205Y-66223800D01*
X88385000Y-66237411D01*
X88246796Y-66223800D01*
X88113904Y-66183487D01*
X87991430Y-66118023D01*
X87884078Y-66029923D01*
X87795978Y-65922571D01*
X87730514Y-65800097D01*
X87690201Y-65667205D01*
X87680001Y-65563636D01*
X87680000Y-64186365D01*
X87690200Y-64082796D01*
X87730513Y-63949904D01*
X87795977Y-63827430D01*
X87884078Y-63720077D01*
X87991429Y-63631977D01*
X88113903Y-63566513D01*
X88246795Y-63526200D01*
X88385000Y-63512589D01*
X88523204Y-63526200D01*
G37*
G36*
X93723204Y-63526200D02*
G01*
X93856096Y-63566513D01*
X93978570Y-63631977D01*
X94085923Y-63720078D01*
X94174023Y-63827429D01*
X94239487Y-63949903D01*
X94279800Y-64082795D01*
X94290000Y-64186364D01*
X94290000Y-65563636D01*
X94279800Y-65667205D01*
X94239487Y-65800097D01*
X94174023Y-65922571D01*
X94085923Y-66029923D01*
X93978571Y-66118023D01*
X93856097Y-66183487D01*
X93723205Y-66223800D01*
X93585000Y-66237411D01*
X93446796Y-66223800D01*
X93313904Y-66183487D01*
X93191430Y-66118023D01*
X93084078Y-66029923D01*
X92995978Y-65922571D01*
X92930514Y-65800097D01*
X92890201Y-65667205D01*
X92880001Y-65563636D01*
X92880000Y-64186365D01*
X92890200Y-64082796D01*
X92930513Y-63949904D01*
X92995977Y-63827430D01*
X93084078Y-63720077D01*
X93191429Y-63631977D01*
X93313903Y-63566513D01*
X93446795Y-63526200D01*
X93585000Y-63512589D01*
X93723204Y-63526200D01*
G37*
G36*
X109248205Y-63269200D02*
G01*
X109381097Y-63309513D01*
X109503571Y-63374977D01*
X109610923Y-63463077D01*
X109699023Y-63570429D01*
X109764487Y-63692903D01*
X109804800Y-63825795D01*
X109815000Y-63929364D01*
X109815000Y-65306636D01*
X109804800Y-65410205D01*
X109764487Y-65543097D01*
X109699023Y-65665571D01*
X109610923Y-65772922D01*
X109503570Y-65861023D01*
X109381096Y-65926487D01*
X109248204Y-65966800D01*
X109110000Y-65980411D01*
X108971795Y-65966800D01*
X108838903Y-65926487D01*
X108716429Y-65861023D01*
X108609078Y-65772923D01*
X108520977Y-65665570D01*
X108455513Y-65543096D01*
X108415200Y-65410204D01*
X108405000Y-65306635D01*
X108405001Y-63929364D01*
X108415201Y-63825795D01*
X108455514Y-63692903D01*
X108520978Y-63570429D01*
X108609078Y-63463077D01*
X108716430Y-63374977D01*
X108838904Y-63309513D01*
X108971796Y-63269200D01*
X109110000Y-63255589D01*
X109248205Y-63269200D01*
G37*
G36*
X119248205Y-63269200D02*
G01*
X119381097Y-63309513D01*
X119503571Y-63374977D01*
X119610923Y-63463077D01*
X119699023Y-63570429D01*
X119764487Y-63692903D01*
X119804800Y-63825795D01*
X119815000Y-63929364D01*
X119815000Y-65306636D01*
X119804800Y-65410205D01*
X119764487Y-65543097D01*
X119699023Y-65665571D01*
X119610923Y-65772922D01*
X119503570Y-65861023D01*
X119381096Y-65926487D01*
X119248204Y-65966800D01*
X119110000Y-65980411D01*
X118971795Y-65966800D01*
X118838903Y-65926487D01*
X118716429Y-65861023D01*
X118609078Y-65772923D01*
X118520977Y-65665570D01*
X118455513Y-65543096D01*
X118415200Y-65410204D01*
X118405000Y-65306635D01*
X118405001Y-63929364D01*
X118415201Y-63825795D01*
X118455514Y-63692903D01*
X118520978Y-63570429D01*
X118609078Y-63463077D01*
X118716430Y-63374977D01*
X118838904Y-63309513D01*
X118971796Y-63269200D01*
X119110000Y-63255589D01*
X119248205Y-63269200D01*
G37*
G36*
X114299890Y-63992017D02*
G01*
X114418364Y-64041091D01*
X114524988Y-64112335D01*
X114615665Y-64203012D01*
X114686909Y-64309636D01*
X114735983Y-64428110D01*
X114761000Y-64553882D01*
X114761000Y-64682118D01*
X114735983Y-64807890D01*
X114686909Y-64926364D01*
X114615665Y-65032988D01*
X114524988Y-65123665D01*
X114418364Y-65194909D01*
X114418363Y-65194910D01*
X114418362Y-65194910D01*
X114299890Y-65243983D01*
X114174119Y-65269000D01*
X114045881Y-65269000D01*
X113920110Y-65243983D01*
X113801638Y-65194910D01*
X113801637Y-65194910D01*
X113801636Y-65194909D01*
X113695012Y-65123665D01*
X113604335Y-65032988D01*
X113533091Y-64926364D01*
X113484017Y-64807890D01*
X113459000Y-64682118D01*
X113459000Y-64553882D01*
X113484017Y-64428110D01*
X113533091Y-64309636D01*
X113604335Y-64203012D01*
X113695012Y-64112335D01*
X113801636Y-64041091D01*
X113920110Y-63992017D01*
X114045881Y-63967000D01*
X114174119Y-63967000D01*
X114299890Y-63992017D01*
G37*
G36*
X76524995Y-63175158D02*
G01*
X76658936Y-63230638D01*
X76661668Y-63231770D01*
X76784671Y-63313958D01*
X76889276Y-63418563D01*
X76961197Y-63526201D01*
X76971465Y-63541568D01*
X77008914Y-63631977D01*
X77028076Y-63678239D01*
X77056936Y-63823331D01*
X77056936Y-63971265D01*
X77028076Y-64116357D01*
X76971464Y-64253030D01*
X76889276Y-64376033D01*
X76784671Y-64480638D01*
X76661668Y-64562826D01*
X76661667Y-64562827D01*
X76661666Y-64562827D01*
X76524995Y-64619438D01*
X76379904Y-64648298D01*
X76231968Y-64648298D01*
X76086877Y-64619438D01*
X75950206Y-64562827D01*
X75950205Y-64562827D01*
X75950204Y-64562826D01*
X75827201Y-64480638D01*
X75722596Y-64376033D01*
X75640408Y-64253030D01*
X75583796Y-64116357D01*
X75554936Y-63971265D01*
X75554936Y-63823331D01*
X75583796Y-63678239D01*
X75602958Y-63631977D01*
X75640407Y-63541568D01*
X75650675Y-63526201D01*
X75722596Y-63418563D01*
X75827201Y-63313958D01*
X75950204Y-63231770D01*
X75952937Y-63230638D01*
X76086877Y-63175158D01*
X76231968Y-63146298D01*
X76379904Y-63146298D01*
X76524995Y-63175158D01*
G37*
G36*
X78690059Y-61925158D02*
G01*
X78824000Y-61980638D01*
X78826732Y-61981770D01*
X78949735Y-62063958D01*
X79054340Y-62168563D01*
X79054341Y-62168565D01*
X79136529Y-62291568D01*
X79193140Y-62428239D01*
X79222000Y-62573330D01*
X79222000Y-62721266D01*
X79193140Y-62866357D01*
X79165536Y-62933000D01*
X79136528Y-63003030D01*
X79054340Y-63126033D01*
X78949735Y-63230638D01*
X78826732Y-63312826D01*
X78826731Y-63312827D01*
X78826730Y-63312827D01*
X78690059Y-63369438D01*
X78544968Y-63398298D01*
X78397032Y-63398298D01*
X78251941Y-63369438D01*
X78115270Y-63312827D01*
X78115269Y-63312827D01*
X78115268Y-63312826D01*
X77992265Y-63230638D01*
X77887660Y-63126033D01*
X77805472Y-63003030D01*
X77776465Y-62933000D01*
X77748860Y-62866357D01*
X77720000Y-62721266D01*
X77720000Y-62573330D01*
X77748860Y-62428239D01*
X77805471Y-62291568D01*
X77887659Y-62168565D01*
X77887660Y-62168563D01*
X77992265Y-62063958D01*
X78115268Y-61981770D01*
X78118001Y-61980638D01*
X78251941Y-61925158D01*
X78397032Y-61896298D01*
X78544968Y-61896298D01*
X78690059Y-61925158D01*
G37*
G36*
X98214903Y-60479075D02*
G01*
X98293315Y-60511554D01*
X98442571Y-60573378D01*
X98647466Y-60710285D01*
X98821715Y-60884534D01*
X98926641Y-61041566D01*
X98958623Y-61089431D01*
X99052925Y-61317097D01*
X99101000Y-61558786D01*
X99101000Y-61805214D01*
X99052925Y-62046903D01*
X99046330Y-62062826D01*
X98958622Y-62274571D01*
X98821715Y-62479466D01*
X98647466Y-62653715D01*
X98442571Y-62790622D01*
X98442570Y-62790623D01*
X98442569Y-62790623D01*
X98214903Y-62884925D01*
X97973214Y-62933000D01*
X97726786Y-62933000D01*
X97485097Y-62884925D01*
X97257431Y-62790623D01*
X97257430Y-62790623D01*
X97257429Y-62790622D01*
X97052534Y-62653715D01*
X96878285Y-62479466D01*
X96741378Y-62274571D01*
X96653671Y-62062826D01*
X96647075Y-62046903D01*
X96599000Y-61805214D01*
X96599000Y-61558786D01*
X96647075Y-61317097D01*
X96741377Y-61089431D01*
X96773359Y-61041566D01*
X96878285Y-60884534D01*
X97052534Y-60710285D01*
X97257429Y-60573378D01*
X97406686Y-60511554D01*
X97485097Y-60479075D01*
X97726786Y-60431000D01*
X97973214Y-60431000D01*
X98214903Y-60479075D01*
G37*
G36*
X105714903Y-60479075D02*
G01*
X105793315Y-60511554D01*
X105942571Y-60573378D01*
X106147466Y-60710285D01*
X106321715Y-60884534D01*
X106426641Y-61041566D01*
X106458623Y-61089431D01*
X106552925Y-61317097D01*
X106601000Y-61558786D01*
X106601000Y-61805214D01*
X106552925Y-62046903D01*
X106546330Y-62062826D01*
X106458622Y-62274571D01*
X106321715Y-62479466D01*
X106147466Y-62653715D01*
X105942571Y-62790622D01*
X105942570Y-62790623D01*
X105942569Y-62790623D01*
X105714903Y-62884925D01*
X105473214Y-62933000D01*
X105226786Y-62933000D01*
X104985097Y-62884925D01*
X104757431Y-62790623D01*
X104757430Y-62790623D01*
X104757429Y-62790622D01*
X104552534Y-62653715D01*
X104378285Y-62479466D01*
X104241378Y-62274571D01*
X104153671Y-62062826D01*
X104147075Y-62046903D01*
X104099000Y-61805214D01*
X104099000Y-61558786D01*
X104147075Y-61317097D01*
X104241377Y-61089431D01*
X104273359Y-61041566D01*
X104378285Y-60884534D01*
X104552534Y-60710285D01*
X104757429Y-60573378D01*
X104906686Y-60511554D01*
X104985097Y-60479075D01*
X105226786Y-60431000D01*
X105473214Y-60431000D01*
X105714903Y-60479075D01*
G37*
G36*
X80855123Y-60675158D02*
G01*
X80939925Y-60710284D01*
X80991796Y-60731770D01*
X81114799Y-60813958D01*
X81219404Y-60918563D01*
X81219405Y-60918565D01*
X81301593Y-61041568D01*
X81358204Y-61178239D01*
X81387064Y-61323330D01*
X81387064Y-61471266D01*
X81369655Y-61558786D01*
X81358204Y-61616357D01*
X81301592Y-61753030D01*
X81219404Y-61876033D01*
X81114799Y-61980638D01*
X80991796Y-62062826D01*
X80991795Y-62062827D01*
X80991794Y-62062827D01*
X80855123Y-62119438D01*
X80710032Y-62148298D01*
X80562096Y-62148298D01*
X80417005Y-62119438D01*
X80280334Y-62062827D01*
X80280333Y-62062827D01*
X80280332Y-62062826D01*
X80157329Y-61980638D01*
X80052724Y-61876033D01*
X79970536Y-61753030D01*
X79913924Y-61616357D01*
X79902473Y-61558786D01*
X79885064Y-61471266D01*
X79885064Y-61323330D01*
X79913924Y-61178239D01*
X79970535Y-61041568D01*
X80052723Y-60918565D01*
X80052724Y-60918563D01*
X80157329Y-60813958D01*
X80280332Y-60731770D01*
X80332204Y-60710284D01*
X80417005Y-60675158D01*
X80562096Y-60646298D01*
X80710032Y-60646298D01*
X80855123Y-60675158D01*
G37*
G36*
X74874995Y-60317274D02*
G01*
X75008936Y-60372754D01*
X75011668Y-60373886D01*
X75134671Y-60456074D01*
X75239276Y-60560679D01*
X75297603Y-60647972D01*
X75321465Y-60683684D01*
X75378076Y-60820355D01*
X75397611Y-60918563D01*
X75406936Y-60965447D01*
X75406936Y-61113381D01*
X75378076Y-61258473D01*
X75321464Y-61395146D01*
X75239276Y-61518149D01*
X75134671Y-61622754D01*
X75011668Y-61704942D01*
X75011667Y-61704943D01*
X75011666Y-61704943D01*
X74874995Y-61761554D01*
X74729904Y-61790414D01*
X74581968Y-61790414D01*
X74436877Y-61761554D01*
X74300206Y-61704943D01*
X74300205Y-61704943D01*
X74300204Y-61704942D01*
X74177201Y-61622754D01*
X74072596Y-61518149D01*
X73990408Y-61395146D01*
X73933796Y-61258473D01*
X73904936Y-61113381D01*
X73904936Y-60965447D01*
X73914262Y-60918563D01*
X73933796Y-60820355D01*
X73990407Y-60683684D01*
X74014269Y-60647972D01*
X74072596Y-60560679D01*
X74177201Y-60456074D01*
X74300204Y-60373886D01*
X74302937Y-60372754D01*
X74436877Y-60317274D01*
X74581968Y-60288414D01*
X74729904Y-60288414D01*
X74874995Y-60317274D01*
G37*
G36*
X114368690Y-58317479D02*
G01*
X114496780Y-58342957D01*
X114738097Y-58442914D01*
X114771818Y-58465446D01*
X114955275Y-58588028D01*
X115139972Y-58772725D01*
X115212036Y-58880576D01*
X115269783Y-58967000D01*
X115285087Y-58989905D01*
X115296785Y-59018147D01*
X115385043Y-59231220D01*
X115436000Y-59487400D01*
X115436000Y-59748600D01*
X115385043Y-60004780D01*
X115285086Y-60246097D01*
X115237527Y-60317274D01*
X115144784Y-60456074D01*
X115139971Y-60463276D01*
X114955276Y-60647971D01*
X114738097Y-60793086D01*
X114496780Y-60893043D01*
X114368690Y-60918522D01*
X114240601Y-60944000D01*
X113979399Y-60944000D01*
X113851310Y-60918522D01*
X113723220Y-60893043D01*
X113481903Y-60793086D01*
X113264724Y-60647971D01*
X113080029Y-60463276D01*
X113075217Y-60456074D01*
X112982473Y-60317274D01*
X112934914Y-60246097D01*
X112834957Y-60004780D01*
X112784000Y-59748600D01*
X112784000Y-59487400D01*
X112834957Y-59231220D01*
X112923215Y-59018147D01*
X112934913Y-58989905D01*
X112950218Y-58967000D01*
X113007964Y-58880576D01*
X113080028Y-58772725D01*
X113264725Y-58588028D01*
X113448182Y-58465446D01*
X113481903Y-58442914D01*
X113723220Y-58342957D01*
X113851310Y-58317479D01*
X113979399Y-58292000D01*
X114240601Y-58292000D01*
X114368690Y-58317479D01*
G37*
G36*
X77040059Y-59067274D02*
G01*
X77174000Y-59122754D01*
X77176732Y-59123886D01*
X77299735Y-59206074D01*
X77404340Y-59310679D01*
X77486528Y-59433682D01*
X77543140Y-59570355D01*
X77572000Y-59715447D01*
X77572000Y-59863381D01*
X77543140Y-60008473D01*
X77486528Y-60145146D01*
X77404340Y-60268149D01*
X77299735Y-60372754D01*
X77176732Y-60454942D01*
X77176731Y-60454943D01*
X77176730Y-60454943D01*
X77040059Y-60511554D01*
X76894968Y-60540414D01*
X76747032Y-60540414D01*
X76601941Y-60511554D01*
X76465270Y-60454943D01*
X76465269Y-60454943D01*
X76465268Y-60454942D01*
X76342265Y-60372754D01*
X76237660Y-60268149D01*
X76155472Y-60145146D01*
X76098860Y-60008473D01*
X76070000Y-59863381D01*
X76070000Y-59715447D01*
X76098860Y-59570355D01*
X76155472Y-59433682D01*
X76237660Y-59310679D01*
X76342265Y-59206074D01*
X76465268Y-59123886D01*
X76468001Y-59122754D01*
X76601941Y-59067274D01*
X76747032Y-59038414D01*
X76894968Y-59038414D01*
X77040059Y-59067274D01*
G37*
G36*
X119299890Y-58992017D02*
G01*
X119411902Y-59038414D01*
X119418364Y-59041091D01*
X119524988Y-59112335D01*
X119615665Y-59203012D01*
X119686909Y-59309636D01*
X119735983Y-59428110D01*
X119761000Y-59553882D01*
X119761000Y-59682118D01*
X119735983Y-59807890D01*
X119686909Y-59926364D01*
X119615665Y-60032988D01*
X119524988Y-60123665D01*
X119418364Y-60194909D01*
X119418363Y-60194910D01*
X119418362Y-60194910D01*
X119299890Y-60243983D01*
X119174119Y-60269000D01*
X119045881Y-60269000D01*
X118920110Y-60243983D01*
X118801638Y-60194910D01*
X118801637Y-60194910D01*
X118801636Y-60194909D01*
X118695012Y-60123665D01*
X118604335Y-60032988D01*
X118533091Y-59926364D01*
X118484017Y-59807890D01*
X118459000Y-59682118D01*
X118459000Y-59553882D01*
X118484017Y-59428110D01*
X118533091Y-59309636D01*
X118604335Y-59203012D01*
X118695012Y-59112335D01*
X118801636Y-59041091D01*
X118808099Y-59038414D01*
X118920110Y-58992017D01*
X119045881Y-58967000D01*
X119174119Y-58967000D01*
X119299890Y-58992017D01*
G37*
G36*
X109299890Y-58992017D02*
G01*
X109411902Y-59038414D01*
X109418364Y-59041091D01*
X109524988Y-59112335D01*
X109615665Y-59203012D01*
X109686909Y-59309636D01*
X109735983Y-59428110D01*
X109761000Y-59553882D01*
X109761000Y-59682118D01*
X109735983Y-59807890D01*
X109686909Y-59926364D01*
X109615665Y-60032988D01*
X109524988Y-60123665D01*
X109418364Y-60194909D01*
X109418363Y-60194910D01*
X109418362Y-60194910D01*
X109299890Y-60243983D01*
X109174119Y-60269000D01*
X109045881Y-60269000D01*
X108920110Y-60243983D01*
X108801638Y-60194910D01*
X108801637Y-60194910D01*
X108801636Y-60194909D01*
X108695012Y-60123665D01*
X108604335Y-60032988D01*
X108533091Y-59926364D01*
X108484017Y-59807890D01*
X108459000Y-59682118D01*
X108459000Y-59553882D01*
X108484017Y-59428110D01*
X108533091Y-59309636D01*
X108604335Y-59203012D01*
X108695012Y-59112335D01*
X108801636Y-59041091D01*
X108808099Y-59038414D01*
X108920110Y-58992017D01*
X109045881Y-58967000D01*
X109174119Y-58967000D01*
X109299890Y-58992017D01*
G37*
G36*
X79205123Y-57817274D02*
G01*
X79341796Y-57873886D01*
X79464799Y-57956074D01*
X79569404Y-58060679D01*
X79569405Y-58060681D01*
X79651593Y-58183684D01*
X79708204Y-58320355D01*
X79737064Y-58465446D01*
X79737064Y-58613382D01*
X79732057Y-58638553D01*
X79708204Y-58758473D01*
X79651592Y-58895146D01*
X79569404Y-59018149D01*
X79464799Y-59122754D01*
X79341796Y-59204942D01*
X79341795Y-59204943D01*
X79341794Y-59204943D01*
X79205123Y-59261554D01*
X79060032Y-59290414D01*
X78912096Y-59290414D01*
X78767005Y-59261554D01*
X78630334Y-59204943D01*
X78630333Y-59204943D01*
X78630332Y-59204942D01*
X78507329Y-59122754D01*
X78402724Y-59018149D01*
X78320536Y-58895146D01*
X78263924Y-58758473D01*
X78240071Y-58638553D01*
X78235064Y-58613382D01*
X78235064Y-58465446D01*
X78263924Y-58320355D01*
X78320535Y-58183684D01*
X78402723Y-58060681D01*
X78402724Y-58060679D01*
X78507329Y-57956074D01*
X78630332Y-57873886D01*
X78767005Y-57817274D01*
X78912096Y-57788414D01*
X79060032Y-57788414D01*
X79205123Y-57817274D01*
G37*
G36*
X84742807Y-56027648D02*
G01*
X84894550Y-56073678D01*
X85034397Y-56148428D01*
X85156975Y-56249025D01*
X85257572Y-56371602D01*
X85332322Y-56511449D01*
X85378352Y-56663192D01*
X85390000Y-56781454D01*
X85390000Y-58368546D01*
X85378352Y-58486808D01*
X85332322Y-58638551D01*
X85257572Y-58778398D01*
X85156975Y-58900975D01*
X85034398Y-59001572D01*
X84894551Y-59076322D01*
X84742808Y-59122352D01*
X84585000Y-59137895D01*
X84427193Y-59122352D01*
X84275450Y-59076322D01*
X84135603Y-59001572D01*
X84013026Y-58900975D01*
X83912429Y-58778398D01*
X83837679Y-58638551D01*
X83791649Y-58486808D01*
X83780001Y-58368546D01*
X83780000Y-56781455D01*
X83791648Y-56663193D01*
X83837678Y-56511450D01*
X83912428Y-56371603D01*
X84013025Y-56249025D01*
X84135602Y-56148428D01*
X84275449Y-56073678D01*
X84427192Y-56027648D01*
X84585000Y-56012105D01*
X84742807Y-56027648D01*
G37*
G36*
X94642807Y-56027648D02*
G01*
X94794550Y-56073678D01*
X94934397Y-56148428D01*
X95056975Y-56249025D01*
X95157572Y-56371602D01*
X95232322Y-56511449D01*
X95278352Y-56663192D01*
X95290000Y-56781454D01*
X95290000Y-58368546D01*
X95278352Y-58486808D01*
X95232322Y-58638551D01*
X95157572Y-58778398D01*
X95056975Y-58900975D01*
X94934398Y-59001572D01*
X94794551Y-59076322D01*
X94642808Y-59122352D01*
X94485000Y-59137895D01*
X94327193Y-59122352D01*
X94175450Y-59076322D01*
X94035603Y-59001572D01*
X93913026Y-58900975D01*
X93812429Y-58778398D01*
X93737679Y-58638551D01*
X93691649Y-58486808D01*
X93680001Y-58368546D01*
X93680000Y-56781455D01*
X93691648Y-56663193D01*
X93737678Y-56511450D01*
X93812428Y-56371603D01*
X93913025Y-56249025D01*
X94035602Y-56148428D01*
X94175449Y-56073678D01*
X94327192Y-56027648D01*
X94485000Y-56012105D01*
X94642807Y-56027648D01*
G37*
G36*
X98214903Y-55479075D02*
G01*
X98442571Y-55573378D01*
X98647466Y-55710285D01*
X98821715Y-55884534D01*
X98958622Y-56089429D01*
X98958623Y-56089431D01*
X99052925Y-56317097D01*
X99082743Y-56467000D01*
X99101000Y-56558787D01*
X99101000Y-56805213D01*
X99052925Y-57046903D01*
X98958622Y-57274571D01*
X98821715Y-57479466D01*
X98647466Y-57653715D01*
X98442571Y-57790622D01*
X98442570Y-57790623D01*
X98442569Y-57790623D01*
X98214903Y-57884925D01*
X97973214Y-57933000D01*
X97726786Y-57933000D01*
X97485097Y-57884925D01*
X97257431Y-57790623D01*
X97257430Y-57790623D01*
X97257429Y-57790622D01*
X97052534Y-57653715D01*
X96878285Y-57479466D01*
X96741378Y-57274571D01*
X96647075Y-57046903D01*
X96599000Y-56805213D01*
X96599000Y-56558787D01*
X96617258Y-56467000D01*
X96647075Y-56317097D01*
X96741377Y-56089431D01*
X96741378Y-56089429D01*
X96878285Y-55884534D01*
X97052534Y-55710285D01*
X97257429Y-55573378D01*
X97485097Y-55479075D01*
X97726786Y-55431000D01*
X97973214Y-55431000D01*
X98214903Y-55479075D01*
G37*
G36*
X105714903Y-55479075D02*
G01*
X105942571Y-55573378D01*
X106147466Y-55710285D01*
X106321715Y-55884534D01*
X106458622Y-56089429D01*
X106458623Y-56089431D01*
X106552925Y-56317097D01*
X106582743Y-56467000D01*
X106601000Y-56558787D01*
X106601000Y-56805213D01*
X106552925Y-57046903D01*
X106458622Y-57274571D01*
X106321715Y-57479466D01*
X106147466Y-57653715D01*
X105942571Y-57790622D01*
X105942570Y-57790623D01*
X105942569Y-57790623D01*
X105714903Y-57884925D01*
X105473214Y-57933000D01*
X105226786Y-57933000D01*
X104985097Y-57884925D01*
X104757431Y-57790623D01*
X104757430Y-57790623D01*
X104757429Y-57790622D01*
X104552534Y-57653715D01*
X104378285Y-57479466D01*
X104241378Y-57274571D01*
X104147075Y-57046903D01*
X104099000Y-56805213D01*
X104099000Y-56558787D01*
X104117258Y-56467000D01*
X104147075Y-56317097D01*
X104241377Y-56089431D01*
X104241378Y-56089429D01*
X104378285Y-55884534D01*
X104552534Y-55710285D01*
X104757429Y-55573378D01*
X104985097Y-55479075D01*
X105226786Y-55431000D01*
X105473214Y-55431000D01*
X105714903Y-55479075D01*
G37*
G36*
X119299890Y-56492017D02*
G01*
X119418364Y-56541091D01*
X119524988Y-56612335D01*
X119615665Y-56703012D01*
X119686909Y-56809636D01*
X119735983Y-56928110D01*
X119761000Y-57053882D01*
X119761000Y-57182118D01*
X119735983Y-57307890D01*
X119686909Y-57426364D01*
X119615665Y-57532988D01*
X119524988Y-57623665D01*
X119418364Y-57694909D01*
X119418363Y-57694910D01*
X119418362Y-57694910D01*
X119299890Y-57743983D01*
X119174119Y-57769000D01*
X119045881Y-57769000D01*
X118920110Y-57743983D01*
X118801638Y-57694910D01*
X118801637Y-57694910D01*
X118801636Y-57694909D01*
X118695012Y-57623665D01*
X118604335Y-57532988D01*
X118533091Y-57426364D01*
X118484017Y-57307890D01*
X118459000Y-57182118D01*
X118459000Y-57053882D01*
X118484017Y-56928110D01*
X118533091Y-56809636D01*
X118604335Y-56703012D01*
X118695012Y-56612335D01*
X118801636Y-56541091D01*
X118920110Y-56492017D01*
X119045881Y-56467000D01*
X119174119Y-56467000D01*
X119299890Y-56492017D01*
G37*
G36*
X109299890Y-56492017D02*
G01*
X109418364Y-56541091D01*
X109524988Y-56612335D01*
X109615665Y-56703012D01*
X109686909Y-56809636D01*
X109735983Y-56928110D01*
X109761000Y-57053882D01*
X109761000Y-57182118D01*
X109735983Y-57307890D01*
X109686909Y-57426364D01*
X109615665Y-57532988D01*
X109524988Y-57623665D01*
X109418364Y-57694909D01*
X109418363Y-57694910D01*
X109418362Y-57694910D01*
X109299890Y-57743983D01*
X109174119Y-57769000D01*
X109045881Y-57769000D01*
X108920110Y-57743983D01*
X108801638Y-57694910D01*
X108801637Y-57694910D01*
X108801636Y-57694909D01*
X108695012Y-57623665D01*
X108604335Y-57532988D01*
X108533091Y-57426364D01*
X108484017Y-57307890D01*
X108459000Y-57182118D01*
X108459000Y-57053882D01*
X108484017Y-56928110D01*
X108533091Y-56809636D01*
X108604335Y-56703012D01*
X108695012Y-56612335D01*
X108801636Y-56541091D01*
X108920110Y-56492017D01*
X109045881Y-56467000D01*
X109174119Y-56467000D01*
X109299890Y-56492017D01*
G37*
M02*
