%FSLAX45Y45*%
G04 Gerber Fmt 4.5, Leading zero omitted, Abs format (unit mm)*
G04 Created by KiCad (PCBNEW (5.1.5)-3) date 2020-06-18 20:37:26*
%MOMM*%
%LPD*%
G04 APERTURE LIST*
%TA.AperFunction,Profile*%
%ADD10C,0.100000*%
%TD*%
%TA.AperFunction,Profile*%
%ADD11C,0.150000*%
%TD*%
%ADD12C,0.200000*%
%ADD13C,0.300000*%
G04 APERTURE END LIST*
D10*
X7441295Y-11741763D02*
X7441295Y-11741763D01*
D11*
X12877800Y-11734800D02*
X10160000Y-7010400D01*
X7442200Y-11734800D02*
X12877800Y-11734800D01*
X10160000Y-7010400D02*
X7442200Y-11734800D01*
X8585200Y-8966200D02*
G75*
G03X8585200Y-8966200I-508000J0D01*
G01*
X12750800Y-8966200D02*
G75*
G03X12750800Y-8966200I-508000J0D01*
G01*
X10668000Y-12573000D02*
G75*
G03X10668000Y-12573000I-508000J0D01*
G01*
D10*
X15190000Y-10160000D02*
G75*
G03X15190000Y-10160000I-5030000J0D01*
G01*
D12*
X7421500Y-7421500D02*
X7691500Y-7691500D01*
X7691500Y-7421500D02*
X7421500Y-7691500D01*
X7421500Y-12628500D02*
X7691500Y-12898500D01*
X7691500Y-12628500D02*
X7421500Y-12898500D01*
X12628500Y-7421500D02*
X12898500Y-7691500D01*
X12898500Y-7421500D02*
X12628500Y-7691500D01*
X12628500Y-12628500D02*
X12898500Y-12898500D01*
X12898500Y-12628500D02*
X12628500Y-12898500D01*
D13*
X5411428Y-15660714D02*
X5411428Y-15360714D01*
X5482857Y-15360714D01*
X5525714Y-15375000D01*
X5554286Y-15403571D01*
X5568571Y-15432143D01*
X5582857Y-15489286D01*
X5582857Y-15532143D01*
X5568571Y-15589286D01*
X5554286Y-15617857D01*
X5525714Y-15646429D01*
X5482857Y-15660714D01*
X5411428Y-15660714D01*
X5711428Y-15660714D02*
X5711428Y-15460714D01*
X5711428Y-15517857D02*
X5725714Y-15489286D01*
X5740000Y-15475000D01*
X5768571Y-15460714D01*
X5797143Y-15460714D01*
X5897143Y-15660714D02*
X5897143Y-15460714D01*
X5897143Y-15360714D02*
X5882857Y-15375000D01*
X5897143Y-15389286D01*
X5911428Y-15375000D01*
X5897143Y-15360714D01*
X5897143Y-15389286D01*
X6082857Y-15660714D02*
X6054286Y-15646429D01*
X6040000Y-15617857D01*
X6040000Y-15360714D01*
X6240000Y-15660714D02*
X6211428Y-15646429D01*
X6197143Y-15617857D01*
X6197143Y-15360714D01*
X6582857Y-15660714D02*
X6582857Y-15360714D01*
X6682857Y-15575000D01*
X6782857Y-15360714D01*
X6782857Y-15660714D01*
X7054286Y-15660714D02*
X7054286Y-15503571D01*
X7040000Y-15475000D01*
X7011428Y-15460714D01*
X6954286Y-15460714D01*
X6925714Y-15475000D01*
X7054286Y-15646429D02*
X7025714Y-15660714D01*
X6954286Y-15660714D01*
X6925714Y-15646429D01*
X6911428Y-15617857D01*
X6911428Y-15589286D01*
X6925714Y-15560714D01*
X6954286Y-15546429D01*
X7025714Y-15546429D01*
X7054286Y-15532143D01*
X7197143Y-15460714D02*
X7197143Y-15760714D01*
X7197143Y-15475000D02*
X7225714Y-15460714D01*
X7282857Y-15460714D01*
X7311428Y-15475000D01*
X7325714Y-15489286D01*
X7340000Y-15517857D01*
X7340000Y-15603571D01*
X7325714Y-15632143D01*
X7311428Y-15646429D01*
X7282857Y-15660714D01*
X7225714Y-15660714D01*
X7197143Y-15646429D01*
X7468571Y-15632143D02*
X7482857Y-15646429D01*
X7468571Y-15660714D01*
X7454286Y-15646429D01*
X7468571Y-15632143D01*
X7468571Y-15660714D01*
X7468571Y-15475000D02*
X7482857Y-15489286D01*
X7468571Y-15503571D01*
X7454286Y-15489286D01*
X7468571Y-15475000D01*
X7468571Y-15503571D01*
X4855000Y-16020000D02*
X5125000Y-16290000D01*
X5125000Y-16020000D02*
X4855000Y-16290000D01*
X5397143Y-16019286D02*
X5411428Y-16005000D01*
X5440000Y-15990714D01*
X5511428Y-15990714D01*
X5540000Y-16005000D01*
X5554286Y-16019286D01*
X5568571Y-16047857D01*
X5568571Y-16076429D01*
X5554286Y-16119286D01*
X5382857Y-16290714D01*
X5568571Y-16290714D01*
X5697143Y-16262143D02*
X5711428Y-16276429D01*
X5697143Y-16290714D01*
X5682857Y-16276429D01*
X5697143Y-16262143D01*
X5697143Y-16290714D01*
X5811428Y-15990714D02*
X6011428Y-15990714D01*
X5882857Y-16290714D01*
X6182857Y-15990714D02*
X6211428Y-15990714D01*
X6240000Y-16005000D01*
X6254286Y-16019286D01*
X6268571Y-16047857D01*
X6282857Y-16105000D01*
X6282857Y-16176429D01*
X6268571Y-16233571D01*
X6254286Y-16262143D01*
X6240000Y-16276429D01*
X6211428Y-16290714D01*
X6182857Y-16290714D01*
X6154286Y-16276429D01*
X6140000Y-16262143D01*
X6125714Y-16233571D01*
X6111428Y-16176429D01*
X6111428Y-16105000D01*
X6125714Y-16047857D01*
X6140000Y-16019286D01*
X6154286Y-16005000D01*
X6182857Y-15990714D01*
X6411428Y-16290714D02*
X6411428Y-16090714D01*
X6411428Y-16119286D02*
X6425714Y-16105000D01*
X6454286Y-16090714D01*
X6497143Y-16090714D01*
X6525714Y-16105000D01*
X6540000Y-16133571D01*
X6540000Y-16290714D01*
X6540000Y-16133571D02*
X6554286Y-16105000D01*
X6582857Y-16090714D01*
X6625714Y-16090714D01*
X6654286Y-16105000D01*
X6668571Y-16133571D01*
X6668571Y-16290714D01*
X6811428Y-16290714D02*
X6811428Y-16090714D01*
X6811428Y-16119286D02*
X6825714Y-16105000D01*
X6854286Y-16090714D01*
X6897143Y-16090714D01*
X6925714Y-16105000D01*
X6940000Y-16133571D01*
X6940000Y-16290714D01*
X6940000Y-16133571D02*
X6954286Y-16105000D01*
X6982857Y-16090714D01*
X7025714Y-16090714D01*
X7054286Y-16105000D01*
X7068571Y-16133571D01*
X7068571Y-16290714D01*
X7654286Y-15976429D02*
X7397143Y-16362143D01*
X8040000Y-15990714D02*
X8068571Y-15990714D01*
X8097143Y-16005000D01*
X8111428Y-16019286D01*
X8125714Y-16047857D01*
X8140000Y-16105000D01*
X8140000Y-16176429D01*
X8125714Y-16233571D01*
X8111428Y-16262143D01*
X8097143Y-16276429D01*
X8068571Y-16290714D01*
X8040000Y-16290714D01*
X8011428Y-16276429D01*
X7997143Y-16262143D01*
X7982857Y-16233571D01*
X7968571Y-16176429D01*
X7968571Y-16105000D01*
X7982857Y-16047857D01*
X7997143Y-16019286D01*
X8011428Y-16005000D01*
X8040000Y-15990714D01*
X8268571Y-16262143D02*
X8282857Y-16276429D01*
X8268571Y-16290714D01*
X8254286Y-16276429D01*
X8268571Y-16262143D01*
X8268571Y-16290714D01*
X8568571Y-16290714D02*
X8397143Y-16290714D01*
X8482857Y-16290714D02*
X8482857Y-15990714D01*
X8454286Y-16033571D01*
X8425714Y-16062143D01*
X8397143Y-16076429D01*
X8754286Y-15990714D02*
X8782857Y-15990714D01*
X8811428Y-16005000D01*
X8825714Y-16019286D01*
X8840000Y-16047857D01*
X8854286Y-16105000D01*
X8854286Y-16176429D01*
X8840000Y-16233571D01*
X8825714Y-16262143D01*
X8811428Y-16276429D01*
X8782857Y-16290714D01*
X8754286Y-16290714D01*
X8725714Y-16276429D01*
X8711428Y-16262143D01*
X8697143Y-16233571D01*
X8682857Y-16176429D01*
X8682857Y-16105000D01*
X8697143Y-16047857D01*
X8711428Y-16019286D01*
X8725714Y-16005000D01*
X8754286Y-15990714D01*
X9111428Y-15990714D02*
X9054286Y-15990714D01*
X9025714Y-16005000D01*
X9011428Y-16019286D01*
X8982857Y-16062143D01*
X8968571Y-16119286D01*
X8968571Y-16233571D01*
X8982857Y-16262143D01*
X8997143Y-16276429D01*
X9025714Y-16290714D01*
X9082857Y-16290714D01*
X9111428Y-16276429D01*
X9125714Y-16262143D01*
X9140000Y-16233571D01*
X9140000Y-16162143D01*
X9125714Y-16133571D01*
X9111428Y-16119286D01*
X9082857Y-16105000D01*
X9025714Y-16105000D01*
X8997143Y-16119286D01*
X8982857Y-16133571D01*
X8968571Y-16162143D01*
X9254286Y-15990714D02*
X9254286Y-16047857D01*
X9368571Y-15990714D02*
X9368571Y-16047857D01*
X9811428Y-16405000D02*
X9797143Y-16390714D01*
X9768571Y-16347857D01*
X9754286Y-16319286D01*
X9740000Y-16276429D01*
X9725714Y-16205000D01*
X9725714Y-16147857D01*
X9740000Y-16076429D01*
X9754286Y-16033571D01*
X9768571Y-16005000D01*
X9797143Y-15962143D01*
X9811428Y-15947857D01*
X10054286Y-16090714D02*
X10054286Y-16290714D01*
X9982857Y-15976429D02*
X9911428Y-16190714D01*
X10097143Y-16190714D01*
X10440000Y-16290714D02*
X10440000Y-15990714D01*
X10568571Y-16290714D02*
X10568571Y-16133571D01*
X10554286Y-16105000D01*
X10525714Y-16090714D01*
X10482857Y-16090714D01*
X10454286Y-16105000D01*
X10440000Y-16119286D01*
X10754286Y-16290714D02*
X10725714Y-16276429D01*
X10711428Y-16262143D01*
X10697143Y-16233571D01*
X10697143Y-16147857D01*
X10711428Y-16119286D01*
X10725714Y-16105000D01*
X10754286Y-16090714D01*
X10797143Y-16090714D01*
X10825714Y-16105000D01*
X10840000Y-16119286D01*
X10854286Y-16147857D01*
X10854286Y-16233571D01*
X10840000Y-16262143D01*
X10825714Y-16276429D01*
X10797143Y-16290714D01*
X10754286Y-16290714D01*
X11025714Y-16290714D02*
X10997143Y-16276429D01*
X10982857Y-16247857D01*
X10982857Y-15990714D01*
X11254286Y-16276429D02*
X11225714Y-16290714D01*
X11168571Y-16290714D01*
X11140000Y-16276429D01*
X11125714Y-16247857D01*
X11125714Y-16133571D01*
X11140000Y-16105000D01*
X11168571Y-16090714D01*
X11225714Y-16090714D01*
X11254286Y-16105000D01*
X11268571Y-16133571D01*
X11268571Y-16162143D01*
X11125714Y-16190714D01*
X11382857Y-16276429D02*
X11411428Y-16290714D01*
X11468571Y-16290714D01*
X11497143Y-16276429D01*
X11511428Y-16247857D01*
X11511428Y-16233571D01*
X11497143Y-16205000D01*
X11468571Y-16190714D01*
X11425714Y-16190714D01*
X11397143Y-16176429D01*
X11382857Y-16147857D01*
X11382857Y-16133571D01*
X11397143Y-16105000D01*
X11425714Y-16090714D01*
X11468571Y-16090714D01*
X11497143Y-16105000D01*
X11611428Y-16405000D02*
X11625714Y-16390714D01*
X11654286Y-16347857D01*
X11668571Y-16319286D01*
X11682857Y-16276429D01*
X11697143Y-16205000D01*
X11697143Y-16147857D01*
X11682857Y-16076429D01*
X11668571Y-16033571D01*
X11654286Y-16005000D01*
X11625714Y-15962143D01*
X11611428Y-15947857D01*
X12154286Y-16405000D02*
X12140000Y-16390714D01*
X12111428Y-16347857D01*
X12097143Y-16319286D01*
X12082857Y-16276429D01*
X12068571Y-16205000D01*
X12068571Y-16147857D01*
X12082857Y-16076429D01*
X12097143Y-16033571D01*
X12111428Y-16005000D01*
X12140000Y-15962143D01*
X12154286Y-15947857D01*
X12268571Y-16090714D02*
X12268571Y-16290714D01*
X12268571Y-16119286D02*
X12282857Y-16105000D01*
X12311428Y-16090714D01*
X12354286Y-16090714D01*
X12382857Y-16105000D01*
X12397143Y-16133571D01*
X12397143Y-16290714D01*
X12582857Y-16290714D02*
X12554286Y-16276429D01*
X12540000Y-16262143D01*
X12525714Y-16233571D01*
X12525714Y-16147857D01*
X12540000Y-16119286D01*
X12554286Y-16105000D01*
X12582857Y-16090714D01*
X12625714Y-16090714D01*
X12654286Y-16105000D01*
X12668571Y-16119286D01*
X12682857Y-16147857D01*
X12682857Y-16233571D01*
X12668571Y-16262143D01*
X12654286Y-16276429D01*
X12625714Y-16290714D01*
X12582857Y-16290714D01*
X12768571Y-16090714D02*
X12882857Y-16090714D01*
X12811428Y-15990714D02*
X12811428Y-16247857D01*
X12825714Y-16276429D01*
X12854286Y-16290714D01*
X12882857Y-16290714D01*
X13211428Y-16090714D02*
X13211428Y-16390714D01*
X13211428Y-16105000D02*
X13240000Y-16090714D01*
X13297143Y-16090714D01*
X13325714Y-16105000D01*
X13340000Y-16119286D01*
X13354286Y-16147857D01*
X13354286Y-16233571D01*
X13340000Y-16262143D01*
X13325714Y-16276429D01*
X13297143Y-16290714D01*
X13240000Y-16290714D01*
X13211428Y-16276429D01*
X13525714Y-16290714D02*
X13497143Y-16276429D01*
X13482857Y-16247857D01*
X13482857Y-15990714D01*
X13768571Y-16290714D02*
X13768571Y-16133571D01*
X13754286Y-16105000D01*
X13725714Y-16090714D01*
X13668571Y-16090714D01*
X13640000Y-16105000D01*
X13768571Y-16276429D02*
X13740000Y-16290714D01*
X13668571Y-16290714D01*
X13640000Y-16276429D01*
X13625714Y-16247857D01*
X13625714Y-16219286D01*
X13640000Y-16190714D01*
X13668571Y-16176429D01*
X13740000Y-16176429D01*
X13768571Y-16162143D01*
X13868571Y-16090714D02*
X13982857Y-16090714D01*
X13911428Y-15990714D02*
X13911428Y-16247857D01*
X13925714Y-16276429D01*
X13954286Y-16290714D01*
X13982857Y-16290714D01*
X14197143Y-16276429D02*
X14168571Y-16290714D01*
X14111428Y-16290714D01*
X14082857Y-16276429D01*
X14068571Y-16247857D01*
X14068571Y-16133571D01*
X14082857Y-16105000D01*
X14111428Y-16090714D01*
X14168571Y-16090714D01*
X14197143Y-16105000D01*
X14211428Y-16133571D01*
X14211428Y-16162143D01*
X14068571Y-16190714D01*
X14468571Y-16290714D02*
X14468571Y-15990714D01*
X14468571Y-16276429D02*
X14440000Y-16290714D01*
X14382857Y-16290714D01*
X14354286Y-16276429D01*
X14340000Y-16262143D01*
X14325714Y-16233571D01*
X14325714Y-16147857D01*
X14340000Y-16119286D01*
X14354286Y-16105000D01*
X14382857Y-16090714D01*
X14440000Y-16090714D01*
X14468571Y-16105000D01*
X14582857Y-16405000D02*
X14597143Y-16390714D01*
X14625714Y-16347857D01*
X14640000Y-16319286D01*
X14654286Y-16276429D01*
X14668571Y-16205000D01*
X14668571Y-16147857D01*
X14654286Y-16076429D01*
X14640000Y-16033571D01*
X14625714Y-16005000D01*
X14597143Y-15962143D01*
X14582857Y-15947857D01*
M02*
